<svg xmlns="http://www.w3.org/2000/svg" xmlns:xlink="http://www.w3.org/1999/xlink" version="1.1"><metadata>Created by FontForge 20180930 at Mon Oct 8 19:02:27 2018 By root Copyright (c) 2016 by Zetafonts. All rights reserved.</metadata><defs><font id="CocogooseNarrowTrial-Regular" horiz-adv-x="2373"><font-face x-height="1225" ascent="1536" bbox="-136 -437 2323 1919" cap-height="1426" descent="-384" font-family="Cocogoose Narrow Trial" font-stretch="normal" font-weight="400" panose-1="2 0 5 3 2 0 0 2 0 4" underline-position="-192" underline-thickness="96" unicode-range="U+0020-2122" units-per-em="1920"/><glyph glyph-name="space" horiz-adv-x="540"/><glyph d="M150 1383q0 43 42 43h839q39 0 39 -43v-267q0 -42 -39 -42h-511v-206h382q20 0 32 -10.5t12 -33.5v-265q0 -42 -44 -42h-382v-475q0 -42 -42 -42h-286q-42 0 -42 42v1341z" glyph-name="F" horiz-adv-x="1131" unicode="F"/><glyph d="M150 1383q0 43 42 43h280q43 0 43 -43v-472h431v472q0 17 13 30t34 13h283q12 0 26 -7.5t14 -33.5v-1343q0 -42 -46 -42h-277q-21 0 -34 10.5t-13 31.5v517h-431v-517q0 -42 -43 -42h-280q-42 0 -42 42v1341z" glyph-name="H" horiz-adv-x="1466" unicode="H"/><glyph d="M150 1383q0 43 42 43h293q21 0 28 -11t7 -32v-1341q0 -21 -7 -31.5t-28 -10.5h-293q-42 0 -42 42v1341z" glyph-name="I" horiz-adv-x="670" unicode="I"/><glyph d="M607 1385q0 14 5 22.5t11 12.5t12.5 5t9.5 1h280q29 0 39.5 -10.5t10.5 -39.5l-6 -965q-1 -81 -22 -146t-57.5 -114.5t-84.5 -84.5t-101.5 -57t-110.5 -32.5t-110 -10.5q-100 0 -176.5 26t-133 66.5t-93.5 90.5t-59 97q-10 21 -13 43.5t20 34.5l198 105q26 14 42 10.5 t32 -33.5q10 -19 27 -37t38 -32t44.5 -22.5t47.5 -8.5q67 0 108.5 33.5t41.5 103.5v942z" glyph-name="J" horiz-adv-x="1090" unicode="J"/><glyph d="M854 824l448 -779q12 -20 7 -32.5t-24 -12.5h-351q-38 0 -58 41l-260 470l-96 -120v-349q0 -21 -13.5 -31.5t-34.5 -10.5h-280q-42 0 -42 42v1341q0 43 42 43h290q21 0 29.5 -11t8.5 -32v-490l319 501q15 24 29.5 28t37.5 4h330q10 0 15.5 -6t7 -14.5t-1 -18t-7.5 -16.5z" glyph-name="K" horiz-adv-x="1346" unicode="K"/><glyph d="M150 1383q0 43 42 43h287q42 0 42 -43v-1031h423q39 0 39 -42v-268q0 -42 -39 -42h-752q-42 0 -42 42v1341z" glyph-name="L" horiz-adv-x="1056" unicode="L"/><glyph d="M497 826l9 -131l2 -653q0 -42 -39 -42h-281q-38 0 -38 42v1341q0 43 39 43h363q21 0 26 -11t14 -32l271 -637l34 -160l35 162l270 635q9 21 13.5 32t25.5 11h364q39 0 39 -43v-1341q0 -42 -38 -42h-281q-40 0 -40 42l3 654l8 119l-50 -129l-180 -481q-5 -13 -8.5 -21.5 t-8 -13.5t-11.5 -7t-17 -2h-249q-21 0 -27.5 9t-16.5 35l-179 489z" glyph-name="M" horiz-adv-x="1794" unicode="M"/><glyph d="M150 1383q0 43 42 43h535q96 0 177.5 -34t141.5 -92t94 -135t34 -162v-144q0 -92 -37 -170.5t-100 -136.5t-147 -91.5t-178 -34.5h-192v-384q0 -42 -42 -42h-286q-42 0 -42 42v1341zM677 778q27 0 51 9t41 24.5t27 36t10 44.5v68q0 24 -10 45t-27.5 36t-41 24t-50.5 9 h-157v-296h157z" glyph-name="P" horiz-adv-x="1232" unicode="P"/><glyph d="M150 1383q0 43 42 43h535q96 0 178 -34t142 -92t94 -135t34 -162v-99q0 -54 -16 -107.5t-45 -101.5t-68.5 -90t-85.5 -74l52 -79l183 -410q6 -14 1.5 -28t-24.5 -14h-347q-20 0 -29 8.5t-18 31.5l-164 416h-104v-414q0 -21 -8 -31.5t-29 -10.5h-281q-42 0 -42 42v1341z M510 1074v-276h177q27 0 49 9.5t37.5 26t24 38t8.5 45.5v39q0 24 -8.5 45.5t-24 37.5t-37.5 25.5t-49 9.5h-177z" glyph-name="R" horiz-adv-x="1266" unicode="R"/><glyph d="M78 255q-16 30 -19.5 53t25.5 36l224 122q17 8 33 1.5t30 -32.5q13 -24 35.5 -47t51.5 -41.5t62 -30t67 -11.5q64 0 104 24.5t40 72.5q0 32 -20.5 56.5t-60.5 48.5t-99 51t-135 65q-93 45 -153 93.5t-94.5 101t-48 110.5t-13.5 123q0 90 35.5 165t99.5 129t153 84t196 30 q68 0 137 -12.5t133 -42.5t120.5 -80t99.5 -125q17 -30 19 -54t-25 -35l-196 -98q-25 -11 -42.5 -6.5t-36.5 30.5q-30 42 -78.5 63t-105.5 21q-30 0 -55.5 -4.5t-44 -14t-29.5 -24.5t-11 -35q0 -17 7 -32.5t25 -32t49 -34t79 -37.5q109 -45 195 -93t146 -106.5t91.5 -131 t31.5 -166.5q0 -98 -37.5 -179.5t-105.5 -140t-162 -91t-206 -32.5q-87 0 -165.5 21.5t-144.5 60t-117 91.5t-84 116z" glyph-name="S" horiz-adv-x="1156" unicode="S"/><glyph d="M27 1383q0 43 39 43h958q40 0 40 -43v-266q0 -43 -40 -43h-294v-1032q0 -21 -11 -31.5t-31 -10.5h-292q-36 0 -36 42v1032h-294q-39 0 -39 43v266z" glyph-name="T" horiz-adv-x="1090" unicode="T"/><glyph d="M1295 42q15 -42 -25 -42h-310q-21 0 -36 10t-21 32l-37 146h-416l-36 -146q-6 -22 -21 -32t-35 -10h-311q-40 0 -25 42l423 1341q14 43 56 43h315q42 0 56 -43zM535 531h246l-92 369l-31 174l-32 -174z" glyph-name="A" horiz-adv-x="1317" unicode="A"/><glyph d="M500 522q0 -53 15 -93t42 -68t65 -42t84 -14q48 0 85 16t62 45t38 68.5t13 87.5v861q0 17 11 30t31 13h278q21 0 35.5 -13t14.5 -30v-864q0 -141 -47 -245.5t-125.5 -172.5t-181 -101.5t-213.5 -33.5t-215.5 34t-184.5 102.5t-128.5 172.5t-48.5 244v864q0 17 12.5 30 t28.5 13h290q24 0 31.5 -12.5t7.5 -30.5v-861z" glyph-name="U" horiz-adv-x="1404" unicode="U"/><glyph d="M856 43q-14 -43 -56 -43h-315q-42 0 -56 43l-403 1341q-15 42 25 42h311q20 0 35 -10t21 -32l202 -858l21 -119l22 119l204 858q6 22 21 32t36 10h310q38 0 25 -42z" glyph-name="V" horiz-adv-x="1285" unicode="V"/><glyph d="M804 43q-14 -43 -56 -43h-258q-42 0 -57 43l-412 1341q-15 42 24 42h311q44 0 56 -42l195 -837l24 -142l23 142l225 837q12 42 56 42h301q38 0 25 -42l-162 -475l93 -361l18 -129l22 128l205 837q12 42 56 42h301q39 0 24 -42l-412 -1341q-15 -43 -57 -43h-255 q-44 0 -56 43l-88 288l-26 115l-24 -115z" glyph-name="W" horiz-adv-x="1839" unicode="W"/><glyph d="M852 729l386 -687q11 -20 5 -31t-26 -11h-326q-21 0 -32 8t-26 34l-159 345l-32 70l-29 -70l-157 -345q-15 -26 -26.5 -34t-32.5 -8h-325q-20 0 -26 11t5 31l385 686l-369 655q-9 16 -3.5 29.5t25.5 13.5h329q21 0 34 -11.5t24 -31.5l143 -322l27 -71l23 71l143 322 q11 20 24.5 31.5t34.5 11.5h328q20 0 26 -13.5t-4 -29.5z" glyph-name="X" horiz-adv-x="1288" unicode="X"/><glyph d="M407 526l-405 857q-10 20 -2.5 31.5t27.5 11.5h334q21 0 34 -10.5t21 -32.5l150 -409l27 -123l27 123l147 409q8 22 21 32.5t34 10.5h338q20 0 27 -11t-4 -30l-406 -864v-479q0 -42 -39 -42h-292q-39 0 -39 42v484z" glyph-name="Y" horiz-adv-x="1186" unicode="Y"/><glyph d="M1069 1426q36 0 36 -38v-207q0 -12 -7 -24.5t-10 -16.5l-536 -791l96 14h433q34 0 34 -37v-289q0 -37 -34 -37h-953q-35 0 -35 37v211q0 16 2 23t5 12l527 815l-111 -11h-379q-35 0 -35 38v263q0 38 35 38h932z" glyph-name="Z" horiz-adv-x="1211" unicode="Z"/><glyph d="M112 1635q0 43 42 43h287q42 0 42 -43v-2025q0 -42 -42 -42h-287q-42 0 -42 42v2025z" glyph-name="bar" horiz-adv-x="601" unicode="|"/><glyph d="M114 1596l8 8v3q0 14 9 23t23 9h457q14 0 21.5 -8t7.5 -22v-260q0 -14 -10 -22t-21 -8h-138v-1341h140q14 0 21.5 -8t7.5 -22v-260q0 -14 -10 -22t-21 -8h-457q-10 0 -20 7t-10 23v4l-8 8v1896z" glyph-name="bracketleft" horiz-adv-x="688" unicode="["/><glyph d="M570 1604l8 -8v-1896l-8 -8v-4q0 -16 -10 -23t-20 -7h-457q-11 0 -21 8t-10 22v260q0 14 7.5 22t21.5 8h140v1341h-138q-11 0 -21 8t-10 22v260q0 14 7.5 22t21.5 8h457q14 0 23 -9t9 -23v-3z" glyph-name="bracketright" horiz-adv-x="692" unicode="]"/><glyph d="M46 751q0 14 8 23t20 9q59 0 81.5 8t22.5 31v288q0 124 33 208t83 138t109 82.5t112 41.5t91.5 14.5t47.5 1.5q14 0 21.5 -8t7.5 -22v-313q0 -14 -10 -22t-21 -8q-7 0 -25.5 -2t-38.5 -12.5t-35.5 -33.5t-15.5 -65v-384q0 -34 -14.5 -62.5t-39.5 -52.5q25 -23 39.5 -51.5 t14.5 -62.5v-384q0 -42 15.5 -65t35.5 -33.5t38.5 -12.5t25.5 -2q11 0 21 -8t10 -22v-313q0 -14 -7.5 -22t-21.5 -8q-9 0 -47.5 1.5t-91.5 14.5t-112 41.5t-109 82.5t-83 138t-33 208v288q0 23 -22.5 31t-81.5 8q-12 0 -20 9t-8 23v279v0z" glyph-name="braceleft" horiz-adv-x="725" unicode="{"/><glyph d="M89 -50q0 14 8.5 23t22.5 9h892q13 0 21 -8t8 -22v-202q0 -14 -9.5 -22t-21.5 -8h-892q-10 0 -19.5 7t-9.5 23v200z" glyph-name="underscore" horiz-adv-x="1129" unicode="_"/><glyph d="M99 684q0 14 9.5 23t21.5 9h784q14 0 22 -8t8 -22v-219q0 -14 -10 -22t-22 -8h-784q-7 0 -18 7t-11 23v217z" glyph-name="endash" horiz-adv-x="1051" unicode="–"/><glyph d="M72 631q0 35 12.5 66t34 54t51 36t62.5 13q34 0 64 -13t52 -36t34.5 -54t12.5 -66t-12.5 -65.5t-34.5 -53.5t-52 -36t-64 -13q-33 0 -62.5 13t-51 36t-34 53.5t-12.5 65.5z" glyph-name="bullet" horiz-adv-x="438" unicode="•"/><glyph d="M122.84 1076.56v323.427q0 6.52051 1.30469 7.82422q5.21582 2.6084 7.82422 2.6084h83.4609q19.5615 0 35.21 -7.8252q15.6494 -5.21582 28.6904 -18.2578q6.51953 -6.52051 11.7363 -13.6934q5.21582 -7.17285 7.82422 -14.9971q6.52051 -16.9541 6.52051 -35.2119 v-41.7324q0 -24.7783 -9.12891 -41.7324q-9.12793 -19.5625 -24.7773 -29.9951l37.8184 -130.414v-1.30371q0 -3.91309 -1.30371 -5.2168q-2.6084 -2.6084 -5.2168 -2.6084h-48.251q-2.60742 0 -5.21582 2.6084l-2.6084 6.52051l-26.0811 110.852h-36.5146v-110.852 q0 -9.12891 -9.12793 -9.12891h-43.0352q-9.12891 0 -9.12891 9.12891zM425.387 1072.65v3.91211l73.0273 324.73q2.6084 9.12891 10.4336 9.12891h41.7305q7.82422 0 10.4316 -9.12891l71.7246 -324.73q1.30469 -1.30371 1.30469 -3.91211q0 -5.2168 -5.2168 -5.2168 h-48.251q-3.91211 0 -6.52051 2.6084q-3.91211 1.30371 -3.91211 6.52051l-7.82422 48.2529h-65.2041l-7.82422 -48.2529q-1.30371 -3.91211 -3.91211 -6.52051t-6.52051 -2.6084h-48.251q-5.21582 0 -5.21582 5.2168zM-19.3037 1070.04q-1.30469 1.30371 -1.30469 6.52051 v275.173h-50.8584q-3.91211 0 -3.91211 1.30469q-2.6084 2.6084 -2.6084 6.52051v41.7324q0 5.2168 2.6084 6.52051q0 2.6084 3.91211 2.6084h161.705q2.6084 0 5.2168 -2.6084q2.60742 -2.6084 2.60742 -6.52051v-41.7324q0 -1.30371 -2.60742 -6.52051 q-1.30469 -1.30469 -5.2168 -1.30469h-49.5547v-275.173q0 -9.12891 -7.82422 -9.12891h-46.9473q-2.6084 0 -5.21582 2.6084zM653.6 1076.56v323.427q0 5.21582 2.6084 7.82422t6.52051 2.6084h44.3379q3.91309 0 6.52051 -2.6084q2.6084 -2.6084 2.6084 -7.82422v-273.869 h75.6367q7.82422 0 7.82422 -7.8252v-41.7324q0 -9.12891 -7.82422 -9.12891h-129.104q-9.12891 0 -9.12891 9.12891zM343.229 1076.56v323.427q0 6.52051 2.6084 7.82422q2.60742 2.6084 6.51953 2.6084h43.0352q3.91211 0 6.52051 -2.6084t2.6084 -7.82422v-323.427 q0 -9.12891 -9.12891 -9.12891h-43.0352q-9.12793 0 -9.12793 9.12891zM215.43 1246.1q13.041 0 20.8652 7.8252q7.82422 9.12891 7.82422 22.1699v45.6445q0 13.042 -7.82422 20.8662q-9.12891 9.12891 -22.1689 9.12891h-29.9941v-105.635h31.2979zM551.882 1179.59 l-19.5615 125.197l-2.60742 32.6035l-2.6084 -32.6035l-20.8652 -125.197h45.6426z" glyph-name="asciicircum" horiz-adv-x="886" unicode="^"/><glyph d="M38 1383q-18 43 21 43h287q42 0 60 -43l548 -1341q8 -18 4 -30t-24 -12h-291q-43 0 -59 42z" glyph-name="backslash" horiz-adv-x="987" unicode="\"/><glyph d="M132.856 467.761v331.661q0 6.68652 1.33789 8.02344q5.35156 2.6748 8.02637 2.6748h85.6172q20.0664 0 36.1201 -8.02441q16.0537 -5.34863 29.4307 -18.7227q6.68945 -6.68652 12.04 -14.042q5.35156 -7.35547 8.02637 -15.3789q6.68945 -17.3857 6.68945 -36.1084 v-42.7949q0 -25.4092 -9.36426 -42.7949q-9.36426 -20.0605 -25.418 -30.7588l38.7949 -133.734v-1.33691q0 -4.0127 -1.33691 -5.34961q-2.67578 -2.6748 -5.35156 -2.6748h-49.4971q-2.67578 0 -5.35156 2.6748l-2.67578 6.68652l-26.7549 113.674h-37.458v-113.674 q0 -9.36133 -9.36426 -9.36133h-44.1465q-9.36426 0 -9.36426 9.36133zM443.219 463.749v4.01172l74.915 332.998q2.67578 9.36133 10.7021 9.36133h42.8086q8.02734 0 10.7021 -9.36133l73.5771 -332.998q1.33789 -1.33691 1.33789 -4.01172q0 -5.34961 -5.35059 -5.34961 h-49.498q-4.0127 0 -6.68848 2.6748q-4.01367 1.33691 -4.01367 6.68652l-8.02637 49.4814h-66.8887l-8.02637 -49.4814q-1.33789 -4.01172 -4.01367 -6.68652q-2.6748 -2.6748 -6.68848 -2.6748h-49.4971q-5.35156 0 -5.35156 5.34961zM-12.96 461.074 q-1.33789 1.33691 -1.33789 6.68652v282.179h-52.1729q-4.01367 0 -4.01367 1.33789q-2.67578 2.6748 -2.67578 6.68652v42.7949q0 5.34961 2.67578 6.68652q0 2.6748 4.01367 2.6748h165.883q2.67578 0 5.35156 -2.6748t2.67578 -6.68652v-42.7949 q0 -1.33691 -2.67578 -6.68652q-1.33789 -1.33789 -5.35156 -1.33789h-50.835v-282.179q0 -9.36133 -8.02637 -9.36133h-48.1602q-2.6748 0 -5.35059 2.6748zM677.328 467.761v331.661q0 5.34863 2.67578 8.02344t6.68945 2.6748h45.4834q4.01367 0 6.68945 -2.6748 q2.6748 -2.6748 2.6748 -8.02344v-280.842h77.5908q8.02637 0 8.02637 -8.02441v-42.7949q0 -9.36133 -8.02637 -9.36133h-132.438q-9.36523 0 -9.36523 9.36133zM358.939 467.761v331.661q0 6.68652 2.67578 8.02344q2.67578 2.6748 6.68848 2.6748h44.1465 q4.01367 0 6.68848 -2.6748q2.67578 -2.6748 2.67578 -8.02344v-331.661q0 -9.36133 -9.36426 -9.36133h-44.1465q-9.36426 0 -9.36426 9.36133zM227.838 641.615q13.3779 0 21.4043 8.02441q8.02734 9.36133 8.02734 22.7344v46.8066q0 13.374 -8.02734 21.3975 q-9.36426 9.36133 -22.7422 9.36133h-30.7686v-108.324h32.1064zM572.982 573.411l-20.0664 128.385l-2.67578 33.4336l-2.67578 -33.4336l-21.4043 -128.385h46.8223z" glyph-name="asciitilde" horiz-adv-x="1023" unicode="~"/><glyph d="M1176 331q43 -21 15 -75q-41 -77 -93 -131.5t-114.5 -90t-133 -52t-147.5 -16.5q-118 0 -220 35t-179.5 99.5t-126 154.5t-60.5 200h-64q-9 0 -21 8t-12 25v141q0 18 11.5 27.5t21.5 9.5h61v79h-61q-9 0 -21 8t-12 25v141q0 18 11.5 27.5t21.5 9.5h64q11 111 59.5 203.5 t126 159t179.5 103.5t220 37q78 0 148.5 -17t133 -52t115 -90.5t93.5 -131.5q15 -27 12 -45t-17 -24l-216 -106q-17 -8 -32 -7t-26 19q-33 55 -81.5 84.5t-108.5 29.5q-84 0 -144.5 -45t-83.5 -118h204q31 0 31 -34v-144q0 -17 -10 -25t-25 -8h-211v-79h215q31 0 31 -34 v-144q0 -17 -10 -25t-25 -8h-195q25 -68 84 -108.5t139 -40.5q59 0 110 26t80 88q7 14 20.5 19t33.5 -5z" glyph-name="Euro" horiz-adv-x="1254" unicode="€"/><glyph d="M150 1383q0 43 42 43h850q39 0 39 -43v-267q0 -42 -39 -42h-522v-186h393q20 0 32 -10.5t12 -33.5v-265q0 -42 -44 -42h-393v-195h537q40 0 40 -42v-258q0 -42 -40 -42h-865q-42 0 -42 42v1341z" glyph-name="E" horiz-adv-x="1189" unicode="E"/><glyph d="M1036 280q0 21 12 30.5t25 9.5h268q12 0 19.5 -4.5t11.5 -11t5.5 -13t1.5 -10.5v-243q0 -12 -5 -19.5t-11.5 -11.5t-12.5 -5.5t-9 -1.5h-268q-3 0 -9 1.5t-12.5 5.5t-11 11.5t-4.5 19.5v242zM589 280q0 21 12 30.5t25 9.5h268q12 0 19.5 -4.5t11.5 -11t5.5 -13t1.5 -10.5 v-243q0 -12 -5 -19.5t-11.5 -11.5t-12.5 -5.5t-9 -1.5h-268q-3 0 -9 1.5t-12.5 5.5t-11 11.5t-4.5 19.5v242zM127 280q0 21 12 30.5t25 9.5h268q12 0 19.5 -4.5t11.5 -11t5.5 -13t1.5 -10.5v-243q0 -12 -5 -19.5t-11.5 -11.5t-12.5 -5.5t-9 -1.5h-268q-3 0 -9 1.5t-12.5 5.5 t-11 11.5t-4.5 19.5v242z" glyph-name="ellipsis" horiz-adv-x="1492" unicode="…"/><glyph d="M455 959q0 -35 -15.5 -46.5t-34.5 -11.5h-240q-53 0 -53 55v286q0 60 21 99t53 61.5t70.5 31t74.5 8.5q17 0 33.5 -7.5t16.5 -31.5l-1 -71q0 -14 -5.5 -21t-13 -11t-16 -4.5t-16.5 -0.5q-21 0 -28.5 -10.5t-7.5 -42.5q0 -4 2 -12.5t13 -8.5h101q19 0 32.5 -12.5 t13.5 -38.5v-211z" glyph-name="quoteleft" horiz-adv-x="571" unicode="‘"/><glyph d="M117 1367q0 35 15.5 46.5t34.5 11.5h240q53 0 53 -55v-286q0 -60 -21 -99t-53 -61.5t-70.5 -31t-74.5 -8.5q-17 0 -33.5 7.5t-16.5 31.5l1 71q0 13 5 20.5t12.5 11.5t16.5 4.5t17 0.5q21 0 28.5 10.5t7.5 42.5q0 4 -2 12.5t-13 8.5h-101q-19 0 -32.5 12.5t-13.5 38.5v211 z" glyph-name="quoteright" horiz-adv-x="573" unicode="’"/><glyph d="M455 960q0 -35 -15.5 -46.5t-34.5 -11.5h-240q-53 0 -53 55v286q0 60 21 99t53 61.5t70.5 31t74.5 8.5q17 0 33.5 -7.5t16.5 -31.5l-1 -71q0 -14 -5.5 -21t-13 -11t-16 -4.5t-16.5 -0.5q-21 0 -28.5 -10.5t-7.5 -42.5q0 -4 2 -12.5t13 -8.5h101q19 0 32.5 -12.5 t13.5 -38.5v-211zM895 960q0 -35 -15.5 -46.5t-34.5 -11.5h-240q-53 0 -53 55v286q0 60 21 99t53 61.5t70.5 31t74.5 8.5q17 0 33.5 -7.5t16.5 -31.5l-1 -71q0 -14 -5.5 -21t-13 -11t-16 -4.5t-16.5 -0.5q-21 0 -28.5 -10.5t-7.5 -42.5q0 -4 2 -12.5t13 -8.5h101 q19 0 32.5 -12.5t13.5 -38.5v-211z" glyph-name="quotedblleft" horiz-adv-x="1012" unicode="“"/><glyph d="M117 1368q0 35 15.5 46.5t34.5 11.5h240q53 0 53 -55v-286q0 -60 -21 -99t-53 -61.5t-70.5 -31t-74.5 -8.5q-17 0 -33.5 7.5t-16.5 31.5l1 71q0 13 5 20.5t12.5 11.5t16.5 4.5t17 0.5q21 0 28.5 10.5t7.5 42.5q0 4 -2 12.5t-13 8.5h-101q-19 0 -32.5 12.5t-13.5 38.5v211 zM556 1368q0 35 15.5 46.5t34.5 11.5h240q53 0 53 -55v-286q0 -60 -21 -99t-53 -61.5t-70.5 -31t-74.5 -8.5q-17 0 -33.5 7.5t-16.5 31.5l1 71q0 13 5 20.5t12.5 11.5t16.5 4.5t17 0.5q21 0 28.5 10.5t7.5 42.5q0 4 -2 12.5t-13 8.5h-101q-19 0 -32.5 12.5t-13.5 38.5v211z" glyph-name="quotedblright" horiz-adv-x="1013" unicode="”"/><glyph d="M491 825h249q14 0 21.5 -8t7.5 -22v-221q0 -14 -9.5 -22t-21.5 -8h-247v-204h427q39 0 39 -42v-256q0 -42 -39 -42h-758q-39 0 -39 42v948q0 101 36 184.5t97.5 143.5t144.5 93t176 33q43 0 82 -4.5t76 -15.5t74 -29.5t75 -45.5q5 -4 14 -11.5t16 -18t9.5 -22t-4.5 -23.5 l-123 -183q-12 -18 -23 -24.5t-21.5 -6t-20 6t-17.5 12.5q-23 19 -50.5 25.5t-50.5 6.5q-29 0 -51.5 -11.5t-37.5 -29t-23 -39t-8 -42.5v-164z" glyph-name="sterling" horiz-adv-x="1010" unicode="£"/><glyph d="M460 975q-12 0 -21 8.5t-9 22.5v389q0 29 28 29h316q14 0 20.5 -9t6.5 -22v-389q0 -8 -6.5 -18.5t-20.5 -10.5h-314zM460 -204q-12 0 -21 8.5t-9 22.5v389q0 29 28 29h316q14 0 20.5 -9t6.5 -22v-389q0 -8 -6.5 -18.5t-20.5 -10.5h-314zM80 719q0 113 41 210.5 t113.5 169.5t172 113.5t216.5 41.5q69 0 132.5 -20.5t116 -56t93.5 -83t65 -100.5q8 -17 10 -29.5t-10 -18.5l-229 -113q-11 -5 -22.5 -3.5t-19.5 15.5q-9 16 -23.5 31t-33 26.5t-40 18.5t-44.5 7q-42 0 -76 -15t-57.5 -43t-36 -66.5t-12.5 -85.5v-216q0 -51 14 -90 t38 -65.5t57.5 -40t72.5 -13.5q47 0 81.5 23.5t60.5 59.5q10 14 20 15t21 -4l229 -113q11 -9 10 -20t-9 -28q-24 -54 -65.5 -101t-95 -82.5t-117 -56t-133.5 -20.5q-78 0 -148.5 19t-130.5 53.5t-108.5 83t-82 107.5t-52 126.5t-18.5 140.5v223z" glyph-name="cent" horiz-adv-x="1093" unicode="¢"/><glyph d="M35 629q0 14 8 23t20 9h177v722q0 43 40 43h181q40 0 40 -43v-722h175q13 0 19.5 -8t6.5 -22v-198q0 -14 -8.5 -22t-19.5 -8h-173v-729q0 -42 -39 -42h-182q-40 0 -40 42v729h-179q-7 0 -16.5 7t-9.5 23v196z" glyph-name="dagger" horiz-adv-x="736" unicode="†"/><glyph d="M48 427q0 14 7.5 23t19.5 9h165v211h-167q-7 0 -16 7t-9 23v196q0 14 7.5 23t19.5 9h165v455q0 43 40 43h181q40 0 40 -43v-455h187q14 0 20 -8t6 -22v-198q0 -14 -8 -22t-20 -8h-185v-211h187q14 0 20 -8t6 -22v-198q0 -14 -8 -22t-20 -8h-185v-527q0 -42 -39 -42h-182 q-40 0 -40 42v527h-167q-7 0 -16 7t-9 23v196z" glyph-name="daggerdbl" horiz-adv-x="762" unicode="‡"/><glyph d="M201 169l368 -6v-177q0 -92 -35.5 -166.5t-100 -127t-154.5 -80.5t-200 -28q-35 0 -47 11.5t-12 44.5v222q0 32 16.5 42.5t42.5 10.5q28 0 50.5 4.5t38.5 17t24.5 35.5t8.5 61v136zM201 889h-108q-17 0 -28.5 10t-11.5 29v258q0 18 11.5 28.5t28.5 10.5h108 q0 91 19.5 170t73.5 132.5t151 76t253 0.5q34 -5 46.5 -17t12.5 -47v-175q0 -32 -16.5 -45t-42.5 -8q-38 7 -62.5 5.5t-38.5 -12t-20.5 -30.5t-7.5 -50h152q18 0 29 -12t11 -27v-258q0 -19 -11 -29t-29 -10h-152v-848q0 -41 -39 -41h-290q-39 0 -39 41v848z" glyph-name="florin" horiz-adv-x="784" unicode="ƒ"/><glyph d="M425 1428q16 0 16 -14v-123q0 -10 -5.5 -15.5t-10.5 -5.5h-101v-405q0 -19 -7 -21t-15 -2h-129q-1 0 -9 4t-8 15v409h-98q-12 0 -14.5 6.5t-2.5 12.5v111q0 8 1.5 18t15.5 10h367zM1017 856q0 -8 -3 -10.5t-13 -2.5h-123q-11 0 -13.5 4.5t-2.5 9.5l-7 286l-44 -230 q-1 -13 -13 -13h-95q-9 0 -12 13l-51 232l-7 -287q-1 -9 -4 -11.5t-10 -2.5h-117q-14 0 -19 4t-4 12l19 557q0 5 3 9t8 4h174q14 0 18.5 -2.5t6.5 -10.5l43 -222l35 216q1 5 7 12t34 7h147q7 0 13.5 -3t7.5 -11z" glyph-name="trademark" horiz-adv-x="1082" unicode="™"/><glyph d="M210 304q0 18 11.5 27.5t21.5 9.5h709q15 0 24 -8.5t9 -25.5v-124q0 -17 -11 -25t-26 -8h-705q-9 0 -21 8t-12 25v121zM210 577q0 18 11.5 27.5t21.5 9.5h709q15 0 24 -8.5t9 -25.5v-124q0 -17 -11 -25t-26 -8h-705q-9 0 -21 8t-12 25v121zM407 526l-405 857 q-10 20 -2.5 31.5t27.5 11.5h334q21 0 34 -10.5t21 -32.5l150 -409l27 -123l27 123l147 409q8 22 21 32.5t34 10.5h338q20 0 27 -11t-4 -30l-406 -864v-479q0 -42 -39 -42h-292q-39 0 -39 42v484z" glyph-name="yen" horiz-adv-x="1186" unicode="¥"/><glyph d="M129 684q0 14 9.5 23t21.5 9h1111q14 0 22 -8t8 -22v-219q0 -14 -10 -22t-22 -8h-1111q-7 0 -18 7t-11 23v217z" glyph-name="emdash" horiz-adv-x="1433" unicode="—"/><glyph d="M645 569q0 -10 -3 -13.5t-10 -11.5l-370 -401q-5 -5 -15.5 -8.5t-22.5 7.5l-162 147q-9 8 -10.5 21t8.5 24l222 235l-222 233q-9 10 -8 24t10 22l163 148q12 11 22 7.5t15 -8.5l369 -401q8 -8 11 -12t3 -13z" glyph-name="guilsinglright" horiz-adv-x="740" unicode="›"/><glyph d="M150 1383q0 43 42 43h294q10 0 18 0.5t15 -2.5t14.5 -12t17.5 -29l340 -573l62 -129l-11 129v573q0 17 10.5 30t31.5 13h288q12 0 26 -7.5t14 -33.5v-1343q0 -42 -46 -42h-243q-21 0 -38 10.5t-28 31.5l-392 638l-57 110l13 -109v-639q0 -42 -42 -42h-287q-42 0 -42 42 v1341z" glyph-name="N" horiz-adv-x="1462" unicode="N"/><glyph d="M371 1637v248q0 5 1 6q4 2 6 2h64q15 0 27 -6q12 -4 22 -14q5 -5 9 -10.5t6 -11.5q5 -13 5 -27v-32q0 -19 -7 -32q-7 -15 -19 -23l29 -100v-1q0 -3 -1 -4q-2 -2 -4 -2h-37q-2 0 -4 2l-2 5l-20 85h-28v-85q0 -7 -7 -7h-33q-7 0 -7 7zM603 1634v3l56 249q2 7 8 7h32 q6 0 8 -7l55 -249q1 -1 1 -3q0 -4 -4 -4h-37q-3 0 -5 2q-3 1 -3 5l-6 37h-50l-6 -37q-1 -3 -3 -5t-5 -2h-37q-4 0 -4 4zM262 1632q-1 1 -1 5v211h-39q-3 0 -3 1q-2 2 -2 5v32q0 4 2 5q0 2 3 2h124q2 0 4 -2t2 -5v-32q0 -1 -2 -5q-1 -1 -4 -1h-38v-211q0 -7 -6 -7h-36 q-2 0 -4 2zM778 1637v248q0 4 2 6t5 2h34q3 0 5 -2t2 -6v-210h58q6 0 6 -6v-32q0 -7 -6 -7h-99q-7 0 -7 7zM540 1637v248q0 5 2 6q2 2 5 2h33q3 0 5 -2t2 -6v-248q0 -7 -7 -7h-33q-7 0 -7 7zM442 1767q10 0 16 6q6 7 6 17v35q0 10 -6 16q-7 7 -17 7h-23v-81h24zM700 1716 l-15 96l-2 25l-2 -25l-16 -96h35zM1069 1426q36 0 36 -38v-207q0 -12 -7 -24.5t-10 -16.5l-536 -791l96 14h433q34 0 34 -37v-289q0 -37 -34 -37h-953q-35 0 -35 37v211q0 16 2 23t5 12l527 815l-111 -11h-379q-35 0 -35 38v263q0 38 35 38h932z" glyph-name="Zcaron" horiz-adv-x="1211" unicode="Ž"/><glyph d="M139 1190q0 12 4.5 19.5t11 11.5t12.5 5.5t9 1.5h275q3 0 9 -1.5t12.5 -5.5t11.5 -11.5t5 -19.5v-243q0 -4 -1.5 -10.5t-5.5 -13t-11.5 -11t-19.5 -4.5h-276q-12 0 -24 9.5t-12 30.5v242zM139 737q0 42 42 42h264q42 0 42 -42v-892q0 -43 -42 -43h-264q-42 0 -42 43v892z" glyph-name="exclamdown" horiz-adv-x="626" unicode="¡"/><glyph d="M150 1383q0 43 42 43h850q39 0 39 -43v-267q0 -42 -39 -42h-522v-186h393q20 0 32 -10.5t12 -33.5v-265q0 -42 -44 -42h-393v-195h537q40 0 40 -42v-258q0 -42 -40 -42h-865q-42 0 -42 42v1341zM383 1663v248q0 5 1 6q4 2 6 2h64q15 0 27 -6q12 -4 22 -14q5 -5 9 -10.5 t6 -11.5q5 -13 5 -27v-32q0 -19 -7 -32q-7 -15 -19 -23l29 -100v-1q0 -3 -1 -4q-2 -2 -4 -2h-37q-2 0 -4 2l-2 5l-20 85h-28v-85q0 -7 -7 -7h-33q-7 0 -7 7zM615 1660v3l56 249q2 7 8 7h32q6 0 8 -7l55 -249q1 -1 1 -3q0 -4 -4 -4h-37q-3 0 -5 2q-3 1 -3 5l-6 37h-50l-6 -37 q-1 -3 -3 -5t-5 -2h-37q-4 0 -4 4zM274 1658q-1 1 -1 5v211h-39q-3 0 -3 1q-2 2 -2 5v32q0 4 2 5q0 2 3 2h124q2 0 4 -2t2 -5v-32q0 -1 -2 -5q-1 -1 -4 -1h-38v-211q0 -7 -6 -7h-36q-2 0 -4 2zM790 1663v248q0 4 2 6t5 2h34q3 0 5 -2t2 -6v-210h58q6 0 6 -6v-32q0 -7 -6 -7 h-99q-7 0 -7 7zM552 1663v248q0 5 2 6q2 2 5 2h33q3 0 5 -2t2 -6v-248q0 -7 -7 -7h-33q-7 0 -7 7zM454 1793q10 0 16 6q6 7 6 17v35q0 10 -6 16q-7 7 -17 7h-23v-81h24zM712 1742l-15 96l-2 25l-2 -25l-16 -96h35z" glyph-name="Ecircumflex" horiz-adv-x="1189" unicode="Ê"/><glyph d="M150 1383q0 43 42 43h850q39 0 39 -43v-267q0 -42 -39 -42h-522v-186h393q20 0 32 -10.5t12 -33.5v-265q0 -42 -44 -42h-393v-195h537q40 0 40 -42v-258q0 -42 -40 -42h-865q-42 0 -42 42v1341zM331 1610v248q0 5 1 6q4 2 6 2h64q15 0 27 -6q12 -4 22 -14q5 -5 9 -10.5 t6 -11.5q5 -13 5 -27v-32q0 -19 -7 -32q-7 -15 -19 -23l29 -100v-1q0 -3 -1 -4q-2 -2 -4 -2h-37q-2 0 -4 2l-2 5l-20 85h-28v-85q0 -7 -7 -7h-33q-7 0 -7 7zM563 1607v3l56 249q2 7 8 7h32q6 0 8 -7l55 -249q1 -1 1 -3q0 -4 -4 -4h-37q-3 0 -5 2q-3 1 -3 5l-6 37h-50l-6 -37 q-1 -3 -3 -5t-5 -2h-37q-4 0 -4 4zM222 1605q-1 1 -1 5v211h-39q-3 0 -3 1q-2 2 -2 5v32q0 4 2 5q0 2 3 2h124q2 0 4 -2t2 -5v-32q0 -1 -2 -5q-1 -1 -4 -1h-38v-211q0 -7 -6 -7h-36q-2 0 -4 2zM738 1610v248q0 4 2 6t5 2h34q3 0 5 -2t2 -6v-210h58q6 0 6 -6v-32q0 -7 -6 -7 h-99q-7 0 -7 7zM500 1610v248q0 5 2 6q2 2 5 2h33q3 0 5 -2t2 -6v-248q0 -7 -7 -7h-33q-7 0 -7 7zM402 1740q10 0 16 6q6 7 6 17v35q0 10 -6 16q-7 7 -17 7h-23v-81h24zM660 1689l-15 96l-2 25l-2 -25l-16 -96h35z" glyph-name="Edieresis" horiz-adv-x="1189" unicode="Ë"/><glyph d="M150 1383q0 43 42 43h293q21 0 28 -11t7 -32v-1341q0 -21 -7 -31.5t-28 -10.5h-293q-42 0 -42 42v1341zM65 1611v248q0 5 1 6q4 2 6 2h64q15 0 27 -6q12 -4 22 -14q5 -5 9 -10.5t6 -11.5q5 -13 5 -27v-32q0 -19 -7 -32q-7 -15 -19 -23l29 -100v-1q0 -3 -1 -4q-2 -2 -4 -2 h-37q-2 0 -4 2l-2 5l-20 85h-28v-85q0 -7 -7 -7h-33q-7 0 -7 7zM297 1608v3l56 249q2 7 8 7h32q6 0 8 -7l55 -249q1 -1 1 -3q0 -4 -4 -4h-37q-3 0 -5 2q-3 1 -3 5l-6 37h-50l-6 -37q-1 -3 -3 -5t-5 -2h-37q-4 0 -4 4zM-44 1606q-1 1 -1 5v211h-39q-3 0 -3 1q-2 2 -2 5v32 q0 4 2 5q0 2 3 2h124q2 0 4 -2t2 -5v-32q0 -1 -2 -5q-1 -1 -4 -1h-38v-211q0 -7 -6 -7h-36q-2 0 -4 2zM472 1611v248q0 4 2 6t5 2h34q3 0 5 -2t2 -6v-210h58q6 0 6 -6v-32q0 -7 -6 -7h-99q-7 0 -7 7zM234 1611v248q0 5 2 6q2 2 5 2h33q3 0 5 -2t2 -6v-248q0 -7 -7 -7h-33 q-7 0 -7 7zM136 1741q10 0 16 6q6 7 6 17v35q0 10 -6 16q-7 7 -17 7h-23v-81h24zM394 1690l-15 96l-2 25l-2 -25l-16 -96h35z" glyph-name="Igrave" horiz-adv-x="670" unicode="Ì"/><glyph d="M150 1383q0 43 42 43h293q21 0 28 -11t7 -32v-1341q0 -21 -7 -31.5t-28 -10.5h-293q-42 0 -42 42v1341zM196 1606v248q0 5 1 6q4 2 6 2h64q15 0 27 -6q12 -4 22 -14q5 -5 9 -10.5t6 -11.5q5 -13 5 -27v-32q0 -19 -7 -32q-7 -15 -19 -23l29 -100v-1q0 -3 -1 -4 q-2 -2 -4 -2h-37q-2 0 -4 2l-2 5l-20 85h-28v-85q0 -7 -7 -7h-33q-7 0 -7 7zM428 1603v3l56 249q2 7 8 7h32q6 0 8 -7l55 -249q1 -1 1 -3q0 -4 -4 -4h-37q-3 0 -5 2q-3 1 -3 5l-6 37h-50l-6 -37q-1 -3 -3 -5t-5 -2h-37q-4 0 -4 4zM87 1601q-1 1 -1 5v211h-39q-3 0 -3 1 q-2 2 -2 5v32q0 4 2 5q0 2 3 2h124q2 0 4 -2t2 -5v-32q0 -1 -2 -5q-1 -1 -4 -1h-38v-211q0 -7 -6 -7h-36q-2 0 -4 2zM603 1606v248q0 4 2 6t5 2h34q3 0 5 -2t2 -6v-210h58q6 0 6 -6v-32q0 -7 -6 -7h-99q-7 0 -7 7zM365 1606v248q0 5 2 6q2 2 5 2h33q3 0 5 -2t2 -6v-248 q0 -7 -7 -7h-33q-7 0 -7 7zM267 1736q10 0 16 6q6 7 6 17v35q0 10 -6 16q-7 7 -17 7h-23v-81h24zM525 1685l-15 96l-2 25l-2 -25l-16 -96h35z" glyph-name="Iacute" horiz-adv-x="670" unicode="Í"/><glyph d="M150 1383q0 43 42 43h293q21 0 28 -11t7 -32v-1341q0 -21 -7 -31.5t-28 -10.5h-293q-42 0 -42 42v1341zM90 1599v248q0 5 1 6q4 2 6 2h64q15 0 27 -6q12 -4 22 -14q5 -5 9 -10.5t6 -11.5q5 -13 5 -27v-32q0 -19 -7 -32q-7 -15 -19 -23l29 -100v-1q0 -3 -1 -4q-2 -2 -4 -2 h-37q-2 0 -4 2l-2 5l-20 85h-28v-85q0 -7 -7 -7h-33q-7 0 -7 7zM322 1596v3l56 249q2 7 8 7h32q6 0 8 -7l55 -249q1 -1 1 -3q0 -4 -4 -4h-37q-3 0 -5 2q-3 1 -3 5l-6 37h-50l-6 -37q-1 -3 -3 -5t-5 -2h-37q-4 0 -4 4zM-19 1594q-1 1 -1 5v211h-39q-3 0 -3 1q-2 2 -2 5v32 q0 4 2 5q0 2 3 2h124q2 0 4 -2t2 -5v-32q0 -1 -2 -5q-1 -1 -4 -1h-38v-211q0 -7 -6 -7h-36q-2 0 -4 2zM497 1599v248q0 4 2 6t5 2h34q3 0 5 -2t2 -6v-210h58q6 0 6 -6v-32q0 -7 -6 -7h-99q-7 0 -7 7zM259 1599v248q0 5 2 6q2 2 5 2h33q3 0 5 -2t2 -6v-248q0 -7 -7 -7h-33 q-7 0 -7 7zM161 1729q10 0 16 6q6 7 6 17v35q0 10 -6 16q-7 7 -17 7h-23v-81h24zM419 1678l-15 96l-2 25l-2 -25l-16 -96h35z" glyph-name="Icircumflex" horiz-adv-x="670" unicode="Î"/><glyph d="M150 1383q0 43 42 43h293q21 0 28 -11t7 -32v-1341q0 -21 -7 -31.5t-28 -10.5h-293q-42 0 -42 42v1341zM46 1603v248q0 5 1 6q4 2 6 2h64q15 0 27 -6q12 -4 22 -14q5 -5 9 -10.5t6 -11.5q5 -13 5 -27v-32q0 -19 -7 -32q-7 -15 -19 -23l29 -100v-1q0 -3 -1 -4q-2 -2 -4 -2 h-37q-2 0 -4 2l-2 5l-20 85h-28v-85q0 -7 -7 -7h-33q-7 0 -7 7zM278 1600v3l56 249q2 7 8 7h32q6 0 8 -7l55 -249q1 -1 1 -3q0 -4 -4 -4h-37q-3 0 -5 2q-3 1 -3 5l-6 37h-50l-6 -37q-1 -3 -3 -5t-5 -2h-37q-4 0 -4 4zM-63 1598q-1 1 -1 5v211h-39q-3 0 -3 1q-2 2 -2 5v32 q0 4 2 5q0 2 3 2h124q2 0 4 -2t2 -5v-32q0 -1 -2 -5q-1 -1 -4 -1h-38v-211q0 -7 -6 -7h-36q-2 0 -4 2zM453 1603v248q0 4 2 6t5 2h34q3 0 5 -2t2 -6v-210h58q6 0 6 -6v-32q0 -7 -6 -7h-99q-7 0 -7 7zM215 1603v248q0 5 2 6q2 2 5 2h33q3 0 5 -2t2 -6v-248q0 -7 -7 -7h-33 q-7 0 -7 7zM117 1733q10 0 16 6q6 7 6 17v35q0 10 -6 16q-7 7 -17 7h-23v-81h24zM375 1682l-15 96l-2 25l-2 -25l-16 -96h35z" glyph-name="Idieresis" horiz-adv-x="670" unicode="Ï"/><glyph d="M150 1383q0 43 42 43h294q10 0 18 0.5t15 -2.5t14.5 -12t17.5 -29l340 -573l62 -129l-11 129v573q0 17 10.5 30t31.5 13h288q12 0 26 -7.5t14 -33.5v-1343q0 -42 -46 -42h-243q-21 0 -38 10.5t-28 31.5l-392 638l-57 110l13 -109v-639q0 -42 -42 -42h-287q-42 0 -42 42 v1341zM474 1604v248q0 5 1 6q4 2 6 2h64q15 0 27 -6q12 -4 22 -14q5 -5 9 -10.5t6 -11.5q5 -13 5 -27v-32q0 -19 -7 -32q-7 -15 -19 -23l29 -100v-1q0 -3 -1 -4q-2 -2 -4 -2h-37q-2 0 -4 2l-2 5l-20 85h-28v-85q0 -7 -7 -7h-33q-7 0 -7 7zM706 1601v3l56 249q2 7 8 7h32 q6 0 8 -7l55 -249q1 -1 1 -3q0 -4 -4 -4h-37q-3 0 -5 2q-3 1 -3 5l-6 37h-50l-6 -37q-1 -3 -3 -5t-5 -2h-37q-4 0 -4 4zM365 1599q-1 1 -1 5v211h-39q-3 0 -3 1q-2 2 -2 5v32q0 4 2 5q0 2 3 2h124q2 0 4 -2t2 -5v-32q0 -1 -2 -5q-1 -1 -4 -1h-38v-211q0 -7 -6 -7h-36 q-2 0 -4 2zM881 1604v248q0 4 2 6t5 2h34q3 0 5 -2t2 -6v-210h58q6 0 6 -6v-32q0 -7 -6 -7h-99q-7 0 -7 7zM643 1604v248q0 5 2 6q2 2 5 2h33q3 0 5 -2t2 -6v-248q0 -7 -7 -7h-33q-7 0 -7 7zM545 1734q10 0 16 6q6 7 6 17v35q0 10 -6 16q-7 7 -17 7h-23v-81h24zM803 1683 l-15 96l-2 25l-2 -25l-16 -96h35z" glyph-name="Ntilde" horiz-adv-x="1462" unicode="Ñ"/><glyph d="M500 522q0 -53 15 -93t42 -68t65 -42t84 -14q48 0 85 16t62 45t38 68.5t13 87.5v861q0 17 11 30t31 13h278q21 0 35.5 -13t14.5 -30v-864q0 -141 -47 -245.5t-125.5 -172.5t-181 -101.5t-213.5 -33.5t-215.5 34t-184.5 102.5t-128.5 172.5t-48.5 244v864q0 17 12.5 30 t28.5 13h290q24 0 31.5 -12.5t7.5 -30.5v-861zM453 1584v248q0 5 1 6q4 2 6 2h64q15 0 27 -6q12 -4 22 -14q5 -5 9 -10.5t6 -11.5q5 -13 5 -27v-32q0 -19 -7 -32q-7 -15 -19 -23l29 -100v-1q0 -3 -1 -4q-2 -2 -4 -2h-37q-2 0 -4 2l-2 5l-20 85h-28v-85q0 -7 -7 -7h-33 q-7 0 -7 7zM685 1581v3l56 249q2 7 8 7h32q6 0 8 -7l55 -249q1 -1 1 -3q0 -4 -4 -4h-37q-3 0 -5 2q-3 1 -3 5l-6 37h-50l-6 -37q-1 -3 -3 -5t-5 -2h-37q-4 0 -4 4zM344 1579q-1 1 -1 5v211h-39q-3 0 -3 1q-2 2 -2 5v32q0 4 2 5q0 2 3 2h124q2 0 4 -2t2 -5v-32q0 -1 -2 -5 q-1 -1 -4 -1h-38v-211q0 -7 -6 -7h-36q-2 0 -4 2zM860 1584v248q0 4 2 6t5 2h34q3 0 5 -2t2 -6v-210h58q6 0 6 -6v-32q0 -7 -6 -7h-99q-7 0 -7 7zM622 1584v248q0 5 2 6q2 2 5 2h33q3 0 5 -2t2 -6v-248q0 -7 -7 -7h-33q-7 0 -7 7zM524 1714q10 0 16 6q6 7 6 17v35 q0 10 -6 16q-7 7 -17 7h-23v-81h24zM782 1663l-15 96l-2 25l-2 -25l-16 -96h35z" glyph-name="Ucircumflex" horiz-adv-x="1404" unicode="Û"/><glyph d="M500 522q0 -53 15 -93t42 -68t65 -42t84 -14q48 0 85 16t62 45t38 68.5t13 87.5v861q0 17 11 30t31 13h278q21 0 35.5 -13t14.5 -30v-864q0 -141 -47 -245.5t-125.5 -172.5t-181 -101.5t-213.5 -33.5t-215.5 34t-184.5 102.5t-128.5 172.5t-48.5 244v864q0 17 12.5 30 t28.5 13h290q24 0 31.5 -12.5t7.5 -30.5v-861zM412 1615v248q0 5 1 6q4 2 6 2h64q15 0 27 -6q12 -4 22 -14q5 -5 9 -10.5t6 -11.5q5 -13 5 -27v-32q0 -19 -7 -32q-7 -15 -19 -23l29 -100v-1q0 -3 -1 -4q-2 -2 -4 -2h-37q-2 0 -4 2l-2 5l-20 85h-28v-85q0 -7 -7 -7h-33 q-7 0 -7 7zM644 1612v3l56 249q2 7 8 7h32q6 0 8 -7l55 -249q1 -1 1 -3q0 -4 -4 -4h-37q-3 0 -5 2q-3 1 -3 5l-6 37h-50l-6 -37q-1 -3 -3 -5t-5 -2h-37q-4 0 -4 4zM303 1610q-1 1 -1 5v211h-39q-3 0 -3 1q-2 2 -2 5v32q0 4 2 5q0 2 3 2h124q2 0 4 -2t2 -5v-32q0 -1 -2 -5 q-1 -1 -4 -1h-38v-211q0 -7 -6 -7h-36q-2 0 -4 2zM819 1615v248q0 4 2 6t5 2h34q3 0 5 -2t2 -6v-210h58q6 0 6 -6v-32q0 -7 -6 -7h-99q-7 0 -7 7zM581 1615v248q0 5 2 6q2 2 5 2h33q3 0 5 -2t2 -6v-248q0 -7 -7 -7h-33q-7 0 -7 7zM483 1745q10 0 16 6q6 7 6 17v35 q0 10 -6 16q-7 7 -17 7h-23v-81h24zM741 1694l-15 96l-2 25l-2 -25l-16 -96h35z" glyph-name="Udieresis" horiz-adv-x="1404" unicode="Ü"/><glyph d="M140 1183q0 21 13.5 31.5t28.5 10.5h285q18 0 30 -11.5t12 -30.5v-1141q0 -42 -42 -42h-285q-42 0 -42 42v1141zM74 1407v248q0 5 1 6q4 2 6 2h64q15 0 27 -6q12 -4 22 -14q5 -5 9 -10.5t6 -11.5q5 -13 5 -27v-32q0 -19 -7 -32q-7 -15 -19 -23l29 -100v-1q0 -3 -1 -4 q-2 -2 -4 -2h-37q-2 0 -4 2l-2 5l-20 85h-28v-85q0 -7 -7 -7h-33q-7 0 -7 7zM306 1404v3l56 249q2 7 8 7h32q6 0 8 -7l55 -249q1 -1 1 -3q0 -4 -4 -4h-37q-3 0 -5 2q-3 1 -3 5l-6 37h-50l-6 -37q-1 -3 -3 -5t-5 -2h-37q-4 0 -4 4zM-35 1402q-1 1 -1 5v211h-39q-3 0 -3 1 q-2 2 -2 5v32q0 4 2 5q0 2 3 2h124q2 0 4 -2t2 -5v-32q0 -1 -2 -5q-1 -1 -4 -1h-38v-211q0 -7 -6 -7h-36q-2 0 -4 2zM481 1407v248q0 4 2 6t5 2h34q3 0 5 -2t2 -6v-210h58q6 0 6 -6v-32q0 -7 -6 -7h-99q-7 0 -7 7zM243 1407v248q0 5 2 6q2 2 5 2h33q3 0 5 -2t2 -6v-248 q0 -7 -7 -7h-33q-7 0 -7 7zM145 1537q10 0 16 6q6 7 6 17v35q0 10 -6 16q-7 7 -17 7h-23v-81h24zM403 1486l-15 96l-2 25l-2 -25l-16 -96h35z" glyph-name="icircumflex" horiz-adv-x="649" unicode="î"/><glyph d="M140 1183q0 21 13.5 31.5t28.5 10.5h285q18 0 30 -11.5t12 -30.5v-1141q0 -42 -42 -42h-285q-42 0 -42 42v1141zM26 1395v248q0 5 1 6q4 2 6 2h64q15 0 27 -6q12 -4 22 -14q5 -5 9 -10.5t6 -11.5q5 -13 5 -27v-32q0 -19 -7 -32q-7 -15 -19 -23l29 -100v-1q0 -3 -1 -4 q-2 -2 -4 -2h-37q-2 0 -4 2l-2 5l-20 85h-28v-85q0 -7 -7 -7h-33q-7 0 -7 7zM258 1392v3l56 249q2 7 8 7h32q6 0 8 -7l55 -249q1 -1 1 -3q0 -4 -4 -4h-37q-3 0 -5 2q-3 1 -3 5l-6 37h-50l-6 -37q-1 -3 -3 -5t-5 -2h-37q-4 0 -4 4zM-83 1390q-1 1 -1 5v211h-39q-3 0 -3 1 q-2 2 -2 5v32q0 4 2 5q0 2 3 2h124q2 0 4 -2t2 -5v-32q0 -1 -2 -5q-1 -1 -4 -1h-38v-211q0 -7 -6 -7h-36q-2 0 -4 2zM433 1395v248q0 4 2 6t5 2h34q3 0 5 -2t2 -6v-210h58q6 0 6 -6v-32q0 -7 -6 -7h-99q-7 0 -7 7zM195 1395v248q0 5 2 6q2 2 5 2h33q3 0 5 -2t2 -6v-248 q0 -7 -7 -7h-33q-7 0 -7 7zM97 1525q10 0 16 6q6 7 6 17v35q0 10 -6 16q-7 7 -17 7h-23v-81h24zM355 1474l-15 96l-2 25l-2 -25l-16 -96h35z" glyph-name="idieresis" horiz-adv-x="649" unicode="ï"/><glyph d="M108 1176q0 42 42 42h287q42 0 42 -42v-678q0 -38 14.5 -70.5t38.5 -56.5t55 -37.5t64 -13.5q31 0 59 12.5t50 34t35.5 49.5t15.5 60v698q0 44 43 44h276q42 0 42 -44v-700q0 -89 -18 -160.5t-49 -126.5t-72.5 -94.5t-87.5 -64.5t-94.5 -37t-94.5 -12q-76 0 -147 31.5 t-130 89.5v-421q0 -43 -42 -43h-287q-42 0 -42 43v1497z" glyph-name="mu" horiz-adv-x="1279" unicode="µ"/><glyph d="M131 697q0 21 12 30.5t25 9.5h268q12 0 19.5 -4.5t11.5 -11t5.5 -13t1.5 -10.5v-243q0 -12 -5 -19.5t-11.5 -11.5t-12.5 -5.5t-9 -1.5h-268q-3 0 -9 1.5t-12.5 5.5t-11 11.5t-4.5 19.5v242z" glyph-name="periodcentered" horiz-adv-x="547" unicode="·"/><glyph d="M1132 331q43 -21 15 -75q-41 -77 -93 -131.5t-114.5 -90t-133 -52t-147.5 -16.5q-127 0 -235 40.5t-186.5 113.5t-123 175t-44.5 225v373q0 124 44.5 228t123 179t186.5 117t234 42q78 0 148.5 -17t133 -52t115 -90.5t93.5 -131.5q15 -27 12 -45t-17 -24l-216 -106 q-17 -8 -32 -7t-26 19q-33 55 -81.5 84.5t-108.5 29.5q-52 0 -95.5 -18t-75.5 -50t-50 -76t-18 -96v-333q0 -53 18 -97t50 -75.5t75.5 -49.5t95.5 -18q59 0 110 26t80 88q7 14 20.5 19t33.5 -5zM494 -310v248q0 5 1 6q4 2 6 2h64q15 0 27 -6q12 -4 22 -14q5 -5 9 -10.5 t6 -11.5q5 -13 5 -27v-32q0 -19 -7 -32q-7 -15 -19 -23l29 -100v-1q0 -3 -1 -4q-2 -2 -4 -2h-37q-2 0 -4 2l-2 5l-20 85h-28v-85q0 -7 -7 -7h-33q-7 0 -7 7zM726 -313v3l56 249q2 7 8 7h32q6 0 8 -7l55 -249q1 -1 1 -3q0 -4 -4 -4h-37q-3 0 -5 2q-3 1 -3 5l-6 37h-50l-6 -37 q-1 -3 -3 -5t-5 -2h-37q-4 0 -4 4zM385 -315q-1 1 -1 5v211h-39q-3 0 -3 1q-2 2 -2 5v32q0 4 2 5q0 2 3 2h124q2 0 4 -2t2 -5v-32q0 -1 -2 -5q-1 -1 -4 -1h-38v-211q0 -7 -6 -7h-36q-2 0 -4 2zM901 -310v248q0 4 2 6t5 2h34q3 0 5 -2t2 -6v-210h58q6 0 6 -6v-32q0 -7 -6 -7 h-99q-7 0 -7 7zM663 -310v248q0 5 2 6q2 2 5 2h33q3 0 5 -2t2 -6v-248q0 -7 -7 -7h-33q-7 0 -7 7zM565 -180q10 0 16 6q6 7 6 17v35q0 10 -6 16q-7 7 -17 7h-23v-81h24zM823 -231l-15 96l-2 25l-2 -25l-16 -96h35z" glyph-name="Ccedilla" horiz-adv-x="1210" unicode="Ç"/><glyph d="M77 1111q0 69 27 129.5t73.5 105.5t109.5 71t134 26q72 0 135 -26t110 -71t74 -105.5t27 -129.5v-96q0 -69 -27 -129.5t-74 -106t-110 -71.5t-135 -26q-71 0 -134 26t-109.5 71.5t-73.5 106t-27 129.5v96zM313 1026q0 -24 8.5 -45t23 -36.5t34.5 -24.5t43 -9q24 0 44 9 t34.5 24.5t22.5 36.5t8 45v74q0 49 -30.5 81.5t-78.5 32.5q-47 0 -78 -32.5t-31 -81.5v-74z" glyph-name="degree" horiz-adv-x="847" unicode="°"/><glyph d="M407 526l-405 857q-10 20 -2.5 31.5t27.5 11.5h334q21 0 34 -10.5t21 -32.5l150 -409l27 -123l27 123l147 409q8 22 21 32.5t34 10.5h338q20 0 27 -11t-4 -30l-406 -864v-479q0 -42 -39 -42h-292q-39 0 -39 42v484zM294 1583v248q0 5 1 6q4 2 6 2h64q15 0 27 -6 q12 -4 22 -14q5 -5 9 -10.5t6 -11.5q5 -13 5 -27v-32q0 -19 -7 -32q-7 -15 -19 -23l29 -100v-1q0 -3 -1 -4q-2 -2 -4 -2h-37q-2 0 -4 2l-2 5l-20 85h-28v-85q0 -7 -7 -7h-33q-7 0 -7 7zM526 1580v3l56 249q2 7 8 7h32q6 0 8 -7l55 -249q1 -1 1 -3q0 -4 -4 -4h-37q-3 0 -5 2 q-3 1 -3 5l-6 37h-50l-6 -37q-1 -3 -3 -5t-5 -2h-37q-4 0 -4 4zM185 1578q-1 1 -1 5v211h-39q-3 0 -3 1q-2 2 -2 5v32q0 4 2 5q0 2 3 2h124q2 0 4 -2t2 -5v-32q0 -1 -2 -5q-1 -1 -4 -1h-38v-211q0 -7 -6 -7h-36q-2 0 -4 2zM701 1583v248q0 4 2 6t5 2h34q3 0 5 -2t2 -6v-210 h58q6 0 6 -6v-32q0 -7 -6 -7h-99q-7 0 -7 7zM463 1583v248q0 5 2 6q2 2 5 2h33q3 0 5 -2t2 -6v-248q0 -7 -7 -7h-33q-7 0 -7 7zM365 1713q10 0 16 6q6 7 6 17v35q0 10 -6 16q-7 7 -17 7h-23v-81h24zM623 1662l-15 96l-2 25l-2 -25l-16 -96h35z" glyph-name="Ydieresis" horiz-adv-x="1186" unicode="Ÿ"/><glyph d="M59 247q0 14 9.5 23t21.5 9h637q14 0 21.5 -8t7.5 -22v-219q0 -14 -10 -22t-21 -8h-637q-7 0 -18 7t-11 23v217zM515 1065q14 0 23 -9t9 -22v-177h180q14 0 21.5 -8t7.5 -22v-219q0 -14 -10 -22t-21 -8h-178v-181q0 -14 -8 -21.5t-22 -7.5h-219q-14 0 -22 10t-8 21v179 h-180q-7 0 -18 7t-11 23v217q0 14 9.5 23t21.5 9h178v179q0 8 7 18.5t23 10.5h217z" glyph-name="plusminus" horiz-adv-x="817" unicode="±"/><glyph d="M732 579q0 -10 -3 -13.5t-10 -11.5l-369 -401q-5 -5 -16 -8.5t-23 7.5l-162 147q-9 8 -10 21.5t8 23.5l222 235l-221 233q-9 10 -8.5 24t9.5 22l162 148q12 11 23 7.5t16 -8.5l369 -401q7 -8 10 -12t3 -13zM1261 579q0 -10 -3 -13.5t-10 -11.5l-370 -401 q-5 -5 -15.5 -8.5t-22.5 7.5l-162 147q-9 8 -10.5 21t8.5 24l222 235l-222 233q-9 10 -8 24t10 22l163 148q12 11 22 7.5t15 -8.5l369 -401q8 -8 11 -12t3 -13z" glyph-name="guillemotright" horiz-adv-x="1341" unicode="»"/><glyph d="M560 569q0 9 3 13t10 12l369 401q5 5 16 8.5t23 -7.5l162 -148q9 -8 9.5 -22t-8.5 -24l-222 -233l223 -235q9 -10 8 -23.5t-10 -21.5l-162 -147q-12 -11 -23 -7.5t-16 8.5l-369 401q-7 8 -10 11.5t-3 13.5zM31 569q0 9 3 13t11 12l369 401q5 5 15 8.5t22 -7.5l163 -148 q9 -8 10 -22t-8 -24l-223 -233l223 -235q10 -11 8.5 -24t-10.5 -21l-162 -147q-12 -11 -22.5 -7.5t-15.5 8.5l-370 401q-7 8 -10 11.5t-3 13.5z" glyph-name="guillemotleft" horiz-adv-x="1177" unicode="«"/><glyph d="M154 764q0 27 15.5 41t30.5 14h555q48 0 48 -51v-186q0 -25 -15.5 -37t-38.5 -12h-549q-14 0 -30 12t-16 37v182z" glyph-name="uni00AD" horiz-adv-x="950" unicode="­"/><glyph d="M2323 1024v-550h-2254v550h854q0 28 5 55t19 50q11 27 24.5 49t34.5 39q36 39 86 58q25 11 51 16t53 5q31 0 58 -6t50 -15q26 -13 48 -27.5t42 -34.5q32 -34 57 -88q18 -50 18 -101h854zM966 1119q-19 -42 -19 -95q0 -57 19 -99q9 -20 22.5 -40.5t28.5 -39.5 q18 -17 38 -30.5t43 -23.5q45 -21 98 -21q57 0 98 19q46 19 78 54q20 18 33 38t24 41q20 51 20 102q0 20 -3.5 42t-11.5 44q-13 37 -40 68q-13 18 -27.5 31t-32.5 24q-17 7 -35 16.5t-37 16.5q-14 3 -30.5 6t-35.5 3q-55 0 -100 -23q-46 -16 -79 -54q-17 -17 -29.5 -37 t-21.5 -42zM1070 877l295 298q58 -73 58 -151q0 -22 -3 -42t-11 -39q-13 -35 -38 -66h-301zM1026 870q-26 34 -41 71q-8 17 -11 38t-3 45q0 18 3 37.5t11 39.5q4 18 13.5 33.5t23.5 30.5h299zM2058 194q3 -4 5.5 -10t4.5 -13q4 -7 4 -14v-29q0 -7 -4 -11q-2 -7 -4.5 -14 t-5.5 -13q-5 -7 -15 -19q-6 -5 -11.5 -9.5t-12.5 -8.5q-5 -5 -11.5 -7t-12.5 -4q-8 -2 -13 -2h-16q-19 0 -40 6q-8 6 -15.5 12t-15.5 13q-8 6 -13.5 13.5t-7.5 19.5q-6 9 -7.5 18.5t-1.5 21.5q0 8 1 13.5t1 13.5q3 7 6 13t7 10q2 8 5.5 12.5t9.5 10.5q3 4 9.5 8t11.5 9 q4 2 10.5 4t12.5 6q10 0 15.5 1t11.5 1q9 0 16 -1t13 -1q6 -4 12.5 -6t11.5 -4q13 -10 24 -17q2 -6 7.5 -10.5t7.5 -12.5zM1064 194q2 -4 4 -10t5 -13q2 -10 2 -14v-29q0 -5 -2 -11q-3 -7 -5 -14t-4 -13q-5 -4 -9.5 -9.5t-8.5 -9.5q-5 -5 -10 -9.5t-10 -8.5q-7 -5 -13.5 -7 t-12.5 -4q-4 -1 -7 -1.5t-7 -0.5h-15q-9 0 -18.5 2t-21.5 4q-11 6 -17.5 12t-15.5 13q-15 13 -21 33q-3 9 -5 18.5t-2 21.5v13q0 4 2 14q4 16 11 23q4 8 7.5 12.5t7.5 10.5q7 4 11.5 8t10.5 9l27 10q4 0 10.5 1t13.5 1q8 0 15 -1t14 -1q6 -4 12.5 -6t13.5 -4l10 -9l10 -8 q4 -6 8.5 -10.5t9.5 -12.5zM2281 244l1 1q1 1 6 1h35v-206h-35v150l-5 -9v-6q0 -2 -2 -4q-6 -15 -12.5 -32.5t-14.5 -30.5q-6 -18 -11.5 -33.5t-13.5 -34.5h-34l-52 131q-5 3 -5 10q0 4 -1 4l-2 2v-147h-39v206h37q5 0 6.5 -1t3.5 -1q2 -2 3 -2t3 -2l7 -4q0 -2 2 -3.5 t2 -3.5q4 -16 10.5 -30t14.5 -32q6 -15 11.5 -30.5t11.5 -28.5v-12q3 0 4 -4q0 4 1 4v12l9 13l42 108q0 1 2 3l2 4q0 1 2 3l3 1q2 2 4 2t4 2zM1246 246h36v-206h-34l-94 138l-4 3v2q-3 4 -3 5q-4 1 -4 4q0 4 -5 4v-156h-36v206h32q4 0 8.5 -1t4.5 -3q3 -2 5 -2t4 -2l21 -31 q9 -13 19 -33q13 -13 23 -27.5t23 -27.5q0 -2 1 -4.5t1 -6.5l1 -2l1 -3v143zM630 246l88 -206h-23q-8 0 -15 4q-2 2 -4 6.5t-6 8.5l-12 25h-94l-9 -25q0 -6 -4 -6q-2 -5 -4 -5l-3 -4q-2 0 -3.5 -1t-5.5 -1q0 -2 -2 -2h-26l90 206h33zM244 246h130v-37h-94v-46h77v-38h-77 v-48h94v-37h-130v206zM69 246h149v-23q0 -3 -1 -5q0 -3 -2 -5l-4 -4l-99 -134h1l2 2h102v-37h-155v13q0 9 2 11q0 2 5 7v4l2 4q2 2 4 3.5t2 5.5l88 121h-96v37zM786 618q1 6 2 10t1 9q0 12 -3 21q0 5 -3.5 8.5t-5.5 9.5q-2 3 -4.5 6t-6.5 7l-7 6q-2 3 -8 8l-8 4q-2 1 -4.5 2 t-5.5 2q-4 0 -8.5 0.5t-10.5 0.5q-3 0 -8 -0.5t-11 -0.5q-10 -4 -17 -8q-4 -5 -7.5 -7.5t-7.5 -6.5q-11 -8 -12 -13q-4 -6 -5 -9.5t-3 -8.5q-1 -5 -1.5 -10t-0.5 -11q0 -5 2 -13t4 -14q2 -7 6.5 -12.5t9.5 -11.5q11 -14 24 -14q10 -6 27 -6h19q6 2 10.5 4t7.5 4q10 4 15 12 q7 7 11 15q2 4 5.5 8.5t3.5 8.5zM1843 618v40q-2 5 -3.5 9t-3.5 9q-5 6 -14 13q-1 4 -5.5 6.5t-8.5 7.5l-4 2t-5 2l-7 4q-6 0 -10.5 0.5t-9.5 0.5q-6 0 -10.5 -0.5t-8.5 -0.5l-10 -4l-10 -4q-3 -5 -6 -7.5t-7 -6.5q-3 -4 -6 -6.5t-5 -6.5q-2 -6 -4.5 -9.5t-2.5 -8.5 q-5 -10 -5 -21q0 -5 2.5 -13t5.5 -14q4 -15 15 -24q8 -14 24 -14q10 -6 28 -6h20q3 2 8 4t8 4q4 3 8.5 5.5t5.5 6.5q9 5 14 15zM1724 190q-7 -7 -13 -23q-2 -4 -4 -9.5t-2 -13.5t2 -13.5t4 -11.5q2 -7 5.5 -13.5t7.5 -9.5q9 -9 22 -15q12 -4 26 -4q5 0 9.5 1t10.5 1 q3 2 8 4.5t8 6.5q2 0 8 2h12q2 0 8 -2q2 -1 7 -6l6 -7q-3 -4 -6 -7.5t-7 -7.5q-6 -3 -10.5 -6t-11.5 -6q-6 -4 -10.5 -5t-10.5 -3t-11 -2h-10q-11 0 -22 2t-20 4q-20 9 -33 25q-15 13 -21 33q-4 9 -6.5 18.5t-2.5 21.5q0 8 1 13.5t3 13.5q2 16 9 23q6 8 8.5 12.5t8.5 10.5 l12 8l11 9l9 4l17 6q5 0 11.5 1t14.5 1h12q3 0 9 -2t10.5 -3t10.5 -3l22 -13q4 -4 7 -8l6 -8l-6 -7q-2 -1 -5 -4l-2 -4h-14q-7 0 -14 4q-3 2 -8 4.5t-8 4.5q-8 2 -11 2h-9q-16 0 -26 -6q-15 -2 -22 -13zM1584 141q4 -5 7 -9t3 -7q5 -8 5 -19q0 -14 -7 -27l-8 -12 q-3 -5 -8 -8q-6 -6 -10.5 -9.5t-12.5 -5.5q-5 -2 -13 -3t-14 -1q-11 0 -31 4q-9 4 -20 18q-4 1 -6 5l-4 8q-6 1 -6 9l6 4q2 2 4 2h4l2 2h9q4 0 4 -2q7 0 9 -2q5 -4 8.5 -5.5t5.5 -3.5q2 0 6 -1t9 -1h5q2 0 6 2q5 1 13 5q6 6 7 8q2 4 4 7t2 7q0 6 -6 9q-5 6 -7 6q-2 4 -6.5 5 t-6.5 2q-6 0 -13 6q-5 0 -9 1t-9 6q-9 3 -12.5 6t-7.5 7q-11 4 -11 13q-6 10 -6 23q0 17 6 25q1 4 5 10l8 9q4 2 9 4t12 6q6 0 10.5 1t12.5 1q4 0 8 -1t10 -1l15 -6q3 -4 6 -6.5t7 -6.5q3 -2 6.5 -5t3.5 -7l-7 -4l-6 -4q-3 -2 -3 -3h-17l-5 1q-3 1 -6 4q-2 0 -3.5 1t-3.5 1 h-16q-2 0 -3 -1t-5 -3l-6 -5q-1 -3 -1 -10q0 -5 1 -5q2 -2 3 -4.5t3 -6.5h6q1 0 5 -2q4 -1 8.5 -3t9.5 -4l8 -2q5 -4 9 -5t9 -4q10 -4 16 -13zM1480 315q-11 8 -15 19q-6 13 -6 29v15l10 18q2 2 4.5 5.5t6.5 7.5q6 7 12 9q3 5 8.5 6t8.5 3q4 0 8 1.5t9 1.5q4 0 10 -1.5 t10 -1.5q4 -2 7.5 -3t7.5 -6l11 -9l12 -13q2 -4 4 -8.5t4 -9.5q0 -4 1 -8.5t1 -6.5q0 -6 -1 -13.5t-5 -15.5q-4 -12 -16 -19q-4 -4 -8.5 -7.5t-11.5 -8.5q-10 -2 -26 -2h-14q-4 0 -10 2q-15 4 -22 16zM2030 119q5 12 5 25q0 15 -5 23q-2 9 -6.5 14.5t-7.5 8.5q-10 10 -23 13 q-4 4 -11 5t-16 1q-11 0 -24 -6q-7 -1 -11.5 -4t-10.5 -9q-8 -7 -15 -23q0 -4 -1 -9.5t-1 -13.5t1 -13.5t1 -11.5q8 -16 15 -23q6 -4 10.5 -8t11.5 -7q7 -2 13.5 -3t10.5 -1q20 0 27 4q8 3 13.5 7t9.5 8q9 9 14 23zM2141 315q-6 -4 -12 -7.5t-11 -8.5q-8 -2 -12 -2h-28 q-4 0 -12 2q-11 4 -21 16q-7 7 -13 19q-2 8 -4 15.5t-2 13.5q0 2 1 6.5t1 8.5q2 4 3 9t4 9q2 3 5 6t5 7q7 5 16 9q3 5 8 6t7 3q5 0 8 1.5t10 1.5q2 0 7.5 -1.5t10.5 -1.5q4 -2 7.5 -3t5.5 -6q4 -2 8.5 -4.5t7.5 -4.5q1 -2 2 -3.5t2 -3.5l4 -6q2 -4 4 -8.5t3 -9.5 q2 -4 3 -8.5t1 -6.5q0 -6 -1 -13.5t-5 -15.5q0 -6 -5 -11zM1035 119q4 11 4 25t-4 23q-4 17 -18 23q-2 6 -7.5 9t-11.5 4q-11 6 -27 6q-14 0 -24 -6q-10 -1 -22 -13q-8 -5 -13 -23q-5 -5 -5 -10v-27q0 -4 5 -11q2 -7 5 -13.5t8 -9.5q6 -4 11 -8t11 -7q9 -4 24 -4q18 0 27 4 q14 7 19 15q7 3 11.5 9.5t6.5 13.5zM726 246h130v-37h-94v-52h77v-36h-77v-81h-36v206zM535 209h-55v-169h-40v169h-59v37h154v-37zM1302 246h155v-37h-61v-169h-37v169h-57v37zM1281 1233q16 -8 33.5 -19.5t33.5 -21.5h-304q34 28 70 41q37 17 82 17t85 -17zM1114 810 q-18 7 -35 18t-33 24h302q-16 -13 -33.5 -24t-33.5 -18q-22 -6 -43 -10.5t-42 -4.5q-23 0 -42.5 4.5t-39.5 10.5zM524 566l-44 64q4 0 11 4q7 3 8 9q8 6 8 11v24q0 1 -2 5q-4 9 -10 14q-5 8 -13 8q-2 4 -6.5 5t-8.5 1h-53v-145h22v60h22l37 -52q1 -4 7 -6q2 -2 3 -2h19z M1096 566l-63 145h-20l-62 -145h11q7 0 9 2q0 2 6 6l10 25h72l11 -25q1 -4 5 -6q2 -2 8 -2h13zM1810 676q2 -2 6.5 -7.5t5.5 -10.5q4 -7 4 -21q0 -12 -4 -21q-2 -5 -6 -9l-6 -6q-5 -4 -9 -6.5t-8 -6.5q-8 -4 -21 -4q-14 0 -21 4q-5 4 -9.5 6.5t-8.5 6.5q-3 2 -6 6.5t-3 8.5 q-6 10 -6 21q0 10 6 21q0 5 3 10.5t6 7.5q6 6 18 11q9 4 21 4t21 -4zM751 676q6 -2 8.5 -7.5t4.5 -10.5q4 -7 4 -21q0 -10 -4 -21q-2 -4 -4.5 -8.5t-8.5 -6.5q-4 -6 -16 -13q-7 -4 -21 -4q-10 0 -21 4q-4 4 -8.5 6.5t-8.5 6.5q-2 2 -5.5 6.5t-5.5 8.5q-4 11 -4 21q0 12 4 21 q5 12 11 18q4 4 8.5 6.5t8.5 4.5q5 2 11.5 3t9.5 1q13 0 21 -4q12 -4 16 -11zM277 647q5 12 5 18q0 9 -5 18q0 2 -4 6l-6 6q-2 3 -5 6.5t-9 3.5q-2 4 -7.5 5t-9.5 1h-49v-145h16v55h33q4 0 9.5 0.5t7.5 2.5q10 4 14 10q4 2 7 5.5t3 7.5zM2079 311h29l6 3q3 3 4 5q5 0 13 5 l3 6q1 1 1.5 2t2.5 2q0 3 2.5 7.5t2.5 8.5v32q-2 6 -6 10t-6 7q-6 2 -9.5 5t-7.5 7h-40q-6 -4 -9.5 -7t-8.5 -5q-7 -5 -11 -17q-2 -8 -2 -12v-20q0 -4 1 -8.5t4 -7.5l4 -4q3 -3 4 -6l6 -3q2 -2 4 -2q4 -4 7 -5t6 -3zM1993 711h-20v-112q-1 2 -2 5t-3 4l-70 97l-3 6h-23v-145 h21v114l2 -2l82 -112h16v145zM1480 382q-3 -6 -4 -11.5t-1 -7.5v-8q0 -3 2 -5q0 -8 5 -16q0 -2 2 -4t4 -6l5 -3q2 -2 9 -2q2 -4 5.5 -5t5.5 -3h26q5 2 8 3t6 5l6 2l4 3q2 4 4.5 6t2.5 4q2 3 3 7.5t3 8.5q0 2 1 5.5t1 7.5q0 2 -1 7.5t-5 11.5q0 6 -3.5 10t-5.5 7q-3 1 -8 6 l-9 6h-40q-4 -4 -9 -7t-9 -5q-2 -3 -5 -7t-3 -10zM935 711h-17v-112l-2 4q-2 6 -2 5l-69 97q-5 0 -6 6h-23v-145h19v117h2l2 -1v-4l81 -112h15v145zM1982 357q-4 -1 -7 -2t-5 -2l42 -56h-11l-6 2q-4 0 -4 7l-36 47h-26v-56h-15v130h54q3 0 9 -2q2 -2 5.5 -4.5t4.5 -4.5 q4 -2 5 -5.5t7 -7.5v-25q-4 -4 -5 -7.5t-3 -5.5zM1259 357q-3 -3 -11 -4l44 -56h-14q-3 0 -3 2q-6 0 -6 7l-36 47h-26v-56h-13v130h53q2 0 6 -2q8 -1 16 -9q0 -2 3 -5.5t3 -7.5q2 -2 2 -6v-13q0 -2 -2 -6q0 -9 -4 -13l-5 -4q-3 -3 -7 -4zM386 711h-91v-145h91v20h-69v44h55 v17h-55v42h69v22zM1614 711h-88v-145h88v20h-66v44h55v17h-55v42h66v22zM2306 425q6 2 5 2h12v-130h-11v106l-2 -2v-2q-4 -7 -6.5 -16t-7.5 -13q-4 -7 -6 -12.5t-7 -13.5q-2 -8 -3 -14t-5 -9q-3 -8 -6 -12.5t-5 -11.5h-14q-9 12 -14 24.5t-10 26.5q-4 11 -11 24.5t-11 26.5 v2h-4v-104h-13v130h13q4 0 6 -2l2 -2v-5l46 -99q0 -4 2 -4l1 2v4q0 1 7 5l38 92q2 5 3 5t1 2zM1387 711h-20v-97q0 -3 -2 -7q-2 -8 -9 -12q0 -2 -4 -3.5t-6 -5.5l-8 -2h-8q-7 0 -13 2q-5 4 -8 5.5t-5 3.5l-10 12q0 3 -1 7t-1 10v87h-19v-87q0 -6 1 -10t1 -7q0 -8 6 -14 q2 -6 9 -11q2 -3 4.5 -5.5t7.5 -4.5q2 -2 6 -3t7 -3q4 0 7 -1t8 -1q4 0 7.5 1t10.5 1q2 2 5 3t6 3q8 6 12 10q3 2 5 5t5 6q0 4 3 7t3 7v104zM622 592q2 5 3 8t1 8q0 10 -5 18t-11 13q-2 0 -3.5 2t-5.5 4l-4 2h-4q-1 0 -1 4q-7 0 -8 1q-7 2 -8.5 3t-5.5 3q-6 3 -8 3 q-3 4 -3 6v15q0 1 1.5 2t1.5 3q2 0 4 1t4 1q6 2 5 2h9q2 -2 4 -2q6 0 7 -4q2 -2 4 -2h2q9 0 13 4l4 2q0 2 -2 4l-4 4q-2 1 -4.5 3.5t-6.5 4.5q-2 0 -4 2t-5 4q-4 0 -6 0.5t-4 0.5q-6 0 -11 -0.5t-7 -0.5q-5 -2 -7 -4t-6 -4q-2 -5 -5.5 -7.5t-6.5 -6.5q0 -4 -2 -6.5t-2 -8.5 q0 -7 4 -16l5 -7l5 -4q2 -2 6 -5t7 -3l7 -4q2 -1 7 -1q1 -2 5.5 -2t6.5 -2l5 -2q2 0 4 -2t2 -3t2 -5q2 -2 2 -6v-9q0 -2 -2 -4t-2 -4t-2 -3q-1 -3 -6 -5l-3 -1q-4 0 -7.5 -1t-4.5 -1q-4 0 -7 1t-5 1q-5 0 -5 6l-4 1q-4 4 -11 4h-5l-4 -2l-5 -2q0 -3 3 -3q0 -2 2 -4 q0 -4 4 -4v-5h3q7 -7 15.5 -9t18.5 -2h8q5 0 11 2q4 2 8.5 4t6.5 5q4 2 7.5 5.5t4.5 9.5zM1497 592q7 7 7 16q0 10 -4.5 18t-11.5 13q-6 4 -6 6h-4q-1 0 -3 2h-3q-4 0 -5 4h-4q-2 0 -4 1l-4 3l-6 3l-7 3q-2 1 -3 2l-2 2l-1 2q0 1 -1 3t-1 4q0 4 4 8q0 1 4 5q2 0 3 1t4 1 q2 2 10 2l3 -1q2 -1 5 -1q3 -3 8 -4q6 -2 7 -2q7 0 8 4l5 2q0 2 -2.5 4t-4.5 4q0 1 -3 3.5t-5 4.5q-3 0 -5 2t-6 4h-6l-4 1q-6 0 -9.5 -0.5t-7.5 -0.5l-13 -8l-6 -8l-5 -6q-1 -4 -3 -6.5t-2 -8.5q0 -4 2 -7.5t3 -8.5q2 -4 4.5 -6.5l4.5 -4.5q4 -2 6.5 -5t6.5 -3q8 -5 13 -5 q4 -2 6.5 -2t5.5 -2q6 0 10 -4q2 -2 3.5 -3t1.5 -5q2 -2 2 -5v-9q0 -3 -2 -5q0 -5 -5 -7q-6 -4 -7 -5t-3 -1q-6 0 -7 -1t-5 -1q-2 0 -5.5 1t-5.5 1q-3 1 -8 6l-2 1q-4 4 -9 4h-6q-2 0 -4 -2l-6 -2q2 -1 2 -2t2 -1q0 -2 1 -3l3 -3v-2q7 -5 8 -5q6 -7 13.5 -9t16.5 -2h11 q3 0 11 2q2 2 5.5 4t7.5 5l5 7q3 3 4 8zM1632 297h-16v130h18q3 0 4 -4l69 -97q2 0 2 -4l2 -1v106h13v-130h-11l-77 106v4h-4v-110zM73 328q-4 4 -5 7.5t-2 8.5q-2 6 -3 9.5t-1 9.5t4 15q1 4 2 9t5 9l4 6l5 7q2 2 6 4.5t6 4.5q5 5 9.5 6t8.5 3q3 0 8 1.5t10 1.5q6 0 13 -1.5 t13 -5.5q13 -4 20 -14q-2 -2 -4 -2v-4h-13q-3 2 -6 5t-7 3h-34l-20 -12q-4 -3 -7 -7t-4 -10q-2 -6 -3 -11.5t-1 -7.5q0 -9 4 -13q0 -4 0.5 -8.5t0.5 -7.5l4 -4q4 -2 6 -6l7 -4q2 -1 7 -1q2 -4 4.5 -5t6.5 -3h31q2 2 6.5 3t8.5 5v27h-13v2q-2 0 -3 1l-3 3h-2q-1 1 -1 3v4h35 v-48q-2 -5 -3.5 -6t-5.5 -6h-11q-8 -2 -12 -2h-32q-4 0 -8.5 2.5t-9.5 6.5q-7 0 -12 9zM225 411v-41h52v-15h-52v-44h63v-14h-79v130h79v-16h-63zM1098 411v-41h56v-15h-56v-44h64v-14h-79v130h79v-16h-64zM2226 711h-18q-4 0 -8 -4q-5 -5 -5 -9l-35 -44h-2q0 -2 -2 -2v2 l-36 44q-1 6 -4 9q-4 4 -11 4h-16l54 -72v-2q0 -1 2 -1l2 -2v-68h20v66q2 0 2 2l2 3v2zM2112 586h-64v125h-20v-145h84v20zM601 427v-79q0 -6 2 -9t5 -5q0 -6 3 -9t5 -4q0 -2 4 -4t6 -4q6 -2 8 -2h15q1 0 5 2t7.5 4t6.5 4q4 1 8 13q4 3 4 14v79h13v-79q0 -11 -4 -22 q-5 -11 -11 -15q-5 -12 -15 -12q-6 -1 -11.5 -1.5t-10.5 -0.5t-10.5 0.5t-12.5 1.5q-3 0 -15 12l-10 15q-1 6 -3 11t-2 11v79h13zM1191 586h-62v125h-19v-145h81v20zM1361 315q1 2 2 3.5t2 3.5q2 2 3 6t1 6q0 8 -2 10t-3 4t-3 4q-1 1 -7 3q-4 0 -6 2t-6 2q-6 0 -12 6 q-9 0 -13 7q-2 0 -3.5 3t-3.5 6v21q0 1 2 7q0 8 7 9l6 5q2 1 3.5 2t3.5 2q4 0 6.5 1.5t7.5 1.5l6 -2l4 -1q3 0 4 -1t5 -3q6 0 6 -7q4 0 6 -3l1 -2l-2 -2q-6 -2 -9 -2h-6q-2 2 -2 4h-21q-8 0 -8 -2q-5 -7 -5 -8q-4 0 -4 -7q0 -5 4 -6q0 -5 3 -6q0 -2 3 -3l3 -1q4 -4 7 -4 t7 -2q3 0 4 -1l2 -1q3 0 7 -5h4q2 0 4 -2h2q5 -4 7.5 -7t4.5 -4q1 -5 1.5 -9.5t0.5 -8.5v-10q0 -4 -4 -5q-4 -9 -10 -13q-2 -2 -6 -4.5t-6 -2.5q-4 -2 -9 -2h-9q-9 0 -16.5 1t-12.5 8q-2 0 -3 2.5t-5 4.5v4l-2 2l4 2h6q1 0 3 -1t4 -1q4 -4 6.5 -5t4.5 -3h20q7 0 11 4z M1002 297l-55 130h5q6 0 8 -2t3 -2t3 -5l40 -97v-2l2 -6v6l2 2q5 13 12 25.5t11 23.5q4 14 9.5 25.5t11.5 22.5q0 5 1.5 5t1.5 2l6 2h10q-7 -16 -14 -32.5t-15 -31.5q-4 -8 -7 -17l-6 -18l-14 -31h-15zM499 411v-46h56v-12h-56v-56h-15v130h80v-16h-65zM1836 411v-46h51v-12 h-51v-56h-15v130h77v-16h-62zM824 427v-116h59v-14h-75v130h16zM348 297v114h-44v16h99v-16h-44v-114h-11zM735 427v-116h60v-14h-75v130h15zM253 683q2 -1 3 -4t3 -5q3 -5 3 -9v-4q0 -3 -3 -7q-2 -2 -3 -4.5t-3 -2.5q-1 -2 -7 -8h-43v50h33q4 0 10 -2l4 -2zM1242 365 q4 0 6 3q4 4 9 4l2 4q0 2 3 5q0 1 1 4t1 7q0 2 -1 3t-1 4q-3 2 -4 3t-1 5q-5 0 -9 4h-41v-46h35zM1970 368q4 4 7 4q5 7 5 9q2 4 2 11q0 3 -2 7q0 1 -5 8q-3 0 -7 4h-41v-46h33q3 0 8 3zM486 658l-4 -7q-2 0 -3 -2t-3 -2q-2 -2 -9 -2h-31v44h31q3 0 9 -2q2 0 3 -1l3 -3 q1 -2 2 -3.5t2 -3.5q3 -2 3 -9q0 -6 -3 -9zM1429 427v-130h-16v130h16zM641 121l-25 64q0 2 -1 3l-1 2q0 4 -2 6v-6l-1 -2q-1 -1 -1 -3l-26 -64h57zM1024 682v-4l26 -60h-55l27 60v5zM1645 77q6 0 6 -6q2 -2 2 -5v-4q0 -7 -2 -9q0 -5 -6 -9q-2 0 -5 -4h-17q-4 4 -9 4 q0 2 -5 9q-2 2 -2 9v4q0 3 2 5l3 4l2 2q7 4 9 4q1 3 4 3h10q3 0 3 -3q4 0 5 -4z" glyph-name="onehalf" unicode="½"/><glyph d="M120 524q-17 0 -28 8t-11 25v149q0 8 0.5 17.5t4.5 17.5t12 13.5t22 5.5h774q40 0 40 -42v-463q0 -16 -8.5 -28.5t-24.5 -12.5l-153 -1q-20 0 -34.5 12t-14.5 30v269h-579z" glyph-name="logicalnot" horiz-adv-x="1010" unicode="¬"/><glyph d="M254 1034q0 20 12 29.5t23 9.5h224q12 0 19 -4.5t11 -10.5t5.5 -12.5t1.5 -10.5v-212q0 -12 -4.5 -19.5t-11 -11t-12.5 -5t-9 -1.5h-223q-3 0 -9 1.5t-12 5.5t-10.5 11t-4.5 19v211zM254 320q0 20 12 29.5t23 9.5h224q12 0 19 -4.5t11 -10.5t5.5 -12.5t1.5 -10.5v-212 q0 -12 -4.5 -19.5t-11 -11t-12.5 -5t-9 -1.5h-223q-3 0 -9 1.5t-12 5.5t-10.5 11t-4.5 19v211zM59 679q0 14 9.5 23t21.5 9h637q14 0 21.5 -8t7.5 -22v-219q0 -14 -10 -22t-21 -8h-637q-7 0 -18 7t-11 23v217z" glyph-name="divide" horiz-adv-x="817" unicode="÷"/><glyph d="M730 837q11 -11 6.5 -24t-9.5 -18l-129 -127l131 -129q10 -9 10 -20.5t-8 -21.5l-154 -157q-10 -11 -20.5 -10.5t-18.5 8.5l-137 135l-136 -135q-20 -18 -39 2l-154 157q-9 10 -8.5 21.5t10.5 20.5l130 129l-128 127q-5 5 -9 18t6 24l153 156q9 9 20.5 10t20.5 -8 l134 -133l135 133q9 9 20.5 8t20.5 -10z" glyph-name="multiply" horiz-adv-x="808" unicode="×"/><glyph d="M1202 1097q19 -12 27.5 -24t-2.5 -32l-87 -155q-5 -9 -9 -15t-8.5 -8.5t-11.5 -1t-17 6.5q-47 24 -81.5 27t-62.5 3q-45 0 -81 -16t-61 -43t-38.5 -62t-13.5 -72q0 -48 16.5 -84t44 -60t64 -36t75.5 -12q29 0 61 3.5t74 26.5q19 10 28.5 5.5t17.5 -18.5l86 -143 q13 -21 8.5 -35t-22.5 -26q-60 -40 -131.5 -60t-145.5 -20q-96 0 -179.5 36t-146 98.5t-98.5 146.5t-36 181t36.5 181.5t99.5 147t147.5 98.5t179.5 36q72 0 140 -18t127 -56zM81 716q0 115 30 221.5t84.5 199.5t131.5 169.5t170.5 131t201 84.5t224.5 30q115 0 221.5 -30 t199.5 -84.5t169.5 -131t131.5 -170t85 -201t30 -224.5q0 -115 -30 -221.5t-84.5 -199.5t-131 -169.5t-170 -131.5t-201.5 -85t-224 -30q-115 0 -222 30t-200 84.5t-169.5 131.5t-131.5 170.5t-85 201t-30 224.5zM324 701q0 -124 48.5 -231t130.5 -185.5t188.5 -123 t223.5 -44.5q87 0 165.5 24t145.5 66.5t121.5 100t93 125t59 141.5t20.5 150q0 86 -23 162.5t-63.5 141t-96 115.5t-120.5 86t-136.5 54t-143.5 19q-90 0 -170.5 -24t-148.5 -66t-122.5 -99.5t-92.5 -124t-58.5 -140t-20.5 -147.5z" glyph-name="copyright" horiz-adv-x="1820" unicode="©"/><glyph d="M68 719q0 116 30 223t84.5 200t131 169t169.5 130.5t199.5 84.5t222.5 30t223 -30t200.5 -84.5t169.5 -130.5t130.5 -169t84.5 -200t30 -223t-30 -223t-84.5 -200t-130.5 -169t-169.5 -130.5t-200.5 -84.5t-223 -30t-222.5 30t-199.5 84.5t-169.5 130.5t-131 169 t-84.5 200t-30 223zM327 710q0 -122 42 -228t116 -185.5t176.5 -125t223.5 -45.5q81 0 156 21t140.5 58.5t119.5 91t92.5 118t59.5 139.5t21 156q0 135 -46.5 243t-126.5 183.5t-187.5 115.5t-228.5 40t-223.5 -45.5t-176.5 -124t-116 -185t-42 -227.5zM894 585h-58v-245 q0 -24 -24 -24h-197q-11 0 -15 7.5t-4 16.5v761q0 9 5.5 16.5t17.5 7.5h392q58 0 105.5 -23t81.5 -61.5t52.5 -87.5t18.5 -100q0 -36 -11.5 -70.5t-32.5 -65t-49.5 -56.5t-62.5 -44l142 -265q6 -11 3.5 -23.5t-22.5 -12.5h-173q-29 0 -40 23zM836 942v-154h115q16 0 30 6.5 t24 17t15.5 24.5t5.5 28t-5.5 28t-15.5 25t-24 18t-30 7h-115z" glyph-name="registered" horiz-adv-x="1810" unicode="®"/><glyph d="M150 1383q0 43 42 43h538q87 0 165 -26t137 -73.5t94 -112.5t35 -143v-94q0 -38 -11 -74.5t-29 -68t-41.5 -55.5t-48.5 -37q36 -14 69 -41.5t57.5 -65t39.5 -83t15 -94.5v-90q0 -80 -34 -147t-91 -116.5t-132 -77t-157 -27.5h-606q-42 0 -42 42v1341zM514 570v-243h227 q18 0 36 5.5t32.5 17.5t24 30t9.5 44v62q0 23 -8.5 39t-22 26t-31.5 14.5t-37 4.5h-230zM514 1099v-230h192q17 0 32.5 3.5t27.5 13t19.5 25.5t7.5 41v62q0 25 -9 41.5t-22.5 26.5t-28.5 13.5t-28 3.5h-191z" glyph-name="B" horiz-adv-x="1287" unicode="B"/><glyph d="M1181 432q0 -71 -22 -133.5t-60.5 -114.5t-89.5 -92.5t-109 -68.5t-120 -42.5t-121 -14.5q-127 0 -235 40.5t-186.5 113.5t-123 175t-44.5 225v373q0 124 44.5 228t123 179t186.5 117t234 42q78 0 149.5 -18t134.5 -54t115 -90.5t91 -128.5q14 -27 11.5 -45t-16.5 -24 l-207 -102q-8 -3 -17.5 -6t-18.5 -3.5t-17 3t-13 12.5q-33 58 -82 87t-109 29q-52 0 -95.5 -18t-75.5 -50t-50 -76t-18 -96v-333q0 -53 17.5 -97t47 -75.5t69.5 -49.5t85 -18q85 0 133 36t57 96h-126q-39 0 -39 42v256q0 42 39 42h416q42 0 42 -42v-304z" glyph-name="G" horiz-adv-x="1259" unicode="G"/><glyph d="M117 262q0 35 15.5 46.5t34.5 11.5h240q53 0 53 -55v-286q0 -60 -21 -99t-53 -61.5t-70.5 -31t-74.5 -8.5q-17 0 -33.5 7.5t-16.5 31.5l1 71q0 13 5 20.5t12.5 11.5t16.5 4.5t17 0.5q21 0 28.5 10.5t7.5 42.5q0 4 -2 12.5t-13 8.5h-101q-19 0 -32.5 12.5t-13.5 38.5v211z" glyph-name="quotesinglbase" horiz-adv-x="572" unicode="‚"/><glyph d="M117 262q0 35 15.5 46.5t34.5 11.5h240q53 0 53 -55v-286q0 -60 -21 -99t-53 -61.5t-70.5 -31t-74.5 -8.5q-17 0 -33.5 7.5t-16.5 31.5l1 71q0 13 5 20.5t12.5 11.5t16.5 4.5t17 0.5q21 0 28.5 10.5t7.5 42.5q0 4 -2 12.5t-13 8.5h-101q-19 0 -32.5 12.5t-13.5 38.5v211z M556 262q0 35 15.5 46.5t34.5 11.5h240q53 0 53 -55v-286q0 -60 -21 -99t-53 -61.5t-70.5 -31t-74.5 -8.5q-17 0 -33.5 7.5t-16.5 31.5l1 71q0 13 5 20.5t12.5 11.5t16.5 4.5t17 0.5q21 0 28.5 10.5t7.5 42.5q0 4 -2 12.5t-13 8.5h-101q-19 0 -32.5 12.5t-13.5 38.5v211z" glyph-name="quotedblbase" horiz-adv-x="1010" unicode="„"/><glyph d="M31 569q0 9 3 13t11 12l369 401q5 5 15 8.5t22 -7.5l163 -148q9 -8 10 -22t-8 -24l-223 -233l223 -235q10 -11 8.5 -24t-10.5 -21l-162 -147q-12 -11 -22.5 -7.5t-15.5 8.5l-370 401q-7 8 -10 11.5t-3 13.5z" glyph-name="guilsinglleft" horiz-adv-x="652" unicode="‹"/><glyph d="M2323 1024v-550h-2254v550h854q0 28 5 55t19 50q11 27 24.5 49t34.5 39q36 39 86 58q25 11 51 16t53 5q31 0 58 -6t50 -15q26 -13 48 -27.5t42 -34.5q32 -34 57 -88q18 -50 18 -101h854zM966 1119q-19 -42 -19 -95q0 -57 19 -99q9 -20 22.5 -40.5t28.5 -39.5 q18 -17 38 -30.5t43 -23.5q45 -21 98 -21q57 0 98 19q46 19 78 54q20 18 33 38t24 41q20 51 20 102q0 20 -3.5 42t-11.5 44q-13 37 -40 68q-13 18 -27.5 31t-32.5 24q-17 7 -35 16.5t-37 16.5q-14 3 -30.5 6t-35.5 3q-55 0 -100 -23q-46 -16 -79 -54q-17 -17 -29.5 -37 t-21.5 -42zM1070 877l295 298q58 -73 58 -151q0 -22 -3 -42t-11 -39q-13 -35 -38 -66h-301zM1026 870q-26 34 -41 71q-8 17 -11 38t-3 45q0 18 3 37.5t11 39.5q4 18 13.5 33.5t23.5 30.5h299zM2058 194q3 -4 5.5 -10t4.5 -13q4 -7 4 -14v-29q0 -7 -4 -11q-2 -7 -4.5 -14 t-5.5 -13q-5 -7 -15 -19q-6 -5 -11.5 -9.5t-12.5 -8.5q-5 -5 -11.5 -7t-12.5 -4q-8 -2 -13 -2h-16q-19 0 -40 6q-8 6 -15.5 12t-15.5 13q-8 6 -13.5 13.5t-7.5 19.5q-6 9 -7.5 18.5t-1.5 21.5q0 8 1 13.5t1 13.5q3 7 6 13t7 10q2 8 5.5 12.5t9.5 10.5q3 4 9.5 8t11.5 9 q4 2 10.5 4t12.5 6q10 0 15.5 1t11.5 1q9 0 16 -1t13 -1q6 -4 12.5 -6t11.5 -4q13 -10 24 -17q2 -6 7.5 -10.5t7.5 -12.5zM1064 194q2 -4 4 -10t5 -13q2 -10 2 -14v-29q0 -5 -2 -11q-3 -7 -5 -14t-4 -13q-5 -4 -9.5 -9.5t-8.5 -9.5q-5 -5 -10 -9.5t-10 -8.5q-7 -5 -13.5 -7 t-12.5 -4q-4 -1 -7 -1.5t-7 -0.5h-15q-9 0 -18.5 2t-21.5 4q-11 6 -17.5 12t-15.5 13q-15 13 -21 33q-3 9 -5 18.5t-2 21.5v13q0 4 2 14q4 16 11 23q4 8 7.5 12.5t7.5 10.5q7 4 11.5 8t10.5 9l27 10q4 0 10.5 1t13.5 1q8 0 15 -1t14 -1q6 -4 12.5 -6t13.5 -4l10 -9l10 -8 q4 -6 8.5 -10.5t9.5 -12.5zM2281 244l1 1q1 1 6 1h35v-206h-35v150l-5 -9v-6q0 -2 -2 -4q-6 -15 -12.5 -32.5t-14.5 -30.5q-6 -18 -11.5 -33.5t-13.5 -34.5h-34l-52 131q-5 3 -5 10q0 4 -1 4l-2 2v-147h-39v206h37q5 0 6.5 -1t3.5 -1q2 -2 3 -2t3 -2l7 -4q0 -2 2 -3.5 t2 -3.5q4 -16 10.5 -30t14.5 -32q6 -15 11.5 -30.5t11.5 -28.5v-12q3 0 4 -4q0 4 1 4v12l9 13l42 108q0 1 2 3l2 4q0 1 2 3l3 1q2 2 4 2t4 2zM1246 246h36v-206h-34l-94 138l-4 3v2q-3 4 -3 5q-4 1 -4 4q0 4 -5 4v-156h-36v206h32q4 0 8.5 -1t4.5 -3q3 -2 5 -2t4 -2l21 -31 q9 -13 19 -33q13 -13 23 -27.5t23 -27.5q0 -2 1 -4.5t1 -6.5l1 -2l1 -3v143zM630 246l88 -206h-23q-8 0 -15 4q-2 2 -4 6.5t-6 8.5l-12 25h-94l-9 -25q0 -6 -4 -6q-2 -5 -4 -5l-3 -4q-2 0 -3.5 -1t-5.5 -1q0 -2 -2 -2h-26l90 206h33zM244 246h130v-37h-94v-46h77v-38h-77 v-48h94v-37h-130v206zM69 246h149v-23q0 -3 -1 -5q0 -3 -2 -5l-4 -4l-99 -134h1l2 2h102v-37h-155v13q0 9 2 11q0 2 5 7v4l2 4q2 2 4 3.5t2 5.5l88 121h-96v37zM786 618q1 6 2 10t1 9q0 12 -3 21q0 5 -3.5 8.5t-5.5 9.5q-2 3 -4.5 6t-6.5 7l-7 6q-2 3 -8 8l-8 4q-2 1 -4.5 2 t-5.5 2q-4 0 -8.5 0.5t-10.5 0.5q-3 0 -8 -0.5t-11 -0.5q-10 -4 -17 -8q-4 -5 -7.5 -7.5t-7.5 -6.5q-11 -8 -12 -13q-4 -6 -5 -9.5t-3 -8.5q-1 -5 -1.5 -10t-0.5 -11q0 -5 2 -13t4 -14q2 -7 6.5 -12.5t9.5 -11.5q11 -14 24 -14q10 -6 27 -6h19q6 2 10.5 4t7.5 4q10 4 15 12 q7 7 11 15q2 4 5.5 8.5t3.5 8.5zM1843 618v40q-2 5 -3.5 9t-3.5 9q-5 6 -14 13q-1 4 -5.5 6.5t-8.5 7.5l-4 2t-5 2l-7 4q-6 0 -10.5 0.5t-9.5 0.5q-6 0 -10.5 -0.5t-8.5 -0.5l-10 -4l-10 -4q-3 -5 -6 -7.5t-7 -6.5q-3 -4 -6 -6.5t-5 -6.5q-2 -6 -4.5 -9.5t-2.5 -8.5 q-5 -10 -5 -21q0 -5 2.5 -13t5.5 -14q4 -15 15 -24q8 -14 24 -14q10 -6 28 -6h20q3 2 8 4t8 4q4 3 8.5 5.5t5.5 6.5q9 5 14 15zM1724 190q-7 -7 -13 -23q-2 -4 -4 -9.5t-2 -13.5t2 -13.5t4 -11.5q2 -7 5.5 -13.5t7.5 -9.5q9 -9 22 -15q12 -4 26 -4q5 0 9.5 1t10.5 1 q3 2 8 4.5t8 6.5q2 0 8 2h12q2 0 8 -2q2 -1 7 -6l6 -7q-3 -4 -6 -7.5t-7 -7.5q-6 -3 -10.5 -6t-11.5 -6q-6 -4 -10.5 -5t-10.5 -3t-11 -2h-10q-11 0 -22 2t-20 4q-20 9 -33 25q-15 13 -21 33q-4 9 -6.5 18.5t-2.5 21.5q0 8 1 13.5t3 13.5q2 16 9 23q6 8 8.5 12.5t8.5 10.5 l12 8l11 9l9 4l17 6q5 0 11.5 1t14.5 1h12q3 0 9 -2t10.5 -3t10.5 -3l22 -13q4 -4 7 -8l6 -8l-6 -7q-2 -1 -5 -4l-2 -4h-14q-7 0 -14 4q-3 2 -8 4.5t-8 4.5q-8 2 -11 2h-9q-16 0 -26 -6q-15 -2 -22 -13zM1584 141q4 -5 7 -9t3 -7q5 -8 5 -19q0 -14 -7 -27l-8 -12 q-3 -5 -8 -8q-6 -6 -10.5 -9.5t-12.5 -5.5q-5 -2 -13 -3t-14 -1q-11 0 -31 4q-9 4 -20 18q-4 1 -6 5l-4 8q-6 1 -6 9l6 4q2 2 4 2h4l2 2h9q4 0 4 -2q7 0 9 -2q5 -4 8.5 -5.5t5.5 -3.5q2 0 6 -1t9 -1h5q2 0 6 2q5 1 13 5q6 6 7 8q2 4 4 7t2 7q0 6 -6 9q-5 6 -7 6q-2 4 -6.5 5 t-6.5 2q-6 0 -13 6q-5 0 -9 1t-9 6q-9 3 -12.5 6t-7.5 7q-11 4 -11 13q-6 10 -6 23q0 17 6 25q1 4 5 10l8 9q4 2 9 4t12 6q6 0 10.5 1t12.5 1q4 0 8 -1t10 -1l15 -6q3 -4 6 -6.5t7 -6.5q3 -2 6.5 -5t3.5 -7l-7 -4l-6 -4q-3 -2 -3 -3h-17l-5 1q-3 1 -6 4q-2 0 -3.5 1t-3.5 1 h-16q-2 0 -3 -1t-5 -3l-6 -5q-1 -3 -1 -10q0 -5 1 -5q2 -2 3 -4.5t3 -6.5h6q1 0 5 -2q4 -1 8.5 -3t9.5 -4l8 -2q5 -4 9 -5t9 -4q10 -4 16 -13zM1480 315q-11 8 -15 19q-6 13 -6 29v15l10 18q2 2 4.5 5.5t6.5 7.5q6 7 12 9q3 5 8.5 6t8.5 3q4 0 8 1.5t9 1.5q4 0 10 -1.5 t10 -1.5q4 -2 7.5 -3t7.5 -6l11 -9l12 -13q2 -4 4 -8.5t4 -9.5q0 -4 1 -8.5t1 -6.5q0 -6 -1 -13.5t-5 -15.5q-4 -12 -16 -19q-4 -4 -8.5 -7.5t-11.5 -8.5q-10 -2 -26 -2h-14q-4 0 -10 2q-15 4 -22 16zM2030 119q5 12 5 25q0 15 -5 23q-2 9 -6.5 14.5t-7.5 8.5q-10 10 -23 13 q-4 4 -11 5t-16 1q-11 0 -24 -6q-7 -1 -11.5 -4t-10.5 -9q-8 -7 -15 -23q0 -4 -1 -9.5t-1 -13.5t1 -13.5t1 -11.5q8 -16 15 -23q6 -4 10.5 -8t11.5 -7q7 -2 13.5 -3t10.5 -1q20 0 27 4q8 3 13.5 7t9.5 8q9 9 14 23zM2141 315q-6 -4 -12 -7.5t-11 -8.5q-8 -2 -12 -2h-28 q-4 0 -12 2q-11 4 -21 16q-7 7 -13 19q-2 8 -4 15.5t-2 13.5q0 2 1 6.5t1 8.5q2 4 3 9t4 9q2 3 5 6t5 7q7 5 16 9q3 5 8 6t7 3q5 0 8 1.5t10 1.5q2 0 7.5 -1.5t10.5 -1.5q4 -2 7.5 -3t5.5 -6q4 -2 8.5 -4.5t7.5 -4.5q1 -2 2 -3.5t2 -3.5l4 -6q2 -4 4 -8.5t3 -9.5 q2 -4 3 -8.5t1 -6.5q0 -6 -1 -13.5t-5 -15.5q0 -6 -5 -11zM1035 119q4 11 4 25t-4 23q-4 17 -18 23q-2 6 -7.5 9t-11.5 4q-11 6 -27 6q-14 0 -24 -6q-10 -1 -22 -13q-8 -5 -13 -23q-5 -5 -5 -10v-27q0 -4 5 -11q2 -7 5 -13.5t8 -9.5q6 -4 11 -8t11 -7q9 -4 24 -4q18 0 27 4 q14 7 19 15q7 3 11.5 9.5t6.5 13.5zM726 246h130v-37h-94v-52h77v-36h-77v-81h-36v206zM535 209h-55v-169h-40v169h-59v37h154v-37zM1302 246h155v-37h-61v-169h-37v169h-57v37zM1281 1233q16 -8 33.5 -19.5t33.5 -21.5h-304q34 28 70 41q37 17 82 17t85 -17zM1114 810 q-18 7 -35 18t-33 24h302q-16 -13 -33.5 -24t-33.5 -18q-22 -6 -43 -10.5t-42 -4.5q-23 0 -42.5 4.5t-39.5 10.5zM524 566l-44 64q4 0 11 4q7 3 8 9q8 6 8 11v24q0 1 -2 5q-4 9 -10 14q-5 8 -13 8q-2 4 -6.5 5t-8.5 1h-53v-145h22v60h22l37 -52q1 -4 7 -6q2 -2 3 -2h19z M1096 566l-63 145h-20l-62 -145h11q7 0 9 2q0 2 6 6l10 25h72l11 -25q1 -4 5 -6q2 -2 8 -2h13zM1810 676q2 -2 6.5 -7.5t5.5 -10.5q4 -7 4 -21q0 -12 -4 -21q-2 -5 -6 -9l-6 -6q-5 -4 -9 -6.5t-8 -6.5q-8 -4 -21 -4q-14 0 -21 4q-5 4 -9.5 6.5t-8.5 6.5q-3 2 -6 6.5t-3 8.5 q-6 10 -6 21q0 10 6 21q0 5 3 10.5t6 7.5q6 6 18 11q9 4 21 4t21 -4zM751 676q6 -2 8.5 -7.5t4.5 -10.5q4 -7 4 -21q0 -10 -4 -21q-2 -4 -4.5 -8.5t-8.5 -6.5q-4 -6 -16 -13q-7 -4 -21 -4q-10 0 -21 4q-4 4 -8.5 6.5t-8.5 6.5q-2 2 -5.5 6.5t-5.5 8.5q-4 11 -4 21q0 12 4 21 q5 12 11 18q4 4 8.5 6.5t8.5 4.5q5 2 11.5 3t9.5 1q13 0 21 -4q12 -4 16 -11zM277 647q5 12 5 18q0 9 -5 18q0 2 -4 6l-6 6q-2 3 -5 6.5t-9 3.5q-2 4 -7.5 5t-9.5 1h-49v-145h16v55h33q4 0 9.5 0.5t7.5 2.5q10 4 14 10q4 2 7 5.5t3 7.5zM2079 311h29l6 3q3 3 4 5q5 0 13 5 l3 6q1 1 1.5 2t2.5 2q0 3 2.5 7.5t2.5 8.5v32q-2 6 -6 10t-6 7q-6 2 -9.5 5t-7.5 7h-40q-6 -4 -9.5 -7t-8.5 -5q-7 -5 -11 -17q-2 -8 -2 -12v-20q0 -4 1 -8.5t4 -7.5l4 -4q3 -3 4 -6l6 -3q2 -2 4 -2q4 -4 7 -5t6 -3zM1993 711h-20v-112q-1 2 -2 5t-3 4l-70 97l-3 6h-23v-145 h21v114l2 -2l82 -112h16v145zM1480 382q-3 -6 -4 -11.5t-1 -7.5v-8q0 -3 2 -5q0 -8 5 -16q0 -2 2 -4t4 -6l5 -3q2 -2 9 -2q2 -4 5.5 -5t5.5 -3h26q5 2 8 3t6 5l6 2l4 3q2 4 4.5 6t2.5 4q2 3 3 7.5t3 8.5q0 2 1 5.5t1 7.5q0 2 -1 7.5t-5 11.5q0 6 -3.5 10t-5.5 7q-3 1 -8 6 l-9 6h-40q-4 -4 -9 -7t-9 -5q-2 -3 -5 -7t-3 -10zM935 711h-17v-112l-2 4q-2 6 -2 5l-69 97q-5 0 -6 6h-23v-145h19v117h2l2 -1v-4l81 -112h15v145zM1982 357q-4 -1 -7 -2t-5 -2l42 -56h-11l-6 2q-4 0 -4 7l-36 47h-26v-56h-15v130h54q3 0 9 -2q2 -2 5.5 -4.5t4.5 -4.5 q4 -2 5 -5.5t7 -7.5v-25q-4 -4 -5 -7.5t-3 -5.5zM1259 357q-3 -3 -11 -4l44 -56h-14q-3 0 -3 2q-6 0 -6 7l-36 47h-26v-56h-13v130h53q2 0 6 -2q8 -1 16 -9q0 -2 3 -5.5t3 -7.5q2 -2 2 -6v-13q0 -2 -2 -6q0 -9 -4 -13l-5 -4q-3 -3 -7 -4zM386 711h-91v-145h91v20h-69v44h55 v17h-55v42h69v22zM1614 711h-88v-145h88v20h-66v44h55v17h-55v42h66v22zM2306 425q6 2 5 2h12v-130h-11v106l-2 -2v-2q-4 -7 -6.5 -16t-7.5 -13q-4 -7 -6 -12.5t-7 -13.5q-2 -8 -3 -14t-5 -9q-3 -8 -6 -12.5t-5 -11.5h-14q-9 12 -14 24.5t-10 26.5q-4 11 -11 24.5t-11 26.5 v2h-4v-104h-13v130h13q4 0 6 -2l2 -2v-5l46 -99q0 -4 2 -4l1 2v4q0 1 7 5l38 92q2 5 3 5t1 2zM1387 711h-20v-97q0 -3 -2 -7q-2 -8 -9 -12q0 -2 -4 -3.5t-6 -5.5l-8 -2h-8q-7 0 -13 2q-5 4 -8 5.5t-5 3.5l-10 12q0 3 -1 7t-1 10v87h-19v-87q0 -6 1 -10t1 -7q0 -8 6 -14 q2 -6 9 -11q2 -3 4.5 -5.5t7.5 -4.5q2 -2 6 -3t7 -3q4 0 7 -1t8 -1q4 0 7.5 1t10.5 1q2 2 5 3t6 3q8 6 12 10q3 2 5 5t5 6q0 4 3 7t3 7v104zM622 592q2 5 3 8t1 8q0 10 -5 18t-11 13q-2 0 -3.5 2t-5.5 4l-4 2h-4q-1 0 -1 4q-7 0 -8 1q-7 2 -8.5 3t-5.5 3q-6 3 -8 3 q-3 4 -3 6v15q0 1 1.5 2t1.5 3q2 0 4 1t4 1q6 2 5 2h9q2 -2 4 -2q6 0 7 -4q2 -2 4 -2h2q9 0 13 4l4 2q0 2 -2 4l-4 4q-2 1 -4.5 3.5t-6.5 4.5q-2 0 -4 2t-5 4q-4 0 -6 0.5t-4 0.5q-6 0 -11 -0.5t-7 -0.5q-5 -2 -7 -4t-6 -4q-2 -5 -5.5 -7.5t-6.5 -6.5q0 -4 -2 -6.5t-2 -8.5 q0 -7 4 -16l5 -7l5 -4q2 -2 6 -5t7 -3l7 -4q2 -1 7 -1q1 -2 5.5 -2t6.5 -2l5 -2q2 0 4 -2t2 -3t2 -5q2 -2 2 -6v-9q0 -2 -2 -4t-2 -4t-2 -3q-1 -3 -6 -5l-3 -1q-4 0 -7.5 -1t-4.5 -1q-4 0 -7 1t-5 1q-5 0 -5 6l-4 1q-4 4 -11 4h-5l-4 -2l-5 -2q0 -3 3 -3q0 -2 2 -4 q0 -4 4 -4v-5h3q7 -7 15.5 -9t18.5 -2h8q5 0 11 2q4 2 8.5 4t6.5 5q4 2 7.5 5.5t4.5 9.5zM1497 592q7 7 7 16q0 10 -4.5 18t-11.5 13q-6 4 -6 6h-4q-1 0 -3 2h-3q-4 0 -5 4h-4q-2 0 -4 1l-4 3l-6 3l-7 3q-2 1 -3 2l-2 2l-1 2q0 1 -1 3t-1 4q0 4 4 8q0 1 4 5q2 0 3 1t4 1 q2 2 10 2l3 -1q2 -1 5 -1q3 -3 8 -4q6 -2 7 -2q7 0 8 4l5 2q0 2 -2.5 4t-4.5 4q0 1 -3 3.5t-5 4.5q-3 0 -5 2t-6 4h-6l-4 1q-6 0 -9.5 -0.5t-7.5 -0.5l-13 -8l-6 -8l-5 -6q-1 -4 -3 -6.5t-2 -8.5q0 -4 2 -7.5t3 -8.5q2 -4 4.5 -6.5l4.5 -4.5q4 -2 6.5 -5t6.5 -3q8 -5 13 -5 q4 -2 6.5 -2t5.5 -2q6 0 10 -4q2 -2 3.5 -3t1.5 -5q2 -2 2 -5v-9q0 -3 -2 -5q0 -5 -5 -7q-6 -4 -7 -5t-3 -1q-6 0 -7 -1t-5 -1q-2 0 -5.5 1t-5.5 1q-3 1 -8 6l-2 1q-4 4 -9 4h-6q-2 0 -4 -2l-6 -2q2 -1 2 -2t2 -1q0 -2 1 -3l3 -3v-2q7 -5 8 -5q6 -7 13.5 -9t16.5 -2h11 q3 0 11 2q2 2 5.5 4t7.5 5l5 7q3 3 4 8zM1632 297h-16v130h18q3 0 4 -4l69 -97q2 0 2 -4l2 -1v106h13v-130h-11l-77 106v4h-4v-110zM73 328q-4 4 -5 7.5t-2 8.5q-2 6 -3 9.5t-1 9.5t4 15q1 4 2 9t5 9l4 6l5 7q2 2 6 4.5t6 4.5q5 5 9.5 6t8.5 3q3 0 8 1.5t10 1.5q6 0 13 -1.5 t13 -5.5q13 -4 20 -14q-2 -2 -4 -2v-4h-13q-3 2 -6 5t-7 3h-34l-20 -12q-4 -3 -7 -7t-4 -10q-2 -6 -3 -11.5t-1 -7.5q0 -9 4 -13q0 -4 0.5 -8.5t0.5 -7.5l4 -4q4 -2 6 -6l7 -4q2 -1 7 -1q2 -4 4.5 -5t6.5 -3h31q2 2 6.5 3t8.5 5v27h-13v2q-2 0 -3 1l-3 3h-2q-1 1 -1 3v4h35 v-48q-2 -5 -3.5 -6t-5.5 -6h-11q-8 -2 -12 -2h-32q-4 0 -8.5 2.5t-9.5 6.5q-7 0 -12 9zM225 411v-41h52v-15h-52v-44h63v-14h-79v130h79v-16h-63zM1098 411v-41h56v-15h-56v-44h64v-14h-79v130h79v-16h-64zM2226 711h-18q-4 0 -8 -4q-5 -5 -5 -9l-35 -44h-2q0 -2 -2 -2v2 l-36 44q-1 6 -4 9q-4 4 -11 4h-16l54 -72v-2q0 -1 2 -1l2 -2v-68h20v66q2 0 2 2l2 3v2zM2112 586h-64v125h-20v-145h84v20zM601 427v-79q0 -6 2 -9t5 -5q0 -6 3 -9t5 -4q0 -2 4 -4t6 -4q6 -2 8 -2h15q1 0 5 2t7.5 4t6.5 4q4 1 8 13q4 3 4 14v79h13v-79q0 -11 -4 -22 q-5 -11 -11 -15q-5 -12 -15 -12q-6 -1 -11.5 -1.5t-10.5 -0.5t-10.5 0.5t-12.5 1.5q-3 0 -15 12l-10 15q-1 6 -3 11t-2 11v79h13zM1191 586h-62v125h-19v-145h81v20zM1361 315q1 2 2 3.5t2 3.5q2 2 3 6t1 6q0 8 -2 10t-3 4t-3 4q-1 1 -7 3q-4 0 -6 2t-6 2q-6 0 -12 6 q-9 0 -13 7q-2 0 -3.5 3t-3.5 6v21q0 1 2 7q0 8 7 9l6 5q2 1 3.5 2t3.5 2q4 0 6.5 1.5t7.5 1.5l6 -2l4 -1q3 0 4 -1t5 -3q6 0 6 -7q4 0 6 -3l1 -2l-2 -2q-6 -2 -9 -2h-6q-2 2 -2 4h-21q-8 0 -8 -2q-5 -7 -5 -8q-4 0 -4 -7q0 -5 4 -6q0 -5 3 -6q0 -2 3 -3l3 -1q4 -4 7 -4 t7 -2q3 0 4 -1l2 -1q3 0 7 -5h4q2 0 4 -2h2q5 -4 7.5 -7t4.5 -4q1 -5 1.5 -9.5t0.5 -8.5v-10q0 -4 -4 -5q-4 -9 -10 -13q-2 -2 -6 -4.5t-6 -2.5q-4 -2 -9 -2h-9q-9 0 -16.5 1t-12.5 8q-2 0 -3 2.5t-5 4.5v4l-2 2l4 2h6q1 0 3 -1t4 -1q4 -4 6.5 -5t4.5 -3h20q7 0 11 4z M1002 297l-55 130h5q6 0 8 -2t3 -2t3 -5l40 -97v-2l2 -6v6l2 2q5 13 12 25.5t11 23.5q4 14 9.5 25.5t11.5 22.5q0 5 1.5 5t1.5 2l6 2h10q-7 -16 -14 -32.5t-15 -31.5q-4 -8 -7 -17l-6 -18l-14 -31h-15zM499 411v-46h56v-12h-56v-56h-15v130h80v-16h-65zM1836 411v-46h51v-12 h-51v-56h-15v130h77v-16h-62zM824 427v-116h59v-14h-75v130h16zM348 297v114h-44v16h99v-16h-44v-114h-11zM735 427v-116h60v-14h-75v130h15zM253 683q2 -1 3 -4t3 -5q3 -5 3 -9v-4q0 -3 -3 -7q-2 -2 -3 -4.5t-3 -2.5q-1 -2 -7 -8h-43v50h33q4 0 10 -2l4 -2zM1242 365 q4 0 6 3q4 4 9 4l2 4q0 2 3 5q0 1 1 4t1 7q0 2 -1 3t-1 4q-3 2 -4 3t-1 5q-5 0 -9 4h-41v-46h35zM1970 368q4 4 7 4q5 7 5 9q2 4 2 11q0 3 -2 7q0 1 -5 8q-3 0 -7 4h-41v-46h33q3 0 8 3zM486 658l-4 -7q-2 0 -3 -2t-3 -2q-2 -2 -9 -2h-31v44h31q3 0 9 -2q2 0 3 -1l3 -3 q1 -2 2 -3.5t2 -3.5q3 -2 3 -9q0 -6 -3 -9zM1429 427v-130h-16v130h16zM641 121l-25 64q0 2 -1 3l-1 2q0 4 -2 6v-6l-1 -2q-1 -1 -1 -3l-26 -64h57zM1024 682v-4l26 -60h-55l27 60v5zM1645 77q6 0 6 -6q2 -2 2 -5v-4q0 -7 -2 -9q0 -5 -6 -9q-2 0 -5 -4h-17q-4 4 -9 4 q0 2 -5 9q-2 2 -2 9v4q0 3 2 5l3 4l2 2q7 4 9 4q1 3 4 3h10q3 0 3 -3q4 0 5 -4z" glyph-name="at" unicode="@"/><glyph d="M70 903q0 124 46 226t126.5 175.5t190 114t235.5 40.5t235.5 -40.5t190.5 -114t127 -176t46 -225.5v-383q0 -123 -46 -225t-127 -175t-190 -113.5t-235 -40.5q-127 0 -236.5 40.5t-190 113.5t-126.5 175t-46 225v383zM439 546q0 -53 16.5 -97t46.5 -75.5t72.5 -49.5 t94.5 -18t94 18t72 49.5t46.5 75.5t16.5 97v333q0 52 -16 96t-46 76t-72.5 50t-94.5 18t-94.5 -18t-72.5 -50t-46.5 -76t-16.5 -96v-333z" glyph-name="O" horiz-adv-x="1337" unicode="O"/><glyph d="M70 903q0 124 46 226t126.5 175.5t190 114t235.5 40.5t235.5 -40.5t190.5 -114t127 -176t46 -225.5v-383q0 -98 -29.5 -183t-83 -152.5t-127.5 -116t-162 -74.5v-228q0 -42 -39 -42h-286q-39 0 -39 42v220q-95 23 -174 71t-136 117t-89 156.5t-32 189.5v383zM439 546 q0 -53 16.5 -97t46.5 -75.5t72.5 -49.5t94.5 -18t94 18t72 49.5t46.5 75.5t16.5 97v333q0 52 -16 96t-46 76t-72.5 50t-94.5 18t-94.5 -18t-72.5 -50t-46.5 -76t-16.5 -96v-333z" glyph-name="Q" horiz-adv-x="1337" unicode="Q"/><glyph d="M80 724q0 111 38 207.5t104.5 168.5t157.5 113t197 41q44 0 83.5 -13t73.5 -35.5t62.5 -54.5t52.5 -69l22 98q12 44 60 44h183q20 0 32 -11t12 -34v-1134q0 -23 -12 -34t-32 -11h-188q-20 0 -35 11.5t-20 33.5l-21 98q-24 -38 -52.5 -70.5t-62.5 -56t-73.5 -37 t-83.5 -13.5q-106 0 -197 41t-158 112.5t-105 168t-38 206.5v230zM436 486q0 -41 13 -76.5t36.5 -61.5t55 -40.5t69.5 -14.5q41 0 76.5 15t61.5 40.5t41 60.5t15 76v258q-2 39 -17.5 73t-41.5 59t-60.5 39t-74.5 14q-38 0 -69.5 -15t-55 -41t-36.5 -61t-13 -76v-249z" glyph-name="a" horiz-adv-x="1298" unicode="a"/><glyph d="M1218 494q0 -110 -38 -206.5t-105 -168t-158 -112.5t-197 -41q-45 0 -84 13.5t-73.5 37t-63 56t-52.5 70.5l-20 -98q-5 -22 -20 -33.5t-35 -11.5h-188q-20 0 -32 11t-12 34v1492q0 23 12 34t32 11h250q23 0 41.5 -10.5t18.5 -33.5v-406q45 54 101 88t126 34 q106 0 196.5 -41t157.5 -113t105 -168.5t38 -207.5v-230zM862 735q0 41 -13 76t-36.5 61t-55.5 41t-69 15q-41 0 -76.5 -15t-61.5 -41t-41 -61t-15 -76v-258q1 -39 16.5 -72.5t41.5 -58.5t60.5 -39t75.5 -14q37 0 69 14.5t55.5 40.5t36.5 61.5t13 76.5v249z" glyph-name="b" horiz-adv-x="1298" unicode="b"/><glyph d="M80 724q0 111 38 207.5t104.5 168.5t157.5 113t197 41q70 0 126 -30.5t101 -81.5v396q0 23 18.5 33.5t41.5 10.5h250q20 0 32 -11t12 -34v-1492q0 -23 -12 -34t-32 -11h-188q-20 0 -35 11.5t-20 33.5l-21 98q-24 -38 -52.5 -70.5t-62.5 -56t-73.5 -37t-83.5 -13.5 q-106 0 -197 41t-158 112.5t-105 168t-38 206.5v230zM436 486q0 -41 13 -76.5t36.5 -61.5t55 -40.5t69.5 -14.5q41 0 76.5 15t61.5 40.5t41 60.5t15 76v258q-2 39 -17.5 73t-41.5 59t-60.5 39t-74.5 14q-38 0 -69.5 -15t-55 -41t-36.5 -61t-13 -76v-249z" glyph-name="d" horiz-adv-x="1298" unicode="d"/><glyph d="M80 721q0 116 42 213.5t115.5 168.5t174.5 111t219 40q44 0 97.5 -11t107.5 -37t104.5 -69t89.5 -106t62.5 -148.5t23.5 -196.5v-98q0 -58 -26.5 -79t-84.5 -21h-569q3 -91 53.5 -143t133.5 -52q38 0 73 15t64 57q9 13 20 15t21 -3l240 -126q11 -8 10.5 -19.5 t-10.5 -28.5q-29 -48 -69 -91t-91.5 -75.5t-114.5 -51.5t-137 -19q-117 0 -217.5 40.5t-174 111t-115.5 167t-42 208.5v228zM623 928q-48 0 -82.5 -16t-56.5 -42t-33 -57.5t-14 -61.5h346q-1 28 -8 59t-24 57t-48 43.5t-80 17.5z" glyph-name="e" horiz-adv-x="1195" unicode="e"/><glyph d="M187 889h-108q-17 0 -28.5 10t-11.5 29v258q0 18 11.5 28.5t28.5 10.5h108q0 91 19.5 170t73.5 132.5t151 76t253 0.5q34 -5 46.5 -17t12.5 -47v-175q0 -32 -16.5 -45t-42.5 -8q-38 7 -62.5 5.5t-38.5 -12t-20.5 -30.5t-7.5 -50h152q18 0 29 -12t11 -27v-258 q0 -19 -11 -29t-29 -10h-152v-848q0 -41 -39 -41h-290q-39 0 -39 41v848z" glyph-name="f" horiz-adv-x="797" unicode="f"/><glyph d="M1158 191q0 -114 -22 -205t-60.5 -161t-92.5 -120t-117.5 -81.5t-135 -46t-145.5 -12.5q-60 1 -118 10.5t-112.5 28.5t-104 48.5t-90.5 70.5q-17 17 -13 31.5t15 30.5l128 148q17 25 37 24t38 -15q44 -33 97 -45t116 -12q47 0 88.5 15.5t72 45t47.5 73t17 99.5v8 q-45 -59 -100.5 -94.5t-124.5 -35.5q-106 0 -197 41t-158 112.5t-105 168t-38 206.5v200q0 111 38 207.5t104.5 168.5t157.5 113t197 41q44 0 83.5 -13t73.5 -35.5t62.5 -54.5t52.5 -69l22 98q12 44 60 44h183q20 0 32 -11t12 -34v-988zM436 516q0 -41 13 -76.5t36.5 -61.5 t55 -40.5t69.5 -14.5q41 0 76.5 15t61.5 40.5t41 60.5t15 76v228q-2 39 -17.5 73t-41.5 59t-60.5 39t-74.5 14q-38 0 -69.5 -15t-55 -41t-36.5 -61t-13 -76v-219z" glyph-name="g" horiz-adv-x="1298" unicode="g"/><glyph d="M849 753q0 37 -14 69t-37 55.5t-52.5 37t-61.5 13.5q-33 0 -64 -13t-55 -36t-39.5 -54.5t-16.5 -68.5v-711q0 -11 -6 -19.5t-15.5 -14t-21 -8.5t-21.5 -3h-261q-44 0 -44 45v1492q0 45 44 45h258q12 0 23.5 -1.5t21.5 -7.5t16 -17t6 -29v-394q46 55 110.5 88t154.5 33 q43 0 93 -13t99.5 -39.5t95 -66.5t80 -94.5t55.5 -124t21 -153.5v-719q0 -22 -11 -33t-31 -11h-284q-43 0 -43 44v709z" glyph-name="h" horiz-adv-x="1348" unicode="h"/><glyph d="M140 1183q0 21 13.5 31.5t28.5 10.5h285q18 0 30 -11.5t12 -30.5v-1141q0 -42 -42 -42h-285q-42 0 -42 42v1141zM140 1605q0 34 17.5 57t61.5 23h219q39 0 55.5 -21.5t16.5 -58.5v-203q0 -41 -18.5 -55.5t-53.5 -14.5h-219q-35 0 -57 14t-22 55v204z" glyph-name="i" horiz-adv-x="649" unicode="i"/><glyph d="M140 1181q0 23 12 33.5t32 10.5h282q43 0 43 -44v-1170q0 -92 -33.5 -169t-95.5 -132.5t-151.5 -86t-201.5 -30.5q-27 0 -46 12t-19 31v242q0 9 1 18t6.5 16.5t16 12.5t28.5 5q37 0 61 9t38.5 28t20.5 48t6 69v1097zM140 1604q0 34 17.5 57t61.5 23h218q39 0 55.5 -21.5 t16.5 -58.5v-213q0 -41 -18.5 -55.5t-53.5 -14.5h-218q-35 0 -57 14t-22 55v214z" glyph-name="j" horiz-adv-x="649" unicode="j"/><glyph d="M830 708l395 -635q9 -14 10.5 -27t-3 -23.5t-14.5 -16.5t-23 -6h-324q-21 0 -33 9.5t-26 32.5l-220 401l-83 -67v-334q0 -42 -40 -42h-287q-42 0 -42 42v1497q0 43 42 43h287q40 0 40 -43v-721l276 375q17 23 33 27t39 4h289q18 0 29.5 -7.5t16.5 -19t3.5 -24 t-10.5 -22.5z" glyph-name="k" horiz-adv-x="1275" unicode="k"/><glyph d="M140 1539q0 43 42 43h287q40 0 40 -43v-1497q0 -42 -40 -42h-287q-42 0 -42 42v1497z" glyph-name="l" horiz-adv-x="649" unicode="l"/><glyph d="M1479 755q0 29 -8.5 60t-26 56t-44.5 41t-65 16q-29 0 -56.5 -12.5t-49.5 -35t-35.5 -54t-14.5 -69.5v-713q0 -44 -43 -44h-285q-41 0 -41 44v704q0 32 -9 64t-26 58t-42.5 42t-59.5 16q-35 0 -65 -13t-52 -37t-34.5 -57t-12.5 -73v-703q0 -11 -6 -19.5t-15.5 -14 t-21 -8.5t-21.5 -3h-261q-44 0 -44 45v1135q0 45 44 45h193q23 0 41.5 -12t25.5 -43l18 -83q27 47 61 79t72.5 51.5t81 28t86.5 8.5q36 0 81 -11.5t91 -36.5t89.5 -64.5t77.5 -94.5q33 58 71 98t80 64t87.5 34.5t93.5 10.5q37 0 82 -9.5t91 -32.5t89.5 -62t77 -98.5t54 -141 t20.5 -189.5v-677q0 -44 -41 -44h-286q-42 0 -42 44v711z" glyph-name="m" horiz-adv-x="1978" unicode="m"/><glyph d="M849 753q0 37 -14 69t-37 55.5t-52.5 37t-61.5 13.5q-33 0 -64 -13t-55 -36t-39.5 -54.5t-16.5 -68.5v-711q0 -11 -6 -19.5t-15.5 -14t-21 -8.5t-21.5 -3h-261q-44 0 -44 45v1135q0 45 44 45h193q23 0 41 -9.5t26 -45.5l19 -88q48 81 123 126.5t188 45.5q43 0 93 -13 t99.5 -39.5t95 -66.5t80 -94.5t55.5 -124t21 -153.5v-719q0 -22 -11 -33t-31 -11h-284q-43 0 -43 44v709z" glyph-name="n" horiz-adv-x="1348" unicode="n"/><glyph d="M80 724q0 111 41.5 207.5t114 168.5t170.5 113t211 41q114 0 213 -41t172 -113t114.5 -168.5t41.5 -207.5v-230q0 -110 -41.5 -206.5t-114.5 -168t-171.5 -112.5t-212.5 -41t-212 41t-170.5 112.5t-114 168t-41.5 206.5v230zM436 486q0 -41 13.5 -76.5t37.5 -61.5 t58 -40.5t75 -14.5t75 15t58 40.5t37.5 60.5t13.5 76v250q0 41 -13.5 76t-37.5 61t-58 41t-75 15t-75 -15t-58 -41t-37.5 -61t-13.5 -76v-249z" glyph-name="o" horiz-adv-x="1238" unicode="o"/><glyph d="M1218 494q0 -110 -38 -206.5t-105 -168t-158 -112.5t-197 -41q-70 0 -126 31t-100 82v-408q0 -23 -17.5 -34t-37.5 -11h-255q-20 0 -32 11t-12 34v1508q0 23 12 34t32 11h183q48 0 60 -44l22 -98q47 75 115 123.5t157 48.5q106 0 196.5 -41t157.5 -113t105 -168.5 t38 -207.5v-230zM862 735q0 41 -13 76t-36.5 61t-55.5 41t-69 15q-40 0 -75 -14t-61 -39t-41.5 -59t-16.5 -73v-266q1 -39 16.5 -72.5t41.5 -58.5t60.5 -39t75.5 -14q37 0 69 14.5t55.5 40.5t36.5 61.5t13 76.5v249z" glyph-name="p" horiz-adv-x="1298" unicode="p"/><glyph d="M80 724q0 111 38 207.5t104.5 168.5t157.5 113t197 41q44 0 83.5 -13t73.5 -35.5t62.5 -54.5t52.5 -69l22 98q12 44 60 44h183q20 0 32 -11t12 -34v-1508q0 -23 -12 -34t-32 -11h-255q-20 0 -37.5 11t-17.5 34v408q-45 -51 -101 -82t-125 -31q-106 0 -197 41t-158 112.5 t-105 168t-38 206.5v230zM436 486q0 -41 13 -76.5t36.5 -61.5t55 -40.5t69.5 -14.5q41 0 76.5 15t61.5 40.5t41 60.5t15 76v250q0 41 -15 76t-41 61t-61.5 41t-76.5 15q-38 0 -69.5 -15t-55 -41t-36.5 -61t-13 -76v-249z" glyph-name="q" horiz-adv-x="1298" unicode="q"/><glyph d="M140 1180q0 45 44 45h190q23 0 42 -10t27 -45l20 -89q20 36 45.5 67.5t58.5 55t74 37t91 13.5q47 0 87 -8.5t71.5 -20t53.5 -24t33 -20.5q23 -17 26 -37.5t-3 -43.5l-57 -222q-3 -12 -12.5 -18.5t-21.5 -8.5t-24.5 0t-20.5 8q-22 16 -41 29t-39 22t-45 13.5t-59 4.5 q-36 0 -67 -11t-53.5 -33.5t-36 -56t-14.5 -78.5v-704q0 -23 -16 -34t-36 -11h-273q-44 0 -44 45v1135z" glyph-name="r" horiz-adv-x="1032" unicode="r"/><glyph d="M51 234q-12 20 -13 38t28 35l211 110q30 17 52 -20q13 -22 33 -43t44.5 -37t53 -25.5t59.5 -9.5q53 0 88.5 17.5t35.5 53.5q0 23 -21.5 41.5t-58 35t-84 33t-98.5 35.5q-74 27 -132.5 60t-99.5 76.5t-62.5 99t-21.5 129.5q0 78 33.5 148.5t93 124t141.5 85.5t178 32 q77 0 147 -24t127 -61.5t98.5 -83t61.5 -88.5q5 -11 8 -19.5t2 -15.5t-7 -13t-19 -12l-190 -89q-22 -11 -33.5 -8.5t-23.5 20.5q-25 36 -66.5 57t-92.5 21q-53 0 -82.5 -16.5t-29.5 -44.5q0 -20 16.5 -33.5t49 -26.5t82 -29t115.5 -40q84 -31 143.5 -73t97.5 -92t56 -107 t18 -118q0 -91 -38.5 -163.5t-102.5 -123t-147 -77.5t-172 -27q-65 0 -132 15t-130 47.5t-118.5 83t-97.5 122.5z" glyph-name="s" horiz-adv-x="1052" unicode="s"/><glyph d="M550 886v-844q0 -42 -41 -42h-290q-39 0 -39 42v844h-110q-17 0 -28.5 10t-11.5 29v262q0 17 11.5 27.5t28.5 10.5h110v169q0 21 8.5 34t35.5 22l253 84q29 10 51 -4t22 -52v-253h147q19 0 29.5 -12t10.5 -26v-262q0 -39 -40 -39h-147z" glyph-name="t" horiz-adv-x="775" unicode="t"/><glyph d="M499 459q1 -35 15.5 -65.5t37.5 -53t52 -35.5t60 -13q33 0 64 13t55 35.5t39 54t17 68.5v717q0 11 6 19.5t15.5 14t21 8.5t21.5 3h261q44 0 44 -45v-1135q0 -45 -44 -45h-193q-23 0 -41 9.5t-26 45.5l-19 84q-47 -81 -122.5 -127t-188.5 -46q-44 0 -93.5 13t-99 39.5 t-95 66.5t-80 94.5t-55.5 123.5t-21 154v724q0 22 11 33t31 11h284q43 0 43 -44v-722z" glyph-name="u" horiz-adv-x="1348" unicode="u"/><glyph d="M770 42q-15 -42 -55 -42h-226q-41 0 -56 42l-407 1109q-13 37 -2 55.5t40 18.5h291q43 0 55 -45l181 -694l19 -144l19 144l180 697q12 42 55 42h305q26 0 31 -16t-6 -49z" glyph-name="v" horiz-adv-x="1211" unicode="v"/><glyph d="M1043 906l91 -369l22 -118l21 119l158 645q12 42 55 42h296q26 0 31.5 -16.5t-6.5 -48.5l-414 -1118q-15 -42 -56 -42h-185q-43 0 -56 42l-109 322l-31 109l-25 -112l-111 -319q-15 -42 -56 -42h-185q-41 0 -56 42l-397 1109q-13 36 -2.5 55t39.5 19h282q42 0 54 -46 l160 -644l20 -124l21 125l159 647q12 42 55 42h295q26 0 31 -16.5t-7 -48.5z" glyph-name="w" horiz-adv-x="1733" unicode="w"/><glyph d="M668 -395q-15 -42 -58 -42h-242q-42 0 -56.5 22.5t-0.5 60.5l124 354l-400 1150q-13 37 -2.5 55.5t39.5 18.5h292q42 0 54 -46l167 -610l33 -190l36 191l167 615q5 22 19.5 32t34.5 10h306q26 0 31.5 -16.5t-7.5 -49.5z" glyph-name="y" horiz-adv-x="1238" unicode="y"/><glyph d="M959 1225q31 0 33 -36l1 -209q0 -12 -0.5 -20t-7.5 -17l-474 -621l92 13h367q17 0 26 -12t9 -23v-264q0 -13 -9 -24.5t-26 -11.5h-866q-31 0 -31 36l-1 186q0 17 3 25t8 16l482 633l-87 -10h-348q-16 0 -24 12t-8 23v268q0 13 7.5 24.5t24.5 11.5h829z" glyph-name="z" horiz-adv-x="1103" unicode="z"/><glyph d="M80 719q0 113 41 210.5t113.5 169.5t172 113.5t216.5 41.5q69 0 132.5 -20.5t116 -56t93.5 -83t65 -100.5q8 -17 10 -29.5t-10 -18.5l-229 -113q-11 -5 -22.5 -3.5t-19.5 15.5q-9 16 -23.5 31t-33 26.5t-40 18.5t-44.5 7q-42 0 -76 -15t-57.5 -43t-36 -66.5t-12.5 -85.5 v-216q0 -51 14 -90t38 -65.5t57.5 -40t72.5 -13.5q47 0 81.5 23.5t60.5 59.5q10 14 20 15t21 -4l229 -113q11 -9 10 -20t-9 -28q-24 -54 -65.5 -101t-95 -82.5t-117 -56t-133.5 -20.5q-78 0 -148.5 19t-130.5 53.5t-108.5 83t-82 107.5t-52 126.5t-18.5 140.5v223v0z" glyph-name="c" horiz-adv-x="1093" unicode="c"/><glyph d="M70 903q0 124 46 226t126.5 175.5t190 114t235.5 40.5t235.5 -40.5t190.5 -114t127 -176t46 -225.5v-383q0 -123 -46 -225t-127 -175t-190 -113.5t-235 -40.5q-127 0 -236.5 40.5t-190 113.5t-126.5 175t-46 225v383zM439 546q0 -53 16.5 -97t46.5 -75.5t72.5 -49.5 t94.5 -18t94 18t72 49.5t46.5 75.5t16.5 97v333q0 52 -16 96t-46 76t-72.5 50t-94.5 18t-94.5 -18t-72.5 -50t-46.5 -76t-16.5 -96v-333zM441 1630v248q0 5 1 6q4 2 6 2h64q15 0 27 -6q12 -4 22 -14q5 -5 9 -10.5t6 -11.5q5 -13 5 -27v-32q0 -19 -7 -32q-7 -15 -19 -23 l29 -100v-1q0 -3 -1 -4q-2 -2 -4 -2h-37q-2 0 -4 2l-2 5l-20 85h-28v-85q0 -7 -7 -7h-33q-7 0 -7 7zM673 1627v3l56 249q2 7 8 7h32q6 0 8 -7l55 -249q1 -1 1 -3q0 -4 -4 -4h-37q-3 0 -5 2q-3 1 -3 5l-6 37h-50l-6 -37q-1 -3 -3 -5t-5 -2h-37q-4 0 -4 4zM332 1625q-1 1 -1 5 v211h-39q-3 0 -3 1q-2 2 -2 5v32q0 4 2 5q0 2 3 2h124q2 0 4 -2t2 -5v-32q0 -1 -2 -5q-1 -1 -4 -1h-38v-211q0 -7 -6 -7h-36q-2 0 -4 2zM848 1630v248q0 4 2 6t5 2h34q3 0 5 -2t2 -6v-210h58q6 0 6 -6v-32q0 -7 -6 -7h-99q-7 0 -7 7zM610 1630v248q0 5 2 6q2 2 5 2h33 q3 0 5 -2t2 -6v-248q0 -7 -7 -7h-33q-7 0 -7 7zM512 1760q10 0 16 6q6 7 6 17v35q0 10 -6 16q-7 7 -17 7h-23v-81h24zM770 1709l-15 96l-2 25l-2 -25l-16 -96h35z" glyph-name="Ocircumflex" horiz-adv-x="1337" unicode="Ô"/><glyph d="M70 903q0 124 46 226t126.5 175.5t190 114t235.5 40.5t235.5 -40.5t190.5 -114t127 -176t46 -225.5v-383q0 -123 -46 -225t-127 -175t-190 -113.5t-235 -40.5q-127 0 -236.5 40.5t-190 113.5t-126.5 175t-46 225v383zM439 546q0 -53 16.5 -97t46.5 -75.5t72.5 -49.5 t94.5 -18t94 18t72 49.5t46.5 75.5t16.5 97v333q0 52 -16 96t-46 76t-72.5 50t-94.5 18t-94.5 -18t-72.5 -50t-46.5 -76t-16.5 -96v-333zM387 1611v248q0 5 1 6q4 2 6 2h64q15 0 27 -6q12 -4 22 -14q5 -5 9 -10.5t6 -11.5q5 -13 5 -27v-32q0 -19 -7 -32q-7 -15 -19 -23 l29 -100v-1q0 -3 -1 -4q-2 -2 -4 -2h-37q-2 0 -4 2l-2 5l-20 85h-28v-85q0 -7 -7 -7h-33q-7 0 -7 7zM619 1608v3l56 249q2 7 8 7h32q6 0 8 -7l55 -249q1 -1 1 -3q0 -4 -4 -4h-37q-3 0 -5 2q-3 1 -3 5l-6 37h-50l-6 -37q-1 -3 -3 -5t-5 -2h-37q-4 0 -4 4zM278 1606q-1 1 -1 5 v211h-39q-3 0 -3 1q-2 2 -2 5v32q0 4 2 5q0 2 3 2h124q2 0 4 -2t2 -5v-32q0 -1 -2 -5q-1 -1 -4 -1h-38v-211q0 -7 -6 -7h-36q-2 0 -4 2zM794 1611v248q0 4 2 6t5 2h34q3 0 5 -2t2 -6v-210h58q6 0 6 -6v-32q0 -7 -6 -7h-99q-7 0 -7 7zM556 1611v248q0 5 2 6q2 2 5 2h33 q3 0 5 -2t2 -6v-248q0 -7 -7 -7h-33q-7 0 -7 7zM458 1741q10 0 16 6q6 7 6 17v35q0 10 -6 16q-7 7 -17 7h-23v-81h24zM716 1690l-15 96l-2 25l-2 -25l-16 -96h35z" glyph-name="Odieresis" horiz-adv-x="1337" unicode="Ö"/><glyph d="M382 1443v248q0 5 1 6q4 2 6 2h64q15 0 27 -6q12 -4 22 -14q5 -5 9 -10.5t6 -11.5q5 -13 5 -27v-32q0 -19 -7 -32q-7 -15 -19 -23l29 -100v-1q0 -3 -1 -4q-2 -2 -4 -2h-37q-2 0 -4 2l-2 5l-20 85h-28v-85q0 -7 -7 -7h-33q-7 0 -7 7zM614 1440v3l56 249q2 7 8 7h32 q6 0 8 -7l55 -249q1 -1 1 -3q0 -4 -4 -4h-37q-3 0 -5 2q-3 1 -3 5l-6 37h-50l-6 -37q-1 -3 -3 -5t-5 -2h-37q-4 0 -4 4zM273 1438q-1 1 -1 5v211h-39q-3 0 -3 1q-2 2 -2 5v32q0 4 2 5q0 2 3 2h124q2 0 4 -2t2 -5v-32q0 -1 -2 -5q-1 -1 -4 -1h-38v-211q0 -7 -6 -7h-36 q-2 0 -4 2zM789 1443v248q0 4 2 6t5 2h34q3 0 5 -2t2 -6v-210h58q6 0 6 -6v-32q0 -7 -6 -7h-99q-7 0 -7 7zM551 1443v248q0 5 2 6q2 2 5 2h33q3 0 5 -2t2 -6v-248q0 -7 -7 -7h-33q-7 0 -7 7zM453 1573q10 0 16 6q6 7 6 17v35q0 10 -6 16q-7 7 -17 7h-23v-81h24zM711 1522 l-15 96l-2 25l-2 -25l-16 -96h35zM80 724q0 111 38 207.5t104.5 168.5t157.5 113t197 41q44 0 83.5 -13t73.5 -35.5t62.5 -54.5t52.5 -69l22 98q12 44 60 44h183q20 0 32 -11t12 -34v-1134q0 -23 -12 -34t-32 -11h-188q-20 0 -35 11.5t-20 33.5l-21 98q-24 -38 -52.5 -70.5 t-62.5 -56t-73.5 -37t-83.5 -13.5q-106 0 -197 41t-158 112.5t-105 168t-38 206.5v230zM436 486q0 -41 13 -76.5t36.5 -61.5t55 -40.5t69.5 -14.5q41 0 76.5 15t61.5 40.5t41 60.5t15 76v258q-2 39 -17.5 73t-41.5 59t-60.5 39t-74.5 14q-38 0 -69.5 -15t-55 -41t-36.5 -61 t-13 -76v-249z" glyph-name="aring" horiz-adv-x="1298" unicode="å"/><glyph d="M80 724q0 111 38 207.5t104.5 168.5t157.5 113t197 41q44 0 83.5 -13t73.5 -35.5t62.5 -54.5t52.5 -69l22 98q12 44 60 44h183q20 0 32 -11t12 -34v-1134q0 -23 -12 -34t-32 -11h-188q-20 0 -35 11.5t-20 33.5l-21 98q-24 -38 -52.5 -70.5t-62.5 -56t-73.5 -37 t-83.5 -13.5q-106 0 -197 41t-158 112.5t-105 168t-38 206.5v230zM436 486q0 -41 13 -76.5t36.5 -61.5t55 -40.5t69.5 -14.5q41 0 76.5 15t61.5 40.5t41 60.5t15 76v258q-2 39 -17.5 73t-41.5 59t-60.5 39t-74.5 14q-38 0 -69.5 -15t-55 -41t-36.5 -61t-13 -76v-249z M341 1417v248q0 5 1 6q4 2 6 2h64q15 0 27 -6q12 -4 22 -14q5 -5 9 -10.5t6 -11.5q5 -13 5 -27v-32q0 -19 -7 -32q-7 -15 -19 -23l29 -100v-1q0 -3 -1 -4q-2 -2 -4 -2h-37q-2 0 -4 2l-2 5l-20 85h-28v-85q0 -7 -7 -7h-33q-7 0 -7 7zM573 1414v3l56 249q2 7 8 7h32q6 0 8 -7 l55 -249q1 -1 1 -3q0 -4 -4 -4h-37q-3 0 -5 2q-3 1 -3 5l-6 37h-50l-6 -37q-1 -3 -3 -5t-5 -2h-37q-4 0 -4 4zM232 1412q-1 1 -1 5v211h-39q-3 0 -3 1q-2 2 -2 5v32q0 4 2 5q0 2 3 2h124q2 0 4 -2t2 -5v-32q0 -1 -2 -5q-1 -1 -4 -1h-38v-211q0 -7 -6 -7h-36q-2 0 -4 2z M748 1417v248q0 4 2 6t5 2h34q3 0 5 -2t2 -6v-210h58q6 0 6 -6v-32q0 -7 -6 -7h-99q-7 0 -7 7zM510 1417v248q0 5 2 6q2 2 5 2h33q3 0 5 -2t2 -6v-248q0 -7 -7 -7h-33q-7 0 -7 7zM412 1547q10 0 16 6q6 7 6 17v35q0 10 -6 16q-7 7 -17 7h-23v-81h24zM670 1496l-15 96l-2 25 l-2 -25l-16 -96h35z" glyph-name="atilde" horiz-adv-x="1298" unicode="ã"/><glyph d="M668 -395q-15 -42 -58 -42h-242q-42 0 -56.5 22.5t-0.5 60.5l124 354l-400 1150q-13 37 -2.5 55.5t39.5 18.5h292q42 0 54 -46l167 -610l33 -190l36 191l167 615q5 22 19.5 32t34.5 10h306q26 0 31.5 -16.5t-7.5 -49.5zM481 1352v248q0 5 1 6q4 2 6 2h64q15 0 27 -6 q12 -4 22 -14q5 -5 9 -10.5t6 -11.5q5 -13 5 -27v-32q0 -19 -7 -32q-7 -15 -19 -23l29 -100v-1q0 -3 -1 -4q-2 -2 -4 -2h-37q-2 0 -4 2l-2 5l-20 85h-28v-85q0 -7 -7 -7h-33q-7 0 -7 7zM713 1349v3l56 249q2 7 8 7h32q6 0 8 -7l55 -249q1 -1 1 -3q0 -4 -4 -4h-37q-3 0 -5 2 q-3 1 -3 5l-6 37h-50l-6 -37q-1 -3 -3 -5t-5 -2h-37q-4 0 -4 4zM372 1347q-1 1 -1 5v211h-39q-3 0 -3 1q-2 2 -2 5v32q0 4 2 5q0 2 3 2h124q2 0 4 -2t2 -5v-32q0 -1 -2 -5q-1 -1 -4 -1h-38v-211q0 -7 -6 -7h-36q-2 0 -4 2zM888 1352v248q0 4 2 6t5 2h34q3 0 5 -2t2 -6v-210 h58q6 0 6 -6v-32q0 -7 -6 -7h-99q-7 0 -7 7zM650 1352v248q0 5 2 6q2 2 5 2h33q3 0 5 -2t2 -6v-248q0 -7 -7 -7h-33q-7 0 -7 7zM552 1482q10 0 16 6q6 7 6 17v35q0 10 -6 16q-7 7 -17 7h-23v-81h24zM810 1431l-15 96l-2 25l-2 -25l-16 -96h35z" glyph-name="yacute" horiz-adv-x="1238" unicode="ý"/><glyph d="M51 234q-12 20 -13 38t28 35l211 110q30 17 52 -20q13 -22 33 -43t44.5 -37t53 -25.5t59.5 -9.5q53 0 88.5 17.5t35.5 53.5q0 23 -21.5 41.5t-58 35t-84 33t-98.5 35.5q-74 27 -132.5 60t-99.5 76.5t-62.5 99t-21.5 129.5q0 78 33.5 148.5t93 124t141.5 85.5t178 32 q77 0 147 -24t127 -61.5t98.5 -83t61.5 -88.5q5 -11 8 -19.5t2 -15.5t-7 -13t-19 -12l-190 -89q-22 -11 -33.5 -8.5t-23.5 20.5q-25 36 -66.5 57t-92.5 21q-53 0 -82.5 -16.5t-29.5 -44.5q0 -20 16.5 -33.5t49 -26.5t82 -29t115.5 -40q84 -31 143.5 -73t97.5 -92t56 -107 t18 -118q0 -91 -38.5 -163.5t-102.5 -123t-147 -77.5t-172 -27q-65 0 -132 15t-130 47.5t-118.5 83t-97.5 122.5zM395 1395v248q0 5 1 6q4 2 6 2h64q15 0 27 -6q12 -4 22 -14q5 -5 9 -10.5t6 -11.5q5 -13 5 -27v-32q0 -19 -7 -32q-7 -15 -19 -23l29 -100v-1q0 -3 -1 -4 q-2 -2 -4 -2h-37q-2 0 -4 2l-2 5l-20 85h-28v-85q0 -7 -7 -7h-33q-7 0 -7 7zM627 1392v3l56 249q2 7 8 7h32q6 0 8 -7l55 -249q1 -1 1 -3q0 -4 -4 -4h-37q-3 0 -5 2q-3 1 -3 5l-6 37h-50l-6 -37q-1 -3 -3 -5t-5 -2h-37q-4 0 -4 4zM286 1390q-1 1 -1 5v211h-39q-3 0 -3 1 q-2 2 -2 5v32q0 4 2 5q0 2 3 2h124q2 0 4 -2t2 -5v-32q0 -1 -2 -5q-1 -1 -4 -1h-38v-211q0 -7 -6 -7h-36q-2 0 -4 2zM802 1395v248q0 4 2 6t5 2h34q3 0 5 -2t2 -6v-210h58q6 0 6 -6v-32q0 -7 -6 -7h-99q-7 0 -7 7zM564 1395v248q0 5 2 6q2 2 5 2h33q3 0 5 -2t2 -6v-248 q0 -7 -7 -7h-33q-7 0 -7 7zM466 1525q10 0 16 6q6 7 6 17v35q0 10 -6 16q-7 7 -17 7h-23v-81h24zM724 1474l-15 96l-2 25l-2 -25l-16 -96h35z" glyph-name="sacute" horiz-adv-x="1052" unicode="ś"/><glyph d="M499 459q1 -35 15.5 -65.5t37.5 -53t52 -35.5t60 -13q33 0 64 13t55 35.5t39 54t17 68.5v717q0 11 6 19.5t15.5 14t21 8.5t21.5 3h261q44 0 44 -45v-1135q0 -45 -44 -45h-193q-23 0 -41 9.5t-26 45.5l-19 84q-47 -81 -122.5 -127t-188.5 -46q-44 0 -93.5 13t-99 39.5 t-95 66.5t-80 94.5t-55.5 123.5t-21 154v724q0 22 11 33t31 11h284q43 0 43 -44v-722zM516 1353v248q0 5 1 6q4 2 6 2h64q15 0 27 -6q12 -4 22 -14q5 -5 9 -10.5t6 -11.5q5 -13 5 -27v-32q0 -19 -7 -32q-7 -15 -19 -23l29 -100v-1q0 -3 -1 -4q-2 -2 -4 -2h-37q-2 0 -4 2 l-2 5l-20 85h-28v-85q0 -7 -7 -7h-33q-7 0 -7 7zM748 1350v3l56 249q2 7 8 7h32q6 0 8 -7l55 -249q1 -1 1 -3q0 -4 -4 -4h-37q-3 0 -5 2q-3 1 -3 5l-6 37h-50l-6 -37q-1 -3 -3 -5t-5 -2h-37q-4 0 -4 4zM407 1348q-1 1 -1 5v211h-39q-3 0 -3 1q-2 2 -2 5v32q0 4 2 5q0 2 3 2 h124q2 0 4 -2t2 -5v-32q0 -1 -2 -5q-1 -1 -4 -1h-38v-211q0 -7 -6 -7h-36q-2 0 -4 2zM923 1353v248q0 4 2 6t5 2h34q3 0 5 -2t2 -6v-210h58q6 0 6 -6v-32q0 -7 -6 -7h-99q-7 0 -7 7zM685 1353v248q0 5 2 6q2 2 5 2h33q3 0 5 -2t2 -6v-248q0 -7 -7 -7h-33q-7 0 -7 7z M587 1483q10 0 16 6q6 7 6 17v35q0 10 -6 16q-7 7 -17 7h-23v-81h24zM845 1432l-15 96l-2 25l-2 -25l-16 -96h35z" glyph-name="uacute" horiz-adv-x="1348" unicode="ú"/><glyph d="M499 459q1 -35 15.5 -65.5t37.5 -53t52 -35.5t60 -13q33 0 64 13t55 35.5t39 54t17 68.5v717q0 11 6 19.5t15.5 14t21 8.5t21.5 3h261q44 0 44 -45v-1135q0 -45 -44 -45h-193q-23 0 -41 9.5t-26 45.5l-19 84q-47 -81 -122.5 -127t-188.5 -46q-44 0 -93.5 13t-99 39.5 t-95 66.5t-80 94.5t-55.5 123.5t-21 154v724q0 22 11 33t31 11h284q43 0 43 -44v-722zM408 1376v248q0 5 1 6q4 2 6 2h64q15 0 27 -6q12 -4 22 -14q5 -5 9 -10.5t6 -11.5q5 -13 5 -27v-32q0 -19 -7 -32q-7 -15 -19 -23l29 -100v-1q0 -3 -1 -4q-2 -2 -4 -2h-37q-2 0 -4 2 l-2 5l-20 85h-28v-85q0 -7 -7 -7h-33q-7 0 -7 7zM640 1373v3l56 249q2 7 8 7h32q6 0 8 -7l55 -249q1 -1 1 -3q0 -4 -4 -4h-37q-3 0 -5 2q-3 1 -3 5l-6 37h-50l-6 -37q-1 -3 -3 -5t-5 -2h-37q-4 0 -4 4zM299 1371q-1 1 -1 5v211h-39q-3 0 -3 1q-2 2 -2 5v32q0 4 2 5q0 2 3 2 h124q2 0 4 -2t2 -5v-32q0 -1 -2 -5q-1 -1 -4 -1h-38v-211q0 -7 -6 -7h-36q-2 0 -4 2zM815 1376v248q0 4 2 6t5 2h34q3 0 5 -2t2 -6v-210h58q6 0 6 -6v-32q0 -7 -6 -7h-99q-7 0 -7 7zM577 1376v248q0 5 2 6q2 2 5 2h33q3 0 5 -2t2 -6v-248q0 -7 -7 -7h-33q-7 0 -7 7z M479 1506q10 0 16 6q6 7 6 17v35q0 10 -6 16q-7 7 -17 7h-23v-81h24zM737 1455l-15 96l-2 25l-2 -25l-16 -96h35z" glyph-name="ugrave" horiz-adv-x="1348" unicode="ù"/><glyph d="M80 724q0 111 41.5 207.5t114 168.5t170.5 113t211 41q114 0 213 -41t172 -113t114.5 -168.5t41.5 -207.5v-230q0 -110 -41.5 -206.5t-114.5 -168t-171.5 -112.5t-212.5 -41t-212 41t-170.5 112.5t-114 168t-41.5 206.5v230zM436 486q0 -41 13.5 -76.5t37.5 -61.5 t58 -40.5t75 -14.5t75 15t58 40.5t37.5 60.5t13.5 76v250q0 41 -13.5 76t-37.5 61t-58 41t-75 15t-75 -15t-58 -41t-37.5 -61t-13.5 -76v-249zM481 1406v248q0 5 1 6q4 2 6 2h64q15 0 27 -6q12 -4 22 -14q5 -5 9 -10.5t6 -11.5q5 -13 5 -27v-32q0 -19 -7 -32q-7 -15 -19 -23 l29 -100v-1q0 -3 -1 -4q-2 -2 -4 -2h-37q-2 0 -4 2l-2 5l-20 85h-28v-85q0 -7 -7 -7h-33q-7 0 -7 7zM713 1403v3l56 249q2 7 8 7h32q6 0 8 -7l55 -249q1 -1 1 -3q0 -4 -4 -4h-37q-3 0 -5 2q-3 1 -3 5l-6 37h-50l-6 -37q-1 -3 -3 -5t-5 -2h-37q-4 0 -4 4zM372 1401q-1 1 -1 5 v211h-39q-3 0 -3 1q-2 2 -2 5v32q0 4 2 5q0 2 3 2h124q2 0 4 -2t2 -5v-32q0 -1 -2 -5q-1 -1 -4 -1h-38v-211q0 -7 -6 -7h-36q-2 0 -4 2zM888 1406v248q0 4 2 6t5 2h34q3 0 5 -2t2 -6v-210h58q6 0 6 -6v-32q0 -7 -6 -7h-99q-7 0 -7 7zM650 1406v248q0 5 2 6q2 2 5 2h33 q3 0 5 -2t2 -6v-248q0 -7 -7 -7h-33q-7 0 -7 7zM552 1536q10 0 16 6q6 7 6 17v35q0 10 -6 16q-7 7 -17 7h-23v-81h24zM810 1485l-15 96l-2 25l-2 -25l-16 -96h35z" glyph-name="oacute" horiz-adv-x="1238" unicode="ó"/><glyph d="M80 724q0 111 41.5 207.5t114 168.5t170.5 113t211 41q114 0 213 -41t172 -113t114.5 -168.5t41.5 -207.5v-230q0 -110 -41.5 -206.5t-114.5 -168t-171.5 -112.5t-212.5 -41t-212 41t-170.5 112.5t-114 168t-41.5 206.5v230zM436 486q0 -41 13.5 -76.5t37.5 -61.5 t58 -40.5t75 -14.5t75 15t58 40.5t37.5 60.5t13.5 76v250q0 41 -13.5 76t-37.5 61t-58 41t-75 15t-75 -15t-58 -41t-37.5 -61t-13.5 -76v-249zM371 1436v248q0 5 1 6q4 2 6 2h64q15 0 27 -6q12 -4 22 -14q5 -5 9 -10.5t6 -11.5q5 -13 5 -27v-32q0 -19 -7 -32q-7 -15 -19 -23 l29 -100v-1q0 -3 -1 -4q-2 -2 -4 -2h-37q-2 0 -4 2l-2 5l-20 85h-28v-85q0 -7 -7 -7h-33q-7 0 -7 7zM603 1433v3l56 249q2 7 8 7h32q6 0 8 -7l55 -249q1 -1 1 -3q0 -4 -4 -4h-37q-3 0 -5 2q-3 1 -3 5l-6 37h-50l-6 -37q-1 -3 -3 -5t-5 -2h-37q-4 0 -4 4zM262 1431q-1 1 -1 5 v211h-39q-3 0 -3 1q-2 2 -2 5v32q0 4 2 5q0 2 3 2h124q2 0 4 -2t2 -5v-32q0 -1 -2 -5q-1 -1 -4 -1h-38v-211q0 -7 -6 -7h-36q-2 0 -4 2zM778 1436v248q0 4 2 6t5 2h34q3 0 5 -2t2 -6v-210h58q6 0 6 -6v-32q0 -7 -6 -7h-99q-7 0 -7 7zM540 1436v248q0 5 2 6q2 2 5 2h33 q3 0 5 -2t2 -6v-248q0 -7 -7 -7h-33q-7 0 -7 7zM442 1566q10 0 16 6q6 7 6 17v35q0 10 -6 16q-7 7 -17 7h-23v-81h24zM700 1515l-15 96l-2 25l-2 -25l-16 -96h35z" glyph-name="ocircumflex" horiz-adv-x="1238" unicode="ô"/><glyph d="M80 724q0 111 41.5 207.5t114 168.5t170.5 113t211 41q114 0 213 -41t172 -113t114.5 -168.5t41.5 -207.5v-230q0 -110 -41.5 -206.5t-114.5 -168t-171.5 -112.5t-212.5 -41t-212 41t-170.5 112.5t-114 168t-41.5 206.5v230zM436 486q0 -41 13.5 -76.5t37.5 -61.5 t58 -40.5t75 -14.5t75 15t58 40.5t37.5 60.5t13.5 76v250q0 41 -13.5 76t-37.5 61t-58 41t-75 15t-75 -15t-58 -41t-37.5 -61t-13.5 -76v-249zM339 1404v248q0 5 1 6q4 2 6 2h64q15 0 27 -6q12 -4 22 -14q5 -5 9 -10.5t6 -11.5q5 -13 5 -27v-32q0 -19 -7 -32q-7 -15 -19 -23 l29 -100v-1q0 -3 -1 -4q-2 -2 -4 -2h-37q-2 0 -4 2l-2 5l-20 85h-28v-85q0 -7 -7 -7h-33q-7 0 -7 7zM571 1401v3l56 249q2 7 8 7h32q6 0 8 -7l55 -249q1 -1 1 -3q0 -4 -4 -4h-37q-3 0 -5 2q-3 1 -3 5l-6 37h-50l-6 -37q-1 -3 -3 -5t-5 -2h-37q-4 0 -4 4zM230 1399q-1 1 -1 5 v211h-39q-3 0 -3 1q-2 2 -2 5v32q0 4 2 5q0 2 3 2h124q2 0 4 -2t2 -5v-32q0 -1 -2 -5q-1 -1 -4 -1h-38v-211q0 -7 -6 -7h-36q-2 0 -4 2zM746 1404v248q0 4 2 6t5 2h34q3 0 5 -2t2 -6v-210h58q6 0 6 -6v-32q0 -7 -6 -7h-99q-7 0 -7 7zM508 1404v248q0 5 2 6q2 2 5 2h33 q3 0 5 -2t2 -6v-248q0 -7 -7 -7h-33q-7 0 -7 7zM410 1534q10 0 16 6q6 7 6 17v35q0 10 -6 16q-7 7 -17 7h-23v-81h24zM668 1483l-15 96l-2 25l-2 -25l-16 -96h35z" glyph-name="ograve" horiz-adv-x="1238" unicode="ò"/><glyph d="M80 724q0 111 41.5 207.5t114 168.5t170.5 113t211 41q71 0 139 -17l20 51q14 34 46 34h243q30 0 16 -34h1l-79 -189q72 -72 113.5 -168t41.5 -207v-230q0 -110 -41.5 -206.5t-114.5 -168t-171.5 -112.5t-212.5 -41q-18 0 -35 1t-34 3l-28 -70q-14 -33 -46 -33h-243 q-29 0 -15 33l72 173q-48 36 -86.5 82t-66 99.5t-42 114t-14.5 125.5v230zM436 486q0 -41 13.5 -76.5t37.5 -61.5t58 -40.5t75 -14.5t75 15t58 40.5t37.5 60.5t13.5 76v250q0 41 -13.5 76t-37.5 61t-58 41t-75 15t-75 -15t-58 -41t-37.5 -61t-13.5 -76v-249z" glyph-name="oslash" horiz-adv-x="1238" unicode="ø"/><glyph d="M80 724q0 111 41.5 207.5t114 168.5t170.5 113t211 41q114 0 213 -41t172 -113t114.5 -168.5t41.5 -207.5v-230q0 -110 -41.5 -206.5t-114.5 -168t-171.5 -112.5t-212.5 -41t-212 41t-170.5 112.5t-114 168t-41.5 206.5v230zM436 486q0 -41 13.5 -76.5t37.5 -61.5 t58 -40.5t75 -14.5t75 15t58 40.5t37.5 60.5t13.5 76v250q0 41 -13.5 76t-37.5 61t-58 41t-75 15t-75 -15t-58 -41t-37.5 -61t-13.5 -76v-249zM341 1408v248q0 5 1 6q4 2 6 2h64q15 0 27 -6q12 -4 22 -14q5 -5 9 -10.5t6 -11.5q5 -13 5 -27v-32q0 -19 -7 -32q-7 -15 -19 -23 l29 -100v-1q0 -3 -1 -4q-2 -2 -4 -2h-37q-2 0 -4 2l-2 5l-20 85h-28v-85q0 -7 -7 -7h-33q-7 0 -7 7zM573 1405v3l56 249q2 7 8 7h32q6 0 8 -7l55 -249q1 -1 1 -3q0 -4 -4 -4h-37q-3 0 -5 2q-3 1 -3 5l-6 37h-50l-6 -37q-1 -3 -3 -5t-5 -2h-37q-4 0 -4 4zM232 1403q-1 1 -1 5 v211h-39q-3 0 -3 1q-2 2 -2 5v32q0 4 2 5q0 2 3 2h124q2 0 4 -2t2 -5v-32q0 -1 -2 -5q-1 -1 -4 -1h-38v-211q0 -7 -6 -7h-36q-2 0 -4 2zM748 1408v248q0 4 2 6t5 2h34q3 0 5 -2t2 -6v-210h58q6 0 6 -6v-32q0 -7 -6 -7h-99q-7 0 -7 7zM510 1408v248q0 5 2 6q2 2 5 2h33 q3 0 5 -2t2 -6v-248q0 -7 -7 -7h-33q-7 0 -7 7zM412 1538q10 0 16 6q6 7 6 17v35q0 10 -6 16q-7 7 -17 7h-23v-81h24zM670 1487l-15 96l-2 25l-2 -25l-16 -96h35z" glyph-name="otilde" horiz-adv-x="1238" unicode="õ"/><glyph d="M804 721q0 116 42 213.5t115.5 168.5t174.5 111t219 40q44 0 97.5 -11t107.5 -37t104.5 -69t89.5 -106t62.5 -148.5t23.5 -196.5v-98q0 -58 -26.5 -79t-84.5 -21h-569q3 -91 53.5 -143t133.5 -52q38 0 73 15t64 57q9 13 20 15t21 -3l240 -126q11 -8 10.5 -19.5 t-10.5 -28.5q-29 -48 -69 -91t-91.5 -75.5t-114.5 -51.5t-137 -19q-117 0 -217.5 40.5t-174 111t-115.5 167t-42 208.5v228zM1347 928q-48 0 -82.5 -16t-56.5 -42t-33 -57.5t-14 -61.5h346q-1 28 -8 59t-24 57t-48 43.5t-80 17.5zM80 724q0 111 41.5 207.5t114 168.5 t170.5 113t211 41q114 0 213 -41t172 -113t114.5 -168.5t41.5 -207.5v-230q0 -110 -41.5 -206.5t-114.5 -168t-171.5 -112.5t-212.5 -41t-212 41t-170.5 112.5t-114 168t-41.5 206.5v230zM436 486q0 -41 13.5 -76.5t37.5 -61.5t58 -40.5t75 -14.5t75 15t58 40.5t37.5 60.5 t13.5 76v250q0 41 -13.5 76t-37.5 61t-58 41t-75 15t-75 -15t-58 -41t-37.5 -61t-13.5 -76v-249z" glyph-name="oe" horiz-adv-x="1926" unicode="œ"/><glyph d="M849 753q0 37 -14 69t-37 55.5t-52.5 37t-61.5 13.5q-33 0 -64 -13t-55 -36t-39.5 -54.5t-16.5 -68.5v-711q0 -11 -6 -19.5t-15.5 -14t-21 -8.5t-21.5 -3h-261q-44 0 -44 45v1135q0 45 44 45h193q23 0 41 -9.5t26 -45.5l19 -88q48 81 123 126.5t188 45.5q43 0 93 -13 t99.5 -39.5t95 -66.5t80 -94.5t55.5 -124t21 -153.5v-719q0 -22 -11 -33t-31 -11h-284q-43 0 -43 44v709zM437 1410v248q0 5 1 6q4 2 6 2h64q15 0 27 -6q12 -4 22 -14q5 -5 9 -10.5t6 -11.5q5 -13 5 -27v-32q0 -19 -7 -32q-7 -15 -19 -23l29 -100v-1q0 -3 -1 -4q-2 -2 -4 -2 h-37q-2 0 -4 2l-2 5l-20 85h-28v-85q0 -7 -7 -7h-33q-7 0 -7 7zM669 1407v3l56 249q2 7 8 7h32q6 0 8 -7l55 -249q1 -1 1 -3q0 -4 -4 -4h-37q-3 0 -5 2q-3 1 -3 5l-6 37h-50l-6 -37q-1 -3 -3 -5t-5 -2h-37q-4 0 -4 4zM328 1405q-1 1 -1 5v211h-39q-3 0 -3 1q-2 2 -2 5v32 q0 4 2 5q0 2 3 2h124q2 0 4 -2t2 -5v-32q0 -1 -2 -5q-1 -1 -4 -1h-38v-211q0 -7 -6 -7h-36q-2 0 -4 2zM844 1410v248q0 4 2 6t5 2h34q3 0 5 -2t2 -6v-210h58q6 0 6 -6v-32q0 -7 -6 -7h-99q-7 0 -7 7zM606 1410v248q0 5 2 6q2 2 5 2h33q3 0 5 -2t2 -6v-248q0 -7 -7 -7h-33 q-7 0 -7 7zM508 1540q10 0 16 6q6 7 6 17v35q0 10 -6 16q-7 7 -17 7h-23v-81h24zM766 1489l-15 96l-2 25l-2 -25l-16 -96h35z" glyph-name="ntilde" horiz-adv-x="1348" unicode="ñ"/><glyph d="M80 719q0 113 41 210.5t113.5 169.5t172 113.5t216.5 41.5q69 0 132.5 -20.5t116 -56t93.5 -83t65 -100.5q8 -17 10 -29.5t-10 -18.5l-229 -113q-11 -5 -22.5 -3.5t-19.5 15.5q-9 16 -23.5 31t-33 26.5t-40 18.5t-44.5 7q-42 0 -76 -15t-57.5 -43t-36 -66.5t-12.5 -85.5 v-216q0 -51 14 -90t38 -65.5t57.5 -40t72.5 -13.5q47 0 81.5 23.5t60.5 59.5q10 14 20 15t21 -4l229 -113q11 -9 10 -20t-9 -28q-24 -54 -65.5 -101t-95 -82.5t-117 -56t-133.5 -20.5q-78 0 -148.5 19t-130.5 53.5t-108.5 83t-82 107.5t-52 126.5t-18.5 140.5v223v0z M436 -299v248q0 5 1 6q4 2 6 2h64q15 0 27 -6q12 -4 22 -14q5 -5 9 -10.5t6 -11.5q5 -13 5 -27v-32q0 -19 -7 -32q-7 -15 -19 -23l29 -100v-1q0 -3 -1 -4q-2 -2 -4 -2h-37q-2 0 -4 2l-2 5l-20 85h-28v-85q0 -7 -7 -7h-33q-7 0 -7 7zM668 -302v3l56 249q2 7 8 7h32q6 0 8 -7 l55 -249q1 -1 1 -3q0 -4 -4 -4h-37q-3 0 -5 2q-3 1 -3 5l-6 37h-50l-6 -37q-1 -3 -3 -5t-5 -2h-37q-4 0 -4 4zM327 -304q-1 1 -1 5v211h-39q-3 0 -3 1q-2 2 -2 5v32q0 4 2 5q0 2 3 2h124q2 0 4 -2t2 -5v-32q0 -1 -2 -5q-1 -1 -4 -1h-38v-211q0 -7 -6 -7h-36q-2 0 -4 2z M843 -299v248q0 4 2 6t5 2h34q3 0 5 -2t2 -6v-210h58q6 0 6 -6v-32q0 -7 -6 -7h-99q-7 0 -7 7zM605 -299v248q0 5 2 6q2 2 5 2h33q3 0 5 -2t2 -6v-248q0 -7 -7 -7h-33q-7 0 -7 7zM507 -169q10 0 16 6q6 7 6 17v35q0 10 -6 16q-7 7 -17 7h-23v-81h24zM765 -220l-15 96l-2 25 l-2 -25l-16 -96h35z" glyph-name="ccedilla" horiz-adv-x="1093" unicode="ç"/><glyph d="M80 724q0 111 38 207.5t104.5 168.5t157.5 113t197 41q44 0 83.5 -13t73.5 -35.5t62.5 -54.5t52.5 -69l22 98q12 44 60 44h183q15 0 28 -8q99 38 213 38q44 0 97.5 -11t107.5 -37t104.5 -69t89.5 -106t62.5 -148.5t23.5 -196.5v-98q0 -58 -26.5 -79t-84.5 -21h-569 q3 -91 53.5 -143t133.5 -52q38 0 73 15t64 57q9 13 20 15t21 -3l240 -126q11 -8 10.5 -19.5t-10.5 -28.5q-29 -48 -69 -91t-91.5 -75.5t-114.5 -51.5t-137 -19q-58 0 -112 10t-103 29q-12 -5 -24 -5h-188q-20 0 -35 11.5t-20 33.5l-21 98q-24 -38 -52.5 -70.5t-62.5 -56 t-73.5 -37t-83.5 -13.5q-106 0 -197 41t-158 112.5t-105 168t-38 206.5v230zM804 735q0 41 -15 76t-41 61t-61.5 41t-76.5 15q-38 0 -69.5 -15t-55 -41t-36.5 -61t-13 -76v-249q0 -41 13 -76.5t36.5 -61.5t55 -40.5t69.5 -14.5q41 0 76.5 15t61.5 40.5t41 60.5t15 76v250z M1347 928q-48 0 -82.5 -16t-56.5 -42t-33 -57.5t-14 -61.5h346q-1 28 -8 59t-24 57t-48 43.5t-80 17.5z" glyph-name="ae" horiz-adv-x="1898" unicode="æ"/><glyph d="M70 903q0 124 46 226t126.5 175.5t190 114t235.5 40.5t235.5 -40.5t190.5 -114t127 -176t46 -225.5v-383q0 -123 -46 -225t-127 -175t-190 -113.5t-235 -40.5q-127 0 -236.5 40.5t-190 113.5t-126.5 175t-46 225v383zM439 546q0 -53 16.5 -97t46.5 -75.5t72.5 -49.5 t94.5 -18t94 18t72 49.5t46.5 75.5t16.5 97v333q0 52 -16 96t-46 76t-72.5 50t-94.5 18t-94.5 -18t-72.5 -50t-46.5 -76t-16.5 -96v-333zM409 1602v248q0 5 1 6q4 2 6 2h64q15 0 27 -6q12 -4 22 -14q5 -5 9 -10.5t6 -11.5q5 -13 5 -27v-32q0 -19 -7 -32q-7 -15 -19 -23 l29 -100v-1q0 -3 -1 -4q-2 -2 -4 -2h-37q-2 0 -4 2l-2 5l-20 85h-28v-85q0 -7 -7 -7h-33q-7 0 -7 7zM641 1599v3l56 249q2 7 8 7h32q6 0 8 -7l55 -249q1 -1 1 -3q0 -4 -4 -4h-37q-3 0 -5 2q-3 1 -3 5l-6 37h-50l-6 -37q-1 -3 -3 -5t-5 -2h-37q-4 0 -4 4zM300 1597q-1 1 -1 5 v211h-39q-3 0 -3 1q-2 2 -2 5v32q0 4 2 5q0 2 3 2h124q2 0 4 -2t2 -5v-32q0 -1 -2 -5q-1 -1 -4 -1h-38v-211q0 -7 -6 -7h-36q-2 0 -4 2zM816 1602v248q0 4 2 6t5 2h34q3 0 5 -2t2 -6v-210h58q6 0 6 -6v-32q0 -7 -6 -7h-99q-7 0 -7 7zM578 1602v248q0 5 2 6q2 2 5 2h33 q3 0 5 -2t2 -6v-248q0 -7 -7 -7h-33q-7 0 -7 7zM480 1732q10 0 16 6q6 7 6 17v35q0 10 -6 16q-7 7 -17 7h-23v-81h24zM738 1681l-15 96l-2 25l-2 -25l-16 -96h35z" glyph-name="Otilde" horiz-adv-x="1337" unicode="Õ"/><glyph d="M70 903q0 124 46 226t126.5 175.5t190 114t235.5 40.5t235.5 -40.5t190.5 -114t127 -176t46 -225.5v-383q0 -123 -46 -225t-127 -175t-190 -113.5t-235 -40.5q-127 0 -236.5 40.5t-190 113.5t-126.5 175t-46 225v383zM439 546q0 -53 16.5 -97t46.5 -75.5t72.5 -49.5 t94.5 -18t94 18t72 49.5t46.5 75.5t16.5 97v333q0 52 -16 96t-46 76t-72.5 50t-94.5 18t-94.5 -18t-72.5 -50t-46.5 -76t-16.5 -96v-333zM898 1383q0 43 42 43h850q39 0 39 -43v-267q0 -42 -39 -42h-522v-186h393q20 0 32 -10.5t12 -33.5v-265q0 -42 -44 -42h-393v-195h537 q40 0 40 -42v-258q0 -42 -40 -42h-865q-42 0 -42 42v1341z" glyph-name="OE" horiz-adv-x="1966" unicode="Œ"/><glyph d="M903 211h-379l-96 -168q-14 -25 -24 -34t-31 -9h-321q-20 0 -24 13.5t7 30.5l841 1339q16 24 25.5 33.5t30.5 9.5h863q39 0 39 -43v-267q0 -42 -39 -42h-522v-186h393q20 0 32 -10.5t12 -33.5v-265q0 -42 -44 -42h-393v-195h537q40 0 40 -42v-258q0 -42 -40 -42h-865 q-42 0 -42 42v169zM903 529v340l-196 -340h196z" glyph-name="AE" horiz-adv-x="1938" unicode="Æ"/><glyph d="M70 903q0 124 46 226t126.5 175.5t190 114t235.5 40.5q66 0 128 -12l21 53q22 48 67 48h322q45 0 25 -48l-99 -235q64 -71 99.5 -162t35.5 -200v-383q0 -123 -46 -225t-127 -175t-190 -113.5t-235 -40.5q-32 0 -63 3l-24 -64q-18 -46 -67 -46h-323q-44 0 -23 46l85 205 q-86 74 -135 178t-49 232v383zM439 546q0 -53 16.5 -97t46.5 -75.5t72.5 -49.5t94.5 -18t94 18t72 49.5t46.5 75.5t16.5 97v333q0 52 -16 96t-46 76t-72.5 50t-94.5 18t-94.5 -18t-72.5 -50t-46.5 -76t-16.5 -96v-333z" glyph-name="Oslash" horiz-adv-x="1337" unicode="Ø"/><glyph d="M2323 1024v-550h-2254v550h854q0 28 5 55t19 50q11 27 24.5 49t34.5 39q36 39 86 58q25 11 51 16t53 5q31 0 58 -6t50 -15q26 -13 48 -27.5t42 -34.5q32 -34 57 -88q18 -50 18 -101h854zM966 1119q-19 -42 -19 -95q0 -57 19 -99q9 -20 22.5 -40.5t28.5 -39.5 q18 -17 38 -30.5t43 -23.5q45 -21 98 -21q57 0 98 19q46 19 78 54q20 18 33 38t24 41q20 51 20 102q0 20 -3.5 42t-11.5 44q-13 37 -40 68q-13 18 -27.5 31t-32.5 24q-17 7 -35 16.5t-37 16.5q-14 3 -30.5 6t-35.5 3q-55 0 -100 -23q-46 -16 -79 -54q-17 -17 -29.5 -37 t-21.5 -42zM1070 877l295 298q58 -73 58 -151q0 -22 -3 -42t-11 -39q-13 -35 -38 -66h-301zM1026 870q-26 34 -41 71q-8 17 -11 38t-3 45q0 18 3 37.5t11 39.5q4 18 13.5 33.5t23.5 30.5h299zM2058 194q3 -4 5.5 -10t4.5 -13q4 -7 4 -14v-29q0 -7 -4 -11q-2 -7 -4.5 -14 t-5.5 -13q-5 -7 -15 -19q-6 -5 -11.5 -9.5t-12.5 -8.5q-5 -5 -11.5 -7t-12.5 -4q-8 -2 -13 -2h-16q-19 0 -40 6q-8 6 -15.5 12t-15.5 13q-8 6 -13.5 13.5t-7.5 19.5q-6 9 -7.5 18.5t-1.5 21.5q0 8 1 13.5t1 13.5q3 7 6 13t7 10q2 8 5.5 12.5t9.5 10.5q3 4 9.5 8t11.5 9 q4 2 10.5 4t12.5 6q10 0 15.5 1t11.5 1q9 0 16 -1t13 -1q6 -4 12.5 -6t11.5 -4q13 -10 24 -17q2 -6 7.5 -10.5t7.5 -12.5zM1064 194q2 -4 4 -10t5 -13q2 -10 2 -14v-29q0 -5 -2 -11q-3 -7 -5 -14t-4 -13q-5 -4 -9.5 -9.5t-8.5 -9.5q-5 -5 -10 -9.5t-10 -8.5q-7 -5 -13.5 -7 t-12.5 -4q-4 -1 -7 -1.5t-7 -0.5h-15q-9 0 -18.5 2t-21.5 4q-11 6 -17.5 12t-15.5 13q-15 13 -21 33q-3 9 -5 18.5t-2 21.5v13q0 4 2 14q4 16 11 23q4 8 7.5 12.5t7.5 10.5q7 4 11.5 8t10.5 9l27 10q4 0 10.5 1t13.5 1q8 0 15 -1t14 -1q6 -4 12.5 -6t13.5 -4l10 -9l10 -8 q4 -6 8.5 -10.5t9.5 -12.5zM2281 244l1 1q1 1 6 1h35v-206h-35v150l-5 -9v-6q0 -2 -2 -4q-6 -15 -12.5 -32.5t-14.5 -30.5q-6 -18 -11.5 -33.5t-13.5 -34.5h-34l-52 131q-5 3 -5 10q0 4 -1 4l-2 2v-147h-39v206h37q5 0 6.5 -1t3.5 -1q2 -2 3 -2t3 -2l7 -4q0 -2 2 -3.5 t2 -3.5q4 -16 10.5 -30t14.5 -32q6 -15 11.5 -30.5t11.5 -28.5v-12q3 0 4 -4q0 4 1 4v12l9 13l42 108q0 1 2 3l2 4q0 1 2 3l3 1q2 2 4 2t4 2zM1246 246h36v-206h-34l-94 138l-4 3v2q-3 4 -3 5q-4 1 -4 4q0 4 -5 4v-156h-36v206h32q4 0 8.5 -1t4.5 -3q3 -2 5 -2t4 -2l21 -31 q9 -13 19 -33q13 -13 23 -27.5t23 -27.5q0 -2 1 -4.5t1 -6.5l1 -2l1 -3v143zM630 246l88 -206h-23q-8 0 -15 4q-2 2 -4 6.5t-6 8.5l-12 25h-94l-9 -25q0 -6 -4 -6q-2 -5 -4 -5l-3 -4q-2 0 -3.5 -1t-5.5 -1q0 -2 -2 -2h-26l90 206h33zM244 246h130v-37h-94v-46h77v-38h-77 v-48h94v-37h-130v206zM69 246h149v-23q0 -3 -1 -5q0 -3 -2 -5l-4 -4l-99 -134h1l2 2h102v-37h-155v13q0 9 2 11q0 2 5 7v4l2 4q2 2 4 3.5t2 5.5l88 121h-96v37zM786 618q1 6 2 10t1 9q0 12 -3 21q0 5 -3.5 8.5t-5.5 9.5q-2 3 -4.5 6t-6.5 7l-7 6q-2 3 -8 8l-8 4q-2 1 -4.5 2 t-5.5 2q-4 0 -8.5 0.5t-10.5 0.5q-3 0 -8 -0.5t-11 -0.5q-10 -4 -17 -8q-4 -5 -7.5 -7.5t-7.5 -6.5q-11 -8 -12 -13q-4 -6 -5 -9.5t-3 -8.5q-1 -5 -1.5 -10t-0.5 -11q0 -5 2 -13t4 -14q2 -7 6.5 -12.5t9.5 -11.5q11 -14 24 -14q10 -6 27 -6h19q6 2 10.5 4t7.5 4q10 4 15 12 q7 7 11 15q2 4 5.5 8.5t3.5 8.5zM1843 618v40q-2 5 -3.5 9t-3.5 9q-5 6 -14 13q-1 4 -5.5 6.5t-8.5 7.5l-4 2t-5 2l-7 4q-6 0 -10.5 0.5t-9.5 0.5q-6 0 -10.5 -0.5t-8.5 -0.5l-10 -4l-10 -4q-3 -5 -6 -7.5t-7 -6.5q-3 -4 -6 -6.5t-5 -6.5q-2 -6 -4.5 -9.5t-2.5 -8.5 q-5 -10 -5 -21q0 -5 2.5 -13t5.5 -14q4 -15 15 -24q8 -14 24 -14q10 -6 28 -6h20q3 2 8 4t8 4q4 3 8.5 5.5t5.5 6.5q9 5 14 15zM1724 190q-7 -7 -13 -23q-2 -4 -4 -9.5t-2 -13.5t2 -13.5t4 -11.5q2 -7 5.5 -13.5t7.5 -9.5q9 -9 22 -15q12 -4 26 -4q5 0 9.5 1t10.5 1 q3 2 8 4.5t8 6.5q2 0 8 2h12q2 0 8 -2q2 -1 7 -6l6 -7q-3 -4 -6 -7.5t-7 -7.5q-6 -3 -10.5 -6t-11.5 -6q-6 -4 -10.5 -5t-10.5 -3t-11 -2h-10q-11 0 -22 2t-20 4q-20 9 -33 25q-15 13 -21 33q-4 9 -6.5 18.5t-2.5 21.5q0 8 1 13.5t3 13.5q2 16 9 23q6 8 8.5 12.5t8.5 10.5 l12 8l11 9l9 4l17 6q5 0 11.5 1t14.5 1h12q3 0 9 -2t10.5 -3t10.5 -3l22 -13q4 -4 7 -8l6 -8l-6 -7q-2 -1 -5 -4l-2 -4h-14q-7 0 -14 4q-3 2 -8 4.5t-8 4.5q-8 2 -11 2h-9q-16 0 -26 -6q-15 -2 -22 -13zM1584 141q4 -5 7 -9t3 -7q5 -8 5 -19q0 -14 -7 -27l-8 -12 q-3 -5 -8 -8q-6 -6 -10.5 -9.5t-12.5 -5.5q-5 -2 -13 -3t-14 -1q-11 0 -31 4q-9 4 -20 18q-4 1 -6 5l-4 8q-6 1 -6 9l6 4q2 2 4 2h4l2 2h9q4 0 4 -2q7 0 9 -2q5 -4 8.5 -5.5t5.5 -3.5q2 0 6 -1t9 -1h5q2 0 6 2q5 1 13 5q6 6 7 8q2 4 4 7t2 7q0 6 -6 9q-5 6 -7 6q-2 4 -6.5 5 t-6.5 2q-6 0 -13 6q-5 0 -9 1t-9 6q-9 3 -12.5 6t-7.5 7q-11 4 -11 13q-6 10 -6 23q0 17 6 25q1 4 5 10l8 9q4 2 9 4t12 6q6 0 10.5 1t12.5 1q4 0 8 -1t10 -1l15 -6q3 -4 6 -6.5t7 -6.5q3 -2 6.5 -5t3.5 -7l-7 -4l-6 -4q-3 -2 -3 -3h-17l-5 1q-3 1 -6 4q-2 0 -3.5 1t-3.5 1 h-16q-2 0 -3 -1t-5 -3l-6 -5q-1 -3 -1 -10q0 -5 1 -5q2 -2 3 -4.5t3 -6.5h6q1 0 5 -2q4 -1 8.5 -3t9.5 -4l8 -2q5 -4 9 -5t9 -4q10 -4 16 -13zM1480 315q-11 8 -15 19q-6 13 -6 29v15l10 18q2 2 4.5 5.5t6.5 7.5q6 7 12 9q3 5 8.5 6t8.5 3q4 0 8 1.5t9 1.5q4 0 10 -1.5 t10 -1.5q4 -2 7.5 -3t7.5 -6l11 -9l12 -13q2 -4 4 -8.5t4 -9.5q0 -4 1 -8.5t1 -6.5q0 -6 -1 -13.5t-5 -15.5q-4 -12 -16 -19q-4 -4 -8.5 -7.5t-11.5 -8.5q-10 -2 -26 -2h-14q-4 0 -10 2q-15 4 -22 16zM2030 119q5 12 5 25q0 15 -5 23q-2 9 -6.5 14.5t-7.5 8.5q-10 10 -23 13 q-4 4 -11 5t-16 1q-11 0 -24 -6q-7 -1 -11.5 -4t-10.5 -9q-8 -7 -15 -23q0 -4 -1 -9.5t-1 -13.5t1 -13.5t1 -11.5q8 -16 15 -23q6 -4 10.5 -8t11.5 -7q7 -2 13.5 -3t10.5 -1q20 0 27 4q8 3 13.5 7t9.5 8q9 9 14 23zM2141 315q-6 -4 -12 -7.5t-11 -8.5q-8 -2 -12 -2h-28 q-4 0 -12 2q-11 4 -21 16q-7 7 -13 19q-2 8 -4 15.5t-2 13.5q0 2 1 6.5t1 8.5q2 4 3 9t4 9q2 3 5 6t5 7q7 5 16 9q3 5 8 6t7 3q5 0 8 1.5t10 1.5q2 0 7.5 -1.5t10.5 -1.5q4 -2 7.5 -3t5.5 -6q4 -2 8.5 -4.5t7.5 -4.5q1 -2 2 -3.5t2 -3.5l4 -6q2 -4 4 -8.5t3 -9.5 q2 -4 3 -8.5t1 -6.5q0 -6 -1 -13.5t-5 -15.5q0 -6 -5 -11zM1035 119q4 11 4 25t-4 23q-4 17 -18 23q-2 6 -7.5 9t-11.5 4q-11 6 -27 6q-14 0 -24 -6q-10 -1 -22 -13q-8 -5 -13 -23q-5 -5 -5 -10v-27q0 -4 5 -11q2 -7 5 -13.5t8 -9.5q6 -4 11 -8t11 -7q9 -4 24 -4q18 0 27 4 q14 7 19 15q7 3 11.5 9.5t6.5 13.5zM726 246h130v-37h-94v-52h77v-36h-77v-81h-36v206zM535 209h-55v-169h-40v169h-59v37h154v-37zM1302 246h155v-37h-61v-169h-37v169h-57v37zM1281 1233q16 -8 33.5 -19.5t33.5 -21.5h-304q34 28 70 41q37 17 82 17t85 -17zM1114 810 q-18 7 -35 18t-33 24h302q-16 -13 -33.5 -24t-33.5 -18q-22 -6 -43 -10.5t-42 -4.5q-23 0 -42.5 4.5t-39.5 10.5zM524 566l-44 64q4 0 11 4q7 3 8 9q8 6 8 11v24q0 1 -2 5q-4 9 -10 14q-5 8 -13 8q-2 4 -6.5 5t-8.5 1h-53v-145h22v60h22l37 -52q1 -4 7 -6q2 -2 3 -2h19z M1096 566l-63 145h-20l-62 -145h11q7 0 9 2q0 2 6 6l10 25h72l11 -25q1 -4 5 -6q2 -2 8 -2h13zM1810 676q2 -2 6.5 -7.5t5.5 -10.5q4 -7 4 -21q0 -12 -4 -21q-2 -5 -6 -9l-6 -6q-5 -4 -9 -6.5t-8 -6.5q-8 -4 -21 -4q-14 0 -21 4q-5 4 -9.5 6.5t-8.5 6.5q-3 2 -6 6.5t-3 8.5 q-6 10 -6 21q0 10 6 21q0 5 3 10.5t6 7.5q6 6 18 11q9 4 21 4t21 -4zM751 676q6 -2 8.5 -7.5t4.5 -10.5q4 -7 4 -21q0 -10 -4 -21q-2 -4 -4.5 -8.5t-8.5 -6.5q-4 -6 -16 -13q-7 -4 -21 -4q-10 0 -21 4q-4 4 -8.5 6.5t-8.5 6.5q-2 2 -5.5 6.5t-5.5 8.5q-4 11 -4 21q0 12 4 21 q5 12 11 18q4 4 8.5 6.5t8.5 4.5q5 2 11.5 3t9.5 1q13 0 21 -4q12 -4 16 -11zM277 647q5 12 5 18q0 9 -5 18q0 2 -4 6l-6 6q-2 3 -5 6.5t-9 3.5q-2 4 -7.5 5t-9.5 1h-49v-145h16v55h33q4 0 9.5 0.5t7.5 2.5q10 4 14 10q4 2 7 5.5t3 7.5zM2079 311h29l6 3q3 3 4 5q5 0 13 5 l3 6q1 1 1.5 2t2.5 2q0 3 2.5 7.5t2.5 8.5v32q-2 6 -6 10t-6 7q-6 2 -9.5 5t-7.5 7h-40q-6 -4 -9.5 -7t-8.5 -5q-7 -5 -11 -17q-2 -8 -2 -12v-20q0 -4 1 -8.5t4 -7.5l4 -4q3 -3 4 -6l6 -3q2 -2 4 -2q4 -4 7 -5t6 -3zM1993 711h-20v-112q-1 2 -2 5t-3 4l-70 97l-3 6h-23v-145 h21v114l2 -2l82 -112h16v145zM1480 382q-3 -6 -4 -11.5t-1 -7.5v-8q0 -3 2 -5q0 -8 5 -16q0 -2 2 -4t4 -6l5 -3q2 -2 9 -2q2 -4 5.5 -5t5.5 -3h26q5 2 8 3t6 5l6 2l4 3q2 4 4.5 6t2.5 4q2 3 3 7.5t3 8.5q0 2 1 5.5t1 7.5q0 2 -1 7.5t-5 11.5q0 6 -3.5 10t-5.5 7q-3 1 -8 6 l-9 6h-40q-4 -4 -9 -7t-9 -5q-2 -3 -5 -7t-3 -10zM935 711h-17v-112l-2 4q-2 6 -2 5l-69 97q-5 0 -6 6h-23v-145h19v117h2l2 -1v-4l81 -112h15v145zM1982 357q-4 -1 -7 -2t-5 -2l42 -56h-11l-6 2q-4 0 -4 7l-36 47h-26v-56h-15v130h54q3 0 9 -2q2 -2 5.5 -4.5t4.5 -4.5 q4 -2 5 -5.5t7 -7.5v-25q-4 -4 -5 -7.5t-3 -5.5zM1259 357q-3 -3 -11 -4l44 -56h-14q-3 0 -3 2q-6 0 -6 7l-36 47h-26v-56h-13v130h53q2 0 6 -2q8 -1 16 -9q0 -2 3 -5.5t3 -7.5q2 -2 2 -6v-13q0 -2 -2 -6q0 -9 -4 -13l-5 -4q-3 -3 -7 -4zM386 711h-91v-145h91v20h-69v44h55 v17h-55v42h69v22zM1614 711h-88v-145h88v20h-66v44h55v17h-55v42h66v22zM2306 425q6 2 5 2h12v-130h-11v106l-2 -2v-2q-4 -7 -6.5 -16t-7.5 -13q-4 -7 -6 -12.5t-7 -13.5q-2 -8 -3 -14t-5 -9q-3 -8 -6 -12.5t-5 -11.5h-14q-9 12 -14 24.5t-10 26.5q-4 11 -11 24.5t-11 26.5 v2h-4v-104h-13v130h13q4 0 6 -2l2 -2v-5l46 -99q0 -4 2 -4l1 2v4q0 1 7 5l38 92q2 5 3 5t1 2zM1387 711h-20v-97q0 -3 -2 -7q-2 -8 -9 -12q0 -2 -4 -3.5t-6 -5.5l-8 -2h-8q-7 0 -13 2q-5 4 -8 5.5t-5 3.5l-10 12q0 3 -1 7t-1 10v87h-19v-87q0 -6 1 -10t1 -7q0 -8 6 -14 q2 -6 9 -11q2 -3 4.5 -5.5t7.5 -4.5q2 -2 6 -3t7 -3q4 0 7 -1t8 -1q4 0 7.5 1t10.5 1q2 2 5 3t6 3q8 6 12 10q3 2 5 5t5 6q0 4 3 7t3 7v104zM622 592q2 5 3 8t1 8q0 10 -5 18t-11 13q-2 0 -3.5 2t-5.5 4l-4 2h-4q-1 0 -1 4q-7 0 -8 1q-7 2 -8.5 3t-5.5 3q-6 3 -8 3 q-3 4 -3 6v15q0 1 1.5 2t1.5 3q2 0 4 1t4 1q6 2 5 2h9q2 -2 4 -2q6 0 7 -4q2 -2 4 -2h2q9 0 13 4l4 2q0 2 -2 4l-4 4q-2 1 -4.5 3.5t-6.5 4.5q-2 0 -4 2t-5 4q-4 0 -6 0.5t-4 0.5q-6 0 -11 -0.5t-7 -0.5q-5 -2 -7 -4t-6 -4q-2 -5 -5.5 -7.5t-6.5 -6.5q0 -4 -2 -6.5t-2 -8.5 q0 -7 4 -16l5 -7l5 -4q2 -2 6 -5t7 -3l7 -4q2 -1 7 -1q1 -2 5.5 -2t6.5 -2l5 -2q2 0 4 -2t2 -3t2 -5q2 -2 2 -6v-9q0 -2 -2 -4t-2 -4t-2 -3q-1 -3 -6 -5l-3 -1q-4 0 -7.5 -1t-4.5 -1q-4 0 -7 1t-5 1q-5 0 -5 6l-4 1q-4 4 -11 4h-5l-4 -2l-5 -2q0 -3 3 -3q0 -2 2 -4 q0 -4 4 -4v-5h3q7 -7 15.5 -9t18.5 -2h8q5 0 11 2q4 2 8.5 4t6.5 5q4 2 7.5 5.5t4.5 9.5zM1497 592q7 7 7 16q0 10 -4.5 18t-11.5 13q-6 4 -6 6h-4q-1 0 -3 2h-3q-4 0 -5 4h-4q-2 0 -4 1l-4 3l-6 3l-7 3q-2 1 -3 2l-2 2l-1 2q0 1 -1 3t-1 4q0 4 4 8q0 1 4 5q2 0 3 1t4 1 q2 2 10 2l3 -1q2 -1 5 -1q3 -3 8 -4q6 -2 7 -2q7 0 8 4l5 2q0 2 -2.5 4t-4.5 4q0 1 -3 3.5t-5 4.5q-3 0 -5 2t-6 4h-6l-4 1q-6 0 -9.5 -0.5t-7.5 -0.5l-13 -8l-6 -8l-5 -6q-1 -4 -3 -6.5t-2 -8.5q0 -4 2 -7.5t3 -8.5q2 -4 4.5 -6.5l4.5 -4.5q4 -2 6.5 -5t6.5 -3q8 -5 13 -5 q4 -2 6.5 -2t5.5 -2q6 0 10 -4q2 -2 3.5 -3t1.5 -5q2 -2 2 -5v-9q0 -3 -2 -5q0 -5 -5 -7q-6 -4 -7 -5t-3 -1q-6 0 -7 -1t-5 -1q-2 0 -5.5 1t-5.5 1q-3 1 -8 6l-2 1q-4 4 -9 4h-6q-2 0 -4 -2l-6 -2q2 -1 2 -2t2 -1q0 -2 1 -3l3 -3v-2q7 -5 8 -5q6 -7 13.5 -9t16.5 -2h11 q3 0 11 2q2 2 5.5 4t7.5 5l5 7q3 3 4 8zM1632 297h-16v130h18q3 0 4 -4l69 -97q2 0 2 -4l2 -1v106h13v-130h-11l-77 106v4h-4v-110zM73 328q-4 4 -5 7.5t-2 8.5q-2 6 -3 9.5t-1 9.5t4 15q1 4 2 9t5 9l4 6l5 7q2 2 6 4.5t6 4.5q5 5 9.5 6t8.5 3q3 0 8 1.5t10 1.5q6 0 13 -1.5 t13 -5.5q13 -4 20 -14q-2 -2 -4 -2v-4h-13q-3 2 -6 5t-7 3h-34l-20 -12q-4 -3 -7 -7t-4 -10q-2 -6 -3 -11.5t-1 -7.5q0 -9 4 -13q0 -4 0.5 -8.5t0.5 -7.5l4 -4q4 -2 6 -6l7 -4q2 -1 7 -1q2 -4 4.5 -5t6.5 -3h31q2 2 6.5 3t8.5 5v27h-13v2q-2 0 -3 1l-3 3h-2q-1 1 -1 3v4h35 v-48q-2 -5 -3.5 -6t-5.5 -6h-11q-8 -2 -12 -2h-32q-4 0 -8.5 2.5t-9.5 6.5q-7 0 -12 9zM225 411v-41h52v-15h-52v-44h63v-14h-79v130h79v-16h-63zM1098 411v-41h56v-15h-56v-44h64v-14h-79v130h79v-16h-64zM2226 711h-18q-4 0 -8 -4q-5 -5 -5 -9l-35 -44h-2q0 -2 -2 -2v2 l-36 44q-1 6 -4 9q-4 4 -11 4h-16l54 -72v-2q0 -1 2 -1l2 -2v-68h20v66q2 0 2 2l2 3v2zM2112 586h-64v125h-20v-145h84v20zM601 427v-79q0 -6 2 -9t5 -5q0 -6 3 -9t5 -4q0 -2 4 -4t6 -4q6 -2 8 -2h15q1 0 5 2t7.5 4t6.5 4q4 1 8 13q4 3 4 14v79h13v-79q0 -11 -4 -22 q-5 -11 -11 -15q-5 -12 -15 -12q-6 -1 -11.5 -1.5t-10.5 -0.5t-10.5 0.5t-12.5 1.5q-3 0 -15 12l-10 15q-1 6 -3 11t-2 11v79h13zM1191 586h-62v125h-19v-145h81v20zM1361 315q1 2 2 3.5t2 3.5q2 2 3 6t1 6q0 8 -2 10t-3 4t-3 4q-1 1 -7 3q-4 0 -6 2t-6 2q-6 0 -12 6 q-9 0 -13 7q-2 0 -3.5 3t-3.5 6v21q0 1 2 7q0 8 7 9l6 5q2 1 3.5 2t3.5 2q4 0 6.5 1.5t7.5 1.5l6 -2l4 -1q3 0 4 -1t5 -3q6 0 6 -7q4 0 6 -3l1 -2l-2 -2q-6 -2 -9 -2h-6q-2 2 -2 4h-21q-8 0 -8 -2q-5 -7 -5 -8q-4 0 -4 -7q0 -5 4 -6q0 -5 3 -6q0 -2 3 -3l3 -1q4 -4 7 -4 t7 -2q3 0 4 -1l2 -1q3 0 7 -5h4q2 0 4 -2h2q5 -4 7.5 -7t4.5 -4q1 -5 1.5 -9.5t0.5 -8.5v-10q0 -4 -4 -5q-4 -9 -10 -13q-2 -2 -6 -4.5t-6 -2.5q-4 -2 -9 -2h-9q-9 0 -16.5 1t-12.5 8q-2 0 -3 2.5t-5 4.5v4l-2 2l4 2h6q1 0 3 -1t4 -1q4 -4 6.5 -5t4.5 -3h20q7 0 11 4z M1002 297l-55 130h5q6 0 8 -2t3 -2t3 -5l40 -97v-2l2 -6v6l2 2q5 13 12 25.5t11 23.5q4 14 9.5 25.5t11.5 22.5q0 5 1.5 5t1.5 2l6 2h10q-7 -16 -14 -32.5t-15 -31.5q-4 -8 -7 -17l-6 -18l-14 -31h-15zM499 411v-46h56v-12h-56v-56h-15v130h80v-16h-65zM1836 411v-46h51v-12 h-51v-56h-15v130h77v-16h-62zM824 427v-116h59v-14h-75v130h16zM348 297v114h-44v16h99v-16h-44v-114h-11zM735 427v-116h60v-14h-75v130h15zM253 683q2 -1 3 -4t3 -5q3 -5 3 -9v-4q0 -3 -3 -7q-2 -2 -3 -4.5t-3 -2.5q-1 -2 -7 -8h-43v50h33q4 0 10 -2l4 -2zM1242 365 q4 0 6 3q4 4 9 4l2 4q0 2 3 5q0 1 1 4t1 7q0 2 -1 3t-1 4q-3 2 -4 3t-1 5q-5 0 -9 4h-41v-46h35zM1970 368q4 4 7 4q5 7 5 9q2 4 2 11q0 3 -2 7q0 1 -5 8q-3 0 -7 4h-41v-46h33q3 0 8 3zM486 658l-4 -7q-2 0 -3 -2t-3 -2q-2 -2 -9 -2h-31v44h31q3 0 9 -2q2 0 3 -1l3 -3 q1 -2 2 -3.5t2 -3.5q3 -2 3 -9q0 -6 -3 -9zM1429 427v-130h-16v130h16zM641 121l-25 64q0 2 -1 3l-1 2q0 4 -2 6v-6l-1 -2q-1 -1 -1 -3l-26 -64h57zM1024 682v-4l26 -60h-55l27 60v5zM1645 77q6 0 6 -6q2 -2 2 -5v-4q0 -7 -2 -9q0 -5 -6 -9q-2 0 -5 -4h-17q-4 4 -9 4 q0 2 -5 9q-2 2 -2 9v4q0 3 2 5l3 4l2 2q7 4 9 4q1 3 4 3h10q3 0 3 -3q4 0 5 -4z" glyph-name="exclam" unicode="!"/><glyph d="M91 1383q0 43 39 43h155q13 0 20 -4t10 -10.5t3.5 -14t0.5 -14.5v-377q0 -21 -8 -29t-24 -8h-164q-22 0 -27 13.5t-5 28.5v372zM445 1383q0 43 39 43h155q12 0 19 -4t10.5 -10.5t4 -14t0.5 -14.5v-377q0 -21 -7.5 -29t-23.5 -8h-166q-22 0 -26.5 12.5t-4.5 29.5v372z" glyph-name="quotedbl" horiz-adv-x="763" unicode="&quot;"/><glyph d="M669 352h-195l-27 -310q-2 -42 -42 -42h-189q-40 0 -37 42l27 310h-109q-5 0 -10.5 2.5t-10.5 7t-8.5 12t-2.5 17.5l14 193q2 17 13 29.5t28 12.5h109l20 232h-105q-5 0 -10.5 2.5t-10.5 7t-8.5 12t-2.5 17.5l14 193q2 17 13 29.5t28 12.5h106l27 309q3 43 43 43h189 q39 0 36 -43l-27 -309h195l27 309q2 43 42 43h190q39 0 36 -43l-27 -309h122q18 0 26 -11t6 -29l-14 -195q-2 -19 -13.5 -29t-27.5 -10h-123l-20 -232h120q17 0 25.5 -11t6.5 -29l-14 -195q-2 -19 -14 -29t-27 -10h-120l-27 -310q-3 -42 -43 -42h-189q-39 0 -36 42zM497 626 h195l20 232h-195z" glyph-name="numbersign" horiz-adv-x="1221" unicode="#"/><glyph d="M747 179v-310q0 -35 -31 -35h-208q-15 0 -24 9t-9 26v310h272zM481 1250v306q0 34 31 34h206q32 0 32 -34v-306h-269zM78 255q-16 30 -19.5 53t25.5 36l224 122q17 8 33 1.5t30 -32.5q13 -24 35.5 -47t51.5 -41.5t62 -30t67 -11.5q64 0 104 24.5t40 72.5q0 32 -20.5 56.5 t-60.5 48.5t-99 51t-135 65q-93 45 -153 93.5t-94.5 101t-48 110.5t-13.5 123q0 90 35.5 165t99.5 129t153 84t196 30q68 0 137 -12.5t133 -42.5t120.5 -80t99.5 -125q17 -30 19 -54t-25 -35l-196 -98q-25 -11 -42.5 -6.5t-36.5 30.5q-30 42 -78.5 63t-105.5 21 q-30 0 -55.5 -4.5t-44 -14t-29.5 -24.5t-11 -35q0 -17 7 -32.5t25 -32t49 -34t79 -37.5q109 -45 195 -93t146 -106.5t91.5 -131t31.5 -166.5q0 -98 -37.5 -179.5t-105.5 -140t-162 -91t-206 -32.5q-87 0 -165.5 21.5t-144.5 60t-117 91.5t-84 116z" glyph-name="dollar" horiz-adv-x="1156" unicode="$"/><glyph d="M642 662q-1 14 6 27.5t30 18.5q25 6 45 8.5t38.5 2.5t38 -1.5t44.5 -4.5q22 -2 57 -8.5t72 -14t69 -13.5t47 -8q25 -4 43 8t29.5 28.5t17 32.5t5.5 20q3 14 13.5 21.5t28.5 3.5l216 -42q15 -3 20 -14.5t2 -23.5q0 -17 -7 -51t-23.5 -73.5t-44.5 -80t-70.5 -70.5t-101 -44 t-136.5 -2q-7 0 -10 1q-14 -103 -55.5 -179t-107 -126t-151 -74.5t-186.5 -24.5q-106 0 -194 33.5t-151.5 92.5t-98.5 139t-35 173v72q0 57 13 107t35.5 92.5t54 77t68.5 60.5q-45 41 -73 97t-28 131v20q0 91 31 163t85 122t127 77t157 27q95 0 170.5 -26t128.5 -75.5 t81 -122t28 -166.5v-23t-2.5 -22t-8.5 -16t-18 -6l-235 -2q-12 0 -19 5t-10.5 12.5t-4 15.5t-0.5 13q0 47 -21 78t-68 31q-25 0 -42 -9t-27.5 -23.5t-15 -33.5t-4.5 -39v-16q0 -30 0.5 -51.5t5 -36t14.5 -21t29 -6.5q18 0 30 -8.5t12 -30.5v-212q0 -13 -5 -19t-12 -7.5 t-15 -0.5t-14 1q0 -1 -0.5 -1t-0.5 1q-18 0 -35 -9t-29.5 -25.5t-20.5 -39t-8 -48.5v-86q0 -33 12.5 -58.5t33.5 -43t47.5 -26t53.5 -8.5q67 0 105 32t43 92v11q-16 1 -30 1t-24 -2q-11 -3 -24 3.5t-14 23.5z" glyph-name="ampersand" horiz-adv-x="1559" unicode="&amp;"/><glyph d="M126 1383q0 43 39 43h155q12 0 19 -4t10.5 -10.5t4 -14t0.5 -14.5v-377q0 -21 -7.5 -29t-23.5 -8h-169q-22 0 -25 13.5t-3 28.5v372z" glyph-name="quotesingle" horiz-adv-x="480" unicode="'"/><glyph d="M87 615q0 111 11.5 235t42 253t83.5 259t135 254q21 31 53 11l241 -146q16 -10 18.5 -24.5t-8.5 -29.5q-41 -61 -73 -135t-56 -152.5t-40 -157t-26 -148.5t-14.5 -127t-4.5 -92h-362zM449 615q0 -35 4.5 -92t14.5 -127t26 -148.5t40 -157t55.5 -152.5t73.5 -135 q11 -15 8.5 -29.5t-18.5 -24.5l-241 -147q-32 -20 -53 12q-82 124 -135 254t-83.5 259t-42 253t-11.5 235h362z" glyph-name="parenleft" horiz-adv-x="752" unicode="("/><glyph d="M644 615q0 -111 -11.5 -235t-42 -253t-83.5 -259t-135 -254q-21 -32 -53 -12l-241 147q-16 10 -18.5 24.5t8.5 29.5q41 61 73 135t56 152.5t40 157t26 148.5t14.5 127t4.5 92t-4.5 92t-14.5 127t-26 148.5t-40 157t-56 152.5t-73 135q-11 15 -8.5 29.5t18.5 24.5l241 146 q32 20 53 -11q82 -124 135 -254t83.5 -259t42 -253t11.5 -235z" glyph-name="parenright" horiz-adv-x="751" unicode=")"/><glyph d="M82 1233q0 14 9.5 24.5t20.5 8.5l156 -26l-101 119q-8 9 -5.5 20.5t16.5 19.5l165 94q11 6 25 3.5t18 -13.5l55 -148l53 149q5 11 16 14.5t25 -4.5l163 -96q12 -7 16.5 -20t-2.5 -22l-96 -115l143 22q13 2 21 -7t8 -23v-189q-1 -24 -13 -29t-18 -4l-145 28l95 -118 q9 -10 4.5 -21.5t-15.5 -18.5l-164 -94q-11 -6 -18.5 -6t-13 2.5t-8.5 6.5t-4 7l-49 140l-54 -140q-5 -12 -17 -14.5t-24 4.5l-164 95q-10 6 -14 12.5t-4 12.5t1.5 11t3.5 7l103 118l-160 -29q-12 -2 -20.5 6.5t-8.5 23.5z" glyph-name="asterisk" horiz-adv-x="878" unicode="*"/><glyph d="M515 985q14 0 23 -9t9 -22v-177h180q14 0 21.5 -8t7.5 -22v-219q0 -14 -10 -22t-21 -8h-178v-181q0 -14 -8 -21.5t-22 -7.5h-219q-14 0 -22 10t-8 21v179h-180q-7 0 -18 7t-11 23v217q0 14 9.5 23t21.5 9h178v179q0 8 7 18.5t23 10.5h217z" glyph-name="plus" horiz-adv-x="817" unicode="+"/><glyph d="M118 262q0 35 15.5 46.5t34.5 11.5h240q53 0 53 -55v-177q0 -78 -14 -132t-34 -90t-43 -57t-42 -34q-13 -8 -27.5 -11t-31.5 12l-49 42q-12 10 -14.5 19.5t0 18t8 14.5t9.5 10q29 26 43 54t14 45q0 4 -2 12.5t-13 8.5h-101q-19 0 -32.5 12.5t-13.5 38.5v211z" glyph-name="comma" horiz-adv-x="573" unicode=","/><glyph d="M118 280q0 21 12 30.5t25 9.5h268q12 0 19.5 -4.5t11.5 -11t5.5 -13t1.5 -10.5v-243q0 -12 -5 -19.5t-11.5 -11.5t-12.5 -5.5t-9 -1.5h-268q-3 0 -9 1.5t-12.5 5.5t-11 11.5t-4.5 19.5v242z" glyph-name="period" horiz-adv-x="573" unicode="."/><glyph d="M409 42q-17 -42 -59 -42h-291q-20 0 -24 12t4 30l548 1341q18 43 60 43h287q39 0 21 -43z" glyph-name="slash" horiz-adv-x="1002" unicode="/"/><glyph d="M2323 1024v-550h-2254v550h854q0 28 5 55t19 50q11 27 24.5 49t34.5 39q36 39 86 58q25 11 51 16t53 5q31 0 58 -6t50 -15q26 -13 48 -27.5t42 -34.5q32 -34 57 -88q18 -50 18 -101h854zM966 1119q-19 -42 -19 -95q0 -57 19 -99q9 -20 22.5 -40.5t28.5 -39.5 q18 -17 38 -30.5t43 -23.5q45 -21 98 -21q57 0 98 19q46 19 78 54q20 18 33 38t24 41q20 51 20 102q0 20 -3.5 42t-11.5 44q-13 37 -40 68q-13 18 -27.5 31t-32.5 24q-17 7 -35 16.5t-37 16.5q-14 3 -30.5 6t-35.5 3q-55 0 -100 -23q-46 -16 -79 -54q-17 -17 -29.5 -37 t-21.5 -42zM1070 877l295 298q58 -73 58 -151q0 -22 -3 -42t-11 -39q-13 -35 -38 -66h-301zM1026 870q-26 34 -41 71q-8 17 -11 38t-3 45q0 18 3 37.5t11 39.5q4 18 13.5 33.5t23.5 30.5h299zM2058 194q3 -4 5.5 -10t4.5 -13q4 -7 4 -14v-29q0 -7 -4 -11q-2 -7 -4.5 -14 t-5.5 -13q-5 -7 -15 -19q-6 -5 -11.5 -9.5t-12.5 -8.5q-5 -5 -11.5 -7t-12.5 -4q-8 -2 -13 -2h-16q-19 0 -40 6q-8 6 -15.5 12t-15.5 13q-8 6 -13.5 13.5t-7.5 19.5q-6 9 -7.5 18.5t-1.5 21.5q0 8 1 13.5t1 13.5q3 7 6 13t7 10q2 8 5.5 12.5t9.5 10.5q3 4 9.5 8t11.5 9 q4 2 10.5 4t12.5 6q10 0 15.5 1t11.5 1q9 0 16 -1t13 -1q6 -4 12.5 -6t11.5 -4q13 -10 24 -17q2 -6 7.5 -10.5t7.5 -12.5zM1064 194q2 -4 4 -10t5 -13q2 -10 2 -14v-29q0 -5 -2 -11q-3 -7 -5 -14t-4 -13q-5 -4 -9.5 -9.5t-8.5 -9.5q-5 -5 -10 -9.5t-10 -8.5q-7 -5 -13.5 -7 t-12.5 -4q-4 -1 -7 -1.5t-7 -0.5h-15q-9 0 -18.5 2t-21.5 4q-11 6 -17.5 12t-15.5 13q-15 13 -21 33q-3 9 -5 18.5t-2 21.5v13q0 4 2 14q4 16 11 23q4 8 7.5 12.5t7.5 10.5q7 4 11.5 8t10.5 9l27 10q4 0 10.5 1t13.5 1q8 0 15 -1t14 -1q6 -4 12.5 -6t13.5 -4l10 -9l10 -8 q4 -6 8.5 -10.5t9.5 -12.5zM2281 244l1 1q1 1 6 1h35v-206h-35v150l-5 -9v-6q0 -2 -2 -4q-6 -15 -12.5 -32.5t-14.5 -30.5q-6 -18 -11.5 -33.5t-13.5 -34.5h-34l-52 131q-5 3 -5 10q0 4 -1 4l-2 2v-147h-39v206h37q5 0 6.5 -1t3.5 -1q2 -2 3 -2t3 -2l7 -4q0 -2 2 -3.5 t2 -3.5q4 -16 10.5 -30t14.5 -32q6 -15 11.5 -30.5t11.5 -28.5v-12q3 0 4 -4q0 4 1 4v12l9 13l42 108q0 1 2 3l2 4q0 1 2 3l3 1q2 2 4 2t4 2zM1246 246h36v-206h-34l-94 138l-4 3v2q-3 4 -3 5q-4 1 -4 4q0 4 -5 4v-156h-36v206h32q4 0 8.5 -1t4.5 -3q3 -2 5 -2t4 -2l21 -31 q9 -13 19 -33q13 -13 23 -27.5t23 -27.5q0 -2 1 -4.5t1 -6.5l1 -2l1 -3v143zM630 246l88 -206h-23q-8 0 -15 4q-2 2 -4 6.5t-6 8.5l-12 25h-94l-9 -25q0 -6 -4 -6q-2 -5 -4 -5l-3 -4q-2 0 -3.5 -1t-5.5 -1q0 -2 -2 -2h-26l90 206h33zM244 246h130v-37h-94v-46h77v-38h-77 v-48h94v-37h-130v206zM69 246h149v-23q0 -3 -1 -5q0 -3 -2 -5l-4 -4l-99 -134h1l2 2h102v-37h-155v13q0 9 2 11q0 2 5 7v4l2 4q2 2 4 3.5t2 5.5l88 121h-96v37zM786 618q1 6 2 10t1 9q0 12 -3 21q0 5 -3.5 8.5t-5.5 9.5q-2 3 -4.5 6t-6.5 7l-7 6q-2 3 -8 8l-8 4q-2 1 -4.5 2 t-5.5 2q-4 0 -8.5 0.5t-10.5 0.5q-3 0 -8 -0.5t-11 -0.5q-10 -4 -17 -8q-4 -5 -7.5 -7.5t-7.5 -6.5q-11 -8 -12 -13q-4 -6 -5 -9.5t-3 -8.5q-1 -5 -1.5 -10t-0.5 -11q0 -5 2 -13t4 -14q2 -7 6.5 -12.5t9.5 -11.5q11 -14 24 -14q10 -6 27 -6h19q6 2 10.5 4t7.5 4q10 4 15 12 q7 7 11 15q2 4 5.5 8.5t3.5 8.5zM1843 618v40q-2 5 -3.5 9t-3.5 9q-5 6 -14 13q-1 4 -5.5 6.5t-8.5 7.5l-4 2t-5 2l-7 4q-6 0 -10.5 0.5t-9.5 0.5q-6 0 -10.5 -0.5t-8.5 -0.5l-10 -4l-10 -4q-3 -5 -6 -7.5t-7 -6.5q-3 -4 -6 -6.5t-5 -6.5q-2 -6 -4.5 -9.5t-2.5 -8.5 q-5 -10 -5 -21q0 -5 2.5 -13t5.5 -14q4 -15 15 -24q8 -14 24 -14q10 -6 28 -6h20q3 2 8 4t8 4q4 3 8.5 5.5t5.5 6.5q9 5 14 15zM1724 190q-7 -7 -13 -23q-2 -4 -4 -9.5t-2 -13.5t2 -13.5t4 -11.5q2 -7 5.5 -13.5t7.5 -9.5q9 -9 22 -15q12 -4 26 -4q5 0 9.5 1t10.5 1 q3 2 8 4.5t8 6.5q2 0 8 2h12q2 0 8 -2q2 -1 7 -6l6 -7q-3 -4 -6 -7.5t-7 -7.5q-6 -3 -10.5 -6t-11.5 -6q-6 -4 -10.5 -5t-10.5 -3t-11 -2h-10q-11 0 -22 2t-20 4q-20 9 -33 25q-15 13 -21 33q-4 9 -6.5 18.5t-2.5 21.5q0 8 1 13.5t3 13.5q2 16 9 23q6 8 8.5 12.5t8.5 10.5 l12 8l11 9l9 4l17 6q5 0 11.5 1t14.5 1h12q3 0 9 -2t10.5 -3t10.5 -3l22 -13q4 -4 7 -8l6 -8l-6 -7q-2 -1 -5 -4l-2 -4h-14q-7 0 -14 4q-3 2 -8 4.5t-8 4.5q-8 2 -11 2h-9q-16 0 -26 -6q-15 -2 -22 -13zM1584 141q4 -5 7 -9t3 -7q5 -8 5 -19q0 -14 -7 -27l-8 -12 q-3 -5 -8 -8q-6 -6 -10.5 -9.5t-12.5 -5.5q-5 -2 -13 -3t-14 -1q-11 0 -31 4q-9 4 -20 18q-4 1 -6 5l-4 8q-6 1 -6 9l6 4q2 2 4 2h4l2 2h9q4 0 4 -2q7 0 9 -2q5 -4 8.5 -5.5t5.5 -3.5q2 0 6 -1t9 -1h5q2 0 6 2q5 1 13 5q6 6 7 8q2 4 4 7t2 7q0 6 -6 9q-5 6 -7 6q-2 4 -6.5 5 t-6.5 2q-6 0 -13 6q-5 0 -9 1t-9 6q-9 3 -12.5 6t-7.5 7q-11 4 -11 13q-6 10 -6 23q0 17 6 25q1 4 5 10l8 9q4 2 9 4t12 6q6 0 10.5 1t12.5 1q4 0 8 -1t10 -1l15 -6q3 -4 6 -6.5t7 -6.5q3 -2 6.5 -5t3.5 -7l-7 -4l-6 -4q-3 -2 -3 -3h-17l-5 1q-3 1 -6 4q-2 0 -3.5 1t-3.5 1 h-16q-2 0 -3 -1t-5 -3l-6 -5q-1 -3 -1 -10q0 -5 1 -5q2 -2 3 -4.5t3 -6.5h6q1 0 5 -2q4 -1 8.5 -3t9.5 -4l8 -2q5 -4 9 -5t9 -4q10 -4 16 -13zM1480 315q-11 8 -15 19q-6 13 -6 29v15l10 18q2 2 4.5 5.5t6.5 7.5q6 7 12 9q3 5 8.5 6t8.5 3q4 0 8 1.5t9 1.5q4 0 10 -1.5 t10 -1.5q4 -2 7.5 -3t7.5 -6l11 -9l12 -13q2 -4 4 -8.5t4 -9.5q0 -4 1 -8.5t1 -6.5q0 -6 -1 -13.5t-5 -15.5q-4 -12 -16 -19q-4 -4 -8.5 -7.5t-11.5 -8.5q-10 -2 -26 -2h-14q-4 0 -10 2q-15 4 -22 16zM2030 119q5 12 5 25q0 15 -5 23q-2 9 -6.5 14.5t-7.5 8.5q-10 10 -23 13 q-4 4 -11 5t-16 1q-11 0 -24 -6q-7 -1 -11.5 -4t-10.5 -9q-8 -7 -15 -23q0 -4 -1 -9.5t-1 -13.5t1 -13.5t1 -11.5q8 -16 15 -23q6 -4 10.5 -8t11.5 -7q7 -2 13.5 -3t10.5 -1q20 0 27 4q8 3 13.5 7t9.5 8q9 9 14 23zM2141 315q-6 -4 -12 -7.5t-11 -8.5q-8 -2 -12 -2h-28 q-4 0 -12 2q-11 4 -21 16q-7 7 -13 19q-2 8 -4 15.5t-2 13.5q0 2 1 6.5t1 8.5q2 4 3 9t4 9q2 3 5 6t5 7q7 5 16 9q3 5 8 6t7 3q5 0 8 1.5t10 1.5q2 0 7.5 -1.5t10.5 -1.5q4 -2 7.5 -3t5.5 -6q4 -2 8.5 -4.5t7.5 -4.5q1 -2 2 -3.5t2 -3.5l4 -6q2 -4 4 -8.5t3 -9.5 q2 -4 3 -8.5t1 -6.5q0 -6 -1 -13.5t-5 -15.5q0 -6 -5 -11zM1035 119q4 11 4 25t-4 23q-4 17 -18 23q-2 6 -7.5 9t-11.5 4q-11 6 -27 6q-14 0 -24 -6q-10 -1 -22 -13q-8 -5 -13 -23q-5 -5 -5 -10v-27q0 -4 5 -11q2 -7 5 -13.5t8 -9.5q6 -4 11 -8t11 -7q9 -4 24 -4q18 0 27 4 q14 7 19 15q7 3 11.5 9.5t6.5 13.5zM726 246h130v-37h-94v-52h77v-36h-77v-81h-36v206zM535 209h-55v-169h-40v169h-59v37h154v-37zM1302 246h155v-37h-61v-169h-37v169h-57v37zM1281 1233q16 -8 33.5 -19.5t33.5 -21.5h-304q34 28 70 41q37 17 82 17t85 -17zM1114 810 q-18 7 -35 18t-33 24h302q-16 -13 -33.5 -24t-33.5 -18q-22 -6 -43 -10.5t-42 -4.5q-23 0 -42.5 4.5t-39.5 10.5zM524 566l-44 64q4 0 11 4q7 3 8 9q8 6 8 11v24q0 1 -2 5q-4 9 -10 14q-5 8 -13 8q-2 4 -6.5 5t-8.5 1h-53v-145h22v60h22l37 -52q1 -4 7 -6q2 -2 3 -2h19z M1096 566l-63 145h-20l-62 -145h11q7 0 9 2q0 2 6 6l10 25h72l11 -25q1 -4 5 -6q2 -2 8 -2h13zM1810 676q2 -2 6.5 -7.5t5.5 -10.5q4 -7 4 -21q0 -12 -4 -21q-2 -5 -6 -9l-6 -6q-5 -4 -9 -6.5t-8 -6.5q-8 -4 -21 -4q-14 0 -21 4q-5 4 -9.5 6.5t-8.5 6.5q-3 2 -6 6.5t-3 8.5 q-6 10 -6 21q0 10 6 21q0 5 3 10.5t6 7.5q6 6 18 11q9 4 21 4t21 -4zM751 676q6 -2 8.5 -7.5t4.5 -10.5q4 -7 4 -21q0 -10 -4 -21q-2 -4 -4.5 -8.5t-8.5 -6.5q-4 -6 -16 -13q-7 -4 -21 -4q-10 0 -21 4q-4 4 -8.5 6.5t-8.5 6.5q-2 2 -5.5 6.5t-5.5 8.5q-4 11 -4 21q0 12 4 21 q5 12 11 18q4 4 8.5 6.5t8.5 4.5q5 2 11.5 3t9.5 1q13 0 21 -4q12 -4 16 -11zM277 647q5 12 5 18q0 9 -5 18q0 2 -4 6l-6 6q-2 3 -5 6.5t-9 3.5q-2 4 -7.5 5t-9.5 1h-49v-145h16v55h33q4 0 9.5 0.5t7.5 2.5q10 4 14 10q4 2 7 5.5t3 7.5zM2079 311h29l6 3q3 3 4 5q5 0 13 5 l3 6q1 1 1.5 2t2.5 2q0 3 2.5 7.5t2.5 8.5v32q-2 6 -6 10t-6 7q-6 2 -9.5 5t-7.5 7h-40q-6 -4 -9.5 -7t-8.5 -5q-7 -5 -11 -17q-2 -8 -2 -12v-20q0 -4 1 -8.5t4 -7.5l4 -4q3 -3 4 -6l6 -3q2 -2 4 -2q4 -4 7 -5t6 -3zM1993 711h-20v-112q-1 2 -2 5t-3 4l-70 97l-3 6h-23v-145 h21v114l2 -2l82 -112h16v145zM1480 382q-3 -6 -4 -11.5t-1 -7.5v-8q0 -3 2 -5q0 -8 5 -16q0 -2 2 -4t4 -6l5 -3q2 -2 9 -2q2 -4 5.5 -5t5.5 -3h26q5 2 8 3t6 5l6 2l4 3q2 4 4.5 6t2.5 4q2 3 3 7.5t3 8.5q0 2 1 5.5t1 7.5q0 2 -1 7.5t-5 11.5q0 6 -3.5 10t-5.5 7q-3 1 -8 6 l-9 6h-40q-4 -4 -9 -7t-9 -5q-2 -3 -5 -7t-3 -10zM935 711h-17v-112l-2 4q-2 6 -2 5l-69 97q-5 0 -6 6h-23v-145h19v117h2l2 -1v-4l81 -112h15v145zM1982 357q-4 -1 -7 -2t-5 -2l42 -56h-11l-6 2q-4 0 -4 7l-36 47h-26v-56h-15v130h54q3 0 9 -2q2 -2 5.5 -4.5t4.5 -4.5 q4 -2 5 -5.5t7 -7.5v-25q-4 -4 -5 -7.5t-3 -5.5zM1259 357q-3 -3 -11 -4l44 -56h-14q-3 0 -3 2q-6 0 -6 7l-36 47h-26v-56h-13v130h53q2 0 6 -2q8 -1 16 -9q0 -2 3 -5.5t3 -7.5q2 -2 2 -6v-13q0 -2 -2 -6q0 -9 -4 -13l-5 -4q-3 -3 -7 -4zM386 711h-91v-145h91v20h-69v44h55 v17h-55v42h69v22zM1614 711h-88v-145h88v20h-66v44h55v17h-55v42h66v22zM2306 425q6 2 5 2h12v-130h-11v106l-2 -2v-2q-4 -7 -6.5 -16t-7.5 -13q-4 -7 -6 -12.5t-7 -13.5q-2 -8 -3 -14t-5 -9q-3 -8 -6 -12.5t-5 -11.5h-14q-9 12 -14 24.5t-10 26.5q-4 11 -11 24.5t-11 26.5 v2h-4v-104h-13v130h13q4 0 6 -2l2 -2v-5l46 -99q0 -4 2 -4l1 2v4q0 1 7 5l38 92q2 5 3 5t1 2zM1387 711h-20v-97q0 -3 -2 -7q-2 -8 -9 -12q0 -2 -4 -3.5t-6 -5.5l-8 -2h-8q-7 0 -13 2q-5 4 -8 5.5t-5 3.5l-10 12q0 3 -1 7t-1 10v87h-19v-87q0 -6 1 -10t1 -7q0 -8 6 -14 q2 -6 9 -11q2 -3 4.5 -5.5t7.5 -4.5q2 -2 6 -3t7 -3q4 0 7 -1t8 -1q4 0 7.5 1t10.5 1q2 2 5 3t6 3q8 6 12 10q3 2 5 5t5 6q0 4 3 7t3 7v104zM622 592q2 5 3 8t1 8q0 10 -5 18t-11 13q-2 0 -3.5 2t-5.5 4l-4 2h-4q-1 0 -1 4q-7 0 -8 1q-7 2 -8.5 3t-5.5 3q-6 3 -8 3 q-3 4 -3 6v15q0 1 1.5 2t1.5 3q2 0 4 1t4 1q6 2 5 2h9q2 -2 4 -2q6 0 7 -4q2 -2 4 -2h2q9 0 13 4l4 2q0 2 -2 4l-4 4q-2 1 -4.5 3.5t-6.5 4.5q-2 0 -4 2t-5 4q-4 0 -6 0.5t-4 0.5q-6 0 -11 -0.5t-7 -0.5q-5 -2 -7 -4t-6 -4q-2 -5 -5.5 -7.5t-6.5 -6.5q0 -4 -2 -6.5t-2 -8.5 q0 -7 4 -16l5 -7l5 -4q2 -2 6 -5t7 -3l7 -4q2 -1 7 -1q1 -2 5.5 -2t6.5 -2l5 -2q2 0 4 -2t2 -3t2 -5q2 -2 2 -6v-9q0 -2 -2 -4t-2 -4t-2 -3q-1 -3 -6 -5l-3 -1q-4 0 -7.5 -1t-4.5 -1q-4 0 -7 1t-5 1q-5 0 -5 6l-4 1q-4 4 -11 4h-5l-4 -2l-5 -2q0 -3 3 -3q0 -2 2 -4 q0 -4 4 -4v-5h3q7 -7 15.5 -9t18.5 -2h8q5 0 11 2q4 2 8.5 4t6.5 5q4 2 7.5 5.5t4.5 9.5zM1497 592q7 7 7 16q0 10 -4.5 18t-11.5 13q-6 4 -6 6h-4q-1 0 -3 2h-3q-4 0 -5 4h-4q-2 0 -4 1l-4 3l-6 3l-7 3q-2 1 -3 2l-2 2l-1 2q0 1 -1 3t-1 4q0 4 4 8q0 1 4 5q2 0 3 1t4 1 q2 2 10 2l3 -1q2 -1 5 -1q3 -3 8 -4q6 -2 7 -2q7 0 8 4l5 2q0 2 -2.5 4t-4.5 4q0 1 -3 3.5t-5 4.5q-3 0 -5 2t-6 4h-6l-4 1q-6 0 -9.5 -0.5t-7.5 -0.5l-13 -8l-6 -8l-5 -6q-1 -4 -3 -6.5t-2 -8.5q0 -4 2 -7.5t3 -8.5q2 -4 4.5 -6.5l4.5 -4.5q4 -2 6.5 -5t6.5 -3q8 -5 13 -5 q4 -2 6.5 -2t5.5 -2q6 0 10 -4q2 -2 3.5 -3t1.5 -5q2 -2 2 -5v-9q0 -3 -2 -5q0 -5 -5 -7q-6 -4 -7 -5t-3 -1q-6 0 -7 -1t-5 -1q-2 0 -5.5 1t-5.5 1q-3 1 -8 6l-2 1q-4 4 -9 4h-6q-2 0 -4 -2l-6 -2q2 -1 2 -2t2 -1q0 -2 1 -3l3 -3v-2q7 -5 8 -5q6 -7 13.5 -9t16.5 -2h11 q3 0 11 2q2 2 5.5 4t7.5 5l5 7q3 3 4 8zM1632 297h-16v130h18q3 0 4 -4l69 -97q2 0 2 -4l2 -1v106h13v-130h-11l-77 106v4h-4v-110zM73 328q-4 4 -5 7.5t-2 8.5q-2 6 -3 9.5t-1 9.5t4 15q1 4 2 9t5 9l4 6l5 7q2 2 6 4.5t6 4.5q5 5 9.5 6t8.5 3q3 0 8 1.5t10 1.5q6 0 13 -1.5 t13 -5.5q13 -4 20 -14q-2 -2 -4 -2v-4h-13q-3 2 -6 5t-7 3h-34l-20 -12q-4 -3 -7 -7t-4 -10q-2 -6 -3 -11.5t-1 -7.5q0 -9 4 -13q0 -4 0.5 -8.5t0.5 -7.5l4 -4q4 -2 6 -6l7 -4q2 -1 7 -1q2 -4 4.5 -5t6.5 -3h31q2 2 6.5 3t8.5 5v27h-13v2q-2 0 -3 1l-3 3h-2q-1 1 -1 3v4h35 v-48q-2 -5 -3.5 -6t-5.5 -6h-11q-8 -2 -12 -2h-32q-4 0 -8.5 2.5t-9.5 6.5q-7 0 -12 9zM225 411v-41h52v-15h-52v-44h63v-14h-79v130h79v-16h-63zM1098 411v-41h56v-15h-56v-44h64v-14h-79v130h79v-16h-64zM2226 711h-18q-4 0 -8 -4q-5 -5 -5 -9l-35 -44h-2q0 -2 -2 -2v2 l-36 44q-1 6 -4 9q-4 4 -11 4h-16l54 -72v-2q0 -1 2 -1l2 -2v-68h20v66q2 0 2 2l2 3v2zM2112 586h-64v125h-20v-145h84v20zM601 427v-79q0 -6 2 -9t5 -5q0 -6 3 -9t5 -4q0 -2 4 -4t6 -4q6 -2 8 -2h15q1 0 5 2t7.5 4t6.5 4q4 1 8 13q4 3 4 14v79h13v-79q0 -11 -4 -22 q-5 -11 -11 -15q-5 -12 -15 -12q-6 -1 -11.5 -1.5t-10.5 -0.5t-10.5 0.5t-12.5 1.5q-3 0 -15 12l-10 15q-1 6 -3 11t-2 11v79h13zM1191 586h-62v125h-19v-145h81v20zM1361 315q1 2 2 3.5t2 3.5q2 2 3 6t1 6q0 8 -2 10t-3 4t-3 4q-1 1 -7 3q-4 0 -6 2t-6 2q-6 0 -12 6 q-9 0 -13 7q-2 0 -3.5 3t-3.5 6v21q0 1 2 7q0 8 7 9l6 5q2 1 3.5 2t3.5 2q4 0 6.5 1.5t7.5 1.5l6 -2l4 -1q3 0 4 -1t5 -3q6 0 6 -7q4 0 6 -3l1 -2l-2 -2q-6 -2 -9 -2h-6q-2 2 -2 4h-21q-8 0 -8 -2q-5 -7 -5 -8q-4 0 -4 -7q0 -5 4 -6q0 -5 3 -6q0 -2 3 -3l3 -1q4 -4 7 -4 t7 -2q3 0 4 -1l2 -1q3 0 7 -5h4q2 0 4 -2h2q5 -4 7.5 -7t4.5 -4q1 -5 1.5 -9.5t0.5 -8.5v-10q0 -4 -4 -5q-4 -9 -10 -13q-2 -2 -6 -4.5t-6 -2.5q-4 -2 -9 -2h-9q-9 0 -16.5 1t-12.5 8q-2 0 -3 2.5t-5 4.5v4l-2 2l4 2h6q1 0 3 -1t4 -1q4 -4 6.5 -5t4.5 -3h20q7 0 11 4z M1002 297l-55 130h5q6 0 8 -2t3 -2t3 -5l40 -97v-2l2 -6v6l2 2q5 13 12 25.5t11 23.5q4 14 9.5 25.5t11.5 22.5q0 5 1.5 5t1.5 2l6 2h10q-7 -16 -14 -32.5t-15 -31.5q-4 -8 -7 -17l-6 -18l-14 -31h-15zM499 411v-46h56v-12h-56v-56h-15v130h80v-16h-65zM1836 411v-46h51v-12 h-51v-56h-15v130h77v-16h-62zM824 427v-116h59v-14h-75v130h16zM348 297v114h-44v16h99v-16h-44v-114h-11zM735 427v-116h60v-14h-75v130h15zM253 683q2 -1 3 -4t3 -5q3 -5 3 -9v-4q0 -3 -3 -7q-2 -2 -3 -4.5t-3 -2.5q-1 -2 -7 -8h-43v50h33q4 0 10 -2l4 -2zM1242 365 q4 0 6 3q4 4 9 4l2 4q0 2 3 5q0 1 1 4t1 7q0 2 -1 3t-1 4q-3 2 -4 3t-1 5q-5 0 -9 4h-41v-46h35zM1970 368q4 4 7 4q5 7 5 9q2 4 2 11q0 3 -2 7q0 1 -5 8q-3 0 -7 4h-41v-46h33q3 0 8 3zM486 658l-4 -7q-2 0 -3 -2t-3 -2q-2 -2 -9 -2h-31v44h31q3 0 9 -2q2 0 3 -1l3 -3 q1 -2 2 -3.5t2 -3.5q3 -2 3 -9q0 -6 -3 -9zM1429 427v-130h-16v130h16zM641 121l-25 64q0 2 -1 3l-1 2q0 4 -2 6v-6l-1 -2q-1 -1 -1 -3l-26 -64h57zM1024 682v-4l26 -60h-55l27 60v5zM1645 77q6 0 6 -6q2 -2 2 -5v-4q0 -7 -2 -9q0 -5 -6 -9q-2 0 -5 -4h-17q-4 4 -9 4 q0 2 -5 9q-2 2 -2 9v4q0 3 2 5l3 4l2 2q7 4 9 4q1 3 4 3h10q3 0 3 -3q4 0 5 -4z" glyph-name="zero" unicode="0"/><glyph d="M2323 1024v-550h-2254v550h854q0 28 5 55t19 50q11 27 24.5 49t34.5 39q36 39 86 58q25 11 51 16t53 5q31 0 58 -6t50 -15q26 -13 48 -27.5t42 -34.5q32 -34 57 -88q18 -50 18 -101h854zM966 1119q-19 -42 -19 -95q0 -57 19 -99q9 -20 22.5 -40.5t28.5 -39.5 q18 -17 38 -30.5t43 -23.5q45 -21 98 -21q57 0 98 19q46 19 78 54q20 18 33 38t24 41q20 51 20 102q0 20 -3.5 42t-11.5 44q-13 37 -40 68q-13 18 -27.5 31t-32.5 24q-17 7 -35 16.5t-37 16.5q-14 3 -30.5 6t-35.5 3q-55 0 -100 -23q-46 -16 -79 -54q-17 -17 -29.5 -37 t-21.5 -42zM1070 877l295 298q58 -73 58 -151q0 -22 -3 -42t-11 -39q-13 -35 -38 -66h-301zM1026 870q-26 34 -41 71q-8 17 -11 38t-3 45q0 18 3 37.5t11 39.5q4 18 13.5 33.5t23.5 30.5h299zM2058 194q3 -4 5.5 -10t4.5 -13q4 -7 4 -14v-29q0 -7 -4 -11q-2 -7 -4.5 -14 t-5.5 -13q-5 -7 -15 -19q-6 -5 -11.5 -9.5t-12.5 -8.5q-5 -5 -11.5 -7t-12.5 -4q-8 -2 -13 -2h-16q-19 0 -40 6q-8 6 -15.5 12t-15.5 13q-8 6 -13.5 13.5t-7.5 19.5q-6 9 -7.5 18.5t-1.5 21.5q0 8 1 13.5t1 13.5q3 7 6 13t7 10q2 8 5.5 12.5t9.5 10.5q3 4 9.5 8t11.5 9 q4 2 10.5 4t12.5 6q10 0 15.5 1t11.5 1q9 0 16 -1t13 -1q6 -4 12.5 -6t11.5 -4q13 -10 24 -17q2 -6 7.5 -10.5t7.5 -12.5zM1064 194q2 -4 4 -10t5 -13q2 -10 2 -14v-29q0 -5 -2 -11q-3 -7 -5 -14t-4 -13q-5 -4 -9.5 -9.5t-8.5 -9.5q-5 -5 -10 -9.5t-10 -8.5q-7 -5 -13.5 -7 t-12.5 -4q-4 -1 -7 -1.5t-7 -0.5h-15q-9 0 -18.5 2t-21.5 4q-11 6 -17.5 12t-15.5 13q-15 13 -21 33q-3 9 -5 18.5t-2 21.5v13q0 4 2 14q4 16 11 23q4 8 7.5 12.5t7.5 10.5q7 4 11.5 8t10.5 9l27 10q4 0 10.5 1t13.5 1q8 0 15 -1t14 -1q6 -4 12.5 -6t13.5 -4l10 -9l10 -8 q4 -6 8.5 -10.5t9.5 -12.5zM2281 244l1 1q1 1 6 1h35v-206h-35v150l-5 -9v-6q0 -2 -2 -4q-6 -15 -12.5 -32.5t-14.5 -30.5q-6 -18 -11.5 -33.5t-13.5 -34.5h-34l-52 131q-5 3 -5 10q0 4 -1 4l-2 2v-147h-39v206h37q5 0 6.5 -1t3.5 -1q2 -2 3 -2t3 -2l7 -4q0 -2 2 -3.5 t2 -3.5q4 -16 10.5 -30t14.5 -32q6 -15 11.5 -30.5t11.5 -28.5v-12q3 0 4 -4q0 4 1 4v12l9 13l42 108q0 1 2 3l2 4q0 1 2 3l3 1q2 2 4 2t4 2zM1246 246h36v-206h-34l-94 138l-4 3v2q-3 4 -3 5q-4 1 -4 4q0 4 -5 4v-156h-36v206h32q4 0 8.5 -1t4.5 -3q3 -2 5 -2t4 -2l21 -31 q9 -13 19 -33q13 -13 23 -27.5t23 -27.5q0 -2 1 -4.5t1 -6.5l1 -2l1 -3v143zM630 246l88 -206h-23q-8 0 -15 4q-2 2 -4 6.5t-6 8.5l-12 25h-94l-9 -25q0 -6 -4 -6q-2 -5 -4 -5l-3 -4q-2 0 -3.5 -1t-5.5 -1q0 -2 -2 -2h-26l90 206h33zM244 246h130v-37h-94v-46h77v-38h-77 v-48h94v-37h-130v206zM69 246h149v-23q0 -3 -1 -5q0 -3 -2 -5l-4 -4l-99 -134h1l2 2h102v-37h-155v13q0 9 2 11q0 2 5 7v4l2 4q2 2 4 3.5t2 5.5l88 121h-96v37zM786 618q1 6 2 10t1 9q0 12 -3 21q0 5 -3.5 8.5t-5.5 9.5q-2 3 -4.5 6t-6.5 7l-7 6q-2 3 -8 8l-8 4q-2 1 -4.5 2 t-5.5 2q-4 0 -8.5 0.5t-10.5 0.5q-3 0 -8 -0.5t-11 -0.5q-10 -4 -17 -8q-4 -5 -7.5 -7.5t-7.5 -6.5q-11 -8 -12 -13q-4 -6 -5 -9.5t-3 -8.5q-1 -5 -1.5 -10t-0.5 -11q0 -5 2 -13t4 -14q2 -7 6.5 -12.5t9.5 -11.5q11 -14 24 -14q10 -6 27 -6h19q6 2 10.5 4t7.5 4q10 4 15 12 q7 7 11 15q2 4 5.5 8.5t3.5 8.5zM1843 618v40q-2 5 -3.5 9t-3.5 9q-5 6 -14 13q-1 4 -5.5 6.5t-8.5 7.5l-4 2t-5 2l-7 4q-6 0 -10.5 0.5t-9.5 0.5q-6 0 -10.5 -0.5t-8.5 -0.5l-10 -4l-10 -4q-3 -5 -6 -7.5t-7 -6.5q-3 -4 -6 -6.5t-5 -6.5q-2 -6 -4.5 -9.5t-2.5 -8.5 q-5 -10 -5 -21q0 -5 2.5 -13t5.5 -14q4 -15 15 -24q8 -14 24 -14q10 -6 28 -6h20q3 2 8 4t8 4q4 3 8.5 5.5t5.5 6.5q9 5 14 15zM1724 190q-7 -7 -13 -23q-2 -4 -4 -9.5t-2 -13.5t2 -13.5t4 -11.5q2 -7 5.5 -13.5t7.5 -9.5q9 -9 22 -15q12 -4 26 -4q5 0 9.5 1t10.5 1 q3 2 8 4.5t8 6.5q2 0 8 2h12q2 0 8 -2q2 -1 7 -6l6 -7q-3 -4 -6 -7.5t-7 -7.5q-6 -3 -10.5 -6t-11.5 -6q-6 -4 -10.5 -5t-10.5 -3t-11 -2h-10q-11 0 -22 2t-20 4q-20 9 -33 25q-15 13 -21 33q-4 9 -6.5 18.5t-2.5 21.5q0 8 1 13.5t3 13.5q2 16 9 23q6 8 8.5 12.5t8.5 10.5 l12 8l11 9l9 4l17 6q5 0 11.5 1t14.5 1h12q3 0 9 -2t10.5 -3t10.5 -3l22 -13q4 -4 7 -8l6 -8l-6 -7q-2 -1 -5 -4l-2 -4h-14q-7 0 -14 4q-3 2 -8 4.5t-8 4.5q-8 2 -11 2h-9q-16 0 -26 -6q-15 -2 -22 -13zM1584 141q4 -5 7 -9t3 -7q5 -8 5 -19q0 -14 -7 -27l-8 -12 q-3 -5 -8 -8q-6 -6 -10.5 -9.5t-12.5 -5.5q-5 -2 -13 -3t-14 -1q-11 0 -31 4q-9 4 -20 18q-4 1 -6 5l-4 8q-6 1 -6 9l6 4q2 2 4 2h4l2 2h9q4 0 4 -2q7 0 9 -2q5 -4 8.5 -5.5t5.5 -3.5q2 0 6 -1t9 -1h5q2 0 6 2q5 1 13 5q6 6 7 8q2 4 4 7t2 7q0 6 -6 9q-5 6 -7 6q-2 4 -6.5 5 t-6.5 2q-6 0 -13 6q-5 0 -9 1t-9 6q-9 3 -12.5 6t-7.5 7q-11 4 -11 13q-6 10 -6 23q0 17 6 25q1 4 5 10l8 9q4 2 9 4t12 6q6 0 10.5 1t12.5 1q4 0 8 -1t10 -1l15 -6q3 -4 6 -6.5t7 -6.5q3 -2 6.5 -5t3.5 -7l-7 -4l-6 -4q-3 -2 -3 -3h-17l-5 1q-3 1 -6 4q-2 0 -3.5 1t-3.5 1 h-16q-2 0 -3 -1t-5 -3l-6 -5q-1 -3 -1 -10q0 -5 1 -5q2 -2 3 -4.5t3 -6.5h6q1 0 5 -2q4 -1 8.5 -3t9.5 -4l8 -2q5 -4 9 -5t9 -4q10 -4 16 -13zM1480 315q-11 8 -15 19q-6 13 -6 29v15l10 18q2 2 4.5 5.5t6.5 7.5q6 7 12 9q3 5 8.5 6t8.5 3q4 0 8 1.5t9 1.5q4 0 10 -1.5 t10 -1.5q4 -2 7.5 -3t7.5 -6l11 -9l12 -13q2 -4 4 -8.5t4 -9.5q0 -4 1 -8.5t1 -6.5q0 -6 -1 -13.5t-5 -15.5q-4 -12 -16 -19q-4 -4 -8.5 -7.5t-11.5 -8.5q-10 -2 -26 -2h-14q-4 0 -10 2q-15 4 -22 16zM2030 119q5 12 5 25q0 15 -5 23q-2 9 -6.5 14.5t-7.5 8.5q-10 10 -23 13 q-4 4 -11 5t-16 1q-11 0 -24 -6q-7 -1 -11.5 -4t-10.5 -9q-8 -7 -15 -23q0 -4 -1 -9.5t-1 -13.5t1 -13.5t1 -11.5q8 -16 15 -23q6 -4 10.5 -8t11.5 -7q7 -2 13.5 -3t10.5 -1q20 0 27 4q8 3 13.5 7t9.5 8q9 9 14 23zM2141 315q-6 -4 -12 -7.5t-11 -8.5q-8 -2 -12 -2h-28 q-4 0 -12 2q-11 4 -21 16q-7 7 -13 19q-2 8 -4 15.5t-2 13.5q0 2 1 6.5t1 8.5q2 4 3 9t4 9q2 3 5 6t5 7q7 5 16 9q3 5 8 6t7 3q5 0 8 1.5t10 1.5q2 0 7.5 -1.5t10.5 -1.5q4 -2 7.5 -3t5.5 -6q4 -2 8.5 -4.5t7.5 -4.5q1 -2 2 -3.5t2 -3.5l4 -6q2 -4 4 -8.5t3 -9.5 q2 -4 3 -8.5t1 -6.5q0 -6 -1 -13.5t-5 -15.5q0 -6 -5 -11zM1035 119q4 11 4 25t-4 23q-4 17 -18 23q-2 6 -7.5 9t-11.5 4q-11 6 -27 6q-14 0 -24 -6q-10 -1 -22 -13q-8 -5 -13 -23q-5 -5 -5 -10v-27q0 -4 5 -11q2 -7 5 -13.5t8 -9.5q6 -4 11 -8t11 -7q9 -4 24 -4q18 0 27 4 q14 7 19 15q7 3 11.5 9.5t6.5 13.5zM726 246h130v-37h-94v-52h77v-36h-77v-81h-36v206zM535 209h-55v-169h-40v169h-59v37h154v-37zM1302 246h155v-37h-61v-169h-37v169h-57v37zM1281 1233q16 -8 33.5 -19.5t33.5 -21.5h-304q34 28 70 41q37 17 82 17t85 -17zM1114 810 q-18 7 -35 18t-33 24h302q-16 -13 -33.5 -24t-33.5 -18q-22 -6 -43 -10.5t-42 -4.5q-23 0 -42.5 4.5t-39.5 10.5zM524 566l-44 64q4 0 11 4q7 3 8 9q8 6 8 11v24q0 1 -2 5q-4 9 -10 14q-5 8 -13 8q-2 4 -6.5 5t-8.5 1h-53v-145h22v60h22l37 -52q1 -4 7 -6q2 -2 3 -2h19z M1096 566l-63 145h-20l-62 -145h11q7 0 9 2q0 2 6 6l10 25h72l11 -25q1 -4 5 -6q2 -2 8 -2h13zM1810 676q2 -2 6.5 -7.5t5.5 -10.5q4 -7 4 -21q0 -12 -4 -21q-2 -5 -6 -9l-6 -6q-5 -4 -9 -6.5t-8 -6.5q-8 -4 -21 -4q-14 0 -21 4q-5 4 -9.5 6.5t-8.5 6.5q-3 2 -6 6.5t-3 8.5 q-6 10 -6 21q0 10 6 21q0 5 3 10.5t6 7.5q6 6 18 11q9 4 21 4t21 -4zM751 676q6 -2 8.5 -7.5t4.5 -10.5q4 -7 4 -21q0 -10 -4 -21q-2 -4 -4.5 -8.5t-8.5 -6.5q-4 -6 -16 -13q-7 -4 -21 -4q-10 0 -21 4q-4 4 -8.5 6.5t-8.5 6.5q-2 2 -5.5 6.5t-5.5 8.5q-4 11 -4 21q0 12 4 21 q5 12 11 18q4 4 8.5 6.5t8.5 4.5q5 2 11.5 3t9.5 1q13 0 21 -4q12 -4 16 -11zM277 647q5 12 5 18q0 9 -5 18q0 2 -4 6l-6 6q-2 3 -5 6.5t-9 3.5q-2 4 -7.5 5t-9.5 1h-49v-145h16v55h33q4 0 9.5 0.5t7.5 2.5q10 4 14 10q4 2 7 5.5t3 7.5zM2079 311h29l6 3q3 3 4 5q5 0 13 5 l3 6q1 1 1.5 2t2.5 2q0 3 2.5 7.5t2.5 8.5v32q-2 6 -6 10t-6 7q-6 2 -9.5 5t-7.5 7h-40q-6 -4 -9.5 -7t-8.5 -5q-7 -5 -11 -17q-2 -8 -2 -12v-20q0 -4 1 -8.5t4 -7.5l4 -4q3 -3 4 -6l6 -3q2 -2 4 -2q4 -4 7 -5t6 -3zM1993 711h-20v-112q-1 2 -2 5t-3 4l-70 97l-3 6h-23v-145 h21v114l2 -2l82 -112h16v145zM1480 382q-3 -6 -4 -11.5t-1 -7.5v-8q0 -3 2 -5q0 -8 5 -16q0 -2 2 -4t4 -6l5 -3q2 -2 9 -2q2 -4 5.5 -5t5.5 -3h26q5 2 8 3t6 5l6 2l4 3q2 4 4.5 6t2.5 4q2 3 3 7.5t3 8.5q0 2 1 5.5t1 7.5q0 2 -1 7.5t-5 11.5q0 6 -3.5 10t-5.5 7q-3 1 -8 6 l-9 6h-40q-4 -4 -9 -7t-9 -5q-2 -3 -5 -7t-3 -10zM935 711h-17v-112l-2 4q-2 6 -2 5l-69 97q-5 0 -6 6h-23v-145h19v117h2l2 -1v-4l81 -112h15v145zM1982 357q-4 -1 -7 -2t-5 -2l42 -56h-11l-6 2q-4 0 -4 7l-36 47h-26v-56h-15v130h54q3 0 9 -2q2 -2 5.5 -4.5t4.5 -4.5 q4 -2 5 -5.5t7 -7.5v-25q-4 -4 -5 -7.5t-3 -5.5zM1259 357q-3 -3 -11 -4l44 -56h-14q-3 0 -3 2q-6 0 -6 7l-36 47h-26v-56h-13v130h53q2 0 6 -2q8 -1 16 -9q0 -2 3 -5.5t3 -7.5q2 -2 2 -6v-13q0 -2 -2 -6q0 -9 -4 -13l-5 -4q-3 -3 -7 -4zM386 711h-91v-145h91v20h-69v44h55 v17h-55v42h69v22zM1614 711h-88v-145h88v20h-66v44h55v17h-55v42h66v22zM2306 425q6 2 5 2h12v-130h-11v106l-2 -2v-2q-4 -7 -6.5 -16t-7.5 -13q-4 -7 -6 -12.5t-7 -13.5q-2 -8 -3 -14t-5 -9q-3 -8 -6 -12.5t-5 -11.5h-14q-9 12 -14 24.5t-10 26.5q-4 11 -11 24.5t-11 26.5 v2h-4v-104h-13v130h13q4 0 6 -2l2 -2v-5l46 -99q0 -4 2 -4l1 2v4q0 1 7 5l38 92q2 5 3 5t1 2zM1387 711h-20v-97q0 -3 -2 -7q-2 -8 -9 -12q0 -2 -4 -3.5t-6 -5.5l-8 -2h-8q-7 0 -13 2q-5 4 -8 5.5t-5 3.5l-10 12q0 3 -1 7t-1 10v87h-19v-87q0 -6 1 -10t1 -7q0 -8 6 -14 q2 -6 9 -11q2 -3 4.5 -5.5t7.5 -4.5q2 -2 6 -3t7 -3q4 0 7 -1t8 -1q4 0 7.5 1t10.5 1q2 2 5 3t6 3q8 6 12 10q3 2 5 5t5 6q0 4 3 7t3 7v104zM622 592q2 5 3 8t1 8q0 10 -5 18t-11 13q-2 0 -3.5 2t-5.5 4l-4 2h-4q-1 0 -1 4q-7 0 -8 1q-7 2 -8.5 3t-5.5 3q-6 3 -8 3 q-3 4 -3 6v15q0 1 1.5 2t1.5 3q2 0 4 1t4 1q6 2 5 2h9q2 -2 4 -2q6 0 7 -4q2 -2 4 -2h2q9 0 13 4l4 2q0 2 -2 4l-4 4q-2 1 -4.5 3.5t-6.5 4.5q-2 0 -4 2t-5 4q-4 0 -6 0.5t-4 0.5q-6 0 -11 -0.5t-7 -0.5q-5 -2 -7 -4t-6 -4q-2 -5 -5.5 -7.5t-6.5 -6.5q0 -4 -2 -6.5t-2 -8.5 q0 -7 4 -16l5 -7l5 -4q2 -2 6 -5t7 -3l7 -4q2 -1 7 -1q1 -2 5.5 -2t6.5 -2l5 -2q2 0 4 -2t2 -3t2 -5q2 -2 2 -6v-9q0 -2 -2 -4t-2 -4t-2 -3q-1 -3 -6 -5l-3 -1q-4 0 -7.5 -1t-4.5 -1q-4 0 -7 1t-5 1q-5 0 -5 6l-4 1q-4 4 -11 4h-5l-4 -2l-5 -2q0 -3 3 -3q0 -2 2 -4 q0 -4 4 -4v-5h3q7 -7 15.5 -9t18.5 -2h8q5 0 11 2q4 2 8.5 4t6.5 5q4 2 7.5 5.5t4.5 9.5zM1497 592q7 7 7 16q0 10 -4.5 18t-11.5 13q-6 4 -6 6h-4q-1 0 -3 2h-3q-4 0 -5 4h-4q-2 0 -4 1l-4 3l-6 3l-7 3q-2 1 -3 2l-2 2l-1 2q0 1 -1 3t-1 4q0 4 4 8q0 1 4 5q2 0 3 1t4 1 q2 2 10 2l3 -1q2 -1 5 -1q3 -3 8 -4q6 -2 7 -2q7 0 8 4l5 2q0 2 -2.5 4t-4.5 4q0 1 -3 3.5t-5 4.5q-3 0 -5 2t-6 4h-6l-4 1q-6 0 -9.5 -0.5t-7.5 -0.5l-13 -8l-6 -8l-5 -6q-1 -4 -3 -6.5t-2 -8.5q0 -4 2 -7.5t3 -8.5q2 -4 4.5 -6.5l4.5 -4.5q4 -2 6.5 -5t6.5 -3q8 -5 13 -5 q4 -2 6.5 -2t5.5 -2q6 0 10 -4q2 -2 3.5 -3t1.5 -5q2 -2 2 -5v-9q0 -3 -2 -5q0 -5 -5 -7q-6 -4 -7 -5t-3 -1q-6 0 -7 -1t-5 -1q-2 0 -5.5 1t-5.5 1q-3 1 -8 6l-2 1q-4 4 -9 4h-6q-2 0 -4 -2l-6 -2q2 -1 2 -2t2 -1q0 -2 1 -3l3 -3v-2q7 -5 8 -5q6 -7 13.5 -9t16.5 -2h11 q3 0 11 2q2 2 5.5 4t7.5 5l5 7q3 3 4 8zM1632 297h-16v130h18q3 0 4 -4l69 -97q2 0 2 -4l2 -1v106h13v-130h-11l-77 106v4h-4v-110zM73 328q-4 4 -5 7.5t-2 8.5q-2 6 -3 9.5t-1 9.5t4 15q1 4 2 9t5 9l4 6l5 7q2 2 6 4.5t6 4.5q5 5 9.5 6t8.5 3q3 0 8 1.5t10 1.5q6 0 13 -1.5 t13 -5.5q13 -4 20 -14q-2 -2 -4 -2v-4h-13q-3 2 -6 5t-7 3h-34l-20 -12q-4 -3 -7 -7t-4 -10q-2 -6 -3 -11.5t-1 -7.5q0 -9 4 -13q0 -4 0.5 -8.5t0.5 -7.5l4 -4q4 -2 6 -6l7 -4q2 -1 7 -1q2 -4 4.5 -5t6.5 -3h31q2 2 6.5 3t8.5 5v27h-13v2q-2 0 -3 1l-3 3h-2q-1 1 -1 3v4h35 v-48q-2 -5 -3.5 -6t-5.5 -6h-11q-8 -2 -12 -2h-32q-4 0 -8.5 2.5t-9.5 6.5q-7 0 -12 9zM225 411v-41h52v-15h-52v-44h63v-14h-79v130h79v-16h-63zM1098 411v-41h56v-15h-56v-44h64v-14h-79v130h79v-16h-64zM2226 711h-18q-4 0 -8 -4q-5 -5 -5 -9l-35 -44h-2q0 -2 -2 -2v2 l-36 44q-1 6 -4 9q-4 4 -11 4h-16l54 -72v-2q0 -1 2 -1l2 -2v-68h20v66q2 0 2 2l2 3v2zM2112 586h-64v125h-20v-145h84v20zM601 427v-79q0 -6 2 -9t5 -5q0 -6 3 -9t5 -4q0 -2 4 -4t6 -4q6 -2 8 -2h15q1 0 5 2t7.5 4t6.5 4q4 1 8 13q4 3 4 14v79h13v-79q0 -11 -4 -22 q-5 -11 -11 -15q-5 -12 -15 -12q-6 -1 -11.5 -1.5t-10.5 -0.5t-10.5 0.5t-12.5 1.5q-3 0 -15 12l-10 15q-1 6 -3 11t-2 11v79h13zM1191 586h-62v125h-19v-145h81v20zM1361 315q1 2 2 3.5t2 3.5q2 2 3 6t1 6q0 8 -2 10t-3 4t-3 4q-1 1 -7 3q-4 0 -6 2t-6 2q-6 0 -12 6 q-9 0 -13 7q-2 0 -3.5 3t-3.5 6v21q0 1 2 7q0 8 7 9l6 5q2 1 3.5 2t3.5 2q4 0 6.5 1.5t7.5 1.5l6 -2l4 -1q3 0 4 -1t5 -3q6 0 6 -7q4 0 6 -3l1 -2l-2 -2q-6 -2 -9 -2h-6q-2 2 -2 4h-21q-8 0 -8 -2q-5 -7 -5 -8q-4 0 -4 -7q0 -5 4 -6q0 -5 3 -6q0 -2 3 -3l3 -1q4 -4 7 -4 t7 -2q3 0 4 -1l2 -1q3 0 7 -5h4q2 0 4 -2h2q5 -4 7.5 -7t4.5 -4q1 -5 1.5 -9.5t0.5 -8.5v-10q0 -4 -4 -5q-4 -9 -10 -13q-2 -2 -6 -4.5t-6 -2.5q-4 -2 -9 -2h-9q-9 0 -16.5 1t-12.5 8q-2 0 -3 2.5t-5 4.5v4l-2 2l4 2h6q1 0 3 -1t4 -1q4 -4 6.5 -5t4.5 -3h20q7 0 11 4z M1002 297l-55 130h5q6 0 8 -2t3 -2t3 -5l40 -97v-2l2 -6v6l2 2q5 13 12 25.5t11 23.5q4 14 9.5 25.5t11.5 22.5q0 5 1.5 5t1.5 2l6 2h10q-7 -16 -14 -32.5t-15 -31.5q-4 -8 -7 -17l-6 -18l-14 -31h-15zM499 411v-46h56v-12h-56v-56h-15v130h80v-16h-65zM1836 411v-46h51v-12 h-51v-56h-15v130h77v-16h-62zM824 427v-116h59v-14h-75v130h16zM348 297v114h-44v16h99v-16h-44v-114h-11zM735 427v-116h60v-14h-75v130h15zM253 683q2 -1 3 -4t3 -5q3 -5 3 -9v-4q0 -3 -3 -7q-2 -2 -3 -4.5t-3 -2.5q-1 -2 -7 -8h-43v50h33q4 0 10 -2l4 -2zM1242 365 q4 0 6 3q4 4 9 4l2 4q0 2 3 5q0 1 1 4t1 7q0 2 -1 3t-1 4q-3 2 -4 3t-1 5q-5 0 -9 4h-41v-46h35zM1970 368q4 4 7 4q5 7 5 9q2 4 2 11q0 3 -2 7q0 1 -5 8q-3 0 -7 4h-41v-46h33q3 0 8 3zM486 658l-4 -7q-2 0 -3 -2t-3 -2q-2 -2 -9 -2h-31v44h31q3 0 9 -2q2 0 3 -1l3 -3 q1 -2 2 -3.5t2 -3.5q3 -2 3 -9q0 -6 -3 -9zM1429 427v-130h-16v130h16zM641 121l-25 64q0 2 -1 3l-1 2q0 4 -2 6v-6l-1 -2q-1 -1 -1 -3l-26 -64h57zM1024 682v-4l26 -60h-55l27 60v5zM1645 77q6 0 6 -6q2 -2 2 -5v-4q0 -7 -2 -9q0 -5 -6 -9q-2 0 -5 -4h-17q-4 4 -9 4 q0 2 -5 9q-2 2 -2 9v4q0 3 2 5l3 4l2 2q7 4 9 4q1 3 4 3h10q3 0 3 -3q4 0 5 -4z" glyph-name="one" unicode="1"/><glyph d="M2323 1024v-550h-2254v550h854q0 28 5 55t19 50q11 27 24.5 49t34.5 39q36 39 86 58q25 11 51 16t53 5q31 0 58 -6t50 -15q26 -13 48 -27.5t42 -34.5q32 -34 57 -88q18 -50 18 -101h854zM966 1119q-19 -42 -19 -95q0 -57 19 -99q9 -20 22.5 -40.5t28.5 -39.5 q18 -17 38 -30.5t43 -23.5q45 -21 98 -21q57 0 98 19q46 19 78 54q20 18 33 38t24 41q20 51 20 102q0 20 -3.5 42t-11.5 44q-13 37 -40 68q-13 18 -27.5 31t-32.5 24q-17 7 -35 16.5t-37 16.5q-14 3 -30.5 6t-35.5 3q-55 0 -100 -23q-46 -16 -79 -54q-17 -17 -29.5 -37 t-21.5 -42zM1070 877l295 298q58 -73 58 -151q0 -22 -3 -42t-11 -39q-13 -35 -38 -66h-301zM1026 870q-26 34 -41 71q-8 17 -11 38t-3 45q0 18 3 37.5t11 39.5q4 18 13.5 33.5t23.5 30.5h299zM2058 194q3 -4 5.5 -10t4.5 -13q4 -7 4 -14v-29q0 -7 -4 -11q-2 -7 -4.5 -14 t-5.5 -13q-5 -7 -15 -19q-6 -5 -11.5 -9.5t-12.5 -8.5q-5 -5 -11.5 -7t-12.5 -4q-8 -2 -13 -2h-16q-19 0 -40 6q-8 6 -15.5 12t-15.5 13q-8 6 -13.5 13.5t-7.5 19.5q-6 9 -7.5 18.5t-1.5 21.5q0 8 1 13.5t1 13.5q3 7 6 13t7 10q2 8 5.5 12.5t9.5 10.5q3 4 9.5 8t11.5 9 q4 2 10.5 4t12.5 6q10 0 15.5 1t11.5 1q9 0 16 -1t13 -1q6 -4 12.5 -6t11.5 -4q13 -10 24 -17q2 -6 7.5 -10.5t7.5 -12.5zM1064 194q2 -4 4 -10t5 -13q2 -10 2 -14v-29q0 -5 -2 -11q-3 -7 -5 -14t-4 -13q-5 -4 -9.5 -9.5t-8.5 -9.5q-5 -5 -10 -9.5t-10 -8.5q-7 -5 -13.5 -7 t-12.5 -4q-4 -1 -7 -1.5t-7 -0.5h-15q-9 0 -18.5 2t-21.5 4q-11 6 -17.5 12t-15.5 13q-15 13 -21 33q-3 9 -5 18.5t-2 21.5v13q0 4 2 14q4 16 11 23q4 8 7.5 12.5t7.5 10.5q7 4 11.5 8t10.5 9l27 10q4 0 10.5 1t13.5 1q8 0 15 -1t14 -1q6 -4 12.5 -6t13.5 -4l10 -9l10 -8 q4 -6 8.5 -10.5t9.5 -12.5zM2281 244l1 1q1 1 6 1h35v-206h-35v150l-5 -9v-6q0 -2 -2 -4q-6 -15 -12.5 -32.5t-14.5 -30.5q-6 -18 -11.5 -33.5t-13.5 -34.5h-34l-52 131q-5 3 -5 10q0 4 -1 4l-2 2v-147h-39v206h37q5 0 6.5 -1t3.5 -1q2 -2 3 -2t3 -2l7 -4q0 -2 2 -3.5 t2 -3.5q4 -16 10.5 -30t14.5 -32q6 -15 11.5 -30.5t11.5 -28.5v-12q3 0 4 -4q0 4 1 4v12l9 13l42 108q0 1 2 3l2 4q0 1 2 3l3 1q2 2 4 2t4 2zM1246 246h36v-206h-34l-94 138l-4 3v2q-3 4 -3 5q-4 1 -4 4q0 4 -5 4v-156h-36v206h32q4 0 8.5 -1t4.5 -3q3 -2 5 -2t4 -2l21 -31 q9 -13 19 -33q13 -13 23 -27.5t23 -27.5q0 -2 1 -4.5t1 -6.5l1 -2l1 -3v143zM630 246l88 -206h-23q-8 0 -15 4q-2 2 -4 6.5t-6 8.5l-12 25h-94l-9 -25q0 -6 -4 -6q-2 -5 -4 -5l-3 -4q-2 0 -3.5 -1t-5.5 -1q0 -2 -2 -2h-26l90 206h33zM244 246h130v-37h-94v-46h77v-38h-77 v-48h94v-37h-130v206zM69 246h149v-23q0 -3 -1 -5q0 -3 -2 -5l-4 -4l-99 -134h1l2 2h102v-37h-155v13q0 9 2 11q0 2 5 7v4l2 4q2 2 4 3.5t2 5.5l88 121h-96v37zM786 618q1 6 2 10t1 9q0 12 -3 21q0 5 -3.5 8.5t-5.5 9.5q-2 3 -4.5 6t-6.5 7l-7 6q-2 3 -8 8l-8 4q-2 1 -4.5 2 t-5.5 2q-4 0 -8.5 0.5t-10.5 0.5q-3 0 -8 -0.5t-11 -0.5q-10 -4 -17 -8q-4 -5 -7.5 -7.5t-7.5 -6.5q-11 -8 -12 -13q-4 -6 -5 -9.5t-3 -8.5q-1 -5 -1.5 -10t-0.5 -11q0 -5 2 -13t4 -14q2 -7 6.5 -12.5t9.5 -11.5q11 -14 24 -14q10 -6 27 -6h19q6 2 10.5 4t7.5 4q10 4 15 12 q7 7 11 15q2 4 5.5 8.5t3.5 8.5zM1843 618v40q-2 5 -3.5 9t-3.5 9q-5 6 -14 13q-1 4 -5.5 6.5t-8.5 7.5l-4 2t-5 2l-7 4q-6 0 -10.5 0.5t-9.5 0.5q-6 0 -10.5 -0.5t-8.5 -0.5l-10 -4l-10 -4q-3 -5 -6 -7.5t-7 -6.5q-3 -4 -6 -6.5t-5 -6.5q-2 -6 -4.5 -9.5t-2.5 -8.5 q-5 -10 -5 -21q0 -5 2.5 -13t5.5 -14q4 -15 15 -24q8 -14 24 -14q10 -6 28 -6h20q3 2 8 4t8 4q4 3 8.5 5.5t5.5 6.5q9 5 14 15zM1724 190q-7 -7 -13 -23q-2 -4 -4 -9.5t-2 -13.5t2 -13.5t4 -11.5q2 -7 5.5 -13.5t7.5 -9.5q9 -9 22 -15q12 -4 26 -4q5 0 9.5 1t10.5 1 q3 2 8 4.5t8 6.5q2 0 8 2h12q2 0 8 -2q2 -1 7 -6l6 -7q-3 -4 -6 -7.5t-7 -7.5q-6 -3 -10.5 -6t-11.5 -6q-6 -4 -10.5 -5t-10.5 -3t-11 -2h-10q-11 0 -22 2t-20 4q-20 9 -33 25q-15 13 -21 33q-4 9 -6.5 18.5t-2.5 21.5q0 8 1 13.5t3 13.5q2 16 9 23q6 8 8.5 12.5t8.5 10.5 l12 8l11 9l9 4l17 6q5 0 11.5 1t14.5 1h12q3 0 9 -2t10.5 -3t10.5 -3l22 -13q4 -4 7 -8l6 -8l-6 -7q-2 -1 -5 -4l-2 -4h-14q-7 0 -14 4q-3 2 -8 4.5t-8 4.5q-8 2 -11 2h-9q-16 0 -26 -6q-15 -2 -22 -13zM1584 141q4 -5 7 -9t3 -7q5 -8 5 -19q0 -14 -7 -27l-8 -12 q-3 -5 -8 -8q-6 -6 -10.5 -9.5t-12.5 -5.5q-5 -2 -13 -3t-14 -1q-11 0 -31 4q-9 4 -20 18q-4 1 -6 5l-4 8q-6 1 -6 9l6 4q2 2 4 2h4l2 2h9q4 0 4 -2q7 0 9 -2q5 -4 8.5 -5.5t5.5 -3.5q2 0 6 -1t9 -1h5q2 0 6 2q5 1 13 5q6 6 7 8q2 4 4 7t2 7q0 6 -6 9q-5 6 -7 6q-2 4 -6.5 5 t-6.5 2q-6 0 -13 6q-5 0 -9 1t-9 6q-9 3 -12.5 6t-7.5 7q-11 4 -11 13q-6 10 -6 23q0 17 6 25q1 4 5 10l8 9q4 2 9 4t12 6q6 0 10.5 1t12.5 1q4 0 8 -1t10 -1l15 -6q3 -4 6 -6.5t7 -6.5q3 -2 6.5 -5t3.5 -7l-7 -4l-6 -4q-3 -2 -3 -3h-17l-5 1q-3 1 -6 4q-2 0 -3.5 1t-3.5 1 h-16q-2 0 -3 -1t-5 -3l-6 -5q-1 -3 -1 -10q0 -5 1 -5q2 -2 3 -4.5t3 -6.5h6q1 0 5 -2q4 -1 8.5 -3t9.5 -4l8 -2q5 -4 9 -5t9 -4q10 -4 16 -13zM1480 315q-11 8 -15 19q-6 13 -6 29v15l10 18q2 2 4.5 5.5t6.5 7.5q6 7 12 9q3 5 8.5 6t8.5 3q4 0 8 1.5t9 1.5q4 0 10 -1.5 t10 -1.5q4 -2 7.5 -3t7.5 -6l11 -9l12 -13q2 -4 4 -8.5t4 -9.5q0 -4 1 -8.5t1 -6.5q0 -6 -1 -13.5t-5 -15.5q-4 -12 -16 -19q-4 -4 -8.5 -7.5t-11.5 -8.5q-10 -2 -26 -2h-14q-4 0 -10 2q-15 4 -22 16zM2030 119q5 12 5 25q0 15 -5 23q-2 9 -6.5 14.5t-7.5 8.5q-10 10 -23 13 q-4 4 -11 5t-16 1q-11 0 -24 -6q-7 -1 -11.5 -4t-10.5 -9q-8 -7 -15 -23q0 -4 -1 -9.5t-1 -13.5t1 -13.5t1 -11.5q8 -16 15 -23q6 -4 10.5 -8t11.5 -7q7 -2 13.5 -3t10.5 -1q20 0 27 4q8 3 13.5 7t9.5 8q9 9 14 23zM2141 315q-6 -4 -12 -7.5t-11 -8.5q-8 -2 -12 -2h-28 q-4 0 -12 2q-11 4 -21 16q-7 7 -13 19q-2 8 -4 15.5t-2 13.5q0 2 1 6.5t1 8.5q2 4 3 9t4 9q2 3 5 6t5 7q7 5 16 9q3 5 8 6t7 3q5 0 8 1.5t10 1.5q2 0 7.5 -1.5t10.5 -1.5q4 -2 7.5 -3t5.5 -6q4 -2 8.5 -4.5t7.5 -4.5q1 -2 2 -3.5t2 -3.5l4 -6q2 -4 4 -8.5t3 -9.5 q2 -4 3 -8.5t1 -6.5q0 -6 -1 -13.5t-5 -15.5q0 -6 -5 -11zM1035 119q4 11 4 25t-4 23q-4 17 -18 23q-2 6 -7.5 9t-11.5 4q-11 6 -27 6q-14 0 -24 -6q-10 -1 -22 -13q-8 -5 -13 -23q-5 -5 -5 -10v-27q0 -4 5 -11q2 -7 5 -13.5t8 -9.5q6 -4 11 -8t11 -7q9 -4 24 -4q18 0 27 4 q14 7 19 15q7 3 11.5 9.5t6.5 13.5zM726 246h130v-37h-94v-52h77v-36h-77v-81h-36v206zM535 209h-55v-169h-40v169h-59v37h154v-37zM1302 246h155v-37h-61v-169h-37v169h-57v37zM1281 1233q16 -8 33.5 -19.5t33.5 -21.5h-304q34 28 70 41q37 17 82 17t85 -17zM1114 810 q-18 7 -35 18t-33 24h302q-16 -13 -33.5 -24t-33.5 -18q-22 -6 -43 -10.5t-42 -4.5q-23 0 -42.5 4.5t-39.5 10.5zM524 566l-44 64q4 0 11 4q7 3 8 9q8 6 8 11v24q0 1 -2 5q-4 9 -10 14q-5 8 -13 8q-2 4 -6.5 5t-8.5 1h-53v-145h22v60h22l37 -52q1 -4 7 -6q2 -2 3 -2h19z M1096 566l-63 145h-20l-62 -145h11q7 0 9 2q0 2 6 6l10 25h72l11 -25q1 -4 5 -6q2 -2 8 -2h13zM1810 676q2 -2 6.5 -7.5t5.5 -10.5q4 -7 4 -21q0 -12 -4 -21q-2 -5 -6 -9l-6 -6q-5 -4 -9 -6.5t-8 -6.5q-8 -4 -21 -4q-14 0 -21 4q-5 4 -9.5 6.5t-8.5 6.5q-3 2 -6 6.5t-3 8.5 q-6 10 -6 21q0 10 6 21q0 5 3 10.5t6 7.5q6 6 18 11q9 4 21 4t21 -4zM751 676q6 -2 8.5 -7.5t4.5 -10.5q4 -7 4 -21q0 -10 -4 -21q-2 -4 -4.5 -8.5t-8.5 -6.5q-4 -6 -16 -13q-7 -4 -21 -4q-10 0 -21 4q-4 4 -8.5 6.5t-8.5 6.5q-2 2 -5.5 6.5t-5.5 8.5q-4 11 -4 21q0 12 4 21 q5 12 11 18q4 4 8.5 6.5t8.5 4.5q5 2 11.5 3t9.5 1q13 0 21 -4q12 -4 16 -11zM277 647q5 12 5 18q0 9 -5 18q0 2 -4 6l-6 6q-2 3 -5 6.5t-9 3.5q-2 4 -7.5 5t-9.5 1h-49v-145h16v55h33q4 0 9.5 0.5t7.5 2.5q10 4 14 10q4 2 7 5.5t3 7.5zM2079 311h29l6 3q3 3 4 5q5 0 13 5 l3 6q1 1 1.5 2t2.5 2q0 3 2.5 7.5t2.5 8.5v32q-2 6 -6 10t-6 7q-6 2 -9.5 5t-7.5 7h-40q-6 -4 -9.5 -7t-8.5 -5q-7 -5 -11 -17q-2 -8 -2 -12v-20q0 -4 1 -8.5t4 -7.5l4 -4q3 -3 4 -6l6 -3q2 -2 4 -2q4 -4 7 -5t6 -3zM1993 711h-20v-112q-1 2 -2 5t-3 4l-70 97l-3 6h-23v-145 h21v114l2 -2l82 -112h16v145zM1480 382q-3 -6 -4 -11.5t-1 -7.5v-8q0 -3 2 -5q0 -8 5 -16q0 -2 2 -4t4 -6l5 -3q2 -2 9 -2q2 -4 5.5 -5t5.5 -3h26q5 2 8 3t6 5l6 2l4 3q2 4 4.5 6t2.5 4q2 3 3 7.5t3 8.5q0 2 1 5.5t1 7.5q0 2 -1 7.5t-5 11.5q0 6 -3.5 10t-5.5 7q-3 1 -8 6 l-9 6h-40q-4 -4 -9 -7t-9 -5q-2 -3 -5 -7t-3 -10zM935 711h-17v-112l-2 4q-2 6 -2 5l-69 97q-5 0 -6 6h-23v-145h19v117h2l2 -1v-4l81 -112h15v145zM1982 357q-4 -1 -7 -2t-5 -2l42 -56h-11l-6 2q-4 0 -4 7l-36 47h-26v-56h-15v130h54q3 0 9 -2q2 -2 5.5 -4.5t4.5 -4.5 q4 -2 5 -5.5t7 -7.5v-25q-4 -4 -5 -7.5t-3 -5.5zM1259 357q-3 -3 -11 -4l44 -56h-14q-3 0 -3 2q-6 0 -6 7l-36 47h-26v-56h-13v130h53q2 0 6 -2q8 -1 16 -9q0 -2 3 -5.5t3 -7.5q2 -2 2 -6v-13q0 -2 -2 -6q0 -9 -4 -13l-5 -4q-3 -3 -7 -4zM386 711h-91v-145h91v20h-69v44h55 v17h-55v42h69v22zM1614 711h-88v-145h88v20h-66v44h55v17h-55v42h66v22zM2306 425q6 2 5 2h12v-130h-11v106l-2 -2v-2q-4 -7 -6.5 -16t-7.5 -13q-4 -7 -6 -12.5t-7 -13.5q-2 -8 -3 -14t-5 -9q-3 -8 -6 -12.5t-5 -11.5h-14q-9 12 -14 24.5t-10 26.5q-4 11 -11 24.5t-11 26.5 v2h-4v-104h-13v130h13q4 0 6 -2l2 -2v-5l46 -99q0 -4 2 -4l1 2v4q0 1 7 5l38 92q2 5 3 5t1 2zM1387 711h-20v-97q0 -3 -2 -7q-2 -8 -9 -12q0 -2 -4 -3.5t-6 -5.5l-8 -2h-8q-7 0 -13 2q-5 4 -8 5.5t-5 3.5l-10 12q0 3 -1 7t-1 10v87h-19v-87q0 -6 1 -10t1 -7q0 -8 6 -14 q2 -6 9 -11q2 -3 4.5 -5.5t7.5 -4.5q2 -2 6 -3t7 -3q4 0 7 -1t8 -1q4 0 7.5 1t10.5 1q2 2 5 3t6 3q8 6 12 10q3 2 5 5t5 6q0 4 3 7t3 7v104zM622 592q2 5 3 8t1 8q0 10 -5 18t-11 13q-2 0 -3.5 2t-5.5 4l-4 2h-4q-1 0 -1 4q-7 0 -8 1q-7 2 -8.5 3t-5.5 3q-6 3 -8 3 q-3 4 -3 6v15q0 1 1.5 2t1.5 3q2 0 4 1t4 1q6 2 5 2h9q2 -2 4 -2q6 0 7 -4q2 -2 4 -2h2q9 0 13 4l4 2q0 2 -2 4l-4 4q-2 1 -4.5 3.5t-6.5 4.5q-2 0 -4 2t-5 4q-4 0 -6 0.5t-4 0.5q-6 0 -11 -0.5t-7 -0.5q-5 -2 -7 -4t-6 -4q-2 -5 -5.5 -7.5t-6.5 -6.5q0 -4 -2 -6.5t-2 -8.5 q0 -7 4 -16l5 -7l5 -4q2 -2 6 -5t7 -3l7 -4q2 -1 7 -1q1 -2 5.5 -2t6.5 -2l5 -2q2 0 4 -2t2 -3t2 -5q2 -2 2 -6v-9q0 -2 -2 -4t-2 -4t-2 -3q-1 -3 -6 -5l-3 -1q-4 0 -7.5 -1t-4.5 -1q-4 0 -7 1t-5 1q-5 0 -5 6l-4 1q-4 4 -11 4h-5l-4 -2l-5 -2q0 -3 3 -3q0 -2 2 -4 q0 -4 4 -4v-5h3q7 -7 15.5 -9t18.5 -2h8q5 0 11 2q4 2 8.5 4t6.5 5q4 2 7.5 5.5t4.5 9.5zM1497 592q7 7 7 16q0 10 -4.5 18t-11.5 13q-6 4 -6 6h-4q-1 0 -3 2h-3q-4 0 -5 4h-4q-2 0 -4 1l-4 3l-6 3l-7 3q-2 1 -3 2l-2 2l-1 2q0 1 -1 3t-1 4q0 4 4 8q0 1 4 5q2 0 3 1t4 1 q2 2 10 2l3 -1q2 -1 5 -1q3 -3 8 -4q6 -2 7 -2q7 0 8 4l5 2q0 2 -2.5 4t-4.5 4q0 1 -3 3.5t-5 4.5q-3 0 -5 2t-6 4h-6l-4 1q-6 0 -9.5 -0.5t-7.5 -0.5l-13 -8l-6 -8l-5 -6q-1 -4 -3 -6.5t-2 -8.5q0 -4 2 -7.5t3 -8.5q2 -4 4.5 -6.5l4.5 -4.5q4 -2 6.5 -5t6.5 -3q8 -5 13 -5 q4 -2 6.5 -2t5.5 -2q6 0 10 -4q2 -2 3.5 -3t1.5 -5q2 -2 2 -5v-9q0 -3 -2 -5q0 -5 -5 -7q-6 -4 -7 -5t-3 -1q-6 0 -7 -1t-5 -1q-2 0 -5.5 1t-5.5 1q-3 1 -8 6l-2 1q-4 4 -9 4h-6q-2 0 -4 -2l-6 -2q2 -1 2 -2t2 -1q0 -2 1 -3l3 -3v-2q7 -5 8 -5q6 -7 13.5 -9t16.5 -2h11 q3 0 11 2q2 2 5.5 4t7.5 5l5 7q3 3 4 8zM1632 297h-16v130h18q3 0 4 -4l69 -97q2 0 2 -4l2 -1v106h13v-130h-11l-77 106v4h-4v-110zM73 328q-4 4 -5 7.5t-2 8.5q-2 6 -3 9.5t-1 9.5t4 15q1 4 2 9t5 9l4 6l5 7q2 2 6 4.5t6 4.5q5 5 9.5 6t8.5 3q3 0 8 1.5t10 1.5q6 0 13 -1.5 t13 -5.5q13 -4 20 -14q-2 -2 -4 -2v-4h-13q-3 2 -6 5t-7 3h-34l-20 -12q-4 -3 -7 -7t-4 -10q-2 -6 -3 -11.5t-1 -7.5q0 -9 4 -13q0 -4 0.5 -8.5t0.5 -7.5l4 -4q4 -2 6 -6l7 -4q2 -1 7 -1q2 -4 4.5 -5t6.5 -3h31q2 2 6.5 3t8.5 5v27h-13v2q-2 0 -3 1l-3 3h-2q-1 1 -1 3v4h35 v-48q-2 -5 -3.5 -6t-5.5 -6h-11q-8 -2 -12 -2h-32q-4 0 -8.5 2.5t-9.5 6.5q-7 0 -12 9zM225 411v-41h52v-15h-52v-44h63v-14h-79v130h79v-16h-63zM1098 411v-41h56v-15h-56v-44h64v-14h-79v130h79v-16h-64zM2226 711h-18q-4 0 -8 -4q-5 -5 -5 -9l-35 -44h-2q0 -2 -2 -2v2 l-36 44q-1 6 -4 9q-4 4 -11 4h-16l54 -72v-2q0 -1 2 -1l2 -2v-68h20v66q2 0 2 2l2 3v2zM2112 586h-64v125h-20v-145h84v20zM601 427v-79q0 -6 2 -9t5 -5q0 -6 3 -9t5 -4q0 -2 4 -4t6 -4q6 -2 8 -2h15q1 0 5 2t7.5 4t6.5 4q4 1 8 13q4 3 4 14v79h13v-79q0 -11 -4 -22 q-5 -11 -11 -15q-5 -12 -15 -12q-6 -1 -11.5 -1.5t-10.5 -0.5t-10.5 0.5t-12.5 1.5q-3 0 -15 12l-10 15q-1 6 -3 11t-2 11v79h13zM1191 586h-62v125h-19v-145h81v20zM1361 315q1 2 2 3.5t2 3.5q2 2 3 6t1 6q0 8 -2 10t-3 4t-3 4q-1 1 -7 3q-4 0 -6 2t-6 2q-6 0 -12 6 q-9 0 -13 7q-2 0 -3.5 3t-3.5 6v21q0 1 2 7q0 8 7 9l6 5q2 1 3.5 2t3.5 2q4 0 6.5 1.5t7.5 1.5l6 -2l4 -1q3 0 4 -1t5 -3q6 0 6 -7q4 0 6 -3l1 -2l-2 -2q-6 -2 -9 -2h-6q-2 2 -2 4h-21q-8 0 -8 -2q-5 -7 -5 -8q-4 0 -4 -7q0 -5 4 -6q0 -5 3 -6q0 -2 3 -3l3 -1q4 -4 7 -4 t7 -2q3 0 4 -1l2 -1q3 0 7 -5h4q2 0 4 -2h2q5 -4 7.5 -7t4.5 -4q1 -5 1.5 -9.5t0.5 -8.5v-10q0 -4 -4 -5q-4 -9 -10 -13q-2 -2 -6 -4.5t-6 -2.5q-4 -2 -9 -2h-9q-9 0 -16.5 1t-12.5 8q-2 0 -3 2.5t-5 4.5v4l-2 2l4 2h6q1 0 3 -1t4 -1q4 -4 6.5 -5t4.5 -3h20q7 0 11 4z M1002 297l-55 130h5q6 0 8 -2t3 -2t3 -5l40 -97v-2l2 -6v6l2 2q5 13 12 25.5t11 23.5q4 14 9.5 25.5t11.5 22.5q0 5 1.5 5t1.5 2l6 2h10q-7 -16 -14 -32.5t-15 -31.5q-4 -8 -7 -17l-6 -18l-14 -31h-15zM499 411v-46h56v-12h-56v-56h-15v130h80v-16h-65zM1836 411v-46h51v-12 h-51v-56h-15v130h77v-16h-62zM824 427v-116h59v-14h-75v130h16zM348 297v114h-44v16h99v-16h-44v-114h-11zM735 427v-116h60v-14h-75v130h15zM253 683q2 -1 3 -4t3 -5q3 -5 3 -9v-4q0 -3 -3 -7q-2 -2 -3 -4.5t-3 -2.5q-1 -2 -7 -8h-43v50h33q4 0 10 -2l4 -2zM1242 365 q4 0 6 3q4 4 9 4l2 4q0 2 3 5q0 1 1 4t1 7q0 2 -1 3t-1 4q-3 2 -4 3t-1 5q-5 0 -9 4h-41v-46h35zM1970 368q4 4 7 4q5 7 5 9q2 4 2 11q0 3 -2 7q0 1 -5 8q-3 0 -7 4h-41v-46h33q3 0 8 3zM486 658l-4 -7q-2 0 -3 -2t-3 -2q-2 -2 -9 -2h-31v44h31q3 0 9 -2q2 0 3 -1l3 -3 q1 -2 2 -3.5t2 -3.5q3 -2 3 -9q0 -6 -3 -9zM1429 427v-130h-16v130h16zM641 121l-25 64q0 2 -1 3l-1 2q0 4 -2 6v-6l-1 -2q-1 -1 -1 -3l-26 -64h57zM1024 682v-4l26 -60h-55l27 60v5zM1645 77q6 0 6 -6q2 -2 2 -5v-4q0 -7 -2 -9q0 -5 -6 -9q-2 0 -5 -4h-17q-4 4 -9 4 q0 2 -5 9q-2 2 -2 9v4q0 3 2 5l3 4l2 2q7 4 9 4q1 3 4 3h10q3 0 3 -3q4 0 5 -4z" glyph-name="two" unicode="2"/><glyph d="M2323 1024v-550h-2254v550h854q0 28 5 55t19 50q11 27 24.5 49t34.5 39q36 39 86 58q25 11 51 16t53 5q31 0 58 -6t50 -15q26 -13 48 -27.5t42 -34.5q32 -34 57 -88q18 -50 18 -101h854zM966 1119q-19 -42 -19 -95q0 -57 19 -99q9 -20 22.5 -40.5t28.5 -39.5 q18 -17 38 -30.5t43 -23.5q45 -21 98 -21q57 0 98 19q46 19 78 54q20 18 33 38t24 41q20 51 20 102q0 20 -3.5 42t-11.5 44q-13 37 -40 68q-13 18 -27.5 31t-32.5 24q-17 7 -35 16.5t-37 16.5q-14 3 -30.5 6t-35.5 3q-55 0 -100 -23q-46 -16 -79 -54q-17 -17 -29.5 -37 t-21.5 -42zM1070 877l295 298q58 -73 58 -151q0 -22 -3 -42t-11 -39q-13 -35 -38 -66h-301zM1026 870q-26 34 -41 71q-8 17 -11 38t-3 45q0 18 3 37.5t11 39.5q4 18 13.5 33.5t23.5 30.5h299zM2058 194q3 -4 5.5 -10t4.5 -13q4 -7 4 -14v-29q0 -7 -4 -11q-2 -7 -4.5 -14 t-5.5 -13q-5 -7 -15 -19q-6 -5 -11.5 -9.5t-12.5 -8.5q-5 -5 -11.5 -7t-12.5 -4q-8 -2 -13 -2h-16q-19 0 -40 6q-8 6 -15.5 12t-15.5 13q-8 6 -13.5 13.5t-7.5 19.5q-6 9 -7.5 18.5t-1.5 21.5q0 8 1 13.5t1 13.5q3 7 6 13t7 10q2 8 5.5 12.5t9.5 10.5q3 4 9.5 8t11.5 9 q4 2 10.5 4t12.5 6q10 0 15.5 1t11.5 1q9 0 16 -1t13 -1q6 -4 12.5 -6t11.5 -4q13 -10 24 -17q2 -6 7.5 -10.5t7.5 -12.5zM1064 194q2 -4 4 -10t5 -13q2 -10 2 -14v-29q0 -5 -2 -11q-3 -7 -5 -14t-4 -13q-5 -4 -9.5 -9.5t-8.5 -9.5q-5 -5 -10 -9.5t-10 -8.5q-7 -5 -13.5 -7 t-12.5 -4q-4 -1 -7 -1.5t-7 -0.5h-15q-9 0 -18.5 2t-21.5 4q-11 6 -17.5 12t-15.5 13q-15 13 -21 33q-3 9 -5 18.5t-2 21.5v13q0 4 2 14q4 16 11 23q4 8 7.5 12.5t7.5 10.5q7 4 11.5 8t10.5 9l27 10q4 0 10.5 1t13.5 1q8 0 15 -1t14 -1q6 -4 12.5 -6t13.5 -4l10 -9l10 -8 q4 -6 8.5 -10.5t9.5 -12.5zM2281 244l1 1q1 1 6 1h35v-206h-35v150l-5 -9v-6q0 -2 -2 -4q-6 -15 -12.5 -32.5t-14.5 -30.5q-6 -18 -11.5 -33.5t-13.5 -34.5h-34l-52 131q-5 3 -5 10q0 4 -1 4l-2 2v-147h-39v206h37q5 0 6.5 -1t3.5 -1q2 -2 3 -2t3 -2l7 -4q0 -2 2 -3.5 t2 -3.5q4 -16 10.5 -30t14.5 -32q6 -15 11.5 -30.5t11.5 -28.5v-12q3 0 4 -4q0 4 1 4v12l9 13l42 108q0 1 2 3l2 4q0 1 2 3l3 1q2 2 4 2t4 2zM1246 246h36v-206h-34l-94 138l-4 3v2q-3 4 -3 5q-4 1 -4 4q0 4 -5 4v-156h-36v206h32q4 0 8.5 -1t4.5 -3q3 -2 5 -2t4 -2l21 -31 q9 -13 19 -33q13 -13 23 -27.5t23 -27.5q0 -2 1 -4.5t1 -6.5l1 -2l1 -3v143zM630 246l88 -206h-23q-8 0 -15 4q-2 2 -4 6.5t-6 8.5l-12 25h-94l-9 -25q0 -6 -4 -6q-2 -5 -4 -5l-3 -4q-2 0 -3.5 -1t-5.5 -1q0 -2 -2 -2h-26l90 206h33zM244 246h130v-37h-94v-46h77v-38h-77 v-48h94v-37h-130v206zM69 246h149v-23q0 -3 -1 -5q0 -3 -2 -5l-4 -4l-99 -134h1l2 2h102v-37h-155v13q0 9 2 11q0 2 5 7v4l2 4q2 2 4 3.5t2 5.5l88 121h-96v37zM786 618q1 6 2 10t1 9q0 12 -3 21q0 5 -3.5 8.5t-5.5 9.5q-2 3 -4.5 6t-6.5 7l-7 6q-2 3 -8 8l-8 4q-2 1 -4.5 2 t-5.5 2q-4 0 -8.5 0.5t-10.5 0.5q-3 0 -8 -0.5t-11 -0.5q-10 -4 -17 -8q-4 -5 -7.5 -7.5t-7.5 -6.5q-11 -8 -12 -13q-4 -6 -5 -9.5t-3 -8.5q-1 -5 -1.5 -10t-0.5 -11q0 -5 2 -13t4 -14q2 -7 6.5 -12.5t9.5 -11.5q11 -14 24 -14q10 -6 27 -6h19q6 2 10.5 4t7.5 4q10 4 15 12 q7 7 11 15q2 4 5.5 8.5t3.5 8.5zM1843 618v40q-2 5 -3.5 9t-3.5 9q-5 6 -14 13q-1 4 -5.5 6.5t-8.5 7.5l-4 2t-5 2l-7 4q-6 0 -10.5 0.5t-9.5 0.5q-6 0 -10.5 -0.5t-8.5 -0.5l-10 -4l-10 -4q-3 -5 -6 -7.5t-7 -6.5q-3 -4 -6 -6.5t-5 -6.5q-2 -6 -4.5 -9.5t-2.5 -8.5 q-5 -10 -5 -21q0 -5 2.5 -13t5.5 -14q4 -15 15 -24q8 -14 24 -14q10 -6 28 -6h20q3 2 8 4t8 4q4 3 8.5 5.5t5.5 6.5q9 5 14 15zM1724 190q-7 -7 -13 -23q-2 -4 -4 -9.5t-2 -13.5t2 -13.5t4 -11.5q2 -7 5.5 -13.5t7.5 -9.5q9 -9 22 -15q12 -4 26 -4q5 0 9.5 1t10.5 1 q3 2 8 4.5t8 6.5q2 0 8 2h12q2 0 8 -2q2 -1 7 -6l6 -7q-3 -4 -6 -7.5t-7 -7.5q-6 -3 -10.5 -6t-11.5 -6q-6 -4 -10.5 -5t-10.5 -3t-11 -2h-10q-11 0 -22 2t-20 4q-20 9 -33 25q-15 13 -21 33q-4 9 -6.5 18.5t-2.5 21.5q0 8 1 13.5t3 13.5q2 16 9 23q6 8 8.5 12.5t8.5 10.5 l12 8l11 9l9 4l17 6q5 0 11.5 1t14.5 1h12q3 0 9 -2t10.5 -3t10.5 -3l22 -13q4 -4 7 -8l6 -8l-6 -7q-2 -1 -5 -4l-2 -4h-14q-7 0 -14 4q-3 2 -8 4.5t-8 4.5q-8 2 -11 2h-9q-16 0 -26 -6q-15 -2 -22 -13zM1584 141q4 -5 7 -9t3 -7q5 -8 5 -19q0 -14 -7 -27l-8 -12 q-3 -5 -8 -8q-6 -6 -10.5 -9.5t-12.5 -5.5q-5 -2 -13 -3t-14 -1q-11 0 -31 4q-9 4 -20 18q-4 1 -6 5l-4 8q-6 1 -6 9l6 4q2 2 4 2h4l2 2h9q4 0 4 -2q7 0 9 -2q5 -4 8.5 -5.5t5.5 -3.5q2 0 6 -1t9 -1h5q2 0 6 2q5 1 13 5q6 6 7 8q2 4 4 7t2 7q0 6 -6 9q-5 6 -7 6q-2 4 -6.5 5 t-6.5 2q-6 0 -13 6q-5 0 -9 1t-9 6q-9 3 -12.5 6t-7.5 7q-11 4 -11 13q-6 10 -6 23q0 17 6 25q1 4 5 10l8 9q4 2 9 4t12 6q6 0 10.5 1t12.5 1q4 0 8 -1t10 -1l15 -6q3 -4 6 -6.5t7 -6.5q3 -2 6.5 -5t3.5 -7l-7 -4l-6 -4q-3 -2 -3 -3h-17l-5 1q-3 1 -6 4q-2 0 -3.5 1t-3.5 1 h-16q-2 0 -3 -1t-5 -3l-6 -5q-1 -3 -1 -10q0 -5 1 -5q2 -2 3 -4.5t3 -6.5h6q1 0 5 -2q4 -1 8.5 -3t9.5 -4l8 -2q5 -4 9 -5t9 -4q10 -4 16 -13zM1480 315q-11 8 -15 19q-6 13 -6 29v15l10 18q2 2 4.5 5.5t6.5 7.5q6 7 12 9q3 5 8.5 6t8.5 3q4 0 8 1.5t9 1.5q4 0 10 -1.5 t10 -1.5q4 -2 7.5 -3t7.5 -6l11 -9l12 -13q2 -4 4 -8.5t4 -9.5q0 -4 1 -8.5t1 -6.5q0 -6 -1 -13.5t-5 -15.5q-4 -12 -16 -19q-4 -4 -8.5 -7.5t-11.5 -8.5q-10 -2 -26 -2h-14q-4 0 -10 2q-15 4 -22 16zM2030 119q5 12 5 25q0 15 -5 23q-2 9 -6.5 14.5t-7.5 8.5q-10 10 -23 13 q-4 4 -11 5t-16 1q-11 0 -24 -6q-7 -1 -11.5 -4t-10.5 -9q-8 -7 -15 -23q0 -4 -1 -9.5t-1 -13.5t1 -13.5t1 -11.5q8 -16 15 -23q6 -4 10.5 -8t11.5 -7q7 -2 13.5 -3t10.5 -1q20 0 27 4q8 3 13.5 7t9.5 8q9 9 14 23zM2141 315q-6 -4 -12 -7.5t-11 -8.5q-8 -2 -12 -2h-28 q-4 0 -12 2q-11 4 -21 16q-7 7 -13 19q-2 8 -4 15.5t-2 13.5q0 2 1 6.5t1 8.5q2 4 3 9t4 9q2 3 5 6t5 7q7 5 16 9q3 5 8 6t7 3q5 0 8 1.5t10 1.5q2 0 7.5 -1.5t10.5 -1.5q4 -2 7.5 -3t5.5 -6q4 -2 8.5 -4.5t7.5 -4.5q1 -2 2 -3.5t2 -3.5l4 -6q2 -4 4 -8.5t3 -9.5 q2 -4 3 -8.5t1 -6.5q0 -6 -1 -13.5t-5 -15.5q0 -6 -5 -11zM1035 119q4 11 4 25t-4 23q-4 17 -18 23q-2 6 -7.5 9t-11.5 4q-11 6 -27 6q-14 0 -24 -6q-10 -1 -22 -13q-8 -5 -13 -23q-5 -5 -5 -10v-27q0 -4 5 -11q2 -7 5 -13.5t8 -9.5q6 -4 11 -8t11 -7q9 -4 24 -4q18 0 27 4 q14 7 19 15q7 3 11.5 9.5t6.5 13.5zM726 246h130v-37h-94v-52h77v-36h-77v-81h-36v206zM535 209h-55v-169h-40v169h-59v37h154v-37zM1302 246h155v-37h-61v-169h-37v169h-57v37zM1281 1233q16 -8 33.5 -19.5t33.5 -21.5h-304q34 28 70 41q37 17 82 17t85 -17zM1114 810 q-18 7 -35 18t-33 24h302q-16 -13 -33.5 -24t-33.5 -18q-22 -6 -43 -10.5t-42 -4.5q-23 0 -42.5 4.5t-39.5 10.5zM524 566l-44 64q4 0 11 4q7 3 8 9q8 6 8 11v24q0 1 -2 5q-4 9 -10 14q-5 8 -13 8q-2 4 -6.5 5t-8.5 1h-53v-145h22v60h22l37 -52q1 -4 7 -6q2 -2 3 -2h19z M1096 566l-63 145h-20l-62 -145h11q7 0 9 2q0 2 6 6l10 25h72l11 -25q1 -4 5 -6q2 -2 8 -2h13zM1810 676q2 -2 6.5 -7.5t5.5 -10.5q4 -7 4 -21q0 -12 -4 -21q-2 -5 -6 -9l-6 -6q-5 -4 -9 -6.5t-8 -6.5q-8 -4 -21 -4q-14 0 -21 4q-5 4 -9.5 6.5t-8.5 6.5q-3 2 -6 6.5t-3 8.5 q-6 10 -6 21q0 10 6 21q0 5 3 10.5t6 7.5q6 6 18 11q9 4 21 4t21 -4zM751 676q6 -2 8.5 -7.5t4.5 -10.5q4 -7 4 -21q0 -10 -4 -21q-2 -4 -4.5 -8.5t-8.5 -6.5q-4 -6 -16 -13q-7 -4 -21 -4q-10 0 -21 4q-4 4 -8.5 6.5t-8.5 6.5q-2 2 -5.5 6.5t-5.5 8.5q-4 11 -4 21q0 12 4 21 q5 12 11 18q4 4 8.5 6.5t8.5 4.5q5 2 11.5 3t9.5 1q13 0 21 -4q12 -4 16 -11zM277 647q5 12 5 18q0 9 -5 18q0 2 -4 6l-6 6q-2 3 -5 6.5t-9 3.5q-2 4 -7.5 5t-9.5 1h-49v-145h16v55h33q4 0 9.5 0.5t7.5 2.5q10 4 14 10q4 2 7 5.5t3 7.5zM2079 311h29l6 3q3 3 4 5q5 0 13 5 l3 6q1 1 1.5 2t2.5 2q0 3 2.5 7.5t2.5 8.5v32q-2 6 -6 10t-6 7q-6 2 -9.5 5t-7.5 7h-40q-6 -4 -9.5 -7t-8.5 -5q-7 -5 -11 -17q-2 -8 -2 -12v-20q0 -4 1 -8.5t4 -7.5l4 -4q3 -3 4 -6l6 -3q2 -2 4 -2q4 -4 7 -5t6 -3zM1993 711h-20v-112q-1 2 -2 5t-3 4l-70 97l-3 6h-23v-145 h21v114l2 -2l82 -112h16v145zM1480 382q-3 -6 -4 -11.5t-1 -7.5v-8q0 -3 2 -5q0 -8 5 -16q0 -2 2 -4t4 -6l5 -3q2 -2 9 -2q2 -4 5.5 -5t5.5 -3h26q5 2 8 3t6 5l6 2l4 3q2 4 4.5 6t2.5 4q2 3 3 7.5t3 8.5q0 2 1 5.5t1 7.5q0 2 -1 7.5t-5 11.5q0 6 -3.5 10t-5.5 7q-3 1 -8 6 l-9 6h-40q-4 -4 -9 -7t-9 -5q-2 -3 -5 -7t-3 -10zM935 711h-17v-112l-2 4q-2 6 -2 5l-69 97q-5 0 -6 6h-23v-145h19v117h2l2 -1v-4l81 -112h15v145zM1982 357q-4 -1 -7 -2t-5 -2l42 -56h-11l-6 2q-4 0 -4 7l-36 47h-26v-56h-15v130h54q3 0 9 -2q2 -2 5.5 -4.5t4.5 -4.5 q4 -2 5 -5.5t7 -7.5v-25q-4 -4 -5 -7.5t-3 -5.5zM1259 357q-3 -3 -11 -4l44 -56h-14q-3 0 -3 2q-6 0 -6 7l-36 47h-26v-56h-13v130h53q2 0 6 -2q8 -1 16 -9q0 -2 3 -5.5t3 -7.5q2 -2 2 -6v-13q0 -2 -2 -6q0 -9 -4 -13l-5 -4q-3 -3 -7 -4zM386 711h-91v-145h91v20h-69v44h55 v17h-55v42h69v22zM1614 711h-88v-145h88v20h-66v44h55v17h-55v42h66v22zM2306 425q6 2 5 2h12v-130h-11v106l-2 -2v-2q-4 -7 -6.5 -16t-7.5 -13q-4 -7 -6 -12.5t-7 -13.5q-2 -8 -3 -14t-5 -9q-3 -8 -6 -12.5t-5 -11.5h-14q-9 12 -14 24.5t-10 26.5q-4 11 -11 24.5t-11 26.5 v2h-4v-104h-13v130h13q4 0 6 -2l2 -2v-5l46 -99q0 -4 2 -4l1 2v4q0 1 7 5l38 92q2 5 3 5t1 2zM1387 711h-20v-97q0 -3 -2 -7q-2 -8 -9 -12q0 -2 -4 -3.5t-6 -5.5l-8 -2h-8q-7 0 -13 2q-5 4 -8 5.5t-5 3.5l-10 12q0 3 -1 7t-1 10v87h-19v-87q0 -6 1 -10t1 -7q0 -8 6 -14 q2 -6 9 -11q2 -3 4.5 -5.5t7.5 -4.5q2 -2 6 -3t7 -3q4 0 7 -1t8 -1q4 0 7.5 1t10.5 1q2 2 5 3t6 3q8 6 12 10q3 2 5 5t5 6q0 4 3 7t3 7v104zM622 592q2 5 3 8t1 8q0 10 -5 18t-11 13q-2 0 -3.5 2t-5.5 4l-4 2h-4q-1 0 -1 4q-7 0 -8 1q-7 2 -8.5 3t-5.5 3q-6 3 -8 3 q-3 4 -3 6v15q0 1 1.5 2t1.5 3q2 0 4 1t4 1q6 2 5 2h9q2 -2 4 -2q6 0 7 -4q2 -2 4 -2h2q9 0 13 4l4 2q0 2 -2 4l-4 4q-2 1 -4.5 3.5t-6.5 4.5q-2 0 -4 2t-5 4q-4 0 -6 0.5t-4 0.5q-6 0 -11 -0.5t-7 -0.5q-5 -2 -7 -4t-6 -4q-2 -5 -5.5 -7.5t-6.5 -6.5q0 -4 -2 -6.5t-2 -8.5 q0 -7 4 -16l5 -7l5 -4q2 -2 6 -5t7 -3l7 -4q2 -1 7 -1q1 -2 5.5 -2t6.5 -2l5 -2q2 0 4 -2t2 -3t2 -5q2 -2 2 -6v-9q0 -2 -2 -4t-2 -4t-2 -3q-1 -3 -6 -5l-3 -1q-4 0 -7.5 -1t-4.5 -1q-4 0 -7 1t-5 1q-5 0 -5 6l-4 1q-4 4 -11 4h-5l-4 -2l-5 -2q0 -3 3 -3q0 -2 2 -4 q0 -4 4 -4v-5h3q7 -7 15.5 -9t18.5 -2h8q5 0 11 2q4 2 8.5 4t6.5 5q4 2 7.5 5.5t4.5 9.5zM1497 592q7 7 7 16q0 10 -4.5 18t-11.5 13q-6 4 -6 6h-4q-1 0 -3 2h-3q-4 0 -5 4h-4q-2 0 -4 1l-4 3l-6 3l-7 3q-2 1 -3 2l-2 2l-1 2q0 1 -1 3t-1 4q0 4 4 8q0 1 4 5q2 0 3 1t4 1 q2 2 10 2l3 -1q2 -1 5 -1q3 -3 8 -4q6 -2 7 -2q7 0 8 4l5 2q0 2 -2.5 4t-4.5 4q0 1 -3 3.5t-5 4.5q-3 0 -5 2t-6 4h-6l-4 1q-6 0 -9.5 -0.5t-7.5 -0.5l-13 -8l-6 -8l-5 -6q-1 -4 -3 -6.5t-2 -8.5q0 -4 2 -7.5t3 -8.5q2 -4 4.5 -6.5l4.5 -4.5q4 -2 6.5 -5t6.5 -3q8 -5 13 -5 q4 -2 6.5 -2t5.5 -2q6 0 10 -4q2 -2 3.5 -3t1.5 -5q2 -2 2 -5v-9q0 -3 -2 -5q0 -5 -5 -7q-6 -4 -7 -5t-3 -1q-6 0 -7 -1t-5 -1q-2 0 -5.5 1t-5.5 1q-3 1 -8 6l-2 1q-4 4 -9 4h-6q-2 0 -4 -2l-6 -2q2 -1 2 -2t2 -1q0 -2 1 -3l3 -3v-2q7 -5 8 -5q6 -7 13.5 -9t16.5 -2h11 q3 0 11 2q2 2 5.5 4t7.5 5l5 7q3 3 4 8zM1632 297h-16v130h18q3 0 4 -4l69 -97q2 0 2 -4l2 -1v106h13v-130h-11l-77 106v4h-4v-110zM73 328q-4 4 -5 7.5t-2 8.5q-2 6 -3 9.5t-1 9.5t4 15q1 4 2 9t5 9l4 6l5 7q2 2 6 4.5t6 4.5q5 5 9.5 6t8.5 3q3 0 8 1.5t10 1.5q6 0 13 -1.5 t13 -5.5q13 -4 20 -14q-2 -2 -4 -2v-4h-13q-3 2 -6 5t-7 3h-34l-20 -12q-4 -3 -7 -7t-4 -10q-2 -6 -3 -11.5t-1 -7.5q0 -9 4 -13q0 -4 0.5 -8.5t0.5 -7.5l4 -4q4 -2 6 -6l7 -4q2 -1 7 -1q2 -4 4.5 -5t6.5 -3h31q2 2 6.5 3t8.5 5v27h-13v2q-2 0 -3 1l-3 3h-2q-1 1 -1 3v4h35 v-48q-2 -5 -3.5 -6t-5.5 -6h-11q-8 -2 -12 -2h-32q-4 0 -8.5 2.5t-9.5 6.5q-7 0 -12 9zM225 411v-41h52v-15h-52v-44h63v-14h-79v130h79v-16h-63zM1098 411v-41h56v-15h-56v-44h64v-14h-79v130h79v-16h-64zM2226 711h-18q-4 0 -8 -4q-5 -5 -5 -9l-35 -44h-2q0 -2 -2 -2v2 l-36 44q-1 6 -4 9q-4 4 -11 4h-16l54 -72v-2q0 -1 2 -1l2 -2v-68h20v66q2 0 2 2l2 3v2zM2112 586h-64v125h-20v-145h84v20zM601 427v-79q0 -6 2 -9t5 -5q0 -6 3 -9t5 -4q0 -2 4 -4t6 -4q6 -2 8 -2h15q1 0 5 2t7.5 4t6.5 4q4 1 8 13q4 3 4 14v79h13v-79q0 -11 -4 -22 q-5 -11 -11 -15q-5 -12 -15 -12q-6 -1 -11.5 -1.5t-10.5 -0.5t-10.5 0.5t-12.5 1.5q-3 0 -15 12l-10 15q-1 6 -3 11t-2 11v79h13zM1191 586h-62v125h-19v-145h81v20zM1361 315q1 2 2 3.5t2 3.5q2 2 3 6t1 6q0 8 -2 10t-3 4t-3 4q-1 1 -7 3q-4 0 -6 2t-6 2q-6 0 -12 6 q-9 0 -13 7q-2 0 -3.5 3t-3.5 6v21q0 1 2 7q0 8 7 9l6 5q2 1 3.5 2t3.5 2q4 0 6.5 1.5t7.5 1.5l6 -2l4 -1q3 0 4 -1t5 -3q6 0 6 -7q4 0 6 -3l1 -2l-2 -2q-6 -2 -9 -2h-6q-2 2 -2 4h-21q-8 0 -8 -2q-5 -7 -5 -8q-4 0 -4 -7q0 -5 4 -6q0 -5 3 -6q0 -2 3 -3l3 -1q4 -4 7 -4 t7 -2q3 0 4 -1l2 -1q3 0 7 -5h4q2 0 4 -2h2q5 -4 7.5 -7t4.5 -4q1 -5 1.5 -9.5t0.5 -8.5v-10q0 -4 -4 -5q-4 -9 -10 -13q-2 -2 -6 -4.5t-6 -2.5q-4 -2 -9 -2h-9q-9 0 -16.5 1t-12.5 8q-2 0 -3 2.5t-5 4.5v4l-2 2l4 2h6q1 0 3 -1t4 -1q4 -4 6.5 -5t4.5 -3h20q7 0 11 4z M1002 297l-55 130h5q6 0 8 -2t3 -2t3 -5l40 -97v-2l2 -6v6l2 2q5 13 12 25.5t11 23.5q4 14 9.5 25.5t11.5 22.5q0 5 1.5 5t1.5 2l6 2h10q-7 -16 -14 -32.5t-15 -31.5q-4 -8 -7 -17l-6 -18l-14 -31h-15zM499 411v-46h56v-12h-56v-56h-15v130h80v-16h-65zM1836 411v-46h51v-12 h-51v-56h-15v130h77v-16h-62zM824 427v-116h59v-14h-75v130h16zM348 297v114h-44v16h99v-16h-44v-114h-11zM735 427v-116h60v-14h-75v130h15zM253 683q2 -1 3 -4t3 -5q3 -5 3 -9v-4q0 -3 -3 -7q-2 -2 -3 -4.5t-3 -2.5q-1 -2 -7 -8h-43v50h33q4 0 10 -2l4 -2zM1242 365 q4 0 6 3q4 4 9 4l2 4q0 2 3 5q0 1 1 4t1 7q0 2 -1 3t-1 4q-3 2 -4 3t-1 5q-5 0 -9 4h-41v-46h35zM1970 368q4 4 7 4q5 7 5 9q2 4 2 11q0 3 -2 7q0 1 -5 8q-3 0 -7 4h-41v-46h33q3 0 8 3zM486 658l-4 -7q-2 0 -3 -2t-3 -2q-2 -2 -9 -2h-31v44h31q3 0 9 -2q2 0 3 -1l3 -3 q1 -2 2 -3.5t2 -3.5q3 -2 3 -9q0 -6 -3 -9zM1429 427v-130h-16v130h16zM641 121l-25 64q0 2 -1 3l-1 2q0 4 -2 6v-6l-1 -2q-1 -1 -1 -3l-26 -64h57zM1024 682v-4l26 -60h-55l27 60v5zM1645 77q6 0 6 -6q2 -2 2 -5v-4q0 -7 -2 -9q0 -5 -6 -9q-2 0 -5 -4h-17q-4 4 -9 4 q0 2 -5 9q-2 2 -2 9v4q0 3 2 5l3 4l2 2q7 4 9 4q1 3 4 3h10q3 0 3 -3q4 0 5 -4z" glyph-name="seven" unicode="7"/><glyph d="M2323 1024v-550h-2254v550h854q0 28 5 55t19 50q11 27 24.5 49t34.5 39q36 39 86 58q25 11 51 16t53 5q31 0 58 -6t50 -15q26 -13 48 -27.5t42 -34.5q32 -34 57 -88q18 -50 18 -101h854zM966 1119q-19 -42 -19 -95q0 -57 19 -99q9 -20 22.5 -40.5t28.5 -39.5 q18 -17 38 -30.5t43 -23.5q45 -21 98 -21q57 0 98 19q46 19 78 54q20 18 33 38t24 41q20 51 20 102q0 20 -3.5 42t-11.5 44q-13 37 -40 68q-13 18 -27.5 31t-32.5 24q-17 7 -35 16.5t-37 16.5q-14 3 -30.5 6t-35.5 3q-55 0 -100 -23q-46 -16 -79 -54q-17 -17 -29.5 -37 t-21.5 -42zM1070 877l295 298q58 -73 58 -151q0 -22 -3 -42t-11 -39q-13 -35 -38 -66h-301zM1026 870q-26 34 -41 71q-8 17 -11 38t-3 45q0 18 3 37.5t11 39.5q4 18 13.5 33.5t23.5 30.5h299zM2058 194q3 -4 5.5 -10t4.5 -13q4 -7 4 -14v-29q0 -7 -4 -11q-2 -7 -4.5 -14 t-5.5 -13q-5 -7 -15 -19q-6 -5 -11.5 -9.5t-12.5 -8.5q-5 -5 -11.5 -7t-12.5 -4q-8 -2 -13 -2h-16q-19 0 -40 6q-8 6 -15.5 12t-15.5 13q-8 6 -13.5 13.5t-7.5 19.5q-6 9 -7.5 18.5t-1.5 21.5q0 8 1 13.5t1 13.5q3 7 6 13t7 10q2 8 5.5 12.5t9.5 10.5q3 4 9.5 8t11.5 9 q4 2 10.5 4t12.5 6q10 0 15.5 1t11.5 1q9 0 16 -1t13 -1q6 -4 12.5 -6t11.5 -4q13 -10 24 -17q2 -6 7.5 -10.5t7.5 -12.5zM1064 194q2 -4 4 -10t5 -13q2 -10 2 -14v-29q0 -5 -2 -11q-3 -7 -5 -14t-4 -13q-5 -4 -9.5 -9.5t-8.5 -9.5q-5 -5 -10 -9.5t-10 -8.5q-7 -5 -13.5 -7 t-12.5 -4q-4 -1 -7 -1.5t-7 -0.5h-15q-9 0 -18.5 2t-21.5 4q-11 6 -17.5 12t-15.5 13q-15 13 -21 33q-3 9 -5 18.5t-2 21.5v13q0 4 2 14q4 16 11 23q4 8 7.5 12.5t7.5 10.5q7 4 11.5 8t10.5 9l27 10q4 0 10.5 1t13.5 1q8 0 15 -1t14 -1q6 -4 12.5 -6t13.5 -4l10 -9l10 -8 q4 -6 8.5 -10.5t9.5 -12.5zM2281 244l1 1q1 1 6 1h35v-206h-35v150l-5 -9v-6q0 -2 -2 -4q-6 -15 -12.5 -32.5t-14.5 -30.5q-6 -18 -11.5 -33.5t-13.5 -34.5h-34l-52 131q-5 3 -5 10q0 4 -1 4l-2 2v-147h-39v206h37q5 0 6.5 -1t3.5 -1q2 -2 3 -2t3 -2l7 -4q0 -2 2 -3.5 t2 -3.5q4 -16 10.5 -30t14.5 -32q6 -15 11.5 -30.5t11.5 -28.5v-12q3 0 4 -4q0 4 1 4v12l9 13l42 108q0 1 2 3l2 4q0 1 2 3l3 1q2 2 4 2t4 2zM1246 246h36v-206h-34l-94 138l-4 3v2q-3 4 -3 5q-4 1 -4 4q0 4 -5 4v-156h-36v206h32q4 0 8.5 -1t4.5 -3q3 -2 5 -2t4 -2l21 -31 q9 -13 19 -33q13 -13 23 -27.5t23 -27.5q0 -2 1 -4.5t1 -6.5l1 -2l1 -3v143zM630 246l88 -206h-23q-8 0 -15 4q-2 2 -4 6.5t-6 8.5l-12 25h-94l-9 -25q0 -6 -4 -6q-2 -5 -4 -5l-3 -4q-2 0 -3.5 -1t-5.5 -1q0 -2 -2 -2h-26l90 206h33zM244 246h130v-37h-94v-46h77v-38h-77 v-48h94v-37h-130v206zM69 246h149v-23q0 -3 -1 -5q0 -3 -2 -5l-4 -4l-99 -134h1l2 2h102v-37h-155v13q0 9 2 11q0 2 5 7v4l2 4q2 2 4 3.5t2 5.5l88 121h-96v37zM786 618q1 6 2 10t1 9q0 12 -3 21q0 5 -3.5 8.5t-5.5 9.5q-2 3 -4.5 6t-6.5 7l-7 6q-2 3 -8 8l-8 4q-2 1 -4.5 2 t-5.5 2q-4 0 -8.5 0.5t-10.5 0.5q-3 0 -8 -0.5t-11 -0.5q-10 -4 -17 -8q-4 -5 -7.5 -7.5t-7.5 -6.5q-11 -8 -12 -13q-4 -6 -5 -9.5t-3 -8.5q-1 -5 -1.5 -10t-0.5 -11q0 -5 2 -13t4 -14q2 -7 6.5 -12.5t9.5 -11.5q11 -14 24 -14q10 -6 27 -6h19q6 2 10.5 4t7.5 4q10 4 15 12 q7 7 11 15q2 4 5.5 8.5t3.5 8.5zM1843 618v40q-2 5 -3.5 9t-3.5 9q-5 6 -14 13q-1 4 -5.5 6.5t-8.5 7.5l-4 2t-5 2l-7 4q-6 0 -10.5 0.5t-9.5 0.5q-6 0 -10.5 -0.5t-8.5 -0.5l-10 -4l-10 -4q-3 -5 -6 -7.5t-7 -6.5q-3 -4 -6 -6.5t-5 -6.5q-2 -6 -4.5 -9.5t-2.5 -8.5 q-5 -10 -5 -21q0 -5 2.5 -13t5.5 -14q4 -15 15 -24q8 -14 24 -14q10 -6 28 -6h20q3 2 8 4t8 4q4 3 8.5 5.5t5.5 6.5q9 5 14 15zM1724 190q-7 -7 -13 -23q-2 -4 -4 -9.5t-2 -13.5t2 -13.5t4 -11.5q2 -7 5.5 -13.5t7.5 -9.5q9 -9 22 -15q12 -4 26 -4q5 0 9.5 1t10.5 1 q3 2 8 4.5t8 6.5q2 0 8 2h12q2 0 8 -2q2 -1 7 -6l6 -7q-3 -4 -6 -7.5t-7 -7.5q-6 -3 -10.5 -6t-11.5 -6q-6 -4 -10.5 -5t-10.5 -3t-11 -2h-10q-11 0 -22 2t-20 4q-20 9 -33 25q-15 13 -21 33q-4 9 -6.5 18.5t-2.5 21.5q0 8 1 13.5t3 13.5q2 16 9 23q6 8 8.5 12.5t8.5 10.5 l12 8l11 9l9 4l17 6q5 0 11.5 1t14.5 1h12q3 0 9 -2t10.5 -3t10.5 -3l22 -13q4 -4 7 -8l6 -8l-6 -7q-2 -1 -5 -4l-2 -4h-14q-7 0 -14 4q-3 2 -8 4.5t-8 4.5q-8 2 -11 2h-9q-16 0 -26 -6q-15 -2 -22 -13zM1584 141q4 -5 7 -9t3 -7q5 -8 5 -19q0 -14 -7 -27l-8 -12 q-3 -5 -8 -8q-6 -6 -10.5 -9.5t-12.5 -5.5q-5 -2 -13 -3t-14 -1q-11 0 -31 4q-9 4 -20 18q-4 1 -6 5l-4 8q-6 1 -6 9l6 4q2 2 4 2h4l2 2h9q4 0 4 -2q7 0 9 -2q5 -4 8.5 -5.5t5.5 -3.5q2 0 6 -1t9 -1h5q2 0 6 2q5 1 13 5q6 6 7 8q2 4 4 7t2 7q0 6 -6 9q-5 6 -7 6q-2 4 -6.5 5 t-6.5 2q-6 0 -13 6q-5 0 -9 1t-9 6q-9 3 -12.5 6t-7.5 7q-11 4 -11 13q-6 10 -6 23q0 17 6 25q1 4 5 10l8 9q4 2 9 4t12 6q6 0 10.5 1t12.5 1q4 0 8 -1t10 -1l15 -6q3 -4 6 -6.5t7 -6.5q3 -2 6.5 -5t3.5 -7l-7 -4l-6 -4q-3 -2 -3 -3h-17l-5 1q-3 1 -6 4q-2 0 -3.5 1t-3.5 1 h-16q-2 0 -3 -1t-5 -3l-6 -5q-1 -3 -1 -10q0 -5 1 -5q2 -2 3 -4.5t3 -6.5h6q1 0 5 -2q4 -1 8.5 -3t9.5 -4l8 -2q5 -4 9 -5t9 -4q10 -4 16 -13zM1480 315q-11 8 -15 19q-6 13 -6 29v15l10 18q2 2 4.5 5.5t6.5 7.5q6 7 12 9q3 5 8.5 6t8.5 3q4 0 8 1.5t9 1.5q4 0 10 -1.5 t10 -1.5q4 -2 7.5 -3t7.5 -6l11 -9l12 -13q2 -4 4 -8.5t4 -9.5q0 -4 1 -8.5t1 -6.5q0 -6 -1 -13.5t-5 -15.5q-4 -12 -16 -19q-4 -4 -8.5 -7.5t-11.5 -8.5q-10 -2 -26 -2h-14q-4 0 -10 2q-15 4 -22 16zM2030 119q5 12 5 25q0 15 -5 23q-2 9 -6.5 14.5t-7.5 8.5q-10 10 -23 13 q-4 4 -11 5t-16 1q-11 0 -24 -6q-7 -1 -11.5 -4t-10.5 -9q-8 -7 -15 -23q0 -4 -1 -9.5t-1 -13.5t1 -13.5t1 -11.5q8 -16 15 -23q6 -4 10.5 -8t11.5 -7q7 -2 13.5 -3t10.5 -1q20 0 27 4q8 3 13.5 7t9.5 8q9 9 14 23zM2141 315q-6 -4 -12 -7.5t-11 -8.5q-8 -2 -12 -2h-28 q-4 0 -12 2q-11 4 -21 16q-7 7 -13 19q-2 8 -4 15.5t-2 13.5q0 2 1 6.5t1 8.5q2 4 3 9t4 9q2 3 5 6t5 7q7 5 16 9q3 5 8 6t7 3q5 0 8 1.5t10 1.5q2 0 7.5 -1.5t10.5 -1.5q4 -2 7.5 -3t5.5 -6q4 -2 8.5 -4.5t7.5 -4.5q1 -2 2 -3.5t2 -3.5l4 -6q2 -4 4 -8.5t3 -9.5 q2 -4 3 -8.5t1 -6.5q0 -6 -1 -13.5t-5 -15.5q0 -6 -5 -11zM1035 119q4 11 4 25t-4 23q-4 17 -18 23q-2 6 -7.5 9t-11.5 4q-11 6 -27 6q-14 0 -24 -6q-10 -1 -22 -13q-8 -5 -13 -23q-5 -5 -5 -10v-27q0 -4 5 -11q2 -7 5 -13.5t8 -9.5q6 -4 11 -8t11 -7q9 -4 24 -4q18 0 27 4 q14 7 19 15q7 3 11.5 9.5t6.5 13.5zM726 246h130v-37h-94v-52h77v-36h-77v-81h-36v206zM535 209h-55v-169h-40v169h-59v37h154v-37zM1302 246h155v-37h-61v-169h-37v169h-57v37zM1281 1233q16 -8 33.5 -19.5t33.5 -21.5h-304q34 28 70 41q37 17 82 17t85 -17zM1114 810 q-18 7 -35 18t-33 24h302q-16 -13 -33.5 -24t-33.5 -18q-22 -6 -43 -10.5t-42 -4.5q-23 0 -42.5 4.5t-39.5 10.5zM524 566l-44 64q4 0 11 4q7 3 8 9q8 6 8 11v24q0 1 -2 5q-4 9 -10 14q-5 8 -13 8q-2 4 -6.5 5t-8.5 1h-53v-145h22v60h22l37 -52q1 -4 7 -6q2 -2 3 -2h19z M1096 566l-63 145h-20l-62 -145h11q7 0 9 2q0 2 6 6l10 25h72l11 -25q1 -4 5 -6q2 -2 8 -2h13zM1810 676q2 -2 6.5 -7.5t5.5 -10.5q4 -7 4 -21q0 -12 -4 -21q-2 -5 -6 -9l-6 -6q-5 -4 -9 -6.5t-8 -6.5q-8 -4 -21 -4q-14 0 -21 4q-5 4 -9.5 6.5t-8.5 6.5q-3 2 -6 6.5t-3 8.5 q-6 10 -6 21q0 10 6 21q0 5 3 10.5t6 7.5q6 6 18 11q9 4 21 4t21 -4zM751 676q6 -2 8.5 -7.5t4.5 -10.5q4 -7 4 -21q0 -10 -4 -21q-2 -4 -4.5 -8.5t-8.5 -6.5q-4 -6 -16 -13q-7 -4 -21 -4q-10 0 -21 4q-4 4 -8.5 6.5t-8.5 6.5q-2 2 -5.5 6.5t-5.5 8.5q-4 11 -4 21q0 12 4 21 q5 12 11 18q4 4 8.5 6.5t8.5 4.5q5 2 11.5 3t9.5 1q13 0 21 -4q12 -4 16 -11zM277 647q5 12 5 18q0 9 -5 18q0 2 -4 6l-6 6q-2 3 -5 6.5t-9 3.5q-2 4 -7.5 5t-9.5 1h-49v-145h16v55h33q4 0 9.5 0.5t7.5 2.5q10 4 14 10q4 2 7 5.5t3 7.5zM2079 311h29l6 3q3 3 4 5q5 0 13 5 l3 6q1 1 1.5 2t2.5 2q0 3 2.5 7.5t2.5 8.5v32q-2 6 -6 10t-6 7q-6 2 -9.5 5t-7.5 7h-40q-6 -4 -9.5 -7t-8.5 -5q-7 -5 -11 -17q-2 -8 -2 -12v-20q0 -4 1 -8.5t4 -7.5l4 -4q3 -3 4 -6l6 -3q2 -2 4 -2q4 -4 7 -5t6 -3zM1993 711h-20v-112q-1 2 -2 5t-3 4l-70 97l-3 6h-23v-145 h21v114l2 -2l82 -112h16v145zM1480 382q-3 -6 -4 -11.5t-1 -7.5v-8q0 -3 2 -5q0 -8 5 -16q0 -2 2 -4t4 -6l5 -3q2 -2 9 -2q2 -4 5.5 -5t5.5 -3h26q5 2 8 3t6 5l6 2l4 3q2 4 4.5 6t2.5 4q2 3 3 7.5t3 8.5q0 2 1 5.5t1 7.5q0 2 -1 7.5t-5 11.5q0 6 -3.5 10t-5.5 7q-3 1 -8 6 l-9 6h-40q-4 -4 -9 -7t-9 -5q-2 -3 -5 -7t-3 -10zM935 711h-17v-112l-2 4q-2 6 -2 5l-69 97q-5 0 -6 6h-23v-145h19v117h2l2 -1v-4l81 -112h15v145zM1982 357q-4 -1 -7 -2t-5 -2l42 -56h-11l-6 2q-4 0 -4 7l-36 47h-26v-56h-15v130h54q3 0 9 -2q2 -2 5.5 -4.5t4.5 -4.5 q4 -2 5 -5.5t7 -7.5v-25q-4 -4 -5 -7.5t-3 -5.5zM1259 357q-3 -3 -11 -4l44 -56h-14q-3 0 -3 2q-6 0 -6 7l-36 47h-26v-56h-13v130h53q2 0 6 -2q8 -1 16 -9q0 -2 3 -5.5t3 -7.5q2 -2 2 -6v-13q0 -2 -2 -6q0 -9 -4 -13l-5 -4q-3 -3 -7 -4zM386 711h-91v-145h91v20h-69v44h55 v17h-55v42h69v22zM1614 711h-88v-145h88v20h-66v44h55v17h-55v42h66v22zM2306 425q6 2 5 2h12v-130h-11v106l-2 -2v-2q-4 -7 -6.5 -16t-7.5 -13q-4 -7 -6 -12.5t-7 -13.5q-2 -8 -3 -14t-5 -9q-3 -8 -6 -12.5t-5 -11.5h-14q-9 12 -14 24.5t-10 26.5q-4 11 -11 24.5t-11 26.5 v2h-4v-104h-13v130h13q4 0 6 -2l2 -2v-5l46 -99q0 -4 2 -4l1 2v4q0 1 7 5l38 92q2 5 3 5t1 2zM1387 711h-20v-97q0 -3 -2 -7q-2 -8 -9 -12q0 -2 -4 -3.5t-6 -5.5l-8 -2h-8q-7 0 -13 2q-5 4 -8 5.5t-5 3.5l-10 12q0 3 -1 7t-1 10v87h-19v-87q0 -6 1 -10t1 -7q0 -8 6 -14 q2 -6 9 -11q2 -3 4.5 -5.5t7.5 -4.5q2 -2 6 -3t7 -3q4 0 7 -1t8 -1q4 0 7.5 1t10.5 1q2 2 5 3t6 3q8 6 12 10q3 2 5 5t5 6q0 4 3 7t3 7v104zM622 592q2 5 3 8t1 8q0 10 -5 18t-11 13q-2 0 -3.5 2t-5.5 4l-4 2h-4q-1 0 -1 4q-7 0 -8 1q-7 2 -8.5 3t-5.5 3q-6 3 -8 3 q-3 4 -3 6v15q0 1 1.5 2t1.5 3q2 0 4 1t4 1q6 2 5 2h9q2 -2 4 -2q6 0 7 -4q2 -2 4 -2h2q9 0 13 4l4 2q0 2 -2 4l-4 4q-2 1 -4.5 3.5t-6.5 4.5q-2 0 -4 2t-5 4q-4 0 -6 0.5t-4 0.5q-6 0 -11 -0.5t-7 -0.5q-5 -2 -7 -4t-6 -4q-2 -5 -5.5 -7.5t-6.5 -6.5q0 -4 -2 -6.5t-2 -8.5 q0 -7 4 -16l5 -7l5 -4q2 -2 6 -5t7 -3l7 -4q2 -1 7 -1q1 -2 5.5 -2t6.5 -2l5 -2q2 0 4 -2t2 -3t2 -5q2 -2 2 -6v-9q0 -2 -2 -4t-2 -4t-2 -3q-1 -3 -6 -5l-3 -1q-4 0 -7.5 -1t-4.5 -1q-4 0 -7 1t-5 1q-5 0 -5 6l-4 1q-4 4 -11 4h-5l-4 -2l-5 -2q0 -3 3 -3q0 -2 2 -4 q0 -4 4 -4v-5h3q7 -7 15.5 -9t18.5 -2h8q5 0 11 2q4 2 8.5 4t6.5 5q4 2 7.5 5.5t4.5 9.5zM1497 592q7 7 7 16q0 10 -4.5 18t-11.5 13q-6 4 -6 6h-4q-1 0 -3 2h-3q-4 0 -5 4h-4q-2 0 -4 1l-4 3l-6 3l-7 3q-2 1 -3 2l-2 2l-1 2q0 1 -1 3t-1 4q0 4 4 8q0 1 4 5q2 0 3 1t4 1 q2 2 10 2l3 -1q2 -1 5 -1q3 -3 8 -4q6 -2 7 -2q7 0 8 4l5 2q0 2 -2.5 4t-4.5 4q0 1 -3 3.5t-5 4.5q-3 0 -5 2t-6 4h-6l-4 1q-6 0 -9.5 -0.5t-7.5 -0.5l-13 -8l-6 -8l-5 -6q-1 -4 -3 -6.5t-2 -8.5q0 -4 2 -7.5t3 -8.5q2 -4 4.5 -6.5l4.5 -4.5q4 -2 6.5 -5t6.5 -3q8 -5 13 -5 q4 -2 6.5 -2t5.5 -2q6 0 10 -4q2 -2 3.5 -3t1.5 -5q2 -2 2 -5v-9q0 -3 -2 -5q0 -5 -5 -7q-6 -4 -7 -5t-3 -1q-6 0 -7 -1t-5 -1q-2 0 -5.5 1t-5.5 1q-3 1 -8 6l-2 1q-4 4 -9 4h-6q-2 0 -4 -2l-6 -2q2 -1 2 -2t2 -1q0 -2 1 -3l3 -3v-2q7 -5 8 -5q6 -7 13.5 -9t16.5 -2h11 q3 0 11 2q2 2 5.5 4t7.5 5l5 7q3 3 4 8zM1632 297h-16v130h18q3 0 4 -4l69 -97q2 0 2 -4l2 -1v106h13v-130h-11l-77 106v4h-4v-110zM73 328q-4 4 -5 7.5t-2 8.5q-2 6 -3 9.5t-1 9.5t4 15q1 4 2 9t5 9l4 6l5 7q2 2 6 4.5t6 4.5q5 5 9.5 6t8.5 3q3 0 8 1.5t10 1.5q6 0 13 -1.5 t13 -5.5q13 -4 20 -14q-2 -2 -4 -2v-4h-13q-3 2 -6 5t-7 3h-34l-20 -12q-4 -3 -7 -7t-4 -10q-2 -6 -3 -11.5t-1 -7.5q0 -9 4 -13q0 -4 0.5 -8.5t0.5 -7.5l4 -4q4 -2 6 -6l7 -4q2 -1 7 -1q2 -4 4.5 -5t6.5 -3h31q2 2 6.5 3t8.5 5v27h-13v2q-2 0 -3 1l-3 3h-2q-1 1 -1 3v4h35 v-48q-2 -5 -3.5 -6t-5.5 -6h-11q-8 -2 -12 -2h-32q-4 0 -8.5 2.5t-9.5 6.5q-7 0 -12 9zM225 411v-41h52v-15h-52v-44h63v-14h-79v130h79v-16h-63zM1098 411v-41h56v-15h-56v-44h64v-14h-79v130h79v-16h-64zM2226 711h-18q-4 0 -8 -4q-5 -5 -5 -9l-35 -44h-2q0 -2 -2 -2v2 l-36 44q-1 6 -4 9q-4 4 -11 4h-16l54 -72v-2q0 -1 2 -1l2 -2v-68h20v66q2 0 2 2l2 3v2zM2112 586h-64v125h-20v-145h84v20zM601 427v-79q0 -6 2 -9t5 -5q0 -6 3 -9t5 -4q0 -2 4 -4t6 -4q6 -2 8 -2h15q1 0 5 2t7.5 4t6.5 4q4 1 8 13q4 3 4 14v79h13v-79q0 -11 -4 -22 q-5 -11 -11 -15q-5 -12 -15 -12q-6 -1 -11.5 -1.5t-10.5 -0.5t-10.5 0.5t-12.5 1.5q-3 0 -15 12l-10 15q-1 6 -3 11t-2 11v79h13zM1191 586h-62v125h-19v-145h81v20zM1361 315q1 2 2 3.5t2 3.5q2 2 3 6t1 6q0 8 -2 10t-3 4t-3 4q-1 1 -7 3q-4 0 -6 2t-6 2q-6 0 -12 6 q-9 0 -13 7q-2 0 -3.5 3t-3.5 6v21q0 1 2 7q0 8 7 9l6 5q2 1 3.5 2t3.5 2q4 0 6.5 1.5t7.5 1.5l6 -2l4 -1q3 0 4 -1t5 -3q6 0 6 -7q4 0 6 -3l1 -2l-2 -2q-6 -2 -9 -2h-6q-2 2 -2 4h-21q-8 0 -8 -2q-5 -7 -5 -8q-4 0 -4 -7q0 -5 4 -6q0 -5 3 -6q0 -2 3 -3l3 -1q4 -4 7 -4 t7 -2q3 0 4 -1l2 -1q3 0 7 -5h4q2 0 4 -2h2q5 -4 7.5 -7t4.5 -4q1 -5 1.5 -9.5t0.5 -8.5v-10q0 -4 -4 -5q-4 -9 -10 -13q-2 -2 -6 -4.5t-6 -2.5q-4 -2 -9 -2h-9q-9 0 -16.5 1t-12.5 8q-2 0 -3 2.5t-5 4.5v4l-2 2l4 2h6q1 0 3 -1t4 -1q4 -4 6.5 -5t4.5 -3h20q7 0 11 4z M1002 297l-55 130h5q6 0 8 -2t3 -2t3 -5l40 -97v-2l2 -6v6l2 2q5 13 12 25.5t11 23.5q4 14 9.5 25.5t11.5 22.5q0 5 1.5 5t1.5 2l6 2h10q-7 -16 -14 -32.5t-15 -31.5q-4 -8 -7 -17l-6 -18l-14 -31h-15zM499 411v-46h56v-12h-56v-56h-15v130h80v-16h-65zM1836 411v-46h51v-12 h-51v-56h-15v130h77v-16h-62zM824 427v-116h59v-14h-75v130h16zM348 297v114h-44v16h99v-16h-44v-114h-11zM735 427v-116h60v-14h-75v130h15zM253 683q2 -1 3 -4t3 -5q3 -5 3 -9v-4q0 -3 -3 -7q-2 -2 -3 -4.5t-3 -2.5q-1 -2 -7 -8h-43v50h33q4 0 10 -2l4 -2zM1242 365 q4 0 6 3q4 4 9 4l2 4q0 2 3 5q0 1 1 4t1 7q0 2 -1 3t-1 4q-3 2 -4 3t-1 5q-5 0 -9 4h-41v-46h35zM1970 368q4 4 7 4q5 7 5 9q2 4 2 11q0 3 -2 7q0 1 -5 8q-3 0 -7 4h-41v-46h33q3 0 8 3zM486 658l-4 -7q-2 0 -3 -2t-3 -2q-2 -2 -9 -2h-31v44h31q3 0 9 -2q2 0 3 -1l3 -3 q1 -2 2 -3.5t2 -3.5q3 -2 3 -9q0 -6 -3 -9zM1429 427v-130h-16v130h16zM641 121l-25 64q0 2 -1 3l-1 2q0 4 -2 6v-6l-1 -2q-1 -1 -1 -3l-26 -64h57zM1024 682v-4l26 -60h-55l27 60v5zM1645 77q6 0 6 -6q2 -2 2 -5v-4q0 -7 -2 -9q0 -5 -6 -9q-2 0 -5 -4h-17q-4 4 -9 4 q0 2 -5 9q-2 2 -2 9v4q0 3 2 5l3 4l2 2q7 4 9 4q1 3 4 3h10q3 0 3 -3q4 0 5 -4z" glyph-name="eight" unicode="8"/><glyph d="M2323 1024v-550h-2254v550h854q0 28 5 55t19 50q11 27 24.5 49t34.5 39q36 39 86 58q25 11 51 16t53 5q31 0 58 -6t50 -15q26 -13 48 -27.5t42 -34.5q32 -34 57 -88q18 -50 18 -101h854zM966 1119q-19 -42 -19 -95q0 -57 19 -99q9 -20 22.5 -40.5t28.5 -39.5 q18 -17 38 -30.5t43 -23.5q45 -21 98 -21q57 0 98 19q46 19 78 54q20 18 33 38t24 41q20 51 20 102q0 20 -3.5 42t-11.5 44q-13 37 -40 68q-13 18 -27.5 31t-32.5 24q-17 7 -35 16.5t-37 16.5q-14 3 -30.5 6t-35.5 3q-55 0 -100 -23q-46 -16 -79 -54q-17 -17 -29.5 -37 t-21.5 -42zM1070 877l295 298q58 -73 58 -151q0 -22 -3 -42t-11 -39q-13 -35 -38 -66h-301zM1026 870q-26 34 -41 71q-8 17 -11 38t-3 45q0 18 3 37.5t11 39.5q4 18 13.5 33.5t23.5 30.5h299zM2058 194q3 -4 5.5 -10t4.5 -13q4 -7 4 -14v-29q0 -7 -4 -11q-2 -7 -4.5 -14 t-5.5 -13q-5 -7 -15 -19q-6 -5 -11.5 -9.5t-12.5 -8.5q-5 -5 -11.5 -7t-12.5 -4q-8 -2 -13 -2h-16q-19 0 -40 6q-8 6 -15.5 12t-15.5 13q-8 6 -13.5 13.5t-7.5 19.5q-6 9 -7.5 18.5t-1.5 21.5q0 8 1 13.5t1 13.5q3 7 6 13t7 10q2 8 5.5 12.5t9.5 10.5q3 4 9.5 8t11.5 9 q4 2 10.5 4t12.5 6q10 0 15.5 1t11.5 1q9 0 16 -1t13 -1q6 -4 12.5 -6t11.5 -4q13 -10 24 -17q2 -6 7.5 -10.5t7.5 -12.5zM1064 194q2 -4 4 -10t5 -13q2 -10 2 -14v-29q0 -5 -2 -11q-3 -7 -5 -14t-4 -13q-5 -4 -9.5 -9.5t-8.5 -9.5q-5 -5 -10 -9.5t-10 -8.5q-7 -5 -13.5 -7 t-12.5 -4q-4 -1 -7 -1.5t-7 -0.5h-15q-9 0 -18.5 2t-21.5 4q-11 6 -17.5 12t-15.5 13q-15 13 -21 33q-3 9 -5 18.5t-2 21.5v13q0 4 2 14q4 16 11 23q4 8 7.5 12.5t7.5 10.5q7 4 11.5 8t10.5 9l27 10q4 0 10.5 1t13.5 1q8 0 15 -1t14 -1q6 -4 12.5 -6t13.5 -4l10 -9l10 -8 q4 -6 8.5 -10.5t9.5 -12.5zM2281 244l1 1q1 1 6 1h35v-206h-35v150l-5 -9v-6q0 -2 -2 -4q-6 -15 -12.5 -32.5t-14.5 -30.5q-6 -18 -11.5 -33.5t-13.5 -34.5h-34l-52 131q-5 3 -5 10q0 4 -1 4l-2 2v-147h-39v206h37q5 0 6.5 -1t3.5 -1q2 -2 3 -2t3 -2l7 -4q0 -2 2 -3.5 t2 -3.5q4 -16 10.5 -30t14.5 -32q6 -15 11.5 -30.5t11.5 -28.5v-12q3 0 4 -4q0 4 1 4v12l9 13l42 108q0 1 2 3l2 4q0 1 2 3l3 1q2 2 4 2t4 2zM1246 246h36v-206h-34l-94 138l-4 3v2q-3 4 -3 5q-4 1 -4 4q0 4 -5 4v-156h-36v206h32q4 0 8.5 -1t4.5 -3q3 -2 5 -2t4 -2l21 -31 q9 -13 19 -33q13 -13 23 -27.5t23 -27.5q0 -2 1 -4.5t1 -6.5l1 -2l1 -3v143zM630 246l88 -206h-23q-8 0 -15 4q-2 2 -4 6.5t-6 8.5l-12 25h-94l-9 -25q0 -6 -4 -6q-2 -5 -4 -5l-3 -4q-2 0 -3.5 -1t-5.5 -1q0 -2 -2 -2h-26l90 206h33zM244 246h130v-37h-94v-46h77v-38h-77 v-48h94v-37h-130v206zM69 246h149v-23q0 -3 -1 -5q0 -3 -2 -5l-4 -4l-99 -134h1l2 2h102v-37h-155v13q0 9 2 11q0 2 5 7v4l2 4q2 2 4 3.5t2 5.5l88 121h-96v37zM786 618q1 6 2 10t1 9q0 12 -3 21q0 5 -3.5 8.5t-5.5 9.5q-2 3 -4.5 6t-6.5 7l-7 6q-2 3 -8 8l-8 4q-2 1 -4.5 2 t-5.5 2q-4 0 -8.5 0.5t-10.5 0.5q-3 0 -8 -0.5t-11 -0.5q-10 -4 -17 -8q-4 -5 -7.5 -7.5t-7.5 -6.5q-11 -8 -12 -13q-4 -6 -5 -9.5t-3 -8.5q-1 -5 -1.5 -10t-0.5 -11q0 -5 2 -13t4 -14q2 -7 6.5 -12.5t9.5 -11.5q11 -14 24 -14q10 -6 27 -6h19q6 2 10.5 4t7.5 4q10 4 15 12 q7 7 11 15q2 4 5.5 8.5t3.5 8.5zM1843 618v40q-2 5 -3.5 9t-3.5 9q-5 6 -14 13q-1 4 -5.5 6.5t-8.5 7.5l-4 2t-5 2l-7 4q-6 0 -10.5 0.5t-9.5 0.5q-6 0 -10.5 -0.5t-8.5 -0.5l-10 -4l-10 -4q-3 -5 -6 -7.5t-7 -6.5q-3 -4 -6 -6.5t-5 -6.5q-2 -6 -4.5 -9.5t-2.5 -8.5 q-5 -10 -5 -21q0 -5 2.5 -13t5.5 -14q4 -15 15 -24q8 -14 24 -14q10 -6 28 -6h20q3 2 8 4t8 4q4 3 8.5 5.5t5.5 6.5q9 5 14 15zM1724 190q-7 -7 -13 -23q-2 -4 -4 -9.5t-2 -13.5t2 -13.5t4 -11.5q2 -7 5.5 -13.5t7.5 -9.5q9 -9 22 -15q12 -4 26 -4q5 0 9.5 1t10.5 1 q3 2 8 4.5t8 6.5q2 0 8 2h12q2 0 8 -2q2 -1 7 -6l6 -7q-3 -4 -6 -7.5t-7 -7.5q-6 -3 -10.5 -6t-11.5 -6q-6 -4 -10.5 -5t-10.5 -3t-11 -2h-10q-11 0 -22 2t-20 4q-20 9 -33 25q-15 13 -21 33q-4 9 -6.5 18.5t-2.5 21.5q0 8 1 13.5t3 13.5q2 16 9 23q6 8 8.5 12.5t8.5 10.5 l12 8l11 9l9 4l17 6q5 0 11.5 1t14.5 1h12q3 0 9 -2t10.5 -3t10.5 -3l22 -13q4 -4 7 -8l6 -8l-6 -7q-2 -1 -5 -4l-2 -4h-14q-7 0 -14 4q-3 2 -8 4.5t-8 4.5q-8 2 -11 2h-9q-16 0 -26 -6q-15 -2 -22 -13zM1584 141q4 -5 7 -9t3 -7q5 -8 5 -19q0 -14 -7 -27l-8 -12 q-3 -5 -8 -8q-6 -6 -10.5 -9.5t-12.5 -5.5q-5 -2 -13 -3t-14 -1q-11 0 -31 4q-9 4 -20 18q-4 1 -6 5l-4 8q-6 1 -6 9l6 4q2 2 4 2h4l2 2h9q4 0 4 -2q7 0 9 -2q5 -4 8.5 -5.5t5.5 -3.5q2 0 6 -1t9 -1h5q2 0 6 2q5 1 13 5q6 6 7 8q2 4 4 7t2 7q0 6 -6 9q-5 6 -7 6q-2 4 -6.5 5 t-6.5 2q-6 0 -13 6q-5 0 -9 1t-9 6q-9 3 -12.5 6t-7.5 7q-11 4 -11 13q-6 10 -6 23q0 17 6 25q1 4 5 10l8 9q4 2 9 4t12 6q6 0 10.5 1t12.5 1q4 0 8 -1t10 -1l15 -6q3 -4 6 -6.5t7 -6.5q3 -2 6.5 -5t3.5 -7l-7 -4l-6 -4q-3 -2 -3 -3h-17l-5 1q-3 1 -6 4q-2 0 -3.5 1t-3.5 1 h-16q-2 0 -3 -1t-5 -3l-6 -5q-1 -3 -1 -10q0 -5 1 -5q2 -2 3 -4.5t3 -6.5h6q1 0 5 -2q4 -1 8.5 -3t9.5 -4l8 -2q5 -4 9 -5t9 -4q10 -4 16 -13zM1480 315q-11 8 -15 19q-6 13 -6 29v15l10 18q2 2 4.5 5.5t6.5 7.5q6 7 12 9q3 5 8.5 6t8.5 3q4 0 8 1.5t9 1.5q4 0 10 -1.5 t10 -1.5q4 -2 7.5 -3t7.5 -6l11 -9l12 -13q2 -4 4 -8.5t4 -9.5q0 -4 1 -8.5t1 -6.5q0 -6 -1 -13.5t-5 -15.5q-4 -12 -16 -19q-4 -4 -8.5 -7.5t-11.5 -8.5q-10 -2 -26 -2h-14q-4 0 -10 2q-15 4 -22 16zM2030 119q5 12 5 25q0 15 -5 23q-2 9 -6.5 14.5t-7.5 8.5q-10 10 -23 13 q-4 4 -11 5t-16 1q-11 0 -24 -6q-7 -1 -11.5 -4t-10.5 -9q-8 -7 -15 -23q0 -4 -1 -9.5t-1 -13.5t1 -13.5t1 -11.5q8 -16 15 -23q6 -4 10.5 -8t11.5 -7q7 -2 13.5 -3t10.5 -1q20 0 27 4q8 3 13.5 7t9.5 8q9 9 14 23zM2141 315q-6 -4 -12 -7.5t-11 -8.5q-8 -2 -12 -2h-28 q-4 0 -12 2q-11 4 -21 16q-7 7 -13 19q-2 8 -4 15.5t-2 13.5q0 2 1 6.5t1 8.5q2 4 3 9t4 9q2 3 5 6t5 7q7 5 16 9q3 5 8 6t7 3q5 0 8 1.5t10 1.5q2 0 7.5 -1.5t10.5 -1.5q4 -2 7.5 -3t5.5 -6q4 -2 8.5 -4.5t7.5 -4.5q1 -2 2 -3.5t2 -3.5l4 -6q2 -4 4 -8.5t3 -9.5 q2 -4 3 -8.5t1 -6.5q0 -6 -1 -13.5t-5 -15.5q0 -6 -5 -11zM1035 119q4 11 4 25t-4 23q-4 17 -18 23q-2 6 -7.5 9t-11.5 4q-11 6 -27 6q-14 0 -24 -6q-10 -1 -22 -13q-8 -5 -13 -23q-5 -5 -5 -10v-27q0 -4 5 -11q2 -7 5 -13.5t8 -9.5q6 -4 11 -8t11 -7q9 -4 24 -4q18 0 27 4 q14 7 19 15q7 3 11.5 9.5t6.5 13.5zM726 246h130v-37h-94v-52h77v-36h-77v-81h-36v206zM535 209h-55v-169h-40v169h-59v37h154v-37zM1302 246h155v-37h-61v-169h-37v169h-57v37zM1281 1233q16 -8 33.5 -19.5t33.5 -21.5h-304q34 28 70 41q37 17 82 17t85 -17zM1114 810 q-18 7 -35 18t-33 24h302q-16 -13 -33.5 -24t-33.5 -18q-22 -6 -43 -10.5t-42 -4.5q-23 0 -42.5 4.5t-39.5 10.5zM524 566l-44 64q4 0 11 4q7 3 8 9q8 6 8 11v24q0 1 -2 5q-4 9 -10 14q-5 8 -13 8q-2 4 -6.5 5t-8.5 1h-53v-145h22v60h22l37 -52q1 -4 7 -6q2 -2 3 -2h19z M1096 566l-63 145h-20l-62 -145h11q7 0 9 2q0 2 6 6l10 25h72l11 -25q1 -4 5 -6q2 -2 8 -2h13zM1810 676q2 -2 6.5 -7.5t5.5 -10.5q4 -7 4 -21q0 -12 -4 -21q-2 -5 -6 -9l-6 -6q-5 -4 -9 -6.5t-8 -6.5q-8 -4 -21 -4q-14 0 -21 4q-5 4 -9.5 6.5t-8.5 6.5q-3 2 -6 6.5t-3 8.5 q-6 10 -6 21q0 10 6 21q0 5 3 10.5t6 7.5q6 6 18 11q9 4 21 4t21 -4zM751 676q6 -2 8.5 -7.5t4.5 -10.5q4 -7 4 -21q0 -10 -4 -21q-2 -4 -4.5 -8.5t-8.5 -6.5q-4 -6 -16 -13q-7 -4 -21 -4q-10 0 -21 4q-4 4 -8.5 6.5t-8.5 6.5q-2 2 -5.5 6.5t-5.5 8.5q-4 11 -4 21q0 12 4 21 q5 12 11 18q4 4 8.5 6.5t8.5 4.5q5 2 11.5 3t9.5 1q13 0 21 -4q12 -4 16 -11zM277 647q5 12 5 18q0 9 -5 18q0 2 -4 6l-6 6q-2 3 -5 6.5t-9 3.5q-2 4 -7.5 5t-9.5 1h-49v-145h16v55h33q4 0 9.5 0.5t7.5 2.5q10 4 14 10q4 2 7 5.5t3 7.5zM2079 311h29l6 3q3 3 4 5q5 0 13 5 l3 6q1 1 1.5 2t2.5 2q0 3 2.5 7.5t2.5 8.5v32q-2 6 -6 10t-6 7q-6 2 -9.5 5t-7.5 7h-40q-6 -4 -9.5 -7t-8.5 -5q-7 -5 -11 -17q-2 -8 -2 -12v-20q0 -4 1 -8.5t4 -7.5l4 -4q3 -3 4 -6l6 -3q2 -2 4 -2q4 -4 7 -5t6 -3zM1993 711h-20v-112q-1 2 -2 5t-3 4l-70 97l-3 6h-23v-145 h21v114l2 -2l82 -112h16v145zM1480 382q-3 -6 -4 -11.5t-1 -7.5v-8q0 -3 2 -5q0 -8 5 -16q0 -2 2 -4t4 -6l5 -3q2 -2 9 -2q2 -4 5.5 -5t5.5 -3h26q5 2 8 3t6 5l6 2l4 3q2 4 4.5 6t2.5 4q2 3 3 7.5t3 8.5q0 2 1 5.5t1 7.5q0 2 -1 7.5t-5 11.5q0 6 -3.5 10t-5.5 7q-3 1 -8 6 l-9 6h-40q-4 -4 -9 -7t-9 -5q-2 -3 -5 -7t-3 -10zM935 711h-17v-112l-2 4q-2 6 -2 5l-69 97q-5 0 -6 6h-23v-145h19v117h2l2 -1v-4l81 -112h15v145zM1982 357q-4 -1 -7 -2t-5 -2l42 -56h-11l-6 2q-4 0 -4 7l-36 47h-26v-56h-15v130h54q3 0 9 -2q2 -2 5.5 -4.5t4.5 -4.5 q4 -2 5 -5.5t7 -7.5v-25q-4 -4 -5 -7.5t-3 -5.5zM1259 357q-3 -3 -11 -4l44 -56h-14q-3 0 -3 2q-6 0 -6 7l-36 47h-26v-56h-13v130h53q2 0 6 -2q8 -1 16 -9q0 -2 3 -5.5t3 -7.5q2 -2 2 -6v-13q0 -2 -2 -6q0 -9 -4 -13l-5 -4q-3 -3 -7 -4zM386 711h-91v-145h91v20h-69v44h55 v17h-55v42h69v22zM1614 711h-88v-145h88v20h-66v44h55v17h-55v42h66v22zM2306 425q6 2 5 2h12v-130h-11v106l-2 -2v-2q-4 -7 -6.5 -16t-7.5 -13q-4 -7 -6 -12.5t-7 -13.5q-2 -8 -3 -14t-5 -9q-3 -8 -6 -12.5t-5 -11.5h-14q-9 12 -14 24.5t-10 26.5q-4 11 -11 24.5t-11 26.5 v2h-4v-104h-13v130h13q4 0 6 -2l2 -2v-5l46 -99q0 -4 2 -4l1 2v4q0 1 7 5l38 92q2 5 3 5t1 2zM1387 711h-20v-97q0 -3 -2 -7q-2 -8 -9 -12q0 -2 -4 -3.5t-6 -5.5l-8 -2h-8q-7 0 -13 2q-5 4 -8 5.5t-5 3.5l-10 12q0 3 -1 7t-1 10v87h-19v-87q0 -6 1 -10t1 -7q0 -8 6 -14 q2 -6 9 -11q2 -3 4.5 -5.5t7.5 -4.5q2 -2 6 -3t7 -3q4 0 7 -1t8 -1q4 0 7.5 1t10.5 1q2 2 5 3t6 3q8 6 12 10q3 2 5 5t5 6q0 4 3 7t3 7v104zM622 592q2 5 3 8t1 8q0 10 -5 18t-11 13q-2 0 -3.5 2t-5.5 4l-4 2h-4q-1 0 -1 4q-7 0 -8 1q-7 2 -8.5 3t-5.5 3q-6 3 -8 3 q-3 4 -3 6v15q0 1 1.5 2t1.5 3q2 0 4 1t4 1q6 2 5 2h9q2 -2 4 -2q6 0 7 -4q2 -2 4 -2h2q9 0 13 4l4 2q0 2 -2 4l-4 4q-2 1 -4.5 3.5t-6.5 4.5q-2 0 -4 2t-5 4q-4 0 -6 0.5t-4 0.5q-6 0 -11 -0.5t-7 -0.5q-5 -2 -7 -4t-6 -4q-2 -5 -5.5 -7.5t-6.5 -6.5q0 -4 -2 -6.5t-2 -8.5 q0 -7 4 -16l5 -7l5 -4q2 -2 6 -5t7 -3l7 -4q2 -1 7 -1q1 -2 5.5 -2t6.5 -2l5 -2q2 0 4 -2t2 -3t2 -5q2 -2 2 -6v-9q0 -2 -2 -4t-2 -4t-2 -3q-1 -3 -6 -5l-3 -1q-4 0 -7.5 -1t-4.5 -1q-4 0 -7 1t-5 1q-5 0 -5 6l-4 1q-4 4 -11 4h-5l-4 -2l-5 -2q0 -3 3 -3q0 -2 2 -4 q0 -4 4 -4v-5h3q7 -7 15.5 -9t18.5 -2h8q5 0 11 2q4 2 8.5 4t6.5 5q4 2 7.5 5.5t4.5 9.5zM1497 592q7 7 7 16q0 10 -4.5 18t-11.5 13q-6 4 -6 6h-4q-1 0 -3 2h-3q-4 0 -5 4h-4q-2 0 -4 1l-4 3l-6 3l-7 3q-2 1 -3 2l-2 2l-1 2q0 1 -1 3t-1 4q0 4 4 8q0 1 4 5q2 0 3 1t4 1 q2 2 10 2l3 -1q2 -1 5 -1q3 -3 8 -4q6 -2 7 -2q7 0 8 4l5 2q0 2 -2.5 4t-4.5 4q0 1 -3 3.5t-5 4.5q-3 0 -5 2t-6 4h-6l-4 1q-6 0 -9.5 -0.5t-7.5 -0.5l-13 -8l-6 -8l-5 -6q-1 -4 -3 -6.5t-2 -8.5q0 -4 2 -7.5t3 -8.5q2 -4 4.5 -6.5l4.5 -4.5q4 -2 6.5 -5t6.5 -3q8 -5 13 -5 q4 -2 6.5 -2t5.5 -2q6 0 10 -4q2 -2 3.5 -3t1.5 -5q2 -2 2 -5v-9q0 -3 -2 -5q0 -5 -5 -7q-6 -4 -7 -5t-3 -1q-6 0 -7 -1t-5 -1q-2 0 -5.5 1t-5.5 1q-3 1 -8 6l-2 1q-4 4 -9 4h-6q-2 0 -4 -2l-6 -2q2 -1 2 -2t2 -1q0 -2 1 -3l3 -3v-2q7 -5 8 -5q6 -7 13.5 -9t16.5 -2h11 q3 0 11 2q2 2 5.5 4t7.5 5l5 7q3 3 4 8zM1632 297h-16v130h18q3 0 4 -4l69 -97q2 0 2 -4l2 -1v106h13v-130h-11l-77 106v4h-4v-110zM73 328q-4 4 -5 7.5t-2 8.5q-2 6 -3 9.5t-1 9.5t4 15q1 4 2 9t5 9l4 6l5 7q2 2 6 4.5t6 4.5q5 5 9.5 6t8.5 3q3 0 8 1.5t10 1.5q6 0 13 -1.5 t13 -5.5q13 -4 20 -14q-2 -2 -4 -2v-4h-13q-3 2 -6 5t-7 3h-34l-20 -12q-4 -3 -7 -7t-4 -10q-2 -6 -3 -11.5t-1 -7.5q0 -9 4 -13q0 -4 0.5 -8.5t0.5 -7.5l4 -4q4 -2 6 -6l7 -4q2 -1 7 -1q2 -4 4.5 -5t6.5 -3h31q2 2 6.5 3t8.5 5v27h-13v2q-2 0 -3 1l-3 3h-2q-1 1 -1 3v4h35 v-48q-2 -5 -3.5 -6t-5.5 -6h-11q-8 -2 -12 -2h-32q-4 0 -8.5 2.5t-9.5 6.5q-7 0 -12 9zM225 411v-41h52v-15h-52v-44h63v-14h-79v130h79v-16h-63zM1098 411v-41h56v-15h-56v-44h64v-14h-79v130h79v-16h-64zM2226 711h-18q-4 0 -8 -4q-5 -5 -5 -9l-35 -44h-2q0 -2 -2 -2v2 l-36 44q-1 6 -4 9q-4 4 -11 4h-16l54 -72v-2q0 -1 2 -1l2 -2v-68h20v66q2 0 2 2l2 3v2zM2112 586h-64v125h-20v-145h84v20zM601 427v-79q0 -6 2 -9t5 -5q0 -6 3 -9t5 -4q0 -2 4 -4t6 -4q6 -2 8 -2h15q1 0 5 2t7.5 4t6.5 4q4 1 8 13q4 3 4 14v79h13v-79q0 -11 -4 -22 q-5 -11 -11 -15q-5 -12 -15 -12q-6 -1 -11.5 -1.5t-10.5 -0.5t-10.5 0.5t-12.5 1.5q-3 0 -15 12l-10 15q-1 6 -3 11t-2 11v79h13zM1191 586h-62v125h-19v-145h81v20zM1361 315q1 2 2 3.5t2 3.5q2 2 3 6t1 6q0 8 -2 10t-3 4t-3 4q-1 1 -7 3q-4 0 -6 2t-6 2q-6 0 -12 6 q-9 0 -13 7q-2 0 -3.5 3t-3.5 6v21q0 1 2 7q0 8 7 9l6 5q2 1 3.5 2t3.5 2q4 0 6.5 1.5t7.5 1.5l6 -2l4 -1q3 0 4 -1t5 -3q6 0 6 -7q4 0 6 -3l1 -2l-2 -2q-6 -2 -9 -2h-6q-2 2 -2 4h-21q-8 0 -8 -2q-5 -7 -5 -8q-4 0 -4 -7q0 -5 4 -6q0 -5 3 -6q0 -2 3 -3l3 -1q4 -4 7 -4 t7 -2q3 0 4 -1l2 -1q3 0 7 -5h4q2 0 4 -2h2q5 -4 7.5 -7t4.5 -4q1 -5 1.5 -9.5t0.5 -8.5v-10q0 -4 -4 -5q-4 -9 -10 -13q-2 -2 -6 -4.5t-6 -2.5q-4 -2 -9 -2h-9q-9 0 -16.5 1t-12.5 8q-2 0 -3 2.5t-5 4.5v4l-2 2l4 2h6q1 0 3 -1t4 -1q4 -4 6.5 -5t4.5 -3h20q7 0 11 4z M1002 297l-55 130h5q6 0 8 -2t3 -2t3 -5l40 -97v-2l2 -6v6l2 2q5 13 12 25.5t11 23.5q4 14 9.5 25.5t11.5 22.5q0 5 1.5 5t1.5 2l6 2h10q-7 -16 -14 -32.5t-15 -31.5q-4 -8 -7 -17l-6 -18l-14 -31h-15zM499 411v-46h56v-12h-56v-56h-15v130h80v-16h-65zM1836 411v-46h51v-12 h-51v-56h-15v130h77v-16h-62zM824 427v-116h59v-14h-75v130h16zM348 297v114h-44v16h99v-16h-44v-114h-11zM735 427v-116h60v-14h-75v130h15zM253 683q2 -1 3 -4t3 -5q3 -5 3 -9v-4q0 -3 -3 -7q-2 -2 -3 -4.5t-3 -2.5q-1 -2 -7 -8h-43v50h33q4 0 10 -2l4 -2zM1242 365 q4 0 6 3q4 4 9 4l2 4q0 2 3 5q0 1 1 4t1 7q0 2 -1 3t-1 4q-3 2 -4 3t-1 5q-5 0 -9 4h-41v-46h35zM1970 368q4 4 7 4q5 7 5 9q2 4 2 11q0 3 -2 7q0 1 -5 8q-3 0 -7 4h-41v-46h33q3 0 8 3zM486 658l-4 -7q-2 0 -3 -2t-3 -2q-2 -2 -9 -2h-31v44h31q3 0 9 -2q2 0 3 -1l3 -3 q1 -2 2 -3.5t2 -3.5q3 -2 3 -9q0 -6 -3 -9zM1429 427v-130h-16v130h16zM641 121l-25 64q0 2 -1 3l-1 2q0 4 -2 6v-6l-1 -2q-1 -1 -1 -3l-26 -64h57zM1024 682v-4l26 -60h-55l27 60v5zM1645 77q6 0 6 -6q2 -2 2 -5v-4q0 -7 -2 -9q0 -5 -6 -9q-2 0 -5 -4h-17q-4 4 -9 4 q0 2 -5 9q-2 2 -2 9v4q0 3 2 5l3 4l2 2q7 4 9 4q1 3 4 3h10q3 0 3 -3q4 0 5 -4z" glyph-name="nine" unicode="9"/><glyph d="M118 1183q0 21 12 30.5t25 9.5h268q12 0 19.5 -4.5t11.5 -11t5.5 -13t1.5 -10.5v-243q0 -12 -5 -19.5t-11.5 -11.5t-12.5 -5.5t-9 -1.5h-268q-3 0 -9 1.5t-12.5 5.5t-11 11.5t-4.5 19.5v242zM124 280q0 21 12 30.5t25 9.5h268q12 0 19.5 -4.5t11.5 -11t5.5 -13t1.5 -10.5 v-243q0 -12 -5 -19.5t-11.5 -11.5t-12.5 -5.5t-9 -1.5h-268q-3 0 -9 1.5t-12.5 5.5t-11 11.5t-4.5 19.5v242z" glyph-name="colon" horiz-adv-x="579" unicode=":"/><glyph d="M41 549q0 9 3 13t11 12l369 401q5 5 15 8.5t22 -7.5l163 -148q9 -8 10.5 -22t-8.5 -24l-216 -227l223 -234q10 -11 8.5 -24t-9.5 -21l-170 -154q-12 -11 -22.5 -7.5t-15.5 8.5l-370 401q-7 8 -10 11.5t-3 13.5z" glyph-name="less" horiz-adv-x="692" unicode="&lt;"/><glyph d="M63 532q0 14 9.5 23t21.5 9h637q14 0 22 -8t8 -22v-199q0 -14 -10 -22t-22 -8h-637q-7 0 -18 7t-11 23v197zM63 932q0 14 9.5 23t21.5 9h637q14 0 22 -8t8 -22v-199q0 -14 -10 -22t-22 -8h-637q-7 0 -18 7t-11 23v197z" glyph-name="equal" horiz-adv-x="824" unicode="="/><glyph d="M720 588q0 -10 -3 -13.5t-10 -11.5l-370 -401q-5 -5 -15.5 -8.5t-22.5 7.5l-170 154q-8 8 -9.5 21t8.5 24l222 234l-215 227q-10 10 -8.5 24t10.5 22l163 148q12 11 22 7.5t15 -8.5l369 -401q8 -8 11 -12t3 -13z" glyph-name="greater" horiz-adv-x="797" unicode="&gt;"/><glyph d="M690 517q0 -29 -8.5 -43.5t-39.5 -15.5l-240 -2q-15 0 -22.5 5t-11.5 13t-4.5 18.5t-0.5 22.5v168q0 70 48.5 131t142.5 130q27 20 47.5 36.5t35 36.5t22 46t7.5 64v16q0 21 -9.5 42t-26.5 38t-41.5 27.5t-55.5 10.5q-32 0 -56.5 -14t-40.5 -34t-24 -42t-8 -39v-27 q0 -18 -2.5 -29t-7.5 -17t-14 -7.5t-22 -1.5h-253q-18 0 -27 11t-9 28v33q0 104 36.5 188t100 143.5t150 92t185.5 32.5q86 0 168 -32.5t146.5 -89.5t104.5 -136t40 -172v-20q0 -90 -21 -148.5t-53.5 -99t-71 -69.5t-73.5 -59q-14 -12 -30 -24t-29.5 -27t-22.5 -34t-9 -45 v-105zM355 260q0 21 12 30.5t24 9.5h269q12 0 19.5 -4.5t11.5 -11t5.5 -13t1.5 -10.5v-243q0 -12 -5 -19.5t-11.5 -11.5t-12.5 -5.5t-9 -1.5h-268q-3 0 -9 1.5t-12.5 5.5t-11 11.5t-4.5 19.5v242z" glyph-name="question" horiz-adv-x="1064" unicode="?"/></font>
</defs>
</svg>
