<?xml version="1.0" encoding="utf-8"?>
<!-- Generator: Adobe Illustrator 22.0.1, SVG Export Plug-In . SVG Version: 6.00 Build 0)  -->
<svg width="120" version="1.1" id="Layer_1" xmlns="http://www.w3.org/2000/svg" xmlns:xlink="http://www.w3.org/1999/xlink" x="0px" y="0px"
	 viewBox="0 0 82.5 50" style="enable-background:new 0 0 82.5 50;" xml:space="preserve">
<style type="text/css">
	.st0{fill:#E73D2F;}
	.st1{fill:#FDD647;}
	.st2{fill:#000000;}
</style>
<path class="st0" d="M33.1,38.3H14.5l0-7.9h18.5l0-11.1l-18.5,0v-7.8h18.5V0.4l-32.6,0v49.1h41.8C42.2,49.4,34,47.4,33.1,38.3z"/>
<path class="st1" d="M63,19.4c5.6,3.8,8.5,7.5,8.3,15.1c-0.2,7.9-8.2,14.9-16.9,14.9c-6.2,0-14.1-2.8-17.1-11.1l10.3-4.6
	c1.4,2.6,3.4,4.6,6.5,4.6c3.4,0,5.9-2.6,6.2-5.9c0.1-0.8-0.4-6.6-6.2-6.8l-6.5-0.7l8.3-13.4l-18.7,0V0.4l34.1,0L63,19.4z"/>
<g>
	<path class="st2" d="M78.2,0.9h-1v2.9h-0.6V0.9h-1V0.4h2.7V0.9z"/>
	<path class="st2" d="M82.5,0.4v3.5h-0.6V1.6c0-0.1,0-0.2,0-0.3l-1.1,2c0,0.1-0.1,0.1-0.2,0.1h-0.1c-0.1,0-0.2,0-0.2-0.1l-1.1-2
		c0,0.1,0,0.1,0,0.2c0,0.1,0,0.1,0,0.1v2.2h-0.6V0.4h0.5c0,0,0.1,0,0.1,0c0,0,0,0,0.1,0c0,0,0,0,0,0c0,0,0,0,0,0.1l1,1.9
		c0,0.1,0.1,0.1,0.1,0.2c0,0.1,0,0.1,0.1,0.2c0-0.1,0-0.1,0.1-0.2c0-0.1,0-0.1,0.1-0.2l1-1.9c0,0,0,0,0-0.1c0,0,0,0,0,0
		c0,0,0,0,0.1,0c0,0,0,0,0.1,0H82.5z"/>
</g>
</svg>
