<?xml version="1.0" standalone="no"?>
<!DOCTYPE svg PUBLIC "-//W3C//DTD SVG 1.1//EN" "http://www.w3.org/Graphics/SVG/1.1/DTD/svg11.dtd" >
<svg xmlns="http://www.w3.org/2000/svg" xmlns:xlink="http://www.w3.org/1999/xlink" version="1.1">
<metadata>
Created by FontForge 20180930 at Mon Oct  8 19:03:33 2018
 By root
Copyright (c) 2016 by Zetafonts. All rights reserved.
</metadata>
<defs>
<font id="CocogooseCompressedTrial-Semili" horiz-adv-x="2373" >
  <font-face 
    font-family="Cocogoose Compressed Trial"
    font-weight="600"
    font-stretch="normal"
    units-per-em="1920"
    panose-1="2 0 5 6 2 0 0 2 0 4"
    ascent="1536"
    descent="-384"
    x-height="1225"
    cap-height="1426"
    bbox="-158 -453 2323 1896"
    underline-thickness="96"
    underline-position="-192"
    unicode-range="U+0020-F778"
  />
    <missing-glyph />
    <glyph glyph-name="space" unicode=" " horiz-adv-x="436" 
 />
    <glyph glyph-name="F" unicode="F" horiz-adv-x="748" 
d="M92 1387q0 18 9.5 28.5t27.5 10.5h557q13 0 21 -9t8 -28v-171q0 -18 -8 -27t-21 -9h-337v-358h255q14 0 23.5 -8.5t9.5 -28.5v-170q0 -19 -9.5 -28t-23.5 -9h-255v-541q0 -39 -37 -39h-183q-37 0 -37 39v1348z" />
    <glyph glyph-name="H" unicode="H" horiz-adv-x="968" 
d="M92 1387q0 18 9 28.5t27 10.5h184q19 0 28 -10.5t9 -28.5v-534h270v534q0 16 9 27.5t28 11.5h185q13 0 24 -8t11 -30v-1350q0 -38 -39 -38h-181q-37 0 -37 38v571h-270v-570q0 -39 -37 -39h-184q-36 0 -36 39v1348z" />
    <glyph glyph-name="I" unicode="I" horiz-adv-x="441" 
d="M92 1387q0 18 9.5 28.5t27.5 10.5h183q19 0 28 -10.5t9 -28.5v-1348q0 -39 -37 -39h-183q-37 0 -37 39v1348z" />
    <glyph glyph-name="J" unicode="J" horiz-adv-x="742" 
d="M399 1388q0 23 11.5 30.5t19.5 7.5h188q38 0 38 -44v-1038q0 -84 -27.5 -152t-76.5 -116t-116 -73.5t-146 -25.5t-155.5 29.5t-129.5 91.5q-3 4 -7.5 11.5t-7 16t-2 17.5t7.5 17l95 116q14 17 30 16.5t30 -16.5q23 -23 56 -39t70 -16q31 0 54 11t38 29.5t22.5 44
t7.5 54.5v1028z" />
    <glyph glyph-name="K" unicode="K" horiz-adv-x="932" 
d="M599 828l311 -786q8 -18 -1 -30t-23 -12h-205q-32 0 -43 33l-192 529l-97 -174v-349q0 -39 -37 -39h-183q-37 0 -37 39v1348q0 18 9.5 28.5t27.5 10.5h183q19 0 28 -10.5t9 -28.5v-520l273 533q8 19 19 22.5t28 3.5h216q8 0 12 -4t5 -10.5t-1 -14t-6 -14.5z" />
    <glyph glyph-name="L" unicode="L" horiz-adv-x="736" 
d="M92 1387q0 18 9 28.5t27 10.5h184q19 0 28 -10.5t9 -28.5v-1143h320q30 0 30 -35v-172q0 -37 -30 -37h-541q-36 0 -36 39v1348z" />
    <glyph glyph-name="M" unicode="M" horiz-adv-x="1204" 
d="M323 919l7 -72l3 -808q0 -39 -30 -39h-182q-29 0 -29 39v1350q3 37 30 37h232q17 0 22 -9t10 -26l205 -741l10 -75l11 75l206 741q5 17 10 26t22 9h232q27 0 30 -37v-1350q0 -39 -29 -39h-182q-32 0 -30 39l3 808l6 72l-1 -8l-189 -669q-5 -20 -11 -28t-22 -8h-110
q-16 0 -22 8t-11 28l-189 669z" />
    <glyph glyph-name="P" unicode="P" horiz-adv-x="900" 
d="M92 1387q0 18 9.5 28.5t27.5 10.5h348q81 0 150.5 -28.5t120.5 -78.5t79.5 -117t28.5 -144v-225q0 -77 -29 -145t-79.5 -118.5t-120 -79.5t-150.5 -29h-128v-422q0 -39 -36 -39h-184q-37 0 -37 39v1348zM477 705q56 0 89 36t33 91v220q0 57 -33.5 93.5t-89.5 36.5h-127
v-477h128z" />
    <glyph glyph-name="R" unicode="R" horiz-adv-x="920" 
d="M92 1387q0 18 9.5 28.5t27.5 10.5h348q81 0 150.5 -29t120.5 -79.5t79.5 -118t28.5 -144.5v-177q0 -102 -39 -175.5t-101 -120.5l154 -543q4 -14 -2.5 -26.5t-20.5 -12.5h-202q-16 0 -23 6.5t-10 26.5l-112 467q-8 -1 -16 -1h-16h-119v-461q0 -38 -36 -38h-184
q-37 0 -37 38v1349zM349 1182v-439h128q58 0 90 36t32 91v186q0 57 -33.5 91.5t-89.5 34.5h-127z" />
    <glyph glyph-name="S" unicode="S" horiz-adv-x="886" 
d="M67 401q0 26 6.5 37.5t28.5 11.5h182q23 0 29.5 -9.5t6.5 -32.5v-47q0 -39 12.5 -66t32 -43t42.5 -23t43 -7q25 0 48.5 9t41.5 25.5t28.5 39.5t10.5 52q0 38 -9.5 68t-31 58t-55.5 58.5t-83 69.5q-82 65 -144 115t-104 101t-63.5 112.5t-21.5 149.5q0 67 17.5 120.5
t46.5 94.5t67.5 70t79.5 48t83 27.5t78 8.5q82 0 150.5 -27t118 -76t77 -118t27.5 -154v-60q0 -23 -7.5 -30.5t-33.5 -7.5h-177q-20 0 -26 8t-6 30v59q0 27 -8 51t-23 42t-37 28.5t-50 10.5q-20 0 -41.5 -7t-39 -23t-28.5 -41t-11 -61q0 -38 10.5 -66.5t30 -53.5t47 -48
t62.5 -49q74 -56 139.5 -108t115 -111.5t78 -132.5t28.5 -171q0 -72 -28 -136.5t-79 -113t-122.5 -77.5t-159.5 -29q-94 0 -165 30.5t-118.5 81.5t-71.5 118t-24 140v54z" />
    <glyph glyph-name="T" unicode="T" horiz-adv-x="756" 
d="M12 1388q0 19 8.5 28.5t21.5 9.5h671q13 0 22 -9.5t9 -27.5v-171q0 -19 -9 -27.5t-22 -8.5h-207v-1145q0 -19 -8 -28t-22 -9h-196q-13 0 -21.5 9t-8.5 28v1145h-208q-13 0 -21.5 8.5t-8.5 27.5v170z" />
    <glyph glyph-name="A" unicode="A" horiz-adv-x="856" 
d="M861 39q9 -39 -21 -39h-200q-14 0 -27 7.5t-16 26.5l-34 204h-271l-33 -204q-3 -19 -16 -26.5t-27 -7.5h-200q-30 0 -21 39l303 1352q9 35 41 35h178q32 0 41 -35zM330 467h195l-86 524l-11 136l-11 -136z" />
    <glyph glyph-name="U" unicode="U" horiz-adv-x="928" 
d="M335 348q0 -25 9 -48t26 -40.5t41 -28t53 -10.5q30 0 53.5 10.5t40.5 28t26 40.5t9 48v1038q0 16 8.5 28t24.5 12h189q17 0 25.5 -12.5t8.5 -27.5v-1053q0 -74 -30.5 -139t-83 -113t-122.5 -76t-149 -28t-149 28t-122.5 76t-83 113t-30.5 139v1054q0 17 8.5 28t19.5 11
h198q18 0 24 -11t6 -28v-1039z" />
    <glyph glyph-name="V" unicode="V" horiz-adv-x="891" 
d="M572 35q-9 -35 -41 -35h-166q-32 0 -41 35l-310 1352q-4 19 5 29t23 10h188q14 0 26.5 -7.5t15.5 -26.5l168 -932l8 -108l8 108l167 932q3 19 16 26.5t27 7.5h187q15 0 24 -10t4 -29z" />
    <glyph glyph-name="W" unicode="W" horiz-adv-x="1322" 
d="M570 35q-7 -35 -41 -35h-166q-32 0 -41 35l-309 1352q-9 39 22 39h193q14 0 26.5 -7.5t15.5 -26.5l168 -911l8 -107l8 106l158 912q3 19 15.5 26.5t26.5 7.5h194q30 0 22 -39l-92 -400l95 -506l7 -105l9 105l166 911q3 19 16 26.5t27 7.5h193q31 0 22 -39l-310 -1352
q-7 -35 -41 -35h-165q-32 0 -41 35l-94 419l-8 98l-5 -98z" />
    <glyph glyph-name="X" unicode="X" horiz-adv-x="899" 
d="M36 1386q-6 14 1.5 27t25.5 13h205q31 0 42 -35l129 -400l10 -81l10 82l130 399q11 35 43 35h205q18 0 25 -13t1 -27l-273 -650l-6 -10l7 -13l280 -672q8 -19 -1.5 -30t-23.5 -11h-205q-17 0 -26.5 6.5t-15.5 26.5l-139 404l-12 69l-9 -70l-139 -403q-6 -20 -15.5 -26.5
t-26.5 -6.5h-205q-14 0 -23 11t-1 30l280 672l6 12l-6 11z" />
    <glyph glyph-name="Y" unicode="Y" horiz-adv-x="865" 
d="M305 561l-283 822q-7 20 -1 31.5t23 11.5h203q14 0 26 -7.5t17 -28.5l129 -538l14 -148l14 148l131 538q4 20 15.5 28t25.5 8h206q17 0 23 -11.5t-1 -30.5l-286 -826v-519q0 -39 -30 -39h-195q-31 0 -31 39v522z" />
    <glyph glyph-name="Z" unicode="Z" horiz-adv-x="765" 
d="M688 1426q31 0 31 -34v-133q0 -5 -1 -8l-4 -16l-390 -947l-23 -36h407q12 0 19.5 -8t7.5 -25v-186q0 -17 -7.5 -25t-19.5 -8h-650q-12 0 -19.5 8t-7.5 25v135q0 11 2.5 18t5.5 15l379 956l18 32h-363q-27 0 -27 34v169q0 17 8 25.5t19 8.5h615z" />
    <glyph glyph-name="bar" unicode="|" horiz-adv-x="450" 
d="M103 1543q0 39 37 39h183q37 0 37 -39v-1868q0 -38 -37 -38h-183q-37 0 -37 38v1868z" />
    <glyph glyph-name="bracketleft" unicode="[" horiz-adv-x="571" 
d="M99 1517q0 14 9 22.5t21 8.5h367q9 0 18 -7.5t9 -21.5v-167q0 -13 -10.5 -21t-18.5 -8h-146v-1418h148q8 0 17.5 -8t9.5 -22v-166q0 -13 -10.5 -21t-18.5 -8h-366q-11 0 -20 6.5t-9 22.5v1808z" />
    <glyph glyph-name="bracketright" unicode="]" horiz-adv-x="571" 
d="M523 -291q0 -16 -9 -22.5t-20 -6.5h-366q-8 0 -18.5 8t-10.5 21v166q0 14 9.5 22t17.5 8h148v1418h-146q-8 0 -18.5 8t-10.5 21v167q0 14 9 21.5t18 7.5h367q12 0 21 -8.5t9 -22.5v-1808v0z" />
    <glyph glyph-name="braceleft" unicode="{" horiz-adv-x="526" 
d="M33 713q0 14 6.5 22.5t14.5 8.5q20 0 35 2t25 12.5t15 31.5t5 59v290q0 104 23 175t58.5 117.5t77 71.5t78.5 37t63.5 14t32.5 2q9 0 18 -7.5t9 -21.5v-201q0 -13 -10.5 -20.5t-17.5 -7.5q-5 0 -18.5 -2t-28 -16.5t-26 -46.5t-11.5 -92v-355q0 -62 -25.5 -100.5
t-63.5 -61.5q38 -23 63.5 -61.5t25.5 -100.5v-393q0 -60 11.5 -91.5t26 -46t28 -16.5t18.5 -2q7 0 17.5 -8t10.5 -21v-201q0 -14 -9 -21.5t-18 -7.5q-6 0 -32.5 2t-63.5 14t-78.5 37t-77 71.5t-58.5 117.5t-23 175v328q0 38 -5 59t-15 31.5t-25 12.5t-35 2q-8 0 -14.5 8.5
t-6.5 22.5v178v0z" />
    <glyph glyph-name="underscore" unicode="_" horiz-adv-x="790" 
d="M73 -52q0 14 8.5 22t20.5 8h587q10 0 18.5 -7.5t8.5 -21.5v-130q0 -13 -9 -20.5t-19 -7.5h-588q-11 0 -19 6.5t-8 22.5v128z" />
    <glyph glyph-name="endash" unicode="&#x2013;" horiz-adv-x="736" 
d="M96 659q0 14 9.5 22.5t19.5 8.5h481q11 0 19 -8t8 -22v-140q0 -13 -9.5 -21t-19.5 -8h-481q-5 0 -16 7t-11 22v139z" />
    <glyph glyph-name="bullet" unicode="&#x2022;" horiz-adv-x="264" 
d="M33 629q0 29 8.5 54.5t23.5 44t34.5 29.5t42.5 11t43 -11t35 -29.5t24 -44t9 -54.5t-9 -54t-24 -43.5t-35 -29.5t-43 -11t-42.5 11t-34.5 29.5t-23.5 43.5t-8.5 54z" />
    <glyph glyph-name="asciicircum" unicode="^" horiz-adv-x="716" 
d="M125.192 1085.34v332.811q0 6.70996 1.34082 8.05176q5.36426 2.68457 8.04688 2.68457h85.8281q20.1152 0 36.209 -8.05176q16.0918 -5.36816 29.5029 -18.7881q6.70508 -6.70996 12.0693 -14.0908t8.04688 -15.4326q6.70508 -17.4463 6.70508 -36.2334v-42.9434
q0 -25.498 -9.3877 -42.9434q-9.3877 -20.1299 -25.4795 -30.8662l38.8906 -134.197v-1.34277q0 -4.02539 -1.3418 -5.36719q-2.68164 -2.68457 -5.36328 -2.68457h-49.6201q-2.68164 0 -5.36426 2.68457l-2.68164 6.70996l-26.8213 114.068h-37.5498v-114.068
q0 -9.39453 -9.3877 -9.39453h-44.2549q-9.3877 0 -9.3877 9.39453zM436.319 1081.31v4.02637l75.0996 334.152q2.68262 9.39453 10.7285 9.39453h42.9141q8.0459 0 10.7285 -9.39453l73.7588 -334.152q1.34082 -1.34277 1.34082 -4.02637q0 -5.36816 -5.36426 -5.36816
h-49.6191q-4.02344 0 -6.70508 2.68457q-4.02344 1.3418 -4.02344 6.70996l-8.04688 49.6533h-67.0527l-8.04688 -49.6533q-1.34082 -4.02637 -4.02344 -6.70996q-2.68164 -2.68457 -6.70508 -2.68457h-49.6191q-5.36426 0 -5.36426 5.36816zM-20.9834 1078.63
q-1.34082 1.3418 -1.34082 6.70996v283.157h-52.3018q-4.02344 0 -4.02344 1.3418q-2.68262 2.68457 -2.68262 6.70996v42.9434q0 5.36816 2.68262 6.70996q0 2.68457 4.02344 2.68457h166.292q2.68164 0 5.36426 -2.68457q2.68164 -2.68359 2.68164 -6.70996v-42.9434
q0 -1.3418 -2.68164 -6.70996q-1.34082 -1.3418 -5.36426 -1.3418h-50.9609v-283.157q0 -9.39453 -8.0459 -9.39453h-48.2783q-2.68262 0 -5.36426 2.68457zM671.006 1085.34v332.811q0 5.36816 2.68164 8.05176q2.68262 2.68457 6.70508 2.68457h45.5967
q4.02344 0 6.70508 -2.68457q2.68262 -2.68359 2.68262 -8.05176v-281.815h77.7812q8.04688 0 8.04688 -8.05176v-42.9434q0 -9.39453 -8.04688 -9.39453h-132.766q-9.38672 0 -9.38672 9.39453zM351.832 1085.34v332.811q0 6.70996 2.68262 8.05176
q2.68164 2.68457 6.70508 2.68457h44.2549q4.02344 0 6.70508 -2.68457q2.68262 -2.68359 2.68262 -8.05176v-332.811q0 -9.39453 -9.3877 -9.39453h-44.2549q-9.3877 0 -9.3877 9.39453zM220.408 1259.8q13.4102 0 21.457 8.05176q8.0459 9.39453 8.0459 22.8135v46.9697
q0 13.4199 -8.0459 21.4717q-9.3877 9.39355 -22.7988 9.39355h-30.8438v-108.7h32.1855zM566.402 1191.36l-20.1152 128.83l-2.68262 33.5488l-2.68262 -33.5488l-21.457 -128.83h46.9375z" />
    <glyph glyph-name="backslash" unicode="\" horiz-adv-x="698" 
d="M22 1384q-14 42 17 42h188q34 0 45 -37l410 -1350q6 -17 1.5 -28t-18.5 -11h-190q-15 0 -27 8t-18 26z" />
    <glyph glyph-name="asciitilde" unicode="~" horiz-adv-x="725" 
d="M127.969 505.351v301.448q0 6.07715 1.21484 7.29297q4.85938 2.43066 7.28906 2.43066h77.7422q18.2207 0 32.7969 -7.29297q14.5771 -4.8623 26.7236 -17.0176q6.07422 -6.07715 10.9326 -12.7627q4.85938 -6.68555 7.28906 -13.9785
q6.07324 -15.8018 6.07324 -32.8184v-38.8965q0 -23.0947 -8.50293 -38.8965q-8.50293 -18.2334 -23.0801 -27.957l35.2266 -121.552v-1.21582q0 -3.64648 -1.21387 -4.86133q-2.42969 -2.43164 -4.85938 -2.43164h-44.9443q-2.42969 0 -4.85938 2.43164l-2.42969 6.07715
l-24.2939 103.319h-34.0127v-103.319q0 -8.50879 -8.50293 -8.50879h-40.085q-8.50391 0 -8.50391 8.50879zM409.784 501.704v3.64648l68.0244 302.663q2.42969 8.50879 9.71777 8.50879h38.8711q7.28906 0 9.71777 -8.50879l66.8105 -302.663
q1.21387 -1.21582 1.21387 -3.64648q0 -4.8623 -4.8584 -4.8623h-44.9453q-3.64355 0 -6.07324 2.43164q-3.64355 1.21484 -3.64355 6.07715l-7.28906 44.9746h-60.7363l-7.28809 -44.9746q-1.21484 -3.64648 -3.64355 -6.07715q-2.42969 -2.43164 -6.07422 -2.43164
h-44.9443q-4.85938 0 -4.85938 4.8623zM-4.43555 499.273q-1.21484 1.21484 -1.21484 6.07715v256.474h-47.374q-3.64453 0 -3.64453 1.21582q-2.42871 2.43066 -2.42871 6.07715v38.8965q0 4.8623 2.42871 6.07812q0 2.43066 3.64453 2.43066h150.626
q2.42871 0 4.8584 -2.43066q2.42969 -2.43164 2.42969 -6.07812v-38.8965q0 -1.21484 -2.42969 -6.07715q-1.21484 -1.21582 -4.8584 -1.21582h-46.1602v-256.474q0 -8.50879 -7.28809 -8.50879h-43.7295q-2.42969 0 -4.85938 2.43164zM622.361 505.351v301.448
q0 4.86133 2.42871 7.29297q2.42969 2.43066 6.07422 2.43066h41.2998q3.64453 0 6.07422 -2.43066q2.42969 -2.43164 2.42969 -7.29297v-255.259h70.4531q7.28906 0 7.28906 -7.29297v-38.8965q0 -8.50879 -7.28906 -8.50879h-120.257q-8.50293 0 -8.50293 8.50879z
M333.257 505.351v301.448q0 6.07715 2.42969 7.29297q2.42969 2.43066 6.07324 2.43066h40.0859q3.64453 0 6.07422 -2.43066q2.42871 -2.43164 2.42871 -7.29297v-301.448q0 -8.50879 -8.50293 -8.50879h-40.0859q-8.50293 0 -8.50293 8.50879zM214.215 663.368
q12.1465 0 19.4355 7.29297q7.28809 8.50879 7.28809 20.6631v42.543q0 12.1553 -7.28809 19.4482q-8.50391 8.50879 -20.6504 8.50879h-27.9395v-98.4561h29.1543zM527.612 601.377l-18.2207 116.689l-2.42969 30.3877l-2.42871 -30.3877l-19.4355 -116.689h42.5146z" />
    <glyph glyph-name="Euro" unicode="&#x20ac;" horiz-adv-x="923" 
d="M28 888q0 17 12 25.5t18 8.5h56v170q0 76 28 141.5t78.5 113.5t121.5 75t157 27q96 0 166 -31t115.5 -82t68 -116t22.5 -133v-99q0 -24 -7 -34t-27 -10h-186q-19 0 -26 9t-6 31v94q0 24 -8.5 46.5t-24.5 40.5t-39 29t-51 11q-29 0 -52 -10t-39.5 -27t-25.5 -39.5
t-9 -47.5v-159h95q11 0 18 -7.5t7 -24.5v-93q0 -14 -8.5 -22t-18.5 -8h-93v-121h95q11 0 18 -7.5t7 -24.5v-93q0 -14 -8.5 -22t-18.5 -8h-93v-142q0 -25 9 -48t26 -41t41 -28.5t53 -10.5t52 10.5t39 28.5t24.5 41t8.5 48v122q0 23 7.5 31.5t24.5 8.5h187q19 0 26.5 -7.5
t7.5 -30.5v-139q0 -84 -29.5 -150t-80.5 -112t-119.5 -70.5t-147.5 -24.5t-149 24.5t-122.5 70.5t-83 112.5t-30.5 149.5v157h-56q-6 0 -18 7.5t-12 23.5v90q0 17 12 25.5t18 8.5h56v121h-56q-6 0 -18 7.5t-12 23.5v90z" />
    <glyph glyph-name="E" unicode="E" horiz-adv-x="777" 
d="M92 1387q0 18 9.5 28.5t27.5 10.5h570q14 0 22 -9t8 -28v-171q0 -18 -8 -27t-22 -9h-350v-338h272q14 0 23.5 -8.5t9.5 -28.5v-170q0 -19 -9 -28t-24 -9h-272v-356h354q13 0 22 -8.5t9 -26.5v-173q0 -19 -9 -27.5t-22 -8.5h-574q-37 0 -37 39v1348z" />
    <glyph glyph-name="ellipsis" unicode="&#x2026;" horiz-adv-x="1051" 
d="M711 202q0 20 10 29t21 9h192q20 0 26.5 -13t6.5 -25v-166q0 -20 -12.5 -28t-19.5 -8h-192q-8 0 -20 7t-12 28v167zM398 202q0 20 10 29t21 9h192q20 0 26.5 -13t6.5 -25v-166q0 -20 -12.5 -28t-19.5 -8h-192q-8 0 -20 7t-12 28v167zM85 202q0 20 10 29t21 9h192
q20 0 26.5 -13t6.5 -25v-166q0 -20 -12.5 -28t-19.5 -8h-192q-8 0 -20 7t-12 28v167z" />
    <glyph glyph-name="quoteleft" unicode="&#x2018;" horiz-adv-x="417" 
d="M337 1078q0 -26 -11.5 -38t-30.5 -12h-170q-45 0 -45 48v213q0 34 12.5 61t35 46t53 29t67.5 10q16 0 26 -8t10 -25v-48q0 -15 -10.5 -22.5t-28.5 -7.5q-14 0 -20 -10.5t-6 -25.5q0 -7 2 -13.5t10 -6.5h68q15 0 26.5 -10.5t11.5 -33.5v-146z" />
    <glyph glyph-name="quoteright" unicode="&#x2019;" horiz-adv-x="418" 
d="M81 1378q0 25 11.5 37t30.5 12h170q45 0 45 -48v-212q0 -69 -46.5 -107.5t-121.5 -38.5q-15 0 -25.5 8t-10.5 25v48q0 14 10.5 21.5t28.5 7.5q14 0 20 11t6 25q0 7 -1.5 14t-9.5 7h-69q-14 0 -26 10t-12 33v147z" />
    <glyph glyph-name="quotedblleft" unicode="&#x201c;" horiz-adv-x="755" 
d="M337 1079q0 -25 -11.5 -37t-30.5 -12h-170q-44 0 -44 48v212q0 69 46.5 108t120.5 39q16 0 26 -8t10 -25v-48q0 -15 -10.5 -22.5t-27.5 -7.5q-14 0 -20.5 -10.5t-6.5 -25.5q0 -7 2 -13.5t10 -6.5h68q15 0 26.5 -10.5t11.5 -33.5v-147zM682 1079q0 -25 -11.5 -37
t-30.5 -12h-170q-44 0 -44 48v212q0 69 46.5 108t121.5 39q15 0 25 -8t10 -25v-48q0 -15 -10.5 -22.5t-27.5 -7.5q-14 0 -20.5 -10.5t-6.5 -25.5q0 -7 2 -13.5t10 -6.5h69q14 0 25.5 -10.5t11.5 -33.5v-147z" />
    <glyph glyph-name="quotedblright" unicode="&#x201d;" horiz-adv-x="765" 
d="M82 1377q0 26 11.5 38t30.5 12h170q44 0 44 -48v-213q0 -68 -46.5 -107t-120.5 -39q-16 0 -26 8t-10 25v48q0 14 10.5 22t27.5 8q14 0 20.5 10.5t6.5 25.5q0 7 -2 13.5t-10 6.5h-68q-15 0 -26.5 10.5t-11.5 33.5v146zM427 1377q0 26 11.5 38t30.5 12h170q45 0 45 -48
v-213q0 -34 -12.5 -61t-35 -46t-53 -29t-67.5 -10q-16 0 -26 8t-10 25v48q0 14 10.5 22t28.5 8q14 0 20 10.5t6 25.5q0 7 -2 13.5t-10 6.5h-68q-15 0 -26.5 10.5t-11.5 33.5v146z" />
    <glyph glyph-name="sterling" unicode="&#xa3;" horiz-adv-x="761" 
d="M347 794h169q9 0 18 -7.5t9 -21.5v-164q0 -13 -10 -20.5t-18 -7.5h-168v-336h352q29 0 29 -36v-164q0 -37 -29 -37h-582q-26 0 -26 37v536h-71q-5 0 -16 6.5t-11 22.5v162q0 14 10 22t18 8h70v300q0 72 29 135.5t78 110.5t113.5 74.5t136.5 27.5q66 0 123 -23t105 -65
q4 -3 10.5 -10t11.5 -15.5t7 -18.5t-4 -20l-97 -111q-19 -25 -34.5 -24.5t-23.5 13.5q-17 21 -41.5 29t-40.5 8q-28 0 -49.5 -9.5t-36.5 -25t-23 -36t-8 -41.5v-299z" />
    <glyph glyph-name="cent" unicode="&#xa2;" horiz-adv-x="853" 
d="M68 895q0 56 17.5 107.5t49.5 94t75.5 75.5t96.5 52v159q0 13 5.5 21t16.5 8h213q12 0 17 -9t5 -22v-153q54 -18 98 -50.5t75.5 -76t48.5 -96.5t17 -111v-88q0 -23 -7.5 -30.5t-24.5 -7.5h-171q-22 0 -31.5 8t-9.5 32v85q0 24 -8.5 45.5t-23.5 38t-36.5 26t-46.5 9.5
t-47 -9.5t-38 -25t-25.5 -37t-9.5 -45.5v-564q0 -24 9.5 -45.5t25.5 -37.5t38 -25.5t47 -9.5t46.5 9.5t36.5 26t23.5 38t8.5 45.5v67q0 23 8.5 31t25.5 8h178q17 0 24.5 -8t7.5 -29v-70q0 -58 -17 -111t-48.5 -96.5t-75.5 -76t-98 -50.5v-171q0 -11 -5 -20.5t-18 -9.5h-210
q-10 0 -17 8.5t-7 22.5v172q-53 18 -96.5 49.5t-75.5 74.5t-49.5 95.5t-17.5 112.5v564v0z" />
    <glyph glyph-name="dagger" unicode="&#x2020;" horiz-adv-x="508" 
d="M27 600q0 14 7 22t15 8h114v758q0 38 29 38h122q29 0 29 -38v-758h112q8 0 14 -7.5t6 -21.5v-127q0 -13 -7 -21t-15 -8h-110v-775q0 -37 -29 -37h-121q-16 0 -23 10.5t-7 26.5v775h-115q-5 0 -13 7t-8 22v126z" />
    <glyph glyph-name="daggerdbl" unicode="&#x2021;" horiz-adv-x="518" 
d="M33 382q0 14 7 22t15 8h105v280h-107q-5 0 -12.5 7t-7.5 22v126q0 14 7 22t15 8h105v511q0 38 30 38h121q30 0 30 -38v-511h120q8 0 14 -7.5t6 -21.5v-127q0 -13 -7 -21t-15 -8h-118v-280h120q8 0 14 -7.5t6 -21.5v-127q0 -13 -7 -21t-15 -8h-118v-557q0 -37 -29 -37
h-122q-15 0 -22.5 10.5t-7.5 26.5v557h-107q-5 0 -12.5 7t-7.5 22v126z" />
    <glyph glyph-name="florin" unicode="&#x192;" horiz-adv-x="595" 
d="M390 990v-1038q0 -102 -31 -168.5t-84.5 -105.5t-124.5 -54.5t-152 -15.5q-23 0 -34 10.5t-11 35.5v142q0 25 15 34t34 9q65 0 99.5 30.5t33.5 108.5v1012h-84q-13 0 -25 8.5t-12 25.5v168q0 16 12.5 24.5t24.5 8.5h84v52q0 114 30 183.5t83 106.5t125 47.5t155 6.5
q24 -2 35 -11t11 -35v-135q0 -25 -13 -34.5t-37 -9.5q-33 0 -58 -5t-42 -20.5t-25.5 -44t-8.5 -75.5v-26h149q13 0 24.5 -9.5t11.5 -23.5v-168q0 -17 -11.5 -25.5t-24.5 -8.5h-149z" />
    <glyph glyph-name="trademark" unicode="&#x2122;" horiz-adv-x="894" 
d="M301 1427q6 0 11 -4.5t5 -15.5v-78q0 -11 -6 -17t-10 -6h-69v-441q0 -17 -6.5 -21t-11.5 -4h-104q-2 0 -9.5 5t-7.5 18v443h-68q-16 0 -16 23v73q0 9 3.5 17t12.5 8h276zM855 865q0 -22 -14 -22h-96q-14 0 -15 20l-6 308l-70 -204q-3 -7 -8.5 -12.5t-10.5 -5.5h-71
q-5 0 -10.5 4.5t-7.5 13.5l-75 199l-5 -305q-1 -11 -5.5 -15t-9.5 -4h-92q-19 0 -19 21l14 539q0 11 5 17t10 6h104q19 0 22 -17l104 -275l100 274q2 6 7.5 13t24.5 7h88q6 0 13 -5.5t8 -16.5z" />
    <glyph glyph-name="yen" unicode="&#xa5;" horiz-adv-x="817" 
d="M279 241h-123q-6 0 -18 7t-12 24v77q0 17 11.5 25.5t18.5 8.5h123v101h-123q-6 0 -18 7t-12 24v77q0 17 11.5 25.5t18.5 8.5h101l-261 757q-7 20 -1 31.5t23 11.5h204q14 0 26 -7.5t16 -28.5l129 -538l15 -147l14 147l130 538q4 20 16 28t26 8h205q17 0 23.5 -11.5
t-0.5 -30.5l-264 -758h101q10 0 20.5 -7.5t10.5 -24.5v-80q0 -14 -11.5 -22t-21.5 -8h-121v-101h123q10 0 20.5 -8t10.5 -24v-80q0 -14 -11.5 -22t-21.5 -8h-121v-202q0 -39 -31 -39h-195q-31 0 -31 39v202z" />
    <glyph glyph-name="emdash" unicode="&#x2014;" horiz-adv-x="886" 
d="M71 659q0 14 9.5 22.5t18.5 8.5h673q11 0 19.5 -8t8.5 -22v-140q0 -13 -10 -21t-19 -8h-673q-6 0 -16.5 7t-10.5 22v139z" />
    <glyph glyph-name="guilsinglright" unicode="&#x203a;" horiz-adv-x="508" 
d="M473 558q0 -6 -2 -10t-7 -10l-267 -370q-3 -5 -10 -8.5t-18 5.5l-122 95q-17 14 -2 32l198 265l-198 264q-5 7 -6 17.5t7 17.5l123 96q10 8 17.5 5t11.5 -8l266 -370q4 -6 6.5 -9.5t2.5 -11.5z" />
    <glyph glyph-name="N" unicode="N" horiz-adv-x="982" 
d="M92 1387q0 18 9.5 28.5t27.5 10.5h171q5 0 13 -2q1 0 2 -0.5t2 -0.5q9 -4 16.5 -11t12.5 -20l291 -793l25 -109l-5 100l-11 797q-1 16 8.5 27.5t27.5 11.5h173q13 0 24 -8t11 -30v-1350q0 -38 -39 -38h-174q-14 0 -27.5 7.5t-19.5 25.5l-283 760l-26 95l6 -100l9 -749
q2 -39 -36 -39h-171q-37 0 -37 39v1348z" />
    <glyph glyph-name="Zcaron" unicode="&#x17d;" horiz-adv-x="765" 
d="M252 1586v248q0 5 1 6q4 2 6 2h64q15 0 27 -6q12 -4 22 -14q5 -5 9 -10.5t6 -11.5q5 -13 5 -27v-32q0 -19 -7 -32q-7 -15 -19 -23l29 -100v-1q0 -3 -1 -4q-2 -2 -4 -2h-37q-2 0 -4 2l-2 5l-20 85h-28v-85q0 -7 -7 -7h-33q-7 0 -7 7zM484 1583v3l56 249q2 7 8 7h32
q6 0 8 -7l55 -249q1 -1 1 -3q0 -4 -4 -4h-37q-3 0 -5 2q-3 1 -3 5l-6 37h-50l-6 -37q-1 -3 -3 -5t-5 -2h-37q-4 0 -4 4zM143 1581q-1 1 -1 5v211h-39q-3 0 -3 1q-2 2 -2 5v32q0 4 2 5q0 2 3 2h124q2 0 4 -2t2 -5v-32q0 -1 -2 -5q-1 -1 -4 -1h-38v-211q0 -7 -6 -7h-36
q-2 0 -4 2zM659 1586v248q0 4 2 6t5 2h34q3 0 5 -2t2 -6v-210h58q6 0 6 -6v-32q0 -7 -6 -7h-99q-7 0 -7 7zM421 1586v248q0 5 2 6q2 2 5 2h33q3 0 5 -2t2 -6v-248q0 -7 -7 -7h-33q-7 0 -7 7zM323 1716q10 0 16 6q6 7 6 17v35q0 10 -6 16q-7 7 -17 7h-23v-81h24zM581 1665
l-15 96l-2 25l-2 -25l-16 -96h35zM688 1426q31 0 31 -34v-133q0 -5 -1 -8l-4 -16l-390 -947l-23 -36h407q12 0 19.5 -8t7.5 -25v-186q0 -17 -7.5 -25t-19.5 -8h-650q-12 0 -19.5 8t-7.5 25v135q0 11 2.5 18t5.5 15l379 956l18 32h-363q-27 0 -27 34v169q0 17 8 25.5t19 8.5
h615z" />
    <glyph glyph-name="exclamdown" unicode="&#xa1;" horiz-adv-x="435" 
d="M89 1183q0 22 12 29t20 7h192q7 0 20 -8t13 -28v-166q0 -12 -7 -25t-26 -13h-193q-11 0 -21 9t-10 29v166zM99 795q0 39 36 39h165q36 0 36 -39v-966q0 -18 -9 -28.5t-27 -10.5h-165q-18 0 -27 10.5t-9 28.5v966z" />
    <glyph glyph-name="Ecircumflex" unicode="&#xca;" horiz-adv-x="777" 
d="M92 1387q0 18 9.5 28.5t27.5 10.5h570q14 0 22 -9t8 -28v-171q0 -18 -8 -27t-22 -9h-350v-338h272q14 0 23.5 -8.5t9.5 -28.5v-170q0 -19 -9 -28t-24 -9h-272v-356h354q13 0 22 -8.5t9 -26.5v-173q0 -19 -9 -27.5t-22 -8.5h-574q-37 0 -37 39v1348zM245 1640v248q0 5 1 6
q4 2 6 2h64q15 0 27 -6q12 -4 22 -14q5 -5 9 -10.5t6 -11.5q5 -13 5 -27v-32q0 -19 -7 -32q-7 -15 -19 -23l29 -100v-1q0 -3 -1 -4q-2 -2 -4 -2h-37q-2 0 -4 2l-2 5l-20 85h-28v-85q0 -7 -7 -7h-33q-7 0 -7 7zM477 1637v3l56 249q2 7 8 7h32q6 0 8 -7l55 -249q1 -1 1 -3
q0 -4 -4 -4h-37q-3 0 -5 2q-3 1 -3 5l-6 37h-50l-6 -37q-1 -3 -3 -5t-5 -2h-37q-4 0 -4 4zM136 1635q-1 1 -1 5v211h-39q-3 0 -3 1q-2 2 -2 5v32q0 4 2 5q0 2 3 2h124q2 0 4 -2t2 -5v-32q0 -1 -2 -5q-1 -1 -4 -1h-38v-211q0 -7 -6 -7h-36q-2 0 -4 2zM652 1640v248q0 4 2 6
t5 2h34q3 0 5 -2t2 -6v-210h58q6 0 6 -6v-32q0 -7 -6 -7h-99q-7 0 -7 7zM414 1640v248q0 5 2 6q2 2 5 2h33q3 0 5 -2t2 -6v-248q0 -7 -7 -7h-33q-7 0 -7 7zM316 1770q10 0 16 6q6 7 6 17v35q0 10 -6 16q-7 7 -17 7h-23v-81h24zM574 1719l-15 96l-2 25l-2 -25l-16 -96h35z
" />
    <glyph glyph-name="Edieresis" unicode="&#xcb;" horiz-adv-x="777" 
d="M92 1387q0 18 9.5 28.5t27.5 10.5h570q14 0 22 -9t8 -28v-171q0 -18 -8 -27t-22 -9h-350v-338h272q14 0 23.5 -8.5t9.5 -28.5v-170q0 -19 -9 -28t-24 -9h-272v-356h354q13 0 22 -8.5t9 -26.5v-173q0 -19 -9 -27.5t-22 -8.5h-574q-37 0 -37 39v1348zM236 1613v248q0 5 1 6
q4 2 6 2h64q15 0 27 -6q12 -4 22 -14q5 -5 9 -10.5t6 -11.5q5 -13 5 -27v-32q0 -19 -7 -32q-7 -15 -19 -23l29 -100v-1q0 -3 -1 -4q-2 -2 -4 -2h-37q-2 0 -4 2l-2 5l-20 85h-28v-85q0 -7 -7 -7h-33q-7 0 -7 7zM468 1610v3l56 249q2 7 8 7h32q6 0 8 -7l55 -249q1 -1 1 -3
q0 -4 -4 -4h-37q-3 0 -5 2q-3 1 -3 5l-6 37h-50l-6 -37q-1 -3 -3 -5t-5 -2h-37q-4 0 -4 4zM127 1608q-1 1 -1 5v211h-39q-3 0 -3 1q-2 2 -2 5v32q0 4 2 5q0 2 3 2h124q2 0 4 -2t2 -5v-32q0 -1 -2 -5q-1 -1 -4 -1h-38v-211q0 -7 -6 -7h-36q-2 0 -4 2zM643 1613v248q0 4 2 6
t5 2h34q3 0 5 -2t2 -6v-210h58q6 0 6 -6v-32q0 -7 -6 -7h-99q-7 0 -7 7zM405 1613v248q0 5 2 6q2 2 5 2h33q3 0 5 -2t2 -6v-248q0 -7 -7 -7h-33q-7 0 -7 7zM307 1743q10 0 16 6q6 7 6 17v35q0 10 -6 16q-7 7 -17 7h-23v-81h24zM565 1692l-15 96l-2 25l-2 -25l-16 -96h35z
" />
    <glyph glyph-name="Igrave" unicode="&#xcc;" horiz-adv-x="441" 
d="M92 1387q0 18 9.5 28.5t27.5 10.5h183q19 0 28 -10.5t9 -28.5v-1348q0 -39 -37 -39h-183q-37 0 -37 39v1348zM38 1604v248q0 5 1 6q4 2 6 2h64q15 0 27 -6q12 -4 22 -14q5 -5 9 -10.5t6 -11.5q5 -13 5 -27v-32q0 -19 -7 -32q-7 -15 -19 -23l29 -100v-1q0 -3 -1 -4
q-2 -2 -4 -2h-37q-2 0 -4 2l-2 5l-20 85h-28v-85q0 -7 -7 -7h-33q-7 0 -7 7zM270 1601v3l56 249q2 7 8 7h32q6 0 8 -7l55 -249q1 -1 1 -3q0 -4 -4 -4h-37q-3 0 -5 2q-3 1 -3 5l-6 37h-50l-6 -37q-1 -3 -3 -5t-5 -2h-37q-4 0 -4 4zM-71 1599q-1 1 -1 5v211h-39q-3 0 -3 1
q-2 2 -2 5v32q0 4 2 5q0 2 3 2h124q2 0 4 -2t2 -5v-32q0 -1 -2 -5q-1 -1 -4 -1h-38v-211q0 -7 -6 -7h-36q-2 0 -4 2zM445 1604v248q0 4 2 6t5 2h34q3 0 5 -2t2 -6v-210h58q6 0 6 -6v-32q0 -7 -6 -7h-99q-7 0 -7 7zM207 1604v248q0 5 2 6q2 2 5 2h33q3 0 5 -2t2 -6v-248
q0 -7 -7 -7h-33q-7 0 -7 7zM109 1734q10 0 16 6q6 7 6 17v35q0 10 -6 16q-7 7 -17 7h-23v-81h24zM367 1683l-15 96l-2 25l-2 -25l-16 -96h35z" />
    <glyph glyph-name="Iacute" unicode="&#xcd;" horiz-adv-x="441" 
d="M92 1387q0 18 9.5 28.5t27.5 10.5h183q19 0 28 -10.5t9 -28.5v-1348q0 -39 -37 -39h-183q-37 0 -37 39v1348zM148 1610v248q0 5 1 6q4 2 6 2h64q15 0 27 -6q12 -4 22 -14q5 -5 9 -10.5t6 -11.5q5 -13 5 -27v-32q0 -19 -7 -32q-7 -15 -19 -23l29 -100v-1q0 -3 -1 -4
q-2 -2 -4 -2h-37q-2 0 -4 2l-2 5l-20 85h-28v-85q0 -7 -7 -7h-33q-7 0 -7 7zM380 1607v3l56 249q2 7 8 7h32q6 0 8 -7l55 -249q1 -1 1 -3q0 -4 -4 -4h-37q-3 0 -5 2q-3 1 -3 5l-6 37h-50l-6 -37q-1 -3 -3 -5t-5 -2h-37q-4 0 -4 4zM39 1605q-1 1 -1 5v211h-39q-3 0 -3 1
q-2 2 -2 5v32q0 4 2 5q0 2 3 2h124q2 0 4 -2t2 -5v-32q0 -1 -2 -5q-1 -1 -4 -1h-38v-211q0 -7 -6 -7h-36q-2 0 -4 2zM555 1610v248q0 4 2 6t5 2h34q3 0 5 -2t2 -6v-210h58q6 0 6 -6v-32q0 -7 -6 -7h-99q-7 0 -7 7zM317 1610v248q0 5 2 6q2 2 5 2h33q3 0 5 -2t2 -6v-248
q0 -7 -7 -7h-33q-7 0 -7 7zM219 1740q10 0 16 6q6 7 6 17v35q0 10 -6 16q-7 7 -17 7h-23v-81h24zM477 1689l-15 96l-2 25l-2 -25l-16 -96h35z" />
    <glyph glyph-name="Icircumflex" unicode="&#xce;" horiz-adv-x="441" 
d="M92 1387q0 18 9.5 28.5t27.5 10.5h183q19 0 28 -10.5t9 -28.5v-1348q0 -39 -37 -39h-183q-37 0 -37 39v1348zM49 1622v248q0 5 1 6q4 2 6 2h64q15 0 27 -6q12 -4 22 -14q5 -5 9 -10.5t6 -11.5q5 -13 5 -27v-32q0 -19 -7 -32q-7 -15 -19 -23l29 -100v-1q0 -3 -1 -4
q-2 -2 -4 -2h-37q-2 0 -4 2l-2 5l-20 85h-28v-85q0 -7 -7 -7h-33q-7 0 -7 7zM281 1619v3l56 249q2 7 8 7h32q6 0 8 -7l55 -249q1 -1 1 -3q0 -4 -4 -4h-37q-3 0 -5 2q-3 1 -3 5l-6 37h-50l-6 -37q-1 -3 -3 -5t-5 -2h-37q-4 0 -4 4zM-60 1617q-1 1 -1 5v211h-39q-3 0 -3 1
q-2 2 -2 5v32q0 4 2 5q0 2 3 2h124q2 0 4 -2t2 -5v-32q0 -1 -2 -5q-1 -1 -4 -1h-38v-211q0 -7 -6 -7h-36q-2 0 -4 2zM456 1622v248q0 4 2 6t5 2h34q3 0 5 -2t2 -6v-210h58q6 0 6 -6v-32q0 -7 -6 -7h-99q-7 0 -7 7zM218 1622v248q0 5 2 6q2 2 5 2h33q3 0 5 -2t2 -6v-248
q0 -7 -7 -7h-33q-7 0 -7 7zM120 1752q10 0 16 6q6 7 6 17v35q0 10 -6 16q-7 7 -17 7h-23v-81h24zM378 1701l-15 96l-2 25l-2 -25l-16 -96h35z" />
    <glyph glyph-name="Idieresis" unicode="&#xcf;" horiz-adv-x="446" 
d="M97 1387q0 18 9.5 28.5t27.5 10.5h183q19 0 28 -10.5t9 -28.5v-1348q0 -39 -37 -39h-183q-37 0 -37 39v1348zM56 1608v248q0 5 1 6q4 2 6 2h64q15 0 27 -6q12 -4 22 -14q5 -5 9 -10.5t6 -11.5q5 -13 5 -27v-32q0 -19 -7 -32q-7 -15 -19 -23l29 -100v-1q0 -3 -1 -4
q-2 -2 -4 -2h-37q-2 0 -4 2l-2 5l-20 85h-28v-85q0 -7 -7 -7h-33q-7 0 -7 7zM288 1605v3l56 249q2 7 8 7h32q6 0 8 -7l55 -249q1 -1 1 -3q0 -4 -4 -4h-37q-3 0 -5 2q-3 1 -3 5l-6 37h-50l-6 -37q-1 -3 -3 -5t-5 -2h-37q-4 0 -4 4zM-53 1603q-1 1 -1 5v211h-39q-3 0 -3 1
q-2 2 -2 5v32q0 4 2 5q0 2 3 2h124q2 0 4 -2t2 -5v-32q0 -1 -2 -5q-1 -1 -4 -1h-38v-211q0 -7 -6 -7h-36q-2 0 -4 2zM463 1608v248q0 4 2 6t5 2h34q3 0 5 -2t2 -6v-210h58q6 0 6 -6v-32q0 -7 -6 -7h-99q-7 0 -7 7zM225 1608v248q0 5 2 6q2 2 5 2h33q3 0 5 -2t2 -6v-248
q0 -7 -7 -7h-33q-7 0 -7 7zM127 1738q10 0 16 6q6 7 6 17v35q0 10 -6 16q-7 7 -17 7h-23v-81h24zM385 1687l-15 96l-2 25l-2 -25l-16 -96h35z" />
    <glyph glyph-name="Ntilde" unicode="&#xd1;" horiz-adv-x="982" 
d="M92 1387q0 18 9.5 28.5t27.5 10.5h171q5 0 13 -2q1 0 2 -0.5t2 -0.5q9 -4 16.5 -11t12.5 -20l291 -793l25 -109l-5 100l-11 797q-1 16 8.5 27.5t27.5 11.5h173q13 0 24 -8t11 -30v-1350q0 -38 -39 -38h-174q-14 0 -27.5 7.5t-19.5 25.5l-283 760l-26 95l6 -100l9 -749
q2 -39 -36 -39h-171q-37 0 -37 39v1348zM336 1569v248q0 5 1 6q4 2 6 2h64q15 0 27 -6q12 -4 22 -14q5 -5 9 -10.5t6 -11.5q5 -13 5 -27v-32q0 -19 -7 -32q-7 -15 -19 -23l29 -100v-1q0 -3 -1 -4q-2 -2 -4 -2h-37q-2 0 -4 2l-2 5l-20 85h-28v-85q0 -7 -7 -7h-33q-7 0 -7 7z
M568 1566v3l56 249q2 7 8 7h32q6 0 8 -7l55 -249q1 -1 1 -3q0 -4 -4 -4h-37q-3 0 -5 2q-3 1 -3 5l-6 37h-50l-6 -37q-1 -3 -3 -5t-5 -2h-37q-4 0 -4 4zM227 1564q-1 1 -1 5v211h-39q-3 0 -3 1q-2 2 -2 5v32q0 4 2 5q0 2 3 2h124q2 0 4 -2t2 -5v-32q0 -1 -2 -5q-1 -1 -4 -1
h-38v-211q0 -7 -6 -7h-36q-2 0 -4 2zM743 1569v248q0 4 2 6t5 2h34q3 0 5 -2t2 -6v-210h58q6 0 6 -6v-32q0 -7 -6 -7h-99q-7 0 -7 7zM505 1569v248q0 5 2 6q2 2 5 2h33q3 0 5 -2t2 -6v-248q0 -7 -7 -7h-33q-7 0 -7 7zM407 1699q10 0 16 6q6 7 6 17v35q0 10 -6 16q-7 7 -17 7
h-23v-81h24zM665 1648l-15 96l-2 25l-2 -25l-16 -96h35z" />
    <glyph glyph-name="Ucircumflex" unicode="&#xdb;" horiz-adv-x="928" 
d="M335 348q0 -25 9 -48t26 -40.5t41 -28t53 -10.5q30 0 53.5 10.5t40.5 28t26 40.5t9 48v1038q0 16 8.5 28t24.5 12h189q17 0 25.5 -12.5t8.5 -27.5v-1053q0 -74 -30.5 -139t-83 -113t-122.5 -76t-149 -28t-149 28t-122.5 76t-83 113t-30.5 139v1054q0 17 8.5 28t19.5 11
h198q18 0 24 -11t6 -28v-1039zM282 1634v248q0 5 1 6q4 2 6 2h64q15 0 27 -6q12 -4 22 -14q5 -5 9 -10.5t6 -11.5q5 -13 5 -27v-32q0 -19 -7 -32q-7 -15 -19 -23l29 -100v-1q0 -3 -1 -4q-2 -2 -4 -2h-37q-2 0 -4 2l-2 5l-20 85h-28v-85q0 -7 -7 -7h-33q-7 0 -7 7zM514 1631
v3l56 249q2 7 8 7h32q6 0 8 -7l55 -249q1 -1 1 -3q0 -4 -4 -4h-37q-3 0 -5 2q-3 1 -3 5l-6 37h-50l-6 -37q-1 -3 -3 -5t-5 -2h-37q-4 0 -4 4zM173 1629q-1 1 -1 5v211h-39q-3 0 -3 1q-2 2 -2 5v32q0 4 2 5q0 2 3 2h124q2 0 4 -2t2 -5v-32q0 -1 -2 -5q-1 -1 -4 -1h-38v-211
q0 -7 -6 -7h-36q-2 0 -4 2zM689 1634v248q0 4 2 6t5 2h34q3 0 5 -2t2 -6v-210h58q6 0 6 -6v-32q0 -7 -6 -7h-99q-7 0 -7 7zM451 1634v248q0 5 2 6q2 2 5 2h33q3 0 5 -2t2 -6v-248q0 -7 -7 -7h-33q-7 0 -7 7zM353 1764q10 0 16 6q6 7 6 17v35q0 10 -6 16q-7 7 -17 7h-23v-81
h24zM611 1713l-15 96l-2 25l-2 -25l-16 -96h35z" />
    <glyph glyph-name="Udieresis" unicode="&#xdc;" horiz-adv-x="928" 
d="M335 348q0 -25 9 -48t26 -40.5t41 -28t53 -10.5q30 0 53.5 10.5t40.5 28t26 40.5t9 48v1038q0 16 8.5 28t24.5 12h189q17 0 25.5 -12.5t8.5 -27.5v-1053q0 -74 -30.5 -139t-83 -113t-122.5 -76t-149 -28t-149 28t-122.5 76t-83 113t-30.5 139v1054q0 17 8.5 28t19.5 11
h198q18 0 24 -11t6 -28v-1039zM281 1615v248q0 5 1 6q4 2 6 2h64q15 0 27 -6q12 -4 22 -14q5 -5 9 -10.5t6 -11.5q5 -13 5 -27v-32q0 -19 -7 -32q-7 -15 -19 -23l29 -100v-1q0 -3 -1 -4q-2 -2 -4 -2h-37q-2 0 -4 2l-2 5l-20 85h-28v-85q0 -7 -7 -7h-33q-7 0 -7 7zM513 1612
v3l56 249q2 7 8 7h32q6 0 8 -7l55 -249q1 -1 1 -3q0 -4 -4 -4h-37q-3 0 -5 2q-3 1 -3 5l-6 37h-50l-6 -37q-1 -3 -3 -5t-5 -2h-37q-4 0 -4 4zM172 1610q-1 1 -1 5v211h-39q-3 0 -3 1q-2 2 -2 5v32q0 4 2 5q0 2 3 2h124q2 0 4 -2t2 -5v-32q0 -1 -2 -5q-1 -1 -4 -1h-38v-211
q0 -7 -6 -7h-36q-2 0 -4 2zM688 1615v248q0 4 2 6t5 2h34q3 0 5 -2t2 -6v-210h58q6 0 6 -6v-32q0 -7 -6 -7h-99q-7 0 -7 7zM450 1615v248q0 5 2 6q2 2 5 2h33q3 0 5 -2t2 -6v-248q0 -7 -7 -7h-33q-7 0 -7 7zM352 1745q10 0 16 6q6 7 6 17v35q0 10 -6 16q-7 7 -17 7h-23v-81
h24zM610 1694l-15 96l-2 25l-2 -25l-16 -96h35z" />
    <glyph glyph-name="icircumflex" unicode="&#xee;" horiz-adv-x="440" 
d="M92 1189q0 16 11 26t26 10h182q17 0 27 -11t10 -26v-1149q0 -39 -37 -39h-182q-37 0 -37 39v1150zM41 1415v248q0 5 1 6q4 2 6 2h64q15 0 27 -6q12 -4 22 -14q5 -5 9 -10.5t6 -11.5q5 -13 5 -27v-32q0 -19 -7 -32q-7 -15 -19 -23l29 -100v-1q0 -3 -1 -4q-2 -2 -4 -2h-37
q-2 0 -4 2l-2 5l-20 85h-28v-85q0 -7 -7 -7h-33q-7 0 -7 7zM273 1412v3l56 249q2 7 8 7h32q6 0 8 -7l55 -249q1 -1 1 -3q0 -4 -4 -4h-37q-3 0 -5 2q-3 1 -3 5l-6 37h-50l-6 -37q-1 -3 -3 -5t-5 -2h-37q-4 0 -4 4zM-68 1410q-1 1 -1 5v211h-39q-3 0 -3 1q-2 2 -2 5v32
q0 4 2 5q0 2 3 2h124q2 0 4 -2t2 -5v-32q0 -1 -2 -5q-1 -1 -4 -1h-38v-211q0 -7 -6 -7h-36q-2 0 -4 2zM448 1415v248q0 4 2 6t5 2h34q3 0 5 -2t2 -6v-210h58q6 0 6 -6v-32q0 -7 -6 -7h-99q-7 0 -7 7zM210 1415v248q0 5 2 6q2 2 5 2h33q3 0 5 -2t2 -6v-248q0 -7 -7 -7h-33
q-7 0 -7 7zM112 1545q10 0 16 6q6 7 6 17v35q0 10 -6 16q-7 7 -17 7h-23v-81h24zM370 1494l-15 96l-2 25l-2 -25l-16 -96h35z" />
    <glyph glyph-name="idieresis" unicode="&#xef;" horiz-adv-x="440" 
d="M92 1189q0 16 11 26t26 10h182q17 0 27 -11t10 -26v-1149q0 -39 -37 -39h-182q-37 0 -37 39v1150zM41 1412v248q0 5 1 6q4 2 6 2h64q15 0 27 -6q12 -4 22 -14q5 -5 9 -10.5t6 -11.5q5 -13 5 -27v-32q0 -19 -7 -32q-7 -15 -19 -23l29 -100v-1q0 -3 -1 -4q-2 -2 -4 -2h-37
q-2 0 -4 2l-2 5l-20 85h-28v-85q0 -7 -7 -7h-33q-7 0 -7 7zM273 1409v3l56 249q2 7 8 7h32q6 0 8 -7l55 -249q1 -1 1 -3q0 -4 -4 -4h-37q-3 0 -5 2q-3 1 -3 5l-6 37h-50l-6 -37q-1 -3 -3 -5t-5 -2h-37q-4 0 -4 4zM-68 1407q-1 1 -1 5v211h-39q-3 0 -3 1q-2 2 -2 5v32
q0 4 2 5q0 2 3 2h124q2 0 4 -2t2 -5v-32q0 -1 -2 -5q-1 -1 -4 -1h-38v-211q0 -7 -6 -7h-36q-2 0 -4 2zM448 1412v248q0 4 2 6t5 2h34q3 0 5 -2t2 -6v-210h58q6 0 6 -6v-32q0 -7 -6 -7h-99q-7 0 -7 7zM210 1412v248q0 5 2 6q2 2 5 2h33q3 0 5 -2t2 -6v-248q0 -7 -7 -7h-33
q-7 0 -7 7zM112 1542q10 0 16 6q6 7 6 17v35q0 10 -6 16q-7 7 -17 7h-23v-81h24zM370 1491l-15 96l-2 25l-2 -25l-16 -96h35z" />
    <glyph glyph-name="mu" unicode="&#xb5;" horiz-adv-x="941" 
d="M103 1187q0 38 37 38h183q37 0 37 -38v-829q0 -27 8.5 -53t24.5 -46.5t40 -33t56 -12.5q52 0 80.5 35t30.5 83v855q0 20 9.5 29.5t23.5 9.5h188q14 0 24 -9.5t10 -29.5v-833q0 -78 -18.5 -146.5t-57 -119.5t-96.5 -80.5t-137 -29.5q-53 0 -99.5 22t-86.5 60v-383
q0 -39 -36 -39h-184q-37 0 -37 39v1511z" />
    <glyph glyph-name="periodcentered" unicode="&#xb7;" horiz-adv-x="380" 
d="M80 663q0 19 10 28t21 9h192q20 0 26.5 -13t6.5 -24v-166q0 -21 -12.5 -29t-19.5 -8h-192q-8 0 -20 7t-12 29v167z" />
    <glyph glyph-name="Ccedilla" unicode="&#xc7;" horiz-adv-x="886" 
d="M69 1092q0 76 28 141.5t78.5 113.5t121.5 75t157 27q96 0 166 -31t115.5 -82t68 -116t22.5 -133v-99q0 -24 -7 -34t-27 -10h-186q-19 0 -26 9t-6 31v94q0 24 -8.5 46.5t-24.5 40.5t-39 29t-51 11q-29 0 -52 -10t-39.5 -27t-25.5 -39.5t-9 -47.5v-732q0 -25 9 -48t26 -41
t41 -28.5t53 -10.5t52 10.5t39 28.5t24.5 41t8.5 48v122q0 23 7.5 31.5t24.5 8.5h187q19 0 26.5 -7.5t7.5 -30.5v-139q0 -84 -29.5 -150t-80.5 -112t-119.5 -70.5t-147.5 -24.5t-149 24.5t-122.5 70.5t-83 112.5t-30.5 149.5v758v0zM339 -320v248q0 5 1 6q4 2 6 2h64
q15 0 27 -6q12 -4 22 -14q5 -5 9 -10.5t6 -11.5q5 -13 5 -27v-32q0 -19 -7 -32q-7 -15 -19 -23l29 -100v-1q0 -3 -1 -4q-2 -2 -4 -2h-37q-2 0 -4 2l-2 5l-20 85h-28v-85q0 -7 -7 -7h-33q-7 0 -7 7zM571 -323v3l56 249q2 7 8 7h32q6 0 8 -7l55 -249q1 -1 1 -3q0 -4 -4 -4h-37
q-3 0 -5 2q-3 1 -3 5l-6 37h-50l-6 -37q-1 -3 -3 -5t-5 -2h-37q-4 0 -4 4zM230 -325q-1 1 -1 5v211h-39q-3 0 -3 1q-2 2 -2 5v32q0 4 2 5q0 2 3 2h124q2 0 4 -2t2 -5v-32q0 -1 -2 -5q-1 -1 -4 -1h-38v-211q0 -7 -6 -7h-36q-2 0 -4 2zM746 -320v248q0 4 2 6t5 2h34q3 0 5 -2
t2 -6v-210h58q6 0 6 -6v-32q0 -7 -6 -7h-99q-7 0 -7 7zM508 -320v248q0 5 2 6q2 2 5 2h33q3 0 5 -2t2 -6v-248q0 -7 -7 -7h-33q-7 0 -7 7zM410 -190q10 0 16 6q6 7 6 17v35q0 10 -6 16q-7 7 -17 7h-23v-81h24zM668 -241l-15 96l-2 25l-2 -25l-16 -96h35z" />
    <glyph glyph-name="degree" unicode="&#xb0;" horiz-adv-x="593" 
d="M63 1238q0 42 18 79t49.5 65t74 44t91.5 16q48 0 91 -16t74.5 -43.5t50 -65t18.5 -79.5v-296q0 -42 -18.5 -79.5t-50 -65t-74.5 -43.5t-91 -16q-49 0 -91.5 16t-74 43.5t-49.5 65t-18 79.5v296zM222 966q0 -34 22 -55.5t52 -21.5q32 0 53 21.5t21 55.5v248q0 34 -21 55
t-53 21q-31 0 -52.5 -21t-21.5 -55v-248z" />
    <glyph glyph-name="Ydieresis" unicode="&#x178;" horiz-adv-x="865" 
d="M305 561l-283 822q-7 20 -1 31.5t23 11.5h203q14 0 26 -7.5t17 -28.5l129 -538l14 -148l14 148l131 538q4 20 15.5 28t25.5 8h206q17 0 23 -11.5t-1 -30.5l-286 -826v-519q0 -39 -30 -39h-195q-31 0 -31 39v522zM259 1601v248q0 5 1 6q4 2 6 2h64q15 0 27 -6
q12 -4 22 -14q5 -5 9 -10.5t6 -11.5q5 -13 5 -27v-32q0 -19 -7 -32q-7 -15 -19 -23l29 -100v-1q0 -3 -1 -4q-2 -2 -4 -2h-37q-2 0 -4 2l-2 5l-20 85h-28v-85q0 -7 -7 -7h-33q-7 0 -7 7zM491 1598v3l56 249q2 7 8 7h32q6 0 8 -7l55 -249q1 -1 1 -3q0 -4 -4 -4h-37q-3 0 -5 2
q-3 1 -3 5l-6 37h-50l-6 -37q-1 -3 -3 -5t-5 -2h-37q-4 0 -4 4zM150 1596q-1 1 -1 5v211h-39q-3 0 -3 1q-2 2 -2 5v32q0 4 2 5q0 2 3 2h124q2 0 4 -2t2 -5v-32q0 -1 -2 -5q-1 -1 -4 -1h-38v-211q0 -7 -6 -7h-36q-2 0 -4 2zM666 1601v248q0 4 2 6t5 2h34q3 0 5 -2t2 -6v-210
h58q6 0 6 -6v-32q0 -7 -6 -7h-99q-7 0 -7 7zM428 1601v248q0 5 2 6q2 2 5 2h33q3 0 5 -2t2 -6v-248q0 -7 -7 -7h-33q-7 0 -7 7zM330 1731q10 0 16 6q6 7 6 17v35q0 10 -6 16q-7 7 -17 7h-23v-81h24zM588 1680l-15 96l-2 25l-2 -25l-16 -96h35z" />
    <glyph glyph-name="plusminus" unicode="&#xb1;" horiz-adv-x="643" 
d="M390 904q14 0 22.5 -9.5t8.5 -18.5v-140h141q11 0 19.5 -8t8.5 -22v-140q0 -13 -10 -21t-19 -8h-140v-142q0 -11 -8 -19.5t-22 -8.5h-140q-13 0 -21 9.5t-8 19.5v141h-142q-6 0 -16.5 7t-10.5 22v139q0 14 9.5 22.5t18.5 8.5h141v141q0 6 7 16.5t22 10.5h139zM53 245
q0 14 9.5 22.5t18.5 8.5h481q11 0 19.5 -8t8.5 -22v-140q0 -13 -10 -21t-19 -8h-481q-6 0 -16.5 7t-10.5 22v139z" />
    <glyph glyph-name="guillemotright" unicode="&#xbb;" horiz-adv-x="916" 
d="M486 564q0 -6 -2 -9.5t-7 -10.5l-266 -369q-4 -6 -11.5 -9t-17.5 5l-121 95q-17 14 -3 33l197 264l-197 265q-5 7 -6 17.5t7 16.5l123 97q9 8 17 5t12 -9l266 -370q5 -6 7 -9.5t2 -11.5zM873 564q0 -6 -2.5 -9.5t-6.5 -10.5l-267 -369q-4 -6 -11 -9t-18 5l-122 95
q-7 6 -8 15t6 18l198 265l-197 264q-6 7 -6.5 17.5t7.5 16.5l122 97q10 8 18 5t11 -9l266 -370q5 -6 7.5 -9.5t2.5 -11.5z" />
    <glyph glyph-name="guillemotleft" unicode="&#xab;" horiz-adv-x="916" 
d="M421 564q0 8 2 11.5t7 9.5l267 370q3 6 11 9t17 -5l123 -97q8 -6 7.5 -16.5t-6.5 -17.5l-198 -265l199 -264q7 -9 5.5 -18t-9.5 -15l-121 -95q-10 -8 -17.5 -5t-11.5 9l-266 369q-4 7 -6.5 10.5t-2.5 9.5zM35 564q0 8 2 11.5t7 9.5l266 370q3 6 11 9t18 -5l122 -97
q8 -6 7.5 -16.5t-6.5 -17.5l-197 -264l198 -265q7 -9 6 -18t-8 -15l-122 -95q-11 -8 -18 -5t-11 9l-267 369l-6 10.5t-2 9.5z" />
    <glyph glyph-name="uni00AD" unicode="&#xad;" horiz-adv-x="601" 
d="M89 731q0 23 10 34t21 11h364q32 0 32 -43v-119q0 -20 -10 -30.5t-26 -10.5h-360q-10 0 -20.5 10t-10.5 31v117z" />
    <glyph glyph-name="ordmasculine" unicode="&#xba;" horiz-adv-x="622" 
d="M59 1229q0 46 19.5 86t53.5 70t80 47t98 17t98 -17t80.5 -47t54 -70t19.5 -86v-289q0 -46 -19.5 -86t-54 -70t-80.5 -47.5t-98 -17.5t-98 17.5t-80 47.5t-53.5 70t-19.5 86v289zM238 959q0 -32 21.5 -53t50.5 -21q31 0 52 21t21 53v251q0 33 -21 54t-52 21q-30 0 -51 -21
t-21 -54v-251zM69 627q0 14 10 22.5t18 8.5h437q9 0 18 -7.5t9 -21.5v-97q0 -13 -10 -21t-18 -8h-437q-5 0 -16 6.5t-11 22.5v95z" />
    <glyph glyph-name="ordfeminine" unicode="&#xaa;" horiz-adv-x="643" 
d="M551 842q0 -26 -22 -26h-143q-11 0 -15.5 6.5t-9.5 17.5l-10 20q-15 -26 -36 -41.5t-49 -15.5q-57 0 -97 19t-65.5 50.5t-37 72t-11.5 84.5v181q0 52 13.5 95t39.5 73.5t64.5 47t88.5 16.5q32 0 55 -17t38 -45l9 23q6 17 11.5 21.5t22.5 4.5h132q22 0 22 -27v-560z
M74 695q0 14 10 22t18 8h455q9 0 18.5 -7.5t9.5 -21.5v-97q0 -13 -10.5 -20.5t-18.5 -7.5h-456q-5 0 -15.5 6.5t-10.5 21.5v96zM361 1199q-2 37 -21.5 62t-45.5 25q-34 0 -50 -27t-16 -73v-126q0 -50 18.5 -69.5t44.5 -19.5q17 0 30 7.5t22 20t13.5 28.5t4.5 34v138z" />
    <glyph glyph-name="onehalf" unicode="&#xbd;" 
d="M2323 1024v-550h-2254v550h854q0 28 5 55t19 50q11 27 24.5 49t34.5 39q35 38 86 58q25 11 51 16t53 5q31 0 58 -6t50 -15q26 -13 48 -27.5t42 -34.5q33 -35 57 -88q18 -50 18 -101h854zM966 1119q-19 -44 -19 -95q0 -55 19 -99q9 -20 22.5 -40.5t28.5 -39.5
q18 -17 38 -30.5t43 -23.5q45 -21 98 -21q29 0 53 4.5t45 14.5q23 10 42.5 23.5t35.5 30.5q20 18 33 38t24 41q20 49 20 102q0 20 -3.5 42t-11.5 44q-13 37 -40 68q-13 18 -27.5 31t-32.5 24q-17 7 -35 16.5t-37 16.5q-14 3 -30.5 6t-35.5 3q-27 0 -52 -5.5t-48 -17.5
q-46 -17 -79 -54q-17 -17 -29.5 -37t-21.5 -42zM1070 877l295 298q29 -37 43.5 -75t14.5 -76q0 -22 -3 -42t-11 -39q-7 -18 -16.5 -34.5t-21.5 -31.5h-301zM1026 870q-26 33 -41 71q-8 17 -11 38t-3 45q0 18 3 37.5t11 39.5q4 18 13.5 33.5t23.5 30.5h299zM2058 194
q3 -4 5.5 -10t4.5 -13q4 -8 4 -14v-29q0 -7 -4 -11q-2 -7 -4.5 -14t-5.5 -13q-6 -9 -15 -19q-6 -5 -11.5 -9.5t-12.5 -8.5q-5 -5 -11.5 -7t-12.5 -4t-13 -2h-16q-19 0 -40 6q-8 6 -15.5 12t-15.5 13q-8 6 -13.5 13.5t-7.5 19.5q-6 9 -7.5 18.5t-1.5 21.5q0 8 1 13.5t1 13.5
q3 7 6 13t7 10q2 8 5.5 12.5t9.5 10.5q3 4 9.5 8t11.5 9q4 2 10.5 4t12.5 6q10 0 15.5 1t11.5 1q9 0 16 -1t13 -1q6 -4 12.5 -6t11.5 -4q7 -5 12.5 -9t11.5 -8q2 -6 7.5 -10.5t7.5 -12.5zM1064 194q2 -4 4 -10t5 -13q2 -8 2 -14v-29q0 -7 -2 -11q-3 -7 -5 -14t-4 -13
q-5 -4 -9.5 -9.5t-8.5 -9.5q-5 -5 -10 -9.5t-10 -8.5q-7 -5 -13.5 -7t-12.5 -4q-7 -2 -14 -2h-15q-9 0 -18.5 2t-21.5 4q-11 6 -17.5 12t-15.5 13q-15 13 -21 33q-3 9 -5 18.5t-2 21.5v13q0 6 2 14q4 16 11 23q4 8 7.5 12.5t7.5 10.5q7 4 11.5 8t10.5 9q5 2 11 4t16 6
q4 0 10.5 1t13.5 1q8 0 15 -1t14 -1q6 -4 12.5 -6t13.5 -4q5 -5 10 -9l10 -8q4 -6 8.5 -10.5t9.5 -12.5zM2281 244l1 1q1 1 6 1h35v-206h-35v150q-1 0 -2 -2.5t-3 -6.5v-6q0 -3 -2 -4q-6 -15 -12.5 -32.5t-14.5 -30.5q-6 -18 -11.5 -33.5t-13.5 -34.5h-34l-52 131
q-5 3 -5 10q0 4 -1 4l-2 2v-147h-39v206h37q5 0 6.5 -1t3.5 -1q2 -2 3 -2t3 -2l7 -4q0 -2 2 -3.5t2 -3.5q4 -16 10.5 -30t14.5 -32q6 -15 11.5 -30.5t11.5 -28.5v-12q2 0 4 -4q0 4 1 4v12l9 13l42 108q0 2 2 3l2 4q0 2 2 3l3 1q2 2 4 2t4 2zM1246 246h36v-206h-34l-94 138
l-4 3v2q-3 4 -3 5q-4 2 -4 4t-1 3t-4 1v-156h-36v206h32q4 0 8.5 -1t4.5 -3q3 -2 5 -2t4 -2l21 -31q10 -15 19 -33q13 -13 23 -27.5t23 -27.5q0 -2 1 -4.5t1 -6.5l1 -2l1 -3v143zM630 246l88 -206h-23q-8 0 -15 4q-2 2 -4 6.5t-6 8.5l-12 25h-94l-9 -25q0 -4 -1 -5t-3 -1
q-2 -5 -4 -5l-3 -4q-2 0 -3.5 -1t-5.5 -1q0 -2 -2 -2h-26l90 206h33zM244 246h130v-37h-94v-46h77v-38h-77v-48h94v-37h-130v206zM69 246h149v-23q0 -2 -1 -5q0 -3 -2 -5l-4 -4l-99 -134h1l2 2h102v-37h-155v13q0 9 2 11q0 2 5 7v4l2 4q2 2 4 3.5t2 5.5l88 121h-96v37z
M786 618q1 6 2 10t1 9q0 12 -3 21q0 5 -3.5 8.5t-5.5 9.5q-4 6 -11 13l-7 6q-2 3 -8 8l-8 4q-4 2 -10 4q-4 0 -8.5 0.5t-10.5 0.5q-3 0 -8 -0.5t-11 -0.5q-6 -2 -9.5 -4t-7.5 -4q-4 -5 -7.5 -7.5t-7.5 -6.5q-5 -4 -8 -6.5t-4 -6.5q-4 -6 -5 -9.5t-3 -8.5q-2 -9 -2 -21
q0 -5 2 -13t4 -14q2 -7 6.5 -12.5t9.5 -11.5q5 -7 11 -10.5t13 -3.5q11 -6 27 -6h19q12 4 18 8q11 5 15 12q6 6 11 15q2 4 5.5 8.5t3.5 8.5zM1843 618v40q-4 9 -7 18q-4 6 -14 13q-1 4 -5.5 6.5t-8.5 7.5q-3 2 -9 4l-7 4q-6 0 -10.5 0.5t-9.5 0.5q-6 0 -10.5 -0.5t-8.5 -0.5
q-11 -4 -20 -8q-3 -5 -6 -7.5t-7 -6.5q-3 -4 -6 -6.5t-5 -6.5q-2 -6 -4.5 -9.5t-2.5 -8.5q-5 -9 -5 -21q0 -5 2.5 -13t5.5 -14q4 -15 15 -24q4 -7 9.5 -10.5t14.5 -3.5q11 -6 28 -6h20q3 2 8 4t8 4q4 3 8.5 5.5t5.5 6.5q10 6 14 15q3 7 7 17zM1724 190q-7 -7 -13 -23
q-2 -4 -4 -9.5t-2 -13.5t2 -13.5t4 -11.5q2 -7 5.5 -13.5t7.5 -9.5q4 -4 9.5 -8t12.5 -7q7 -2 12.5 -3t13.5 -1q5 0 9.5 1t10.5 1q3 2 8 4.5t8 6.5q4 0 8 2h12q4 0 8 -2q3 -2 7 -6l6 -7q-6 -8 -13 -15q-6 -3 -10.5 -6t-11.5 -6q-6 -4 -10.5 -5t-10.5 -3q-5 -2 -11 -2h-10
q-11 0 -22 2t-20 4q-19 9 -33 25q-15 13 -21 33q-4 9 -6.5 18.5t-2.5 21.5q0 8 1 13.5t3 13.5q1 7 3 13t6 10q6 8 8.5 12.5t8.5 10.5l12 8q6 4 11 9q4 2 9 4l17 6q5 0 11.5 1t14.5 1h12q4 0 9 -2q6 -2 10.5 -3t10.5 -3q7 -4 11.5 -6.5t10.5 -6.5q7 -8 13 -16l-6 -7
q-4 -2 -5 -4l-2 -4h-14q-4 0 -7 1t-7 3q-3 2 -8 4.5t-8 4.5q-6 2 -11 2h-9q-15 0 -26 -6q-7 -1 -12.5 -4t-9.5 -9zM1584 141q4 -5 7 -9t3 -7q2 -4 3.5 -8.5t1.5 -10.5q0 -14 -7 -27l-8 -12q-3 -5 -8 -8q-6 -6 -10.5 -9.5t-12.5 -5.5q-5 -2 -13 -3t-14 -1q-7 0 -13.5 1
t-17.5 3q-5 2 -10 6.5t-10 11.5q-4 2 -6 5l-4 8q-6 2 -6 9l6 4q2 2 4 2h4l2 2h9q4 0 4 -2q7 0 9 -2q5 -4 8.5 -5.5t5.5 -3.5q2 0 6 -1t9 -1h5q3 0 6 2q7 2 13 5q5 4 7 8t4 7t2 7q0 6 -6 9q-4 6 -7 6q-2 4 -6.5 5t-6.5 2q-5 0 -13 6q-5 0 -9 1t-9 6q-9 3 -12.5 6t-7.5 7
q-6 2 -8.5 5.5t-2.5 7.5q-6 11 -6 23q0 17 6 25q2 6 5 10l8 9q4 2 9 4t12 6q6 0 10.5 1t12.5 1q4 0 8 -1t10 -1q5 -2 7 -3t8 -3q3 -4 6 -6.5t7 -6.5q3 -2 6.5 -5t3.5 -7l-7 -4l-6 -4q-3 -2 -3 -3h-17l-5 1q-4 2 -6 4q-2 0 -3.5 1t-3.5 1h-16q-2 0 -3 -1t-5 -3q-2 -2 -6 -5
q-1 -4 -1 -10q0 -5 1 -5q2 -2 3 -4.5t3 -6.5h6q2 0 5 -2q4 -1 8.5 -3t9.5 -4l8 -2q5 -4 9 -5t9 -4q10 -4 16 -13zM1480 315q-11 7 -15 19q-6 14 -6 29v15q6 10 10 18q4 5 11 13q6 7 12 9q3 5 8.5 6t8.5 3q4 0 8 1.5t9 1.5q4 0 10 -1.5t10 -1.5q4 -2 7.5 -3t7.5 -6
q2 -2 5.5 -4.5t5.5 -4.5q4 -4 6.5 -7t5.5 -6q4 -8 8 -18q0 -4 1 -8.5t1 -6.5q0 -6 -1 -13.5t-5 -15.5q-2 -6 -6 -10.5t-10 -8.5q-4 -4 -8.5 -7.5t-11.5 -8.5q-8 -2 -26 -2h-14q-6 0 -10 2q-16 5 -22 16zM2030 119q5 11 5 25q0 8 -1.5 13.5t-3.5 9.5q-2 9 -6.5 14.5t-7.5 8.5
q-10 10 -23 13q-4 4 -11 5t-16 1q-11 0 -24 -6q-7 -1 -11.5 -4t-10.5 -9q-4 -3 -7.5 -8.5t-7.5 -14.5q0 -4 -1 -9.5t-1 -13.5t1 -13.5t1 -11.5q7 -15 15 -23q6 -4 10.5 -8t11.5 -7q7 -2 13.5 -3t10.5 -1q9 0 16 1t11 3q8 3 13.5 7t9.5 8q10 10 14 23zM2141 315
q-6 -4 -12 -7.5t-11 -8.5q-6 -2 -12 -2h-28q-6 0 -12 2q-12 5 -21 16q-4 4 -7 8.5t-6 10.5q-2 8 -4 15.5t-2 13.5q0 2 1 6.5t1 8.5q2 4 3 9t4 9q2 3 5 6t5 7q3 2 7 4.5t9 4.5q3 5 8 6t7 3q5 0 8 1.5t10 1.5q2 0 7.5 -1.5t10.5 -1.5q4 -2 7.5 -3t5.5 -6q4 -2 8.5 -4.5
t7.5 -4.5q2 -4 4 -7l4 -6q5 -8 7 -18q2 -4 3 -8.5t1 -6.5q0 -6 -1 -13.5t-5 -15.5q0 -6 -5 -11zM1035 119q2 6 3 11.5t1 13.5q0 12 -4 23q-2 9 -6.5 14.5t-11.5 8.5q-2 6 -7.5 9t-11.5 4q-11 6 -27 6q-13 0 -24 -6q-6 -1 -11 -4t-11 -9q-5 -3 -8 -8.5t-5 -14.5q-5 -4 -5 -10
v-27q0 -5 5 -11q2 -7 5 -13.5t8 -9.5q6 -4 11 -8t11 -7q5 -2 11 -3t13 -1q8 0 15 1t12 3q6 3 11.5 7t7.5 8q7 3 11.5 9.5t6.5 13.5zM726 246h130v-37h-94v-52h77v-36h-77v-81h-36v206zM535 209h-55v-169h-40v169h-59v37h154v-37zM1302 246h155v-37h-61v-169h-37v169h-57v37z
M1281 1233q16 -8 33.5 -19.5t33.5 -21.5h-304q33 27 70 41q36 17 82 17t85 -17zM1114 810q-18 7 -35 18t-33 24h302q-16 -13 -33.5 -24t-33.5 -18q-22 -6 -43 -10.5t-42 -4.5q-23 0 -42.5 4.5t-39.5 10.5zM524 566l-44 64q2 0 4.5 1t6.5 3q6 3 8 9q3 2 5.5 5t2.5 6v24
q0 2 -2 5q-3 8 -10 14q-4 8 -13 8q-2 4 -6.5 5t-8.5 1h-53v-145h22v60h22l37 -52q2 -4 7 -6q1 -2 3 -2h19zM1096 566l-63 145h-20l-62 -145h11q7 0 9 2q0 2 1 3t5 3l10 25h72l11 -25q2 -4 5 -6q2 -2 8 -2h13zM1810 676q2 -2 6.5 -7.5t5.5 -10.5q2 -4 3 -9.5t1 -11.5
q0 -11 -4 -21q-1 -4 -6 -9l-6 -6q-5 -4 -9 -6.5t-8 -6.5q-9 -4 -21 -4q-6 0 -11.5 1t-9.5 3q-5 4 -9.5 6.5t-8.5 6.5q-3 2 -6 6.5t-3 8.5q-4 6 -5 11t-1 10q0 10 6 21q0 5 3 10.5t6 7.5q4 4 8.5 6.5t9.5 4.5q10 4 21 4q5 0 10.5 -1t10.5 -3q4 -2 8 -4.5t9 -6.5zM751 676
q6 -2 8.5 -7.5t4.5 -10.5q2 -4 3 -9.5t1 -11.5q0 -5 -1 -10t-3 -11q-2 -4 -4.5 -8.5t-8.5 -6.5q-2 -4 -5.5 -6.5t-10.5 -6.5q-4 -2 -9.5 -3t-11.5 -1q-9 0 -21 4q-4 4 -8.5 6.5t-8.5 6.5q-2 2 -5.5 6.5t-5.5 8.5q-2 6 -3 11t-1 10q0 10 4 21q2 5 5.5 10.5t5.5 7.5
q4 4 8.5 6.5t8.5 4.5q5 2 11.5 3t9.5 1q12 0 21 -4q7 -2 10.5 -4.5t5.5 -6.5zM277 647q5 11 5 18q0 5 -1 9t-4 9q0 2 -4 6l-6 6q-2 3 -5 6.5t-9 3.5q-2 4 -7.5 5t-9.5 1h-49v-145h16v55h33q4 0 9.5 0.5t7.5 2.5q10 4 14 10q4 2 7 5.5t3 7.5zM2079 311h29l6 3q2 1 4 5
q2 0 5.5 1.5t7.5 3.5l3 6q1 2 4 4q0 3 2.5 7.5t2.5 8.5v32q-2 6 -6 10t-6 7q-6 2 -9.5 5t-7.5 7h-40q-6 -4 -9.5 -7t-8.5 -5q-4 -3 -6.5 -7t-4.5 -10t-2 -12v-20q0 -4 1 -8.5t4 -7.5l4 -4q2 -2 4 -6l6 -3q2 -2 4 -2q4 -4 7 -5t6 -3zM1993 711h-20v-112q-1 2 -2 5t-3 4
l-70 97l-3 6h-23v-145h21v114l2 -2l82 -112h16v145zM1480 382q-3 -6 -4 -11.5t-1 -7.5v-8q0 -3 2 -5q0 -8 5 -16q0 -2 2 -4t4 -6l5 -3q2 -2 9 -2q2 -4 5.5 -5t5.5 -3h26q5 2 8 3t6 5q2 0 6 2l4 3q2 4 4.5 6t2.5 4q2 3 3 7.5t3 8.5q0 2 1 5.5t1 7.5q0 2 -1 7.5t-5 11.5
q0 6 -3.5 10t-5.5 7q-4 2 -8 6l-9 6h-40q-4 -4 -9 -7t-9 -5q-2 -3 -5 -7t-3 -10zM935 711h-17v-112l-2 4q-2 4 -2 5l-69 97q-4 0 -6 6h-23v-145h19v117h2l2 -1v-4l81 -112h15v145zM1982 357q-7 -2 -12 -4l42 -56h-11q-2 0 -6 2q-2 0 -3 1.5t-1 5.5l-36 47h-26v-56h-15v130
h54q4 0 9 -2q2 -2 5.5 -4.5t4.5 -4.5q4 -2 5 -5.5t7 -7.5v-25q-4 -4 -5 -7.5t-3 -5.5zM1259 357q-2 -2 -11 -4l44 -56h-14q-3 0 -3 2q-2 0 -4 1.5t-2 5.5l-36 47h-26v-56h-13v130h53q3 0 6 -2q9 -2 16 -9q0 -2 3 -5.5t3 -7.5q2 -2 2 -6v-13q0 -3 -2 -6q0 -4 -1 -7.5t-3 -5.5
l-5 -4q-2 -2 -7 -4zM386 711h-91v-145h91v20h-69v44h55v17h-55v42h69v22zM1614 711h-88v-145h88v20h-66v44h55v17h-55v42h66v22zM2306 425q4 2 5 2h12v-130h-11v106l-2 -2v-2q-4 -7 -6.5 -16t-7.5 -13q-4 -7 -6 -12.5t-7 -13.5q-2 -8 -3 -14t-5 -9q-3 -8 -6 -12.5t-5 -11.5
h-14q-9 12 -14 24.5t-10 26.5q-4 11 -11 24.5t-11 26.5v2h-4v-104h-13v130h13q4 0 6 -2l2 -2v-5l46 -99q0 -4 2 -4l1 2v4q0 1 7 5l38 92q2 5 3 5t1 2zM1387 711h-20v-97q0 -4 -2 -7q-2 -8 -9 -12q0 -2 -4 -3.5t-6 -5.5l-8 -2h-8q-9 0 -13 2q-5 4 -8 5.5t-5 3.5t-4.5 5
t-5.5 7q0 3 -1 7t-1 10v87h-19v-87q0 -6 1 -10t1 -7q0 -8 6 -14q3 -7 9 -11q2 -3 4.5 -5.5t7.5 -4.5q2 -2 6 -3t7 -3q4 0 7 -1t8 -1q4 0 7.5 1t10.5 1q2 2 5 3t6 3q6 4 12 10q3 2 5 5t5 6q0 4 3 7t3 7v104zM622 592q2 5 3 8t1 8q0 10 -5 18t-11 13q-2 0 -3.5 2t-5.5 4l-4 2
h-4q-1 0 -1 4q-6 0 -8 1q-7 2 -8.5 3t-5.5 3q-6 3 -8 3q-3 4 -3 6v15q0 1 1.5 2t1.5 3q2 0 4 1t4 1q4 2 5 2h9q2 -2 4 -2q5 0 7 -4q2 -2 4 -2h2q9 0 13 4l4 2q0 2 -2 4l-4 4q-2 1 -4.5 3.5t-6.5 4.5q-2 0 -4 2t-5 4q-4 0 -6 0.5t-4 0.5q-6 0 -11 -0.5t-7 -0.5q-5 -2 -7 -4
t-6 -4q-2 -5 -5.5 -7.5t-6.5 -6.5q0 -4 -2 -6.5t-2 -8.5q0 -4 1 -7.5t3 -8.5q3 -4 5 -7l5 -4q2 -2 6 -5t7 -3l7 -4q3 -1 7 -1q1 -2 5.5 -2t6.5 -2l5 -2q2 0 4 -2t2 -3t2 -5q2 -2 2 -6v-9q0 -2 -2 -4t-2 -4t-2 -3q-2 -4 -6 -5l-3 -1q-4 0 -7.5 -1t-4.5 -1q-4 0 -7 1t-5 1
t-3.5 1t-1.5 5l-4 1q-4 4 -11 4h-5l-4 -2l-5 -2q0 -3 3 -3q0 -2 2 -4q0 -4 4 -4v-5h3q7 -7 15.5 -9t18.5 -2h8q6 0 11 2q4 2 8.5 4t6.5 5q4 2 7.5 5.5t4.5 9.5zM1497 592q7 7 7 16q0 10 -4.5 18t-11.5 13q-6 4 -6 6h-4q-1 0 -3 2h-3q-3 0 -5 4h-4q-1 0 -4 1q-2 2 -4 3l-6 3
l-7 3q-4 2 -5 4l-1 2q0 1 -1 3t-1 4q0 4 4 8q0 1 4 5q2 0 3 1t4 1q2 2 10 2l3 -1q3 -1 5 -1q2 -2 8 -4q5 -2 7 -2q6 0 8 4l5 2q0 2 -2.5 4t-4.5 4q0 1 -3 3.5t-5 4.5q-3 0 -5 2t-6 4h-6l-4 1q-6 0 -9.5 -0.5t-7.5 -0.5l-13 -8l-6 -8q-2 -2 -5 -6q-1 -4 -3 -6.5t-2 -8.5
q0 -4 2 -7.5t3 -8.5q5 -7 9 -11q4 -2 6.5 -5t6.5 -3q4 -2 7.5 -3.5t5.5 -1.5q4 -2 6.5 -2t5.5 -2q2 0 5 -1t5 -3t3.5 -3t1.5 -5q2 -2 2 -5v-9q0 -3 -2 -5q0 -6 -5 -7q-6 -4 -7 -5t-3 -1q-6 0 -7 -1t-5 -1q-2 0 -5.5 1t-5.5 1q-4 2 -8 6l-2 1q-5 4 -9 4h-6q-2 0 -4 -2l-6 -2
q2 -1 2 -2t2 -1q0 -2 1 -3l3 -3v-2q6 -5 8 -5q6 -7 13.5 -9t16.5 -2h11q5 0 11 2q2 2 5.5 4t7.5 5l5 7q2 2 4 8zM1632 297h-16v130h18q2 0 4 -4l69 -97q2 0 2 -4l2 -1v106h13v-130h-11l-77 106v4h-4v-110zM73 328q-4 4 -5 7.5t-2 8.5q-2 6 -3 9.5t-1 9.5q0 5 4 15q1 4 2 9
t5 9l4 6q2 3 5 7q2 2 6 4.5t6 4.5q5 5 9.5 6t8.5 3q3 0 8 1.5t10 1.5q6 0 13 -1.5t13 -5.5q7 -2 11.5 -5.5t8.5 -8.5q-2 -2 -4 -2v-4h-13q-3 2 -6 5t-7 3h-34q-6 -4 -11 -7t-9 -5q-4 -3 -7 -7t-4 -10q-2 -6 -3 -11.5t-1 -7.5q0 -8 4 -13q0 -4 0.5 -8.5t0.5 -7.5l4 -4
q4 -2 6 -6l7 -4q3 -1 7 -1q2 -4 4.5 -5t6.5 -3h31q2 2 6.5 3t8.5 5v27h-13v2q-2 0 -3 1l-3 3h-2q-1 1 -1 3v4h35v-48q-2 -5 -3.5 -6t-5.5 -6h-11q-6 -2 -12 -2h-32q-4 0 -8.5 2.5t-9.5 6.5q-2 0 -6 2.5t-6 6.5q-3 4 -5 6.5t-4 6.5zM225 411v-41h52v-15h-52v-44h63v-14h-79
v130h79v-16h-63zM1098 411v-41h56v-15h-56v-44h64v-14h-79v130h79v-16h-64zM2226 711h-18q-4 0 -8 -4q-5 -4 -5 -9l-35 -44h-2q0 -2 -2 -2v2l-36 44q-2 7 -4 9q-4 4 -11 4h-16l54 -72v-2q0 -1 2 -1l2 -2v-68h20v66q2 0 2 2l2 3v2zM2112 586h-64v125h-20v-145h84v20zM601 427
v-79q0 -6 2 -9t5 -5q0 -6 3 -9t5 -4q0 -2 4 -4t6 -4q4 -2 8 -2h15q2 0 5 2q4 2 7.5 4t6.5 4q2 1 4 4t4 9q4 3 4 14v79h13v-79q0 -6 -1 -11t-3 -11q-2 -5 -4.5 -9t-6.5 -6q-2 -5 -6.5 -8.5t-8.5 -3.5q-12 -2 -22 -2q-9 0 -23 2q-2 0 -6 3.5t-9 8.5l-10 15q-1 6 -3 11t-2 11
v79h13zM1191 586h-62v125h-19v-145h81v20zM1361 315q2 4 4 7q2 2 3 6t1 6q0 8 -2 10t-3 4t-3 4q-2 1 -7 3q-4 0 -6 2t-6 2t-7 2t-5 4q-9 0 -13 7q-2 0 -3.5 3t-3.5 6v21q0 3 2 7q0 7 7 9l6 5q3 2 7 4q4 0 6.5 1.5t7.5 1.5q2 0 6 -2l4 -1q3 0 4 -1t5 -3q2 0 4 -2.5t2 -4.5
q5 0 6 -3l1 -2l-2 -2q-4 -2 -9 -2h-6q-2 2 -2 4h-21q-8 0 -8 -2q-5 -6 -5 -8q-4 0 -4 -7q0 -4 4 -6q0 -4 3 -6q0 -1 3 -3l3 -1q4 -4 7 -4t7 -2q2 0 4 -1l2 -1q2 0 3.5 -1t3.5 -4h4q2 0 4 -2h2q5 -4 7.5 -7t4.5 -4q2 -10 2 -18v-10q0 -3 -4 -5q-3 -8 -10 -13q-2 -2 -6 -4.5
t-6 -2.5q-3 -2 -9 -2h-9q-9 0 -16.5 1t-12.5 8q-2 0 -3 2.5t-5 4.5v4l-2 2l4 2h6q1 0 3 -1t4 -1q4 -4 6.5 -5t4.5 -3h20q7 0 11 4zM1002 297l-55 130h5q6 0 8 -2t3 -2t3 -5l40 -97v-2q2 -4 2 -6v6l2 2q5 13 12 25.5t11 23.5q4 14 9.5 25.5t11.5 22.5q0 5 1.5 5t1.5 2
q5 2 6 2h10q-7 -16 -14 -32.5t-15 -31.5q-7 -17 -13 -35l-14 -31h-15zM499 411v-46h56v-12h-56v-56h-15v130h80v-16h-65zM1836 411v-46h51v-12h-51v-56h-15v130h77v-16h-62zM824 427v-116h59v-14h-75v130h16zM348 297v114h-44v16h99v-16h-44v-114h-11zM735 427v-116h60v-14
h-75v130h15zM253 683q2 -1 3 -4t3 -5q3 -4 3 -9v-4q0 -3 -3 -7q-2 -2 -3 -4.5t-3 -2.5q-2 -4 -7 -8h-43v50h33q6 0 10 -2q1 0 4 -2zM1242 365q4 0 6 3q2 2 3.5 3t5.5 1l2 4q0 2 3 5q0 1 1 4t1 7q0 2 -1 3t-1 4q-3 2 -4 3t-1 5q-4 0 -5.5 1t-3.5 3h-41v-46h35zM1970 368
q2 2 3.5 3t3.5 1q5 6 5 9q2 3 2 11q0 4 -2 7q0 2 -5 8q-2 0 -3.5 1t-3.5 3h-41v-46h33q4 0 8 3zM486 658l-4 -7q-2 0 -3 -2t-3 -2q-2 -2 -9 -2h-31v44h31q4 0 9 -2q2 0 3 -1l3 -3q2 -3 4 -7q3 -2 3 -9q0 -6 -3 -9zM1429 427v-130h-16v130h16zM641 121l-25 64q0 2 -1 3l-1 2
q0 4 -2 6v-6l-1 -2q-1 -1 -1 -3l-26 -64h57zM1024 682v-4l26 -60h-55l27 60v5zM1645 77q6 0 6 -6q2 -2 2 -5v-4q0 -7 -2 -9q0 -5 -6 -9q-2 0 -5 -4h-17q-2 2 -4.5 3t-4.5 1q0 2 -1.5 4t-3.5 5q-2 2 -2 9v4q0 3 2 5l3 4l2 2q7 4 9 4q2 3 4 3h10q3 0 3 -3q3 0 5 -4z" />
    <glyph glyph-name="logicalnot" unicode="&#xac;" horiz-adv-x="685" 
d="M59 578q-11 0 -20 7.5t-9 22.5v97q0 15 5 29t24 14h541q27 0 27 -36v-419q0 -14 -6 -25t-19 -11h-102q-14 0 -24.5 9.5t-10.5 26.5v285h-406z" />
    <glyph glyph-name="divide" unicode="&#xf7;" horiz-adv-x="643" 
d="M219 973q0 15 8.5 22.5t17.5 7.5h153q16 0 20.5 -12t4.5 -17v-160q0 -17 -11 -22.5t-15 -5.5h-151q-5 0 -16 5.5t-11 22.5v159zM219 364q0 15 8.5 22.5t17.5 7.5h153q16 0 20.5 -12t4.5 -17v-160q0 -17 -11 -22.5t-15 -5.5h-151q-5 0 -16 5.5t-11 22.5v159zM53 666
q0 14 9.5 22t18.5 8h481q11 0 19.5 -7.5t8.5 -21.5v-140q0 -13 -10 -21t-19 -8h-481q-6 0 -16.5 6.5t-10.5 22.5v139z" />
    <glyph glyph-name="multiply" unicode="&#xd7;" horiz-adv-x="563" 
d="M536 834q9 -9 3 -22t-11 -19l-119 -127l120 -128q8 -8 11.5 -20t-4.5 -22l-99 -107q-6 -9 -13.5 -9.5t-15.5 7.5l-130 139l-129 -139q-15 -17 -29 2l-99 107q-8 10 -4.5 22t11.5 20l120 128l-118 127q-5 6 -10.5 18.5t2.5 22.5l98 107q7 8 15.5 8t16.5 -8l127 -136
l127 136q7 8 15.5 8t15.5 -8z" />
    <glyph glyph-name="copyright" unicode="&#xa9;" horiz-adv-x="914" 
d="M66 1092q0 74 31.5 139t85 113.5t124.5 76.5t150 28t150 -28t125 -76.5t86 -113.5t32 -139v-759q0 -74 -32 -139t-86 -113t-125 -76t-149 -28q-79 0 -150 28t-125 76t-85.5 113t-31.5 139v759zM207 354q0 -51 19 -93.5t53 -72.5t79.5 -46.5t99.5 -16.5q53 0 99 15.5
t79.5 44.5t53 70.5t19.5 94.5v727q0 43 -17.5 83.5t-50 72t-79 50t-104.5 18.5t-104.5 -18t-79 -49t-50 -71t-17.5 -85v-724zM528 546q0 18 5 22.5t10 4.5h104q6 0 11 -4.5t5 -22.5v-172q-2 -33 -15.5 -67.5t-39 -62t-63 -45.5t-86.5 -18q-50 0 -88.5 17t-65.5 45t-41 64.5
t-14 75.5v672q0 45 18.5 81.5t47.5 61.5t64.5 38.5t70.5 13.5q52 0 91.5 -16.5t66.5 -43t40.5 -59.5t13.5 -66v-147q0 -20 -4 -24t-10 -4h-105q-5 0 -10.5 4t-5.5 23v148q0 35 -20.5 51.5t-47.5 16.5q-34 0 -51.5 -22t-17.5 -51v-678q0 -29 16.5 -53.5t51.5 -24.5
q28 0 48.5 19.5t20.5 50.5v172z" />
    <glyph glyph-name="registered" unicode="&#xae;" horiz-adv-x="923" 
d="M66 1092q0 74 31.5 139t85 113.5t124.5 76.5t150 28t150 -28t125 -76.5t86 -113.5t32 -139v-759q0 -74 -32 -139t-86 -113t-125 -76t-149 -28q-79 0 -150 28t-125 76t-85.5 113t-31.5 139v759zM207 354q0 -51 19 -93.5t53 -72.5t79.5 -46.5t99.5 -16.5q53 0 99 15.5
t79.5 44.5t53 70.5t19.5 94.5v727q0 43 -17.5 83.5t-50 72t-79 50t-104.5 18.5t-104.5 -18t-79 -49t-50 -71t-17.5 -85v-724zM286 291q-23 0 -23 30v816q0 10 5 17.5t16 7.5h203q33 0 63 -13t53.5 -34.5t37 -50.5t13.5 -61v-290q0 -45 -17 -79.5t-45 -55.5l77 -261
q2 -9 -3.5 -17.5t-15.5 -8.5h-107q-10 0 -13.5 5.5t-7.5 15.5l-61 234h-59v-226q0 -16 -7.5 -22.5t-16.5 -6.5h-92zM517 975q0 17 -6.5 29t-16 19.5t-21.5 11t-23 3.5h-48v-366h45q12 0 24.5 3t22.5 12t16.5 26t6.5 44v218z" />
    <glyph glyph-name="B" unicode="B" horiz-adv-x="903" 
d="M92 1387q0 18 9 28.5t27 10.5h333q82 0 150.5 -27t117 -74t75.5 -112.5t27 -141.5v-104q0 -44 -15 -82.5t-37.5 -68.5t-50 -50t-52.5 -25q22 -6 53 -24.5t59 -51.5t47.5 -82t19.5 -116v-129q0 -75 -30 -137t-80 -107t-115.5 -69.5t-135.5 -24.5h-366q-36 0 -36 39v1348z
M338 623v-379h144q28 0 50 10.5t36.5 28t22 39t7.5 43.5v125q0 34 -10 59t-27 41.5t-39 24.5t-46 8h-138zM338 1182v-341h120q18 0 39.5 5t40 17.5t31.5 34.5t13 56v102q0 65 -34.5 95.5t-86.5 30.5h-123z" />
    <glyph glyph-name="G" unicode="G" horiz-adv-x="896" 
d="M325 347q0 -28 11 -51.5t29 -40t41.5 -25.5t47.5 -9q25 0 48 9.5t39.5 26t26.5 38.5t10 47v172h-86q-31 0 -31 36v151q0 37 31 37h302q37 0 37 -39v-366q0 -83 -29.5 -149t-80.5 -112t-119.5 -70.5t-147.5 -24.5q-78 0 -147.5 24t-122.5 69.5t-84 111.5t-31 151v759
q0 84 30.5 150t83 112t122.5 70.5t149 24.5q73 0 129 -17.5t97.5 -47t69.5 -67t45 -78t24 -80t7 -72.5v-93q0 -24 -7 -33.5t-27 -9.5h-187q-19 0 -26 8.5t-7 30.5v90q0 24 -8.5 46.5t-24.5 40t-38.5 28t-49.5 10.5q-26 0 -48.5 -9.5t-40 -26t-27.5 -39t-10 -47.5v-736v0z
" />
    <glyph glyph-name="quotesinglbase" unicode="&#x201a;" horiz-adv-x="418" 
d="M81 190q0 26 12 38t31 12h169q24 0 34.5 -12t10.5 -36v-213q0 -34 -12.5 -61t-34.5 -46t-53 -29t-68 -10q-15 0 -25.5 8t-10.5 25v48q0 15 11 22.5t28 7.5q14 0 20.5 10.5t6.5 25.5q0 7 -2 13.5t-10 6.5h-69q-14 0 -26 10.5t-12 33.5v146z" />
    <glyph glyph-name="quotedblbase" unicode="&#x201e;" horiz-adv-x="760" 
d="M82 190q0 26 11.5 38t30.5 12h170q44 0 44 -48v-213q0 -68 -46.5 -107t-120.5 -39q-16 0 -26 8t-10 25v48q0 15 10.5 22.5t27.5 7.5q14 0 20.5 10.5t6.5 25.5q0 7 -2 13.5t-10 6.5h-68q-15 0 -26.5 10.5t-11.5 33.5v146zM427 190q0 26 11.5 38t30.5 12h170q45 0 45 -48
v-213q0 -34 -12.5 -61t-35 -46t-53 -29t-67.5 -10q-16 0 -26 8t-10 25v48q0 15 10.5 22.5t28.5 7.5q14 0 20 10.5t6 25.5q0 7 -2 13.5t-10 6.5h-68q-15 0 -26.5 10.5t-11.5 33.5v146z" />
    <glyph glyph-name="guilsinglleft" unicode="&#x2039;" horiz-adv-x="508" 
d="M35 558q0 8 2 11.5t7 9.5l266 370q3 5 11 8t18 -5l122 -96q8 -7 7.5 -17.5t-6.5 -17.5l-197 -264l198 -265q7 -9 6 -17.5t-8 -14.5l-122 -95q-11 -9 -18 -5.5t-11 8.5l-267 370q-4 6 -6 10t-2 10z" />
    <glyph glyph-name="at" unicode="@" 
d="M2323 1024v-550h-2254v550h854q0 28 5 55t19 50q11 27 24.5 49t34.5 39q35 38 86 58q25 11 51 16t53 5q31 0 58 -6t50 -15q26 -13 48 -27.5t42 -34.5q33 -35 57 -88q18 -50 18 -101h854zM966 1119q-19 -44 -19 -95q0 -55 19 -99q9 -20 22.5 -40.5t28.5 -39.5
q18 -17 38 -30.5t43 -23.5q45 -21 98 -21q29 0 53 4.5t45 14.5q23 10 42.5 23.5t35.5 30.5q20 18 33 38t24 41q20 49 20 102q0 20 -3.5 42t-11.5 44q-13 37 -40 68q-13 18 -27.5 31t-32.5 24q-17 7 -35 16.5t-37 16.5q-14 3 -30.5 6t-35.5 3q-27 0 -52 -5.5t-48 -17.5
q-46 -17 -79 -54q-17 -17 -29.5 -37t-21.5 -42zM1070 877l295 298q29 -37 43.5 -75t14.5 -76q0 -22 -3 -42t-11 -39q-7 -18 -16.5 -34.5t-21.5 -31.5h-301zM1026 870q-26 33 -41 71q-8 17 -11 38t-3 45q0 18 3 37.5t11 39.5q4 18 13.5 33.5t23.5 30.5h299zM2058 194
q3 -4 5.5 -10t4.5 -13q4 -8 4 -14v-29q0 -7 -4 -11q-2 -7 -4.5 -14t-5.5 -13q-6 -9 -15 -19q-6 -5 -11.5 -9.5t-12.5 -8.5q-5 -5 -11.5 -7t-12.5 -4t-13 -2h-16q-19 0 -40 6q-8 6 -15.5 12t-15.5 13q-8 6 -13.5 13.5t-7.5 19.5q-6 9 -7.5 18.5t-1.5 21.5q0 8 1 13.5t1 13.5
q3 7 6 13t7 10q2 8 5.5 12.5t9.5 10.5q3 4 9.5 8t11.5 9q4 2 10.5 4t12.5 6q10 0 15.5 1t11.5 1q9 0 16 -1t13 -1q6 -4 12.5 -6t11.5 -4q7 -5 12.5 -9t11.5 -8q2 -6 7.5 -10.5t7.5 -12.5zM1064 194q2 -4 4 -10t5 -13q2 -8 2 -14v-29q0 -7 -2 -11q-3 -7 -5 -14t-4 -13
q-5 -4 -9.5 -9.5t-8.5 -9.5q-5 -5 -10 -9.5t-10 -8.5q-7 -5 -13.5 -7t-12.5 -4q-7 -2 -14 -2h-15q-9 0 -18.5 2t-21.5 4q-11 6 -17.5 12t-15.5 13q-15 13 -21 33q-3 9 -5 18.5t-2 21.5v13q0 6 2 14q4 16 11 23q4 8 7.5 12.5t7.5 10.5q7 4 11.5 8t10.5 9q5 2 11 4t16 6
q4 0 10.5 1t13.5 1q8 0 15 -1t14 -1q6 -4 12.5 -6t13.5 -4q5 -5 10 -9l10 -8q4 -6 8.5 -10.5t9.5 -12.5zM2281 244l1 1q1 1 6 1h35v-206h-35v150q-1 0 -2 -2.5t-3 -6.5v-6q0 -3 -2 -4q-6 -15 -12.5 -32.5t-14.5 -30.5q-6 -18 -11.5 -33.5t-13.5 -34.5h-34l-52 131
q-5 3 -5 10q0 4 -1 4l-2 2v-147h-39v206h37q5 0 6.5 -1t3.5 -1q2 -2 3 -2t3 -2l7 -4q0 -2 2 -3.5t2 -3.5q4 -16 10.5 -30t14.5 -32q6 -15 11.5 -30.5t11.5 -28.5v-12q2 0 4 -4q0 4 1 4v12l9 13l42 108q0 2 2 3l2 4q0 2 2 3l3 1q2 2 4 2t4 2zM1246 246h36v-206h-34l-94 138
l-4 3v2q-3 4 -3 5q-4 2 -4 4t-1 3t-4 1v-156h-36v206h32q4 0 8.5 -1t4.5 -3q3 -2 5 -2t4 -2l21 -31q10 -15 19 -33q13 -13 23 -27.5t23 -27.5q0 -2 1 -4.5t1 -6.5l1 -2l1 -3v143zM630 246l88 -206h-23q-8 0 -15 4q-2 2 -4 6.5t-6 8.5l-12 25h-94l-9 -25q0 -4 -1 -5t-3 -1
q-2 -5 -4 -5l-3 -4q-2 0 -3.5 -1t-5.5 -1q0 -2 -2 -2h-26l90 206h33zM244 246h130v-37h-94v-46h77v-38h-77v-48h94v-37h-130v206zM69 246h149v-23q0 -2 -1 -5q0 -3 -2 -5l-4 -4l-99 -134h1l2 2h102v-37h-155v13q0 9 2 11q0 2 5 7v4l2 4q2 2 4 3.5t2 5.5l88 121h-96v37z
M786 618q1 6 2 10t1 9q0 12 -3 21q0 5 -3.5 8.5t-5.5 9.5q-4 6 -11 13l-7 6q-2 3 -8 8l-8 4q-4 2 -10 4q-4 0 -8.5 0.5t-10.5 0.5q-3 0 -8 -0.5t-11 -0.5q-6 -2 -9.5 -4t-7.5 -4q-4 -5 -7.5 -7.5t-7.5 -6.5q-5 -4 -8 -6.5t-4 -6.5q-4 -6 -5 -9.5t-3 -8.5q-2 -9 -2 -21
q0 -5 2 -13t4 -14q2 -7 6.5 -12.5t9.5 -11.5q5 -7 11 -10.5t13 -3.5q11 -6 27 -6h19q12 4 18 8q11 5 15 12q6 6 11 15q2 4 5.5 8.5t3.5 8.5zM1843 618v40q-4 9 -7 18q-4 6 -14 13q-1 4 -5.5 6.5t-8.5 7.5q-3 2 -9 4l-7 4q-6 0 -10.5 0.5t-9.5 0.5q-6 0 -10.5 -0.5t-8.5 -0.5
q-11 -4 -20 -8q-3 -5 -6 -7.5t-7 -6.5q-3 -4 -6 -6.5t-5 -6.5q-2 -6 -4.5 -9.5t-2.5 -8.5q-5 -9 -5 -21q0 -5 2.5 -13t5.5 -14q4 -15 15 -24q4 -7 9.5 -10.5t14.5 -3.5q11 -6 28 -6h20q3 2 8 4t8 4q4 3 8.5 5.5t5.5 6.5q10 6 14 15q3 7 7 17zM1724 190q-7 -7 -13 -23
q-2 -4 -4 -9.5t-2 -13.5t2 -13.5t4 -11.5q2 -7 5.5 -13.5t7.5 -9.5q4 -4 9.5 -8t12.5 -7q7 -2 12.5 -3t13.5 -1q5 0 9.5 1t10.5 1q3 2 8 4.5t8 6.5q4 0 8 2h12q4 0 8 -2q3 -2 7 -6l6 -7q-6 -8 -13 -15q-6 -3 -10.5 -6t-11.5 -6q-6 -4 -10.5 -5t-10.5 -3q-5 -2 -11 -2h-10
q-11 0 -22 2t-20 4q-19 9 -33 25q-15 13 -21 33q-4 9 -6.5 18.5t-2.5 21.5q0 8 1 13.5t3 13.5q1 7 3 13t6 10q6 8 8.5 12.5t8.5 10.5l12 8q6 4 11 9q4 2 9 4l17 6q5 0 11.5 1t14.5 1h12q4 0 9 -2q6 -2 10.5 -3t10.5 -3q7 -4 11.5 -6.5t10.5 -6.5q7 -8 13 -16l-6 -7
q-4 -2 -5 -4l-2 -4h-14q-4 0 -7 1t-7 3q-3 2 -8 4.5t-8 4.5q-6 2 -11 2h-9q-15 0 -26 -6q-7 -1 -12.5 -4t-9.5 -9zM1584 141q4 -5 7 -9t3 -7q2 -4 3.5 -8.5t1.5 -10.5q0 -14 -7 -27l-8 -12q-3 -5 -8 -8q-6 -6 -10.5 -9.5t-12.5 -5.5q-5 -2 -13 -3t-14 -1q-7 0 -13.5 1
t-17.5 3q-5 2 -10 6.5t-10 11.5q-4 2 -6 5l-4 8q-6 2 -6 9l6 4q2 2 4 2h4l2 2h9q4 0 4 -2q7 0 9 -2q5 -4 8.5 -5.5t5.5 -3.5q2 0 6 -1t9 -1h5q3 0 6 2q7 2 13 5q5 4 7 8t4 7t2 7q0 6 -6 9q-4 6 -7 6q-2 4 -6.5 5t-6.5 2q-5 0 -13 6q-5 0 -9 1t-9 6q-9 3 -12.5 6t-7.5 7
q-6 2 -8.5 5.5t-2.5 7.5q-6 11 -6 23q0 17 6 25q2 6 5 10l8 9q4 2 9 4t12 6q6 0 10.5 1t12.5 1q4 0 8 -1t10 -1q5 -2 7 -3t8 -3q3 -4 6 -6.5t7 -6.5q3 -2 6.5 -5t3.5 -7l-7 -4l-6 -4q-3 -2 -3 -3h-17l-5 1q-4 2 -6 4q-2 0 -3.5 1t-3.5 1h-16q-2 0 -3 -1t-5 -3q-2 -2 -6 -5
q-1 -4 -1 -10q0 -5 1 -5q2 -2 3 -4.5t3 -6.5h6q2 0 5 -2q4 -1 8.5 -3t9.5 -4l8 -2q5 -4 9 -5t9 -4q10 -4 16 -13zM1480 315q-11 7 -15 19q-6 14 -6 29v15q6 10 10 18q4 5 11 13q6 7 12 9q3 5 8.5 6t8.5 3q4 0 8 1.5t9 1.5q4 0 10 -1.5t10 -1.5q4 -2 7.5 -3t7.5 -6
q2 -2 5.5 -4.5t5.5 -4.5q4 -4 6.5 -7t5.5 -6q4 -8 8 -18q0 -4 1 -8.5t1 -6.5q0 -6 -1 -13.5t-5 -15.5q-2 -6 -6 -10.5t-10 -8.5q-4 -4 -8.5 -7.5t-11.5 -8.5q-8 -2 -26 -2h-14q-6 0 -10 2q-16 5 -22 16zM2030 119q5 11 5 25q0 8 -1.5 13.5t-3.5 9.5q-2 9 -6.5 14.5t-7.5 8.5
q-10 10 -23 13q-4 4 -11 5t-16 1q-11 0 -24 -6q-7 -1 -11.5 -4t-10.5 -9q-4 -3 -7.5 -8.5t-7.5 -14.5q0 -4 -1 -9.5t-1 -13.5t1 -13.5t1 -11.5q7 -15 15 -23q6 -4 10.5 -8t11.5 -7q7 -2 13.5 -3t10.5 -1q9 0 16 1t11 3q8 3 13.5 7t9.5 8q10 10 14 23zM2141 315
q-6 -4 -12 -7.5t-11 -8.5q-6 -2 -12 -2h-28q-6 0 -12 2q-12 5 -21 16q-4 4 -7 8.5t-6 10.5q-2 8 -4 15.5t-2 13.5q0 2 1 6.5t1 8.5q2 4 3 9t4 9q2 3 5 6t5 7q3 2 7 4.5t9 4.5q3 5 8 6t7 3q5 0 8 1.5t10 1.5q2 0 7.5 -1.5t10.5 -1.5q4 -2 7.5 -3t5.5 -6q4 -2 8.5 -4.5
t7.5 -4.5q2 -4 4 -7l4 -6q5 -8 7 -18q2 -4 3 -8.5t1 -6.5q0 -6 -1 -13.5t-5 -15.5q0 -6 -5 -11zM1035 119q2 6 3 11.5t1 13.5q0 12 -4 23q-2 9 -6.5 14.5t-11.5 8.5q-2 6 -7.5 9t-11.5 4q-11 6 -27 6q-13 0 -24 -6q-6 -1 -11 -4t-11 -9q-5 -3 -8 -8.5t-5 -14.5q-5 -4 -5 -10
v-27q0 -5 5 -11q2 -7 5 -13.5t8 -9.5q6 -4 11 -8t11 -7q5 -2 11 -3t13 -1q8 0 15 1t12 3q6 3 11.5 7t7.5 8q7 3 11.5 9.5t6.5 13.5zM726 246h130v-37h-94v-52h77v-36h-77v-81h-36v206zM535 209h-55v-169h-40v169h-59v37h154v-37zM1302 246h155v-37h-61v-169h-37v169h-57v37z
M1281 1233q16 -8 33.5 -19.5t33.5 -21.5h-304q33 27 70 41q36 17 82 17t85 -17zM1114 810q-18 7 -35 18t-33 24h302q-16 -13 -33.5 -24t-33.5 -18q-22 -6 -43 -10.5t-42 -4.5q-23 0 -42.5 4.5t-39.5 10.5zM524 566l-44 64q2 0 4.5 1t6.5 3q6 3 8 9q3 2 5.5 5t2.5 6v24
q0 2 -2 5q-3 8 -10 14q-4 8 -13 8q-2 4 -6.5 5t-8.5 1h-53v-145h22v60h22l37 -52q2 -4 7 -6q1 -2 3 -2h19zM1096 566l-63 145h-20l-62 -145h11q7 0 9 2q0 2 1 3t5 3l10 25h72l11 -25q2 -4 5 -6q2 -2 8 -2h13zM1810 676q2 -2 6.5 -7.5t5.5 -10.5q2 -4 3 -9.5t1 -11.5
q0 -11 -4 -21q-1 -4 -6 -9l-6 -6q-5 -4 -9 -6.5t-8 -6.5q-9 -4 -21 -4q-6 0 -11.5 1t-9.5 3q-5 4 -9.5 6.5t-8.5 6.5q-3 2 -6 6.5t-3 8.5q-4 6 -5 11t-1 10q0 10 6 21q0 5 3 10.5t6 7.5q4 4 8.5 6.5t9.5 4.5q10 4 21 4q5 0 10.5 -1t10.5 -3q4 -2 8 -4.5t9 -6.5zM751 676
q6 -2 8.5 -7.5t4.5 -10.5q2 -4 3 -9.5t1 -11.5q0 -5 -1 -10t-3 -11q-2 -4 -4.5 -8.5t-8.5 -6.5q-2 -4 -5.5 -6.5t-10.5 -6.5q-4 -2 -9.5 -3t-11.5 -1q-9 0 -21 4q-4 4 -8.5 6.5t-8.5 6.5q-2 2 -5.5 6.5t-5.5 8.5q-2 6 -3 11t-1 10q0 10 4 21q2 5 5.5 10.5t5.5 7.5
q4 4 8.5 6.5t8.5 4.5q5 2 11.5 3t9.5 1q12 0 21 -4q7 -2 10.5 -4.5t5.5 -6.5zM277 647q5 11 5 18q0 5 -1 9t-4 9q0 2 -4 6l-6 6q-2 3 -5 6.5t-9 3.5q-2 4 -7.5 5t-9.5 1h-49v-145h16v55h33q4 0 9.5 0.5t7.5 2.5q10 4 14 10q4 2 7 5.5t3 7.5zM2079 311h29l6 3q2 1 4 5
q2 0 5.5 1.5t7.5 3.5l3 6q1 2 4 4q0 3 2.5 7.5t2.5 8.5v32q-2 6 -6 10t-6 7q-6 2 -9.5 5t-7.5 7h-40q-6 -4 -9.5 -7t-8.5 -5q-4 -3 -6.5 -7t-4.5 -10t-2 -12v-20q0 -4 1 -8.5t4 -7.5l4 -4q2 -2 4 -6l6 -3q2 -2 4 -2q4 -4 7 -5t6 -3zM1993 711h-20v-112q-1 2 -2 5t-3 4
l-70 97l-3 6h-23v-145h21v114l2 -2l82 -112h16v145zM1480 382q-3 -6 -4 -11.5t-1 -7.5v-8q0 -3 2 -5q0 -8 5 -16q0 -2 2 -4t4 -6l5 -3q2 -2 9 -2q2 -4 5.5 -5t5.5 -3h26q5 2 8 3t6 5q2 0 6 2l4 3q2 4 4.5 6t2.5 4q2 3 3 7.5t3 8.5q0 2 1 5.5t1 7.5q0 2 -1 7.5t-5 11.5
q0 6 -3.5 10t-5.5 7q-4 2 -8 6l-9 6h-40q-4 -4 -9 -7t-9 -5q-2 -3 -5 -7t-3 -10zM935 711h-17v-112l-2 4q-2 4 -2 5l-69 97q-4 0 -6 6h-23v-145h19v117h2l2 -1v-4l81 -112h15v145zM1982 357q-7 -2 -12 -4l42 -56h-11q-2 0 -6 2q-2 0 -3 1.5t-1 5.5l-36 47h-26v-56h-15v130
h54q4 0 9 -2q2 -2 5.5 -4.5t4.5 -4.5q4 -2 5 -5.5t7 -7.5v-25q-4 -4 -5 -7.5t-3 -5.5zM1259 357q-2 -2 -11 -4l44 -56h-14q-3 0 -3 2q-2 0 -4 1.5t-2 5.5l-36 47h-26v-56h-13v130h53q3 0 6 -2q9 -2 16 -9q0 -2 3 -5.5t3 -7.5q2 -2 2 -6v-13q0 -3 -2 -6q0 -4 -1 -7.5t-3 -5.5
l-5 -4q-2 -2 -7 -4zM386 711h-91v-145h91v20h-69v44h55v17h-55v42h69v22zM1614 711h-88v-145h88v20h-66v44h55v17h-55v42h66v22zM2306 425q4 2 5 2h12v-130h-11v106l-2 -2v-2q-4 -7 -6.5 -16t-7.5 -13q-4 -7 -6 -12.5t-7 -13.5q-2 -8 -3 -14t-5 -9q-3 -8 -6 -12.5t-5 -11.5
h-14q-9 12 -14 24.5t-10 26.5q-4 11 -11 24.5t-11 26.5v2h-4v-104h-13v130h13q4 0 6 -2l2 -2v-5l46 -99q0 -4 2 -4l1 2v4q0 1 7 5l38 92q2 5 3 5t1 2zM1387 711h-20v-97q0 -4 -2 -7q-2 -8 -9 -12q0 -2 -4 -3.5t-6 -5.5l-8 -2h-8q-9 0 -13 2q-5 4 -8 5.5t-5 3.5t-4.5 5
t-5.5 7q0 3 -1 7t-1 10v87h-19v-87q0 -6 1 -10t1 -7q0 -8 6 -14q3 -7 9 -11q2 -3 4.5 -5.5t7.5 -4.5q2 -2 6 -3t7 -3q4 0 7 -1t8 -1q4 0 7.5 1t10.5 1q2 2 5 3t6 3q6 4 12 10q3 2 5 5t5 6q0 4 3 7t3 7v104zM622 592q2 5 3 8t1 8q0 10 -5 18t-11 13q-2 0 -3.5 2t-5.5 4l-4 2
h-4q-1 0 -1 4q-6 0 -8 1q-7 2 -8.5 3t-5.5 3q-6 3 -8 3q-3 4 -3 6v15q0 1 1.5 2t1.5 3q2 0 4 1t4 1q4 2 5 2h9q2 -2 4 -2q5 0 7 -4q2 -2 4 -2h2q9 0 13 4l4 2q0 2 -2 4l-4 4q-2 1 -4.5 3.5t-6.5 4.5q-2 0 -4 2t-5 4q-4 0 -6 0.5t-4 0.5q-6 0 -11 -0.5t-7 -0.5q-5 -2 -7 -4
t-6 -4q-2 -5 -5.5 -7.5t-6.5 -6.5q0 -4 -2 -6.5t-2 -8.5q0 -4 1 -7.5t3 -8.5q3 -4 5 -7l5 -4q2 -2 6 -5t7 -3l7 -4q3 -1 7 -1q1 -2 5.5 -2t6.5 -2l5 -2q2 0 4 -2t2 -3t2 -5q2 -2 2 -6v-9q0 -2 -2 -4t-2 -4t-2 -3q-2 -4 -6 -5l-3 -1q-4 0 -7.5 -1t-4.5 -1q-4 0 -7 1t-5 1
t-3.5 1t-1.5 5l-4 1q-4 4 -11 4h-5l-4 -2l-5 -2q0 -3 3 -3q0 -2 2 -4q0 -4 4 -4v-5h3q7 -7 15.5 -9t18.5 -2h8q6 0 11 2q4 2 8.5 4t6.5 5q4 2 7.5 5.5t4.5 9.5zM1497 592q7 7 7 16q0 10 -4.5 18t-11.5 13q-6 4 -6 6h-4q-1 0 -3 2h-3q-3 0 -5 4h-4q-1 0 -4 1q-2 2 -4 3l-6 3
l-7 3q-4 2 -5 4l-1 2q0 1 -1 3t-1 4q0 4 4 8q0 1 4 5q2 0 3 1t4 1q2 2 10 2l3 -1q3 -1 5 -1q2 -2 8 -4q5 -2 7 -2q6 0 8 4l5 2q0 2 -2.5 4t-4.5 4q0 1 -3 3.5t-5 4.5q-3 0 -5 2t-6 4h-6l-4 1q-6 0 -9.5 -0.5t-7.5 -0.5l-13 -8l-6 -8q-2 -2 -5 -6q-1 -4 -3 -6.5t-2 -8.5
q0 -4 2 -7.5t3 -8.5q5 -7 9 -11q4 -2 6.5 -5t6.5 -3q4 -2 7.5 -3.5t5.5 -1.5q4 -2 6.5 -2t5.5 -2q2 0 5 -1t5 -3t3.5 -3t1.5 -5q2 -2 2 -5v-9q0 -3 -2 -5q0 -6 -5 -7q-6 -4 -7 -5t-3 -1q-6 0 -7 -1t-5 -1q-2 0 -5.5 1t-5.5 1q-4 2 -8 6l-2 1q-5 4 -9 4h-6q-2 0 -4 -2l-6 -2
q2 -1 2 -2t2 -1q0 -2 1 -3l3 -3v-2q6 -5 8 -5q6 -7 13.5 -9t16.5 -2h11q5 0 11 2q2 2 5.5 4t7.5 5l5 7q2 2 4 8zM1632 297h-16v130h18q2 0 4 -4l69 -97q2 0 2 -4l2 -1v106h13v-130h-11l-77 106v4h-4v-110zM73 328q-4 4 -5 7.5t-2 8.5q-2 6 -3 9.5t-1 9.5q0 5 4 15q1 4 2 9
t5 9l4 6q2 3 5 7q2 2 6 4.5t6 4.5q5 5 9.5 6t8.5 3q3 0 8 1.5t10 1.5q6 0 13 -1.5t13 -5.5q7 -2 11.5 -5.5t8.5 -8.5q-2 -2 -4 -2v-4h-13q-3 2 -6 5t-7 3h-34q-6 -4 -11 -7t-9 -5q-4 -3 -7 -7t-4 -10q-2 -6 -3 -11.5t-1 -7.5q0 -8 4 -13q0 -4 0.5 -8.5t0.5 -7.5l4 -4
q4 -2 6 -6l7 -4q3 -1 7 -1q2 -4 4.5 -5t6.5 -3h31q2 2 6.5 3t8.5 5v27h-13v2q-2 0 -3 1l-3 3h-2q-1 1 -1 3v4h35v-48q-2 -5 -3.5 -6t-5.5 -6h-11q-6 -2 -12 -2h-32q-4 0 -8.5 2.5t-9.5 6.5q-2 0 -6 2.5t-6 6.5q-3 4 -5 6.5t-4 6.5zM225 411v-41h52v-15h-52v-44h63v-14h-79
v130h79v-16h-63zM1098 411v-41h56v-15h-56v-44h64v-14h-79v130h79v-16h-64zM2226 711h-18q-4 0 -8 -4q-5 -4 -5 -9l-35 -44h-2q0 -2 -2 -2v2l-36 44q-2 7 -4 9q-4 4 -11 4h-16l54 -72v-2q0 -1 2 -1l2 -2v-68h20v66q2 0 2 2l2 3v2zM2112 586h-64v125h-20v-145h84v20zM601 427
v-79q0 -6 2 -9t5 -5q0 -6 3 -9t5 -4q0 -2 4 -4t6 -4q4 -2 8 -2h15q2 0 5 2q4 2 7.5 4t6.5 4q2 1 4 4t4 9q4 3 4 14v79h13v-79q0 -6 -1 -11t-3 -11q-2 -5 -4.5 -9t-6.5 -6q-2 -5 -6.5 -8.5t-8.5 -3.5q-12 -2 -22 -2q-9 0 -23 2q-2 0 -6 3.5t-9 8.5l-10 15q-1 6 -3 11t-2 11
v79h13zM1191 586h-62v125h-19v-145h81v20zM1361 315q2 4 4 7q2 2 3 6t1 6q0 8 -2 10t-3 4t-3 4q-2 1 -7 3q-4 0 -6 2t-6 2t-7 2t-5 4q-9 0 -13 7q-2 0 -3.5 3t-3.5 6v21q0 3 2 7q0 7 7 9l6 5q3 2 7 4q4 0 6.5 1.5t7.5 1.5q2 0 6 -2l4 -1q3 0 4 -1t5 -3q2 0 4 -2.5t2 -4.5
q5 0 6 -3l1 -2l-2 -2q-4 -2 -9 -2h-6q-2 2 -2 4h-21q-8 0 -8 -2q-5 -6 -5 -8q-4 0 -4 -7q0 -4 4 -6q0 -4 3 -6q0 -1 3 -3l3 -1q4 -4 7 -4t7 -2q2 0 4 -1l2 -1q2 0 3.5 -1t3.5 -4h4q2 0 4 -2h2q5 -4 7.5 -7t4.5 -4q2 -10 2 -18v-10q0 -3 -4 -5q-3 -8 -10 -13q-2 -2 -6 -4.5
t-6 -2.5q-3 -2 -9 -2h-9q-9 0 -16.5 1t-12.5 8q-2 0 -3 2.5t-5 4.5v4l-2 2l4 2h6q1 0 3 -1t4 -1q4 -4 6.5 -5t4.5 -3h20q7 0 11 4zM1002 297l-55 130h5q6 0 8 -2t3 -2t3 -5l40 -97v-2q2 -4 2 -6v6l2 2q5 13 12 25.5t11 23.5q4 14 9.5 25.5t11.5 22.5q0 5 1.5 5t1.5 2
q5 2 6 2h10q-7 -16 -14 -32.5t-15 -31.5q-7 -17 -13 -35l-14 -31h-15zM499 411v-46h56v-12h-56v-56h-15v130h80v-16h-65zM1836 411v-46h51v-12h-51v-56h-15v130h77v-16h-62zM824 427v-116h59v-14h-75v130h16zM348 297v114h-44v16h99v-16h-44v-114h-11zM735 427v-116h60v-14
h-75v130h15zM253 683q2 -1 3 -4t3 -5q3 -4 3 -9v-4q0 -3 -3 -7q-2 -2 -3 -4.5t-3 -2.5q-2 -4 -7 -8h-43v50h33q6 0 10 -2q1 0 4 -2zM1242 365q4 0 6 3q2 2 3.5 3t5.5 1l2 4q0 2 3 5q0 1 1 4t1 7q0 2 -1 3t-1 4q-3 2 -4 3t-1 5q-4 0 -5.5 1t-3.5 3h-41v-46h35zM1970 368
q2 2 3.5 3t3.5 1q5 6 5 9q2 3 2 11q0 4 -2 7q0 2 -5 8q-2 0 -3.5 1t-3.5 3h-41v-46h33q4 0 8 3zM486 658l-4 -7q-2 0 -3 -2t-3 -2q-2 -2 -9 -2h-31v44h31q4 0 9 -2q2 0 3 -1l3 -3q2 -3 4 -7q3 -2 3 -9q0 -6 -3 -9zM1429 427v-130h-16v130h16zM641 121l-25 64q0 2 -1 3l-1 2
q0 4 -2 6v-6l-1 -2q-1 -1 -1 -3l-26 -64h57zM1024 682v-4l26 -60h-55l27 60v5zM1645 77q6 0 6 -6q2 -2 2 -5v-4q0 -7 -2 -9q0 -5 -6 -9q-2 0 -5 -4h-17q-2 2 -4.5 3t-4.5 1q0 2 -1.5 4t-3.5 5q-2 2 -2 9v4q0 3 2 5l3 4l2 2q7 4 9 4q2 3 4 3h10q3 0 3 -3q3 0 5 -4z" />
    <glyph glyph-name="O" unicode="O" horiz-adv-x="908" 
d="M69 1092q0 83 30.5 149.5t83 112.5t122 70.5t148.5 24.5t149.5 -24.5t123 -70.5t83 -112t30.5 -150v-759q0 -83 -30.5 -149t-83 -112t-122.5 -70.5t-149 -24.5t-149 25t-122.5 71.5t-83 112.5t-30.5 147v759zM325 347q0 -25 9 -47.5t26 -40t40.5 -28t53.5 -10.5
q29 0 53 10.5t41 28t26 40t9 47.5v731q0 25 -9.5 48t-27 40.5t-41 28t-51.5 10.5t-51.5 -10.5t-41 -28t-27 -40.5t-9.5 -48v-731z" />
    <glyph glyph-name="Q" unicode="Q" horiz-adv-x="908" 
d="M69 1092q0 83 30.5 149.5t83 112.5t122 70.5t148.5 24.5t149.5 -24.5t123 -70.5t83 -112t30.5 -150v-759q0 -67 -20 -122.5t-55 -99t-83.5 -73.5t-105.5 -45v-180q0 -18 -8.5 -27t-21.5 -9h-184q-13 0 -21 9t-8 27v181q-57 16 -105 46.5t-83.5 74t-55 98.5t-19.5 120v759
zM325 347q0 -25 9 -47.5t26 -40t40.5 -28t53.5 -10.5q29 0 53 10.5t41 28t26 40t9 47.5v731q0 25 -9.5 48t-27 40.5t-41 28t-51.5 10.5t-51.5 -10.5t-41 -28t-27 -40.5t-9.5 -48v-731z" />
    <glyph glyph-name="a" unicode="a" horiz-adv-x="911" 
d="M819 40q0 -20 -10 -30t-24 -10h-127q-27 0 -35 40l-14 79q-34 -63 -85.5 -102.5t-123.5 -39.5q-81 0 -143 29.5t-104 79t-63.5 114.5t-21.5 137v540q0 80 22 148t64 117.5t103 77.5t139 28q73 0 124.5 -38.5t85.5 -98.5l17 76q5 23 15 30.5t29 7.5h117q15 0 25 -9.5
t10 -28.5v-1147zM564 868q0 26 -8.5 52t-24.5 46.5t-40.5 33t-55.5 12.5q-25 0 -45.5 -10t-35 -27t-22.5 -39.5t-8 -47.5v-552q0 -24 8 -46.5t22.5 -39t35 -27t45.5 -10.5q31 0 55.5 13t40.5 34t24.5 47.5t8.5 52.5v508z" />
    <glyph glyph-name="b" unicode="b" horiz-adv-x="911" 
d="M92 1544q0 18 9.5 28.5t27.5 10.5h183q18 0 26.5 -10.5t8.5 -28.5v-419q38 55 90 89t117 34q67 0 120.5 -28.5t91 -77.5t57.5 -114t20 -138v-541q0 -79 -19.5 -147t-59 -118t-98.5 -78.5t-138 -28.5q-40 0 -73.5 12.5t-61 33.5t-50 49.5t-39.5 60.5l-15 -87
q-8 -28 -16 -37t-27 -9h-117q-37 0 -37 39v1505zM348 368q0 -27 8.5 -54.5t25 -50t40.5 -36.5t56 -14q25 0 45 10.5t34 27t22 38.5t8 46v555q0 22 -7 43.5t-21 39t-34.5 28.5t-47.5 11q-32 0 -56 -12.5t-40 -33t-24.5 -46.5t-8.5 -52v-500z" />
    <glyph glyph-name="d" unicode="d" horiz-adv-x="911" 
d="M819 39q0 -39 -38 -39h-110q-9 0 -16.5 1t-13.5 5.5t-11 14.5t-9 27l-13 73q-41 -72 -98.5 -108t-118.5 -36q-89 0 -150.5 33t-99.5 86t-55.5 120t-17.5 136v531q0 74 20.5 140t59.5 116t96 79.5t130 29.5q59 0 106 -32t84 -85v413q0 18 8.5 28.5t26.5 10.5h182
q18 0 28 -10.5t10 -28.5v-1505zM563 868q0 26 -8.5 52t-25 46.5t-40.5 33t-55 12.5q-24 0 -44 -10t-35 -26.5t-23 -38.5t-8 -47v-555q0 -24 7.5 -46t22 -38.5t34.5 -27t45 -10.5q31 0 55 13.5t40.5 36t25.5 50.5t9 57v498z" />
    <glyph glyph-name="e" unicode="e" horiz-adv-x="862" 
d="M68 894q0 73 29.5 137.5t80 112.5t118.5 76t146 28t143.5 -28t113 -76t73.5 -112.5t26 -137.5v-298q0 -20 -11 -30.5t-29 -10.5h-434v-231q0 -24 9.5 -45.5t25.5 -37t38 -25t47 -9.5t46.5 9.5t36.5 26t23.5 38t8.5 45.5v45q0 12 8 20.5t22 8.5h179q13 0 20.5 -6.5
t7.5 -24.5v-38q0 -73 -26 -137.5t-72.5 -112.5t-112 -76t-143.5 -28t-146 28t-118.5 76t-80 112.5t-29.5 137.5v563zM324 737h235v163q0 24 -8.5 45.5t-24 37.5t-36.5 25.5t-46 9.5t-47 -9.5t-38 -25t-25.5 -37t-9.5 -45.5v-164z" />
    <glyph glyph-name="f" unicode="f" horiz-adv-x="592" 
d="M138 990h-84q-13 0 -25 8.5t-12 25.5v168q0 16 12.5 24.5t24.5 8.5h84v52q0 114 30 183.5t83 106.5t125 47.5t155 6.5q24 -2 35.5 -11t11.5 -35v-135q0 -25 -13.5 -34.5t-37.5 -9.5q-33 0 -57.5 -5t-41.5 -20.5t-25.5 -44t-8.5 -75.5v-26h149q12 0 24 -9.5t12 -23.5v-168
q0 -17 -12 -25.5t-24 -8.5h-149v-952q0 -38 -31 -38h-194q-31 0 -31 38v952z" />
    <glyph glyph-name="g" unicode="g" horiz-adv-x="911" 
d="M819 69q0 -140 -34 -233.5t-91 -150t-131 -80t-154 -21.5q-41 1 -84 8.5t-84 22t-78 36.5t-67 52q-15 15 -10 29.5t13 25.5l69 98q10 14 24.5 15t28.5 -9q32 -23 71 -38.5t102 -15.5q37 0 69.5 13t57 39.5t38.5 67t14 95.5v74q-37 -48 -84.5 -77.5t-106.5 -29.5
q-72 0 -130.5 31t-99 81.5t-62.5 115t-22 130.5v520q0 79 21 148.5t62 121t102 81t141 29.5q72 0 124 -39t87 -101l19 82q5 20 16.5 27.5t30.5 7.5h113q15 0 25 -9.5t10 -28.5v-1118zM563 868q0 26 -8.5 52t-25 46.5t-40.5 33t-55 12.5q-25 0 -45 -10t-34.5 -27t-22.5 -39
t-8 -46v-542q0 -24 7.5 -46.5t22 -39t34.5 -26.5t45 -10q32 0 56.5 13.5t41 35.5t24.5 50.5t8 57.5v485z" />
    <glyph glyph-name="h" unicode="h" horiz-adv-x="927" 
d="M590 886q0 25 -7.5 47.5t-21.5 40t-35.5 28t-48.5 10.5q-29 0 -52 -12t-40 -31.5t-26.5 -45t-10.5 -51.5v-830q0 -16 -11 -29t-38 -13h-170q-37 0 -37 38v1506q0 18 9.5 28.5t27.5 10.5h182q19 0 28 -10.5t9 -28.5v-412q37 54 90.5 85t126.5 31q66 0 118 -26t88 -73.5
t55 -114t19 -147.5v-848q0 -20 -9.5 -29.5t-23.5 -9.5h-189q-14 0 -23.5 9.5t-9.5 29.5v847z" />
    <glyph glyph-name="i" unicode="i" horiz-adv-x="440" 
d="M92 1189q0 16 11 26t26 10h182q17 0 27 -11t10 -26v-1149q0 -39 -37 -39h-182q-37 0 -37 39v1150zM78 1500q0 25 13 41.5t45 16.5h170q29 0 41.5 -15.5t12.5 -43.5v-120q0 -31 -14.5 -42.5t-39.5 -11.5h-169q-27 0 -43 11.5t-16 41.5v122z" />
    <glyph glyph-name="j" unicode="j" horiz-adv-x="440" 
d="M92 1189q0 18 12 27t25 9h182q15 0 26 -9.5t11 -26.5v-1233q0 -78 -28.5 -145.5t-82 -117t-131 -77.5t-176.5 -28q-18 0 -31.5 10.5t-13.5 27.5v157q0 20 8.5 31.5t31.5 11.5q78 0 122.5 44t44.5 131v1188zM78 1500q0 25 13 42t45 17h170q29 0 41.5 -16t12.5 -44v-120
q0 -31 -14.5 -42.5t-39.5 -11.5h-170q-26 0 -42 11.5t-16 41.5v122z" />
    <glyph glyph-name="k" unicode="k" horiz-adv-x="894" 
d="M563 682l307 -621q11 -23 1.5 -42t-28.5 -19h-203q-15 0 -24.5 7.5t-16.5 26.5l-200 453l-50 -51v-397q0 -39 -37 -39h-183q-36 0 -36 39v1505q0 18 9 28.5t27 10.5h183q19 0 28 -10.5t9 -28.5v-760l13 43l202 369q9 20 21.5 24.5t30.5 4.5h194q13 0 21.5 -6.5t11.5 -17
t1.5 -23t-8.5 -24.5z" />
    <glyph glyph-name="l" unicode="l" horiz-adv-x="440" 
d="M92 1544q0 18 9.5 28.5t27.5 10.5h182q19 0 28 -10.5t9 -28.5v-1505q0 -39 -37 -39h-182q-37 0 -37 39v1505z" />
    <glyph glyph-name="m" unicode="m" horiz-adv-x="1378" 
d="M822 40q0 -40 -32 -40h-191q-32 0 -32 40v835q0 23 -4.5 47.5t-15.5 44.5t-28.5 32.5t-44.5 12.5q-23 0 -45.5 -10t-40 -28t-28.5 -43t-12 -54v-837q0 -10 -5 -17.5t-12.5 -12.5t-15.5 -7.5t-15 -2.5h-175q-14 0 -23.5 10t-9.5 30v1146q0 20 10 29.5t24 9.5h116
q19 0 30 -8t16 -30l32 -110q18 36 41.5 67t53 54.5t64.5 36.5t76 13q26 0 58.5 -5.5t65.5 -24t63 -55t50 -97.5q34 82 91.5 132t143.5 50q16 0 42.5 -2.5t56.5 -14t60 -35t54.5 -65t40 -104t15.5 -152.5v-835q0 -40 -32 -40h-191q-32 0 -32 40v835q0 23 -4.5 47.5
t-15.5 44.5t-29.5 32.5t-46.5 12.5q-24 0 -46.5 -10.5t-39.5 -29t-27 -44.5t-10 -57v-831z" />
    <glyph glyph-name="n" unicode="n" horiz-adv-x="927" 
d="M590 891q-1 24 -8.5 46t-22 38.5t-36 26.5t-49.5 10q-26 0 -48.5 -11.5t-39.5 -30.5t-27 -43.5t-11 -50.5v-836q0 -20 -16.5 -30t-30.5 -10h-176q-14 0 -23.5 10t-9.5 30v1147q0 20 10 29t24 9h116q19 0 30 -7t16 -28l27 -120q19 38 43.5 70.5t54 56.5t64 37.5t75.5 13.5
q72 0 126.5 -26t91.5 -73t56 -113.5t19 -147.5v-849q0 -20 -9.5 -29.5t-23.5 -9.5h-189q-14 0 -23.5 9.5t-9.5 29.5v852z" />
    <glyph glyph-name="o" unicode="o" horiz-adv-x="887" 
d="M68 894q0 74 29.5 138.5t80 112.5t118.5 75.5t146 27.5t147 -26t120 -72.5t80.5 -112t29.5 -143.5v-563q0 -78 -29.5 -143.5t-80.5 -112t-119.5 -72.5t-146.5 -26t-146.5 26t-119 72.5t-80 112t-29.5 143.5v563zM324 331q0 -24 9 -45.5t25.5 -37.5t38 -25.5t47.5 -9.5
q25 0 47 9.5t38 25.5t25.5 37.5t9.5 45.5v563q0 24 -9.5 45.5t-26 37.5t-38 25.5t-46.5 9.5t-47 -9.5t-38 -25.5t-25.5 -37.5t-9.5 -45.5v-563z" />
    <glyph glyph-name="p" unicode="p" horiz-adv-x="911" 
d="M92 1186q0 39 37 39h117q19 0 28 -8.5t16 -37.5l14 -87q18 32 40.5 60.5t50 49.5t61 33.5t73.5 12.5q79 0 138 -30t98 -81t58.5 -118.5t19.5 -142.5v-541q0 -68 -20 -132.5t-57.5 -114.5t-91 -80.5t-120.5 -30.5q-65 0 -117 33.5t-90 88.5v-443q0 -19 -8.5 -30t-26.5 -11
h-183q-18 0 -27.5 11t-9.5 30v1530zM348 357q0 -26 8.5 -51.5t24.5 -46t40 -33.5t56 -13q27 0 47.5 11t34.5 28.5t21.5 39.5t7.5 44v554q0 24 -8 46t-22.5 39t-34.5 27t-45 10q-32 0 -56 -14t-40.5 -36.5t-25 -50t-8.5 -54.5v-500z" />
    <glyph glyph-name="q" unicode="q" horiz-adv-x="911" 
d="M819 -337q0 -40 -37 -40h-182q-36 0 -36 40v436q-39 -55 -90.5 -88.5t-115.5 -33.5q-67 0 -121 30.5t-91.5 80.5t-57.5 114.5t-20 132.5v541q0 75 19.5 142.5t58.5 118.5t98 81t138 30q39 0 72.5 -12t61.5 -33t50.5 -49.5t39.5 -60.5l15 86q7 29 16 37.5t29 8.5h116
q37 0 37 -39v-1523zM564 857q0 27 -8.5 54.5t-25 50t-41 36.5t-55.5 14q-25 0 -45.5 -10t-34.5 -27t-22 -39t-8 -46v-554q0 -22 7 -44t21 -39.5t34.5 -28.5t47.5 -11q31 0 55.5 13t41 33.5t25 46t8.5 51.5v500z" />
    <glyph glyph-name="r" unicode="r" horiz-adv-x="701" 
d="M92 1187q0 20 10 29t24 9h115q20 0 31 -7.5t16 -28.5l27 -118q19 38 43.5 70.5t53.5 56t63.5 37t74.5 13.5q23 0 51 -2t57 -10q32 -10 29 -45l-1 -173q-2 -32 -14.5 -43t-41.5 -9q-27 1 -46.5 8.5t-36 15.5t-32.5 15t-37 7q-33 0 -57 -12.5t-40 -35t-24 -52.5t-9 -64
v-808q0 -10 -5 -17.5t-12.5 -12.5t-15.5 -7.5t-15 -2.5h-175q-14 0 -23.5 10t-9.5 30v1147z" />
    <glyph glyph-name="s" unicode="s" horiz-adv-x="833" 
d="M46 352q0 35 51 35h164q15 0 22.5 -9.5t7.5 -26.5v-28q0 -51 33 -83.5t86 -32.5q25 0 47 9t38.5 25t25.5 38.5t9 49.5q0 33 -23 61t-60.5 54.5t-85.5 54.5t-98 62q-45 29 -83 63t-65 75t-42.5 91t-15.5 111q0 73 26.5 136.5t74 110t112.5 73.5t143 27q86 0 152.5 -26
t112 -73t69 -112t23.5 -143v-23q0 -19 -9 -24t-32 -5h-159q-19 0 -26.5 9.5t-7.5 26.5v22q0 51 -30.5 85t-81.5 34q-27 0 -47.5 -10t-34.5 -27t-21 -40t-7 -48q0 -30 10.5 -51t34 -40t61.5 -41t93 -54q59 -34 109.5 -74t87 -87t57.5 -101.5t21 -117.5q0 -76 -26.5 -140
t-74.5 -111t-116 -73.5t-151 -26.5q-110 0 -182 29.5t-114.5 79t-60 113t-17.5 132.5v21z" />
    <glyph glyph-name="t" unicode="t" horiz-adv-x="576" 
d="M391 989v-951q0 -38 -31 -38h-193q-32 0 -32 38v951h-76q-13 0 -24.5 9t-11.5 26v167q0 17 12 25.5t24 8.5h76v186q0 20 7.5 30.5t27.5 15.5l167 55q21 5 37.5 -6.5t16.5 -40.5v-240h132q13 0 25 -10t12 -24v-167q0 -17 -12 -26t-25 -9h-132z" />
    <glyph glyph-name="u" unicode="u" horiz-adv-x="927" 
d="M580 1185q0 20 16 30t30 10h175q14 0 24 -10t10 -30v-1146q0 -20 -10.5 -29.5t-24.5 -9.5h-114q-20 0 -30.5 7t-15.5 28l-28 121q-19 -38 -43.5 -70.5t-54 -56.5t-64.5 -38t-75 -14q-72 0 -126.5 26t-91.5 73t-56 113.5t-19 147.5v849q0 20 9.5 29.5t23.5 9.5h190
q14 0 23.5 -9.5t9.5 -29.5v-847q0 -25 7.5 -47.5t22 -40t36 -28t50.5 -10.5q27 0 50 12t40 32t26.5 45t9.5 52v831z" />
    <glyph glyph-name="v" unicode="v" horiz-adv-x="874" 
d="M570 34q-9 -34 -38 -34h-191q-30 0 -38 34l-283 1131q-7 30 1.5 45t28.5 15h191q35 0 41 -37l139 -772l15 -176l16 176l141 775q3 19 15 26.5t27 7.5h188q25 0 31.5 -17t-0.5 -43z" />
    <glyph glyph-name="w" unicode="w" horiz-adv-x="1335" 
d="M768 904l105 -493l19 -154l12 155l146 779q3 19 15 26.5t26 7.5h189q20 0 30 -13t4 -39l-279 -1139q-9 -34 -39 -34h-193q-32 0 -39 34l-83 359l-17 109l-14 -112l-81 -356q-7 -34 -38 -34h-193q-31 0 -38 34l-278 1132q-7 29 1.5 44t28.5 15h191q34 0 41 -37l147 -776
l11 -155l12 154l139 780q3 19 15 26.5t27 7.5h156q41 0 27 -53z" />
    <glyph glyph-name="y" unicode="y" horiz-adv-x="874" 
d="M461 -416q-9 -37 -43 -37h-161q-18 0 -28 6.5t-14 16.5t-4 22t3 23l101 382l-295 1169q-8 29 1 44t29 15h191q34 0 41 -37l144 -735l11 -153l10 153l147 738q3 19 15 26.5t27 7.5h187q20 0 30 -13.5t2 -40.5z" />
    <glyph glyph-name="z" unicode="z" horiz-adv-x="769" 
d="M694 1225q24 0 24 -32l1 -140q0 -6 -0.5 -14t-5.5 -18l-1 -1l-371 -748l-26 -38h388q11 0 21.5 -9.5t10.5 -22.5v-169q0 -16 -10 -25t-22 -9h-642q-13 0 -18 9.5t-5 23.5l-2 120q0 5 2 14.5t7 20.5l4 9l366 761l21 31h-360q-11 0 -18.5 10t-7.5 23v171q0 33 26 33h618z
" />
    <glyph glyph-name="c" unicode="c" horiz-adv-x="853" 
d="M68 895q0 73 29.5 137.5t80 112.5t118.5 75.5t146 27.5t144.5 -28t114.5 -76t75 -112.5t27 -137.5v-88q0 -23 -7.5 -30.5t-24.5 -7.5h-171q-22 0 -31.5 8t-9.5 32v85q0 24 -8.5 45.5t-23.5 38t-36.5 26t-46.5 9.5t-47 -9.5t-38 -25t-25.5 -37t-9.5 -45.5v-564
q0 -24 9.5 -45.5t25.5 -37.5t38 -25.5t47 -9.5t46.5 9.5t36.5 26t23.5 38t8.5 45.5v67q0 23 8.5 31t25.5 8h178q17 0 24.5 -8t7.5 -29v-70q0 -73 -27 -137.5t-75 -112.5t-114.5 -76t-144.5 -28t-146 26t-118.5 73t-80 112t-29.5 143v564v0z" />
    <glyph glyph-name="Ocircumflex" unicode="&#xd4;" horiz-adv-x="908" 
d="M69 1092q0 83 30.5 149.5t83 112.5t122 70.5t148.5 24.5t149.5 -24.5t123 -70.5t83 -112t30.5 -150v-759q0 -83 -30.5 -149t-83 -112t-122.5 -70.5t-149 -24.5t-149 25t-122.5 71.5t-83 112.5t-30.5 147v759zM325 347q0 -25 9 -47.5t26 -40t40.5 -28t53.5 -10.5
q29 0 53 10.5t41 28t26 40t9 47.5v731q0 25 -9.5 48t-27 40.5t-41 28t-51.5 10.5t-51.5 -10.5t-41 -28t-27 -40.5t-9.5 -48v-731zM291 1620v248q0 5 1 6q4 2 6 2h64q15 0 27 -6q12 -4 22 -14q5 -5 9 -10.5t6 -11.5q5 -13 5 -27v-32q0 -19 -7 -32q-7 -15 -19 -23l29 -100v-1
q0 -3 -1 -4q-2 -2 -4 -2h-37q-2 0 -4 2l-2 5l-20 85h-28v-85q0 -7 -7 -7h-33q-7 0 -7 7zM523 1617v3l56 249q2 7 8 7h32q6 0 8 -7l55 -249q1 -1 1 -3q0 -4 -4 -4h-37q-3 0 -5 2q-3 1 -3 5l-6 37h-50l-6 -37q-1 -3 -3 -5t-5 -2h-37q-4 0 -4 4zM182 1615q-1 1 -1 5v211h-39
q-3 0 -3 1q-2 2 -2 5v32q0 4 2 5q0 2 3 2h124q2 0 4 -2t2 -5v-32q0 -1 -2 -5q-1 -1 -4 -1h-38v-211q0 -7 -6 -7h-36q-2 0 -4 2zM698 1620v248q0 4 2 6t5 2h34q3 0 5 -2t2 -6v-210h58q6 0 6 -6v-32q0 -7 -6 -7h-99q-7 0 -7 7zM460 1620v248q0 5 2 6q2 2 5 2h33q3 0 5 -2t2 -6
v-248q0 -7 -7 -7h-33q-7 0 -7 7zM362 1750q10 0 16 6q6 7 6 17v35q0 10 -6 16q-7 7 -17 7h-23v-81h24zM620 1699l-15 96l-2 25l-2 -25l-16 -96h35z" />
    <glyph glyph-name="Odieresis" unicode="&#xd6;" horiz-adv-x="908" 
d="M69 1092q0 83 30.5 149.5t83 112.5t122 70.5t148.5 24.5t149.5 -24.5t123 -70.5t83 -112t30.5 -150v-759q0 -83 -30.5 -149t-83 -112t-122.5 -70.5t-149 -24.5t-149 25t-122.5 71.5t-83 112.5t-30.5 147v759zM325 347q0 -25 9 -47.5t26 -40t40.5 -28t53.5 -10.5
q29 0 53 10.5t41 28t26 40t9 47.5v731q0 25 -9.5 48t-27 40.5t-41 28t-51.5 10.5t-51.5 -10.5t-41 -28t-27 -40.5t-9.5 -48v-731zM281 1613v248q0 5 1 6q4 2 6 2h64q15 0 27 -6q12 -4 22 -14q5 -5 9 -10.5t6 -11.5q5 -13 5 -27v-32q0 -19 -7 -32q-7 -15 -19 -23l29 -100v-1
q0 -3 -1 -4q-2 -2 -4 -2h-37q-2 0 -4 2l-2 5l-20 85h-28v-85q0 -7 -7 -7h-33q-7 0 -7 7zM513 1610v3l56 249q2 7 8 7h32q6 0 8 -7l55 -249q1 -1 1 -3q0 -4 -4 -4h-37q-3 0 -5 2q-3 1 -3 5l-6 37h-50l-6 -37q-1 -3 -3 -5t-5 -2h-37q-4 0 -4 4zM172 1608q-1 1 -1 5v211h-39
q-3 0 -3 1q-2 2 -2 5v32q0 4 2 5q0 2 3 2h124q2 0 4 -2t2 -5v-32q0 -1 -2 -5q-1 -1 -4 -1h-38v-211q0 -7 -6 -7h-36q-2 0 -4 2zM688 1613v248q0 4 2 6t5 2h34q3 0 5 -2t2 -6v-210h58q6 0 6 -6v-32q0 -7 -6 -7h-99q-7 0 -7 7zM450 1613v248q0 5 2 6q2 2 5 2h33q3 0 5 -2t2 -6
v-248q0 -7 -7 -7h-33q-7 0 -7 7zM352 1743q10 0 16 6q6 7 6 17v35q0 10 -6 16q-7 7 -17 7h-23v-81h24zM610 1692l-15 96l-2 25l-2 -25l-16 -96h35z" />
    <glyph glyph-name="aring" unicode="&#xe5;" horiz-adv-x="911" 
d="M273 1448v248q0 5 1 6q4 2 6 2h64q15 0 27 -6q12 -4 22 -14q5 -5 9 -10.5t6 -11.5q5 -13 5 -27v-32q0 -19 -7 -32q-7 -15 -19 -23l29 -100v-1q0 -3 -1 -4q-2 -2 -4 -2h-37q-2 0 -4 2l-2 5l-20 85h-28v-85q0 -7 -7 -7h-33q-7 0 -7 7zM505 1445v3l56 249q2 7 8 7h32
q6 0 8 -7l55 -249q1 -1 1 -3q0 -4 -4 -4h-37q-3 0 -5 2q-3 1 -3 5l-6 37h-50l-6 -37q-1 -3 -3 -5t-5 -2h-37q-4 0 -4 4zM164 1443q-1 1 -1 5v211h-39q-3 0 -3 1q-2 2 -2 5v32q0 4 2 5q0 2 3 2h124q2 0 4 -2t2 -5v-32q0 -1 -2 -5q-1 -1 -4 -1h-38v-211q0 -7 -6 -7h-36
q-2 0 -4 2zM680 1448v248q0 4 2 6t5 2h34q3 0 5 -2t2 -6v-210h58q6 0 6 -6v-32q0 -7 -6 -7h-99q-7 0 -7 7zM442 1448v248q0 5 2 6q2 2 5 2h33q3 0 5 -2t2 -6v-248q0 -7 -7 -7h-33q-7 0 -7 7zM344 1578q10 0 16 6q6 7 6 17v35q0 10 -6 16q-7 7 -17 7h-23v-81h24zM602 1527
l-15 96l-2 25l-2 -25l-16 -96h35zM819 40q0 -20 -10 -30t-24 -10h-127q-27 0 -35 40l-14 79q-34 -63 -85.5 -102.5t-123.5 -39.5q-81 0 -143 29.5t-104 79t-63.5 114.5t-21.5 137v540q0 80 22 148t64 117.5t103 77.5t139 28q73 0 124.5 -38.5t85.5 -98.5l17 76q5 23 15 30.5
t29 7.5h117q15 0 25 -9.5t10 -28.5v-1147zM564 868q0 26 -8.5 52t-24.5 46.5t-40.5 33t-55.5 12.5q-25 0 -45.5 -10t-35 -27t-22.5 -39.5t-8 -47.5v-552q0 -24 8 -46.5t22.5 -39t35 -27t45.5 -10.5q31 0 55.5 13t40.5 34t24.5 47.5t8.5 52.5v508z" />
    <glyph glyph-name="atilde" unicode="&#xe3;" horiz-adv-x="911" 
d="M819 40q0 -20 -10 -30t-24 -10h-127q-27 0 -35 40l-14 79q-34 -63 -85.5 -102.5t-123.5 -39.5q-81 0 -143 29.5t-104 79t-63.5 114.5t-21.5 137v540q0 80 22 148t64 117.5t103 77.5t139 28q73 0 124.5 -38.5t85.5 -98.5l17 76q5 23 15 30.5t29 7.5h117q15 0 25 -9.5
t10 -28.5v-1147zM564 868q0 26 -8.5 52t-24.5 46.5t-40.5 33t-55.5 12.5q-25 0 -45.5 -10t-35 -27t-22.5 -39.5t-8 -47.5v-552q0 -24 8 -46.5t22.5 -39t35 -27t45.5 -10.5q31 0 55.5 13t40.5 34t24.5 47.5t8.5 52.5v508zM281 1404v248q0 5 1 6q4 2 6 2h64q15 0 27 -6
q12 -4 22 -14q5 -5 9 -10.5t6 -11.5q5 -13 5 -27v-32q0 -19 -7 -32q-7 -15 -19 -23l29 -100v-1q0 -3 -1 -4q-2 -2 -4 -2h-37q-2 0 -4 2l-2 5l-20 85h-28v-85q0 -7 -7 -7h-33q-7 0 -7 7zM513 1401v3l56 249q2 7 8 7h32q6 0 8 -7l55 -249q1 -1 1 -3q0 -4 -4 -4h-37q-3 0 -5 2
q-3 1 -3 5l-6 37h-50l-6 -37q-1 -3 -3 -5t-5 -2h-37q-4 0 -4 4zM172 1399q-1 1 -1 5v211h-39q-3 0 -3 1q-2 2 -2 5v32q0 4 2 5q0 2 3 2h124q2 0 4 -2t2 -5v-32q0 -1 -2 -5q-1 -1 -4 -1h-38v-211q0 -7 -6 -7h-36q-2 0 -4 2zM688 1404v248q0 4 2 6t5 2h34q3 0 5 -2t2 -6v-210
h58q6 0 6 -6v-32q0 -7 -6 -7h-99q-7 0 -7 7zM450 1404v248q0 5 2 6q2 2 5 2h33q3 0 5 -2t2 -6v-248q0 -7 -7 -7h-33q-7 0 -7 7zM352 1534q10 0 16 6q6 7 6 17v35q0 10 -6 16q-7 7 -17 7h-23v-81h24zM610 1483l-15 96l-2 25l-2 -25l-16 -96h35z" />
    <glyph glyph-name="yacute" unicode="&#xfd;" horiz-adv-x="874" 
d="M461 -416q-9 -37 -43 -37h-161q-18 0 -28 6.5t-14 16.5t-4 22t3 23l101 382l-295 1169q-8 29 1 44t29 15h191q34 0 41 -37l144 -735l11 -153l10 153l147 738q3 19 15 26.5t27 7.5h187q20 0 30 -13.5t2 -40.5zM364 1378v248q0 5 1 6q4 2 6 2h64q15 0 27 -6q12 -4 22 -14
q5 -5 9 -10.5t6 -11.5q5 -13 5 -27v-32q0 -19 -7 -32q-7 -15 -19 -23l29 -100v-1q0 -3 -1 -4q-2 -2 -4 -2h-37q-2 0 -4 2l-2 5l-20 85h-28v-85q0 -7 -7 -7h-33q-7 0 -7 7zM596 1375v3l56 249q2 7 8 7h32q6 0 8 -7l55 -249q1 -1 1 -3q0 -4 -4 -4h-37q-3 0 -5 2q-3 1 -3 5
l-6 37h-50l-6 -37q-1 -3 -3 -5t-5 -2h-37q-4 0 -4 4zM255 1373q-1 1 -1 5v211h-39q-3 0 -3 1q-2 2 -2 5v32q0 4 2 5q0 2 3 2h124q2 0 4 -2t2 -5v-32q0 -1 -2 -5q-1 -1 -4 -1h-38v-211q0 -7 -6 -7h-36q-2 0 -4 2zM771 1378v248q0 4 2 6t5 2h34q3 0 5 -2t2 -6v-210h58
q6 0 6 -6v-32q0 -7 -6 -7h-99q-7 0 -7 7zM533 1378v248q0 5 2 6q2 2 5 2h33q3 0 5 -2t2 -6v-248q0 -7 -7 -7h-33q-7 0 -7 7zM435 1508q10 0 16 6q6 7 6 17v35q0 10 -6 16q-7 7 -17 7h-23v-81h24zM693 1457l-15 96l-2 25l-2 -25l-16 -96h35z" />
    <glyph glyph-name="sacute" unicode="&#x15b;" horiz-adv-x="833" 
d="M46 352q0 35 51 35h164q15 0 22.5 -9.5t7.5 -26.5v-28q0 -51 33 -83.5t86 -32.5q25 0 47 9t38.5 25t25.5 38.5t9 49.5q0 33 -23 61t-60.5 54.5t-85.5 54.5t-98 62q-45 29 -83 63t-65 75t-42.5 91t-15.5 111q0 73 26.5 136.5t74 110t112.5 73.5t143 27q86 0 152.5 -26
t112 -73t69 -112t23.5 -143v-23q0 -19 -9 -24t-32 -5h-159q-19 0 -26.5 9.5t-7.5 26.5v22q0 51 -30.5 85t-81.5 34q-27 0 -47.5 -10t-34.5 -27t-21 -40t-7 -48q0 -30 10.5 -51t34 -40t61.5 -41t93 -54q59 -34 109.5 -74t87 -87t57.5 -101.5t21 -117.5q0 -76 -26.5 -140
t-74.5 -111t-116 -73.5t-151 -26.5q-110 0 -182 29.5t-114.5 79t-60 113t-17.5 132.5v21zM356 1382v248q0 5 1 6q4 2 6 2h64q15 0 27 -6q12 -4 22 -14q5 -5 9 -10.5t6 -11.5q5 -13 5 -27v-32q0 -19 -7 -32q-7 -15 -19 -23l29 -100v-1q0 -3 -1 -4q-2 -2 -4 -2h-37q-2 0 -4 2
l-2 5l-20 85h-28v-85q0 -7 -7 -7h-33q-7 0 -7 7zM588 1379v3l56 249q2 7 8 7h32q6 0 8 -7l55 -249q1 -1 1 -3q0 -4 -4 -4h-37q-3 0 -5 2q-3 1 -3 5l-6 37h-50l-6 -37q-1 -3 -3 -5t-5 -2h-37q-4 0 -4 4zM247 1377q-1 1 -1 5v211h-39q-3 0 -3 1q-2 2 -2 5v32q0 4 2 5q0 2 3 2
h124q2 0 4 -2t2 -5v-32q0 -1 -2 -5q-1 -1 -4 -1h-38v-211q0 -7 -6 -7h-36q-2 0 -4 2zM763 1382v248q0 4 2 6t5 2h34q3 0 5 -2t2 -6v-210h58q6 0 6 -6v-32q0 -7 -6 -7h-99q-7 0 -7 7zM525 1382v248q0 5 2 6q2 2 5 2h33q3 0 5 -2t2 -6v-248q0 -7 -7 -7h-33q-7 0 -7 7z
M427 1512q10 0 16 6q6 7 6 17v35q0 10 -6 16q-7 7 -17 7h-23v-81h24zM685 1461l-15 96l-2 25l-2 -25l-16 -96h35z" />
    <glyph glyph-name="uacute" unicode="&#xfa;" horiz-adv-x="927" 
d="M580 1185q0 20 16 30t30 10h175q14 0 24 -10t10 -30v-1146q0 -20 -10.5 -29.5t-24.5 -9.5h-114q-20 0 -30.5 7t-15.5 28l-28 121q-19 -38 -43.5 -70.5t-54 -56.5t-64.5 -38t-75 -14q-72 0 -126.5 26t-91.5 73t-56 113.5t-19 147.5v849q0 20 9.5 29.5t23.5 9.5h190
q14 0 23.5 -9.5t9.5 -29.5v-847q0 -25 7.5 -47.5t22 -40t36 -28t50.5 -10.5q27 0 50 12t40 32t26.5 45t9.5 52v831zM374 1372v248q0 5 1 6q4 2 6 2h64q15 0 27 -6q12 -4 22 -14q5 -5 9 -10.5t6 -11.5q5 -13 5 -27v-32q0 -19 -7 -32q-7 -15 -19 -23l29 -100v-1q0 -3 -1 -4
q-2 -2 -4 -2h-37q-2 0 -4 2l-2 5l-20 85h-28v-85q0 -7 -7 -7h-33q-7 0 -7 7zM606 1369v3l56 249q2 7 8 7h32q6 0 8 -7l55 -249q1 -1 1 -3q0 -4 -4 -4h-37q-3 0 -5 2q-3 1 -3 5l-6 37h-50l-6 -37q-1 -3 -3 -5t-5 -2h-37q-4 0 -4 4zM265 1367q-1 1 -1 5v211h-39q-3 0 -3 1
q-2 2 -2 5v32q0 4 2 5q0 2 3 2h124q2 0 4 -2t2 -5v-32q0 -1 -2 -5q-1 -1 -4 -1h-38v-211q0 -7 -6 -7h-36q-2 0 -4 2zM781 1372v248q0 4 2 6t5 2h34q3 0 5 -2t2 -6v-210h58q6 0 6 -6v-32q0 -7 -6 -7h-99q-7 0 -7 7zM543 1372v248q0 5 2 6q2 2 5 2h33q3 0 5 -2t2 -6v-248
q0 -7 -7 -7h-33q-7 0 -7 7zM445 1502q10 0 16 6q6 7 6 17v35q0 10 -6 16q-7 7 -17 7h-23v-81h24zM703 1451l-15 96l-2 25l-2 -25l-16 -96h35z" />
    <glyph glyph-name="ugrave" unicode="&#xf9;" horiz-adv-x="927" 
d="M580 1185q0 20 16 30t30 10h175q14 0 24 -10t10 -30v-1146q0 -20 -10.5 -29.5t-24.5 -9.5h-114q-20 0 -30.5 7t-15.5 28l-28 121q-19 -38 -43.5 -70.5t-54 -56.5t-64.5 -38t-75 -14q-72 0 -126.5 26t-91.5 73t-56 113.5t-19 147.5v849q0 20 9.5 29.5t23.5 9.5h190
q14 0 23.5 -9.5t9.5 -29.5v-847q0 -25 7.5 -47.5t22 -40t36 -28t50.5 -10.5q27 0 50 12t40 32t26.5 45t9.5 52v831zM260 1380v248q0 5 1 6q4 2 6 2h64q15 0 27 -6q12 -4 22 -14q5 -5 9 -10.5t6 -11.5q5 -13 5 -27v-32q0 -19 -7 -32q-7 -15 -19 -23l29 -100v-1q0 -3 -1 -4
q-2 -2 -4 -2h-37q-2 0 -4 2l-2 5l-20 85h-28v-85q0 -7 -7 -7h-33q-7 0 -7 7zM492 1377v3l56 249q2 7 8 7h32q6 0 8 -7l55 -249q1 -1 1 -3q0 -4 -4 -4h-37q-3 0 -5 2q-3 1 -3 5l-6 37h-50l-6 -37q-1 -3 -3 -5t-5 -2h-37q-4 0 -4 4zM151 1375q-1 1 -1 5v211h-39q-3 0 -3 1
q-2 2 -2 5v32q0 4 2 5q0 2 3 2h124q2 0 4 -2t2 -5v-32q0 -1 -2 -5q-1 -1 -4 -1h-38v-211q0 -7 -6 -7h-36q-2 0 -4 2zM667 1380v248q0 4 2 6t5 2h34q3 0 5 -2t2 -6v-210h58q6 0 6 -6v-32q0 -7 -6 -7h-99q-7 0 -7 7zM429 1380v248q0 5 2 6q2 2 5 2h33q3 0 5 -2t2 -6v-248
q0 -7 -7 -7h-33q-7 0 -7 7zM331 1510q10 0 16 6q6 7 6 17v35q0 10 -6 16q-7 7 -17 7h-23v-81h24zM589 1459l-15 96l-2 25l-2 -25l-16 -96h35z" />
    <glyph glyph-name="oacute" unicode="&#xf3;" horiz-adv-x="887" 
d="M68 894q0 74 29.5 138.5t80 112.5t118.5 75.5t146 27.5t147 -26t120 -72.5t80.5 -112t29.5 -143.5v-563q0 -78 -29.5 -143.5t-80.5 -112t-119.5 -72.5t-146.5 -26t-146.5 26t-119 72.5t-80 112t-29.5 143.5v563zM324 331q0 -24 9 -45.5t25.5 -37.5t38 -25.5t47.5 -9.5
q25 0 47 9.5t38 25.5t25.5 37.5t9.5 45.5v563q0 24 -9.5 45.5t-26 37.5t-38 25.5t-46.5 9.5t-47 -9.5t-38 -25.5t-25.5 -37.5t-9.5 -45.5v-563zM371 1384v248q0 5 1 6q4 2 6 2h64q15 0 27 -6q12 -4 22 -14q5 -5 9 -10.5t6 -11.5q5 -13 5 -27v-32q0 -19 -7 -32
q-7 -15 -19 -23l29 -100v-1q0 -3 -1 -4q-2 -2 -4 -2h-37q-2 0 -4 2l-2 5l-20 85h-28v-85q0 -7 -7 -7h-33q-7 0 -7 7zM603 1381v3l56 249q2 7 8 7h32q6 0 8 -7l55 -249q1 -1 1 -3q0 -4 -4 -4h-37q-3 0 -5 2q-3 1 -3 5l-6 37h-50l-6 -37q-1 -3 -3 -5t-5 -2h-37q-4 0 -4 4z
M262 1379q-1 1 -1 5v211h-39q-3 0 -3 1q-2 2 -2 5v32q0 4 2 5q0 2 3 2h124q2 0 4 -2t2 -5v-32q0 -1 -2 -5q-1 -1 -4 -1h-38v-211q0 -7 -6 -7h-36q-2 0 -4 2zM778 1384v248q0 4 2 6t5 2h34q3 0 5 -2t2 -6v-210h58q6 0 6 -6v-32q0 -7 -6 -7h-99q-7 0 -7 7zM540 1384v248
q0 5 2 6q2 2 5 2h33q3 0 5 -2t2 -6v-248q0 -7 -7 -7h-33q-7 0 -7 7zM442 1514q10 0 16 6q6 7 6 17v35q0 10 -6 16q-7 7 -17 7h-23v-81h24zM700 1463l-15 96l-2 25l-2 -25l-16 -96h35z" />
    <glyph glyph-name="ocircumflex" unicode="&#xf4;" horiz-adv-x="887" 
d="M68 894q0 74 29.5 138.5t80 112.5t118.5 75.5t146 27.5t147 -26t120 -72.5t80.5 -112t29.5 -143.5v-563q0 -78 -29.5 -143.5t-80.5 -112t-119.5 -72.5t-146.5 -26t-146.5 26t-119 72.5t-80 112t-29.5 143.5v563zM324 331q0 -24 9 -45.5t25.5 -37.5t38 -25.5t47.5 -9.5
q25 0 47 9.5t38 25.5t25.5 37.5t9.5 45.5v563q0 24 -9.5 45.5t-26 37.5t-38 25.5t-46.5 9.5t-47 -9.5t-38 -25.5t-25.5 -37.5t-9.5 -45.5v-563zM270 1397v248q0 5 1 6q4 2 6 2h64q15 0 27 -6q12 -4 22 -14q5 -5 9 -10.5t6 -11.5q5 -13 5 -27v-32q0 -19 -7 -32
q-7 -15 -19 -23l29 -100v-1q0 -3 -1 -4q-2 -2 -4 -2h-37q-2 0 -4 2l-2 5l-20 85h-28v-85q0 -7 -7 -7h-33q-7 0 -7 7zM502 1394v3l56 249q2 7 8 7h32q6 0 8 -7l55 -249q1 -1 1 -3q0 -4 -4 -4h-37q-3 0 -5 2q-3 1 -3 5l-6 37h-50l-6 -37q-1 -3 -3 -5t-5 -2h-37q-4 0 -4 4z
M161 1392q-1 1 -1 5v211h-39q-3 0 -3 1q-2 2 -2 5v32q0 4 2 5q0 2 3 2h124q2 0 4 -2t2 -5v-32q0 -1 -2 -5q-1 -1 -4 -1h-38v-211q0 -7 -6 -7h-36q-2 0 -4 2zM677 1397v248q0 4 2 6t5 2h34q3 0 5 -2t2 -6v-210h58q6 0 6 -6v-32q0 -7 -6 -7h-99q-7 0 -7 7zM439 1397v248
q0 5 2 6q2 2 5 2h33q3 0 5 -2t2 -6v-248q0 -7 -7 -7h-33q-7 0 -7 7zM341 1527q10 0 16 6q6 7 6 17v35q0 10 -6 16q-7 7 -17 7h-23v-81h24zM599 1476l-15 96l-2 25l-2 -25l-16 -96h35z" />
    <glyph glyph-name="ograve" unicode="&#xf2;" horiz-adv-x="887" 
d="M68 894q0 74 29.5 138.5t80 112.5t118.5 75.5t146 27.5t147 -26t120 -72.5t80.5 -112t29.5 -143.5v-563q0 -78 -29.5 -143.5t-80.5 -112t-119.5 -72.5t-146.5 -26t-146.5 26t-119 72.5t-80 112t-29.5 143.5v563zM324 331q0 -24 9 -45.5t25.5 -37.5t38 -25.5t47.5 -9.5
q25 0 47 9.5t38 25.5t25.5 37.5t9.5 45.5v563q0 24 -9.5 45.5t-26 37.5t-38 25.5t-46.5 9.5t-47 -9.5t-38 -25.5t-25.5 -37.5t-9.5 -45.5v-563zM240 1397v248q0 5 1 6q4 2 6 2h64q15 0 27 -6q12 -4 22 -14q5 -5 9 -10.5t6 -11.5q5 -13 5 -27v-32q0 -19 -7 -32
q-7 -15 -19 -23l29 -100v-1q0 -3 -1 -4q-2 -2 -4 -2h-37q-2 0 -4 2l-2 5l-20 85h-28v-85q0 -7 -7 -7h-33q-7 0 -7 7zM472 1394v3l56 249q2 7 8 7h32q6 0 8 -7l55 -249q1 -1 1 -3q0 -4 -4 -4h-37q-3 0 -5 2q-3 1 -3 5l-6 37h-50l-6 -37q-1 -3 -3 -5t-5 -2h-37q-4 0 -4 4z
M131 1392q-1 1 -1 5v211h-39q-3 0 -3 1q-2 2 -2 5v32q0 4 2 5q0 2 3 2h124q2 0 4 -2t2 -5v-32q0 -1 -2 -5q-1 -1 -4 -1h-38v-211q0 -7 -6 -7h-36q-2 0 -4 2zM647 1397v248q0 4 2 6t5 2h34q3 0 5 -2t2 -6v-210h58q6 0 6 -6v-32q0 -7 -6 -7h-99q-7 0 -7 7zM409 1397v248
q0 5 2 6q2 2 5 2h33q3 0 5 -2t2 -6v-248q0 -7 -7 -7h-33q-7 0 -7 7zM311 1527q10 0 16 6q6 7 6 17v35q0 10 -6 16q-7 7 -17 7h-23v-81h24zM569 1476l-15 96l-2 25l-2 -25l-16 -96h35z" />
    <glyph glyph-name="oslash" unicode="&#xf8;" horiz-adv-x="891" 
d="M68 894q0 74 29.5 138.5t80 112.5t118.5 75.5t146 27.5q52 0 102 -12l23 79q5 17 15 23t23 5l154 -1q5 0 7.5 -4.5t3.5 -10.5t0.5 -12t-1.5 -9l-56 -161q49 -47 77.5 -110.5t28.5 -140.5v-563q0 -78 -29.5 -143.5t-80.5 -112t-119.5 -72.5t-146.5 -26q-44 0 -86 9
l-25 -88q-10 -29 -36 -29h-154q-25 0 -11 38l56 160q-55 47 -87 114t-32 150v563zM324 331q0 -24 9 -45.5t25.5 -37.5t38 -25.5t47.5 -9.5q25 0 47 9.5t38 25.5t25.5 37.5t9.5 45.5v563q0 24 -9.5 45.5t-26 37.5t-38 25.5t-46.5 9.5t-47 -9.5t-38 -25.5t-25.5 -37.5
t-9.5 -45.5v-563z" />
    <glyph glyph-name="otilde" unicode="&#xf5;" horiz-adv-x="887" 
d="M68 894q0 74 29.5 138.5t80 112.5t118.5 75.5t146 27.5t147 -26t120 -72.5t80.5 -112t29.5 -143.5v-563q0 -78 -29.5 -143.5t-80.5 -112t-119.5 -72.5t-146.5 -26t-146.5 26t-119 72.5t-80 112t-29.5 143.5v563zM324 331q0 -24 9 -45.5t25.5 -37.5t38 -25.5t47.5 -9.5
q25 0 47 9.5t38 25.5t25.5 37.5t9.5 45.5v563q0 24 -9.5 45.5t-26 37.5t-38 25.5t-46.5 9.5t-47 -9.5t-38 -25.5t-25.5 -37.5t-9.5 -45.5v-563zM261 1393v248q0 5 1 6q4 2 6 2h64q15 0 27 -6q12 -4 22 -14q5 -5 9 -10.5t6 -11.5q5 -13 5 -27v-32q0 -19 -7 -32
q-7 -15 -19 -23l29 -100v-1q0 -3 -1 -4q-2 -2 -4 -2h-37q-2 0 -4 2l-2 5l-20 85h-28v-85q0 -7 -7 -7h-33q-7 0 -7 7zM493 1390v3l56 249q2 7 8 7h32q6 0 8 -7l55 -249q1 -1 1 -3q0 -4 -4 -4h-37q-3 0 -5 2q-3 1 -3 5l-6 37h-50l-6 -37q-1 -3 -3 -5t-5 -2h-37q-4 0 -4 4z
M152 1388q-1 1 -1 5v211h-39q-3 0 -3 1q-2 2 -2 5v32q0 4 2 5q0 2 3 2h124q2 0 4 -2t2 -5v-32q0 -1 -2 -5q-1 -1 -4 -1h-38v-211q0 -7 -6 -7h-36q-2 0 -4 2zM668 1393v248q0 4 2 6t5 2h34q3 0 5 -2t2 -6v-210h58q6 0 6 -6v-32q0 -7 -6 -7h-99q-7 0 -7 7zM430 1393v248
q0 5 2 6q2 2 5 2h33q3 0 5 -2t2 -6v-248q0 -7 -7 -7h-33q-7 0 -7 7zM332 1523q10 0 16 6q6 7 6 17v35q0 10 -6 16q-7 7 -17 7h-23v-81h24zM590 1472l-15 96l-2 25l-2 -25l-16 -96h35z" />
    <glyph glyph-name="oe" unicode="&#x153;" horiz-adv-x="1352" 
d="M69 894q0 74 29.5 138.5t80 112.5t118.5 75.5t146 27.5t147 -26t120 -72.5t80.5 -112t29.5 -143.5v-563q0 -78 -29.5 -143.5t-80.5 -112t-119.5 -72.5t-146.5 -26t-146.5 26t-119 72.5t-80 112t-29.5 143.5v563zM325 331q0 -24 9 -45.5t25.5 -37.5t38 -25.5t47.5 -9.5
q25 0 47 9.5t38 25.5t25.5 37.5t9.5 45.5v563q0 24 -9.5 45.5t-26 37.5t-38 25.5t-46.5 9.5t-47 -9.5t-38 -25.5t-25.5 -37.5t-9.5 -45.5v-563zM564 894q0 73 29.5 137.5t80 112.5t118.5 76t146 28t143.5 -28t113 -76t73.5 -112.5t26 -137.5v-298q0 -20 -11 -30.5t-29 -10.5
h-434v-231q0 -24 9.5 -45.5t25.5 -37t38 -25t47 -9.5t46.5 9.5t36.5 26t23.5 38t8.5 45.5v45q0 12 8 20.5t22 8.5h179q13 0 20.5 -6.5t7.5 -24.5v-38q0 -73 -26 -137.5t-72.5 -112.5t-112 -76t-143.5 -28t-146 28t-118.5 76t-80 112.5t-29.5 137.5v563zM820 737h235v163
q0 24 -8.5 45.5t-24 37.5t-36.5 25.5t-46 9.5t-47 -9.5t-38 -25t-25.5 -37t-9.5 -45.5v-164z" />
    <glyph glyph-name="ntilde" unicode="&#xf1;" horiz-adv-x="927" 
d="M590 891q-1 24 -8.5 46t-22 38.5t-36 26.5t-49.5 10q-26 0 -48.5 -11.5t-39.5 -30.5t-27 -43.5t-11 -50.5v-836q0 -20 -16.5 -30t-30.5 -10h-176q-14 0 -23.5 10t-9.5 30v1147q0 20 10 29t24 9h116q19 0 30 -7t16 -28l27 -120q19 38 43.5 70.5t54 56.5t64 37.5t75.5 13.5
q72 0 126.5 -26t91.5 -73t56 -113.5t19 -147.5v-849q0 -20 -9.5 -29.5t-23.5 -9.5h-189q-14 0 -23.5 9.5t-9.5 29.5v852zM296 1389v248q0 5 1 6q4 2 6 2h64q15 0 27 -6q12 -4 22 -14q5 -5 9 -10.5t6 -11.5q5 -13 5 -27v-32q0 -19 -7 -32q-7 -15 -19 -23l29 -100v-1
q0 -3 -1 -4q-2 -2 -4 -2h-37q-2 0 -4 2l-2 5l-20 85h-28v-85q0 -7 -7 -7h-33q-7 0 -7 7zM528 1386v3l56 249q2 7 8 7h32q6 0 8 -7l55 -249q1 -1 1 -3q0 -4 -4 -4h-37q-3 0 -5 2q-3 1 -3 5l-6 37h-50l-6 -37q-1 -3 -3 -5t-5 -2h-37q-4 0 -4 4zM187 1384q-1 1 -1 5v211h-39
q-3 0 -3 1q-2 2 -2 5v32q0 4 2 5q0 2 3 2h124q2 0 4 -2t2 -5v-32q0 -1 -2 -5q-1 -1 -4 -1h-38v-211q0 -7 -6 -7h-36q-2 0 -4 2zM703 1389v248q0 4 2 6t5 2h34q3 0 5 -2t2 -6v-210h58q6 0 6 -6v-32q0 -7 -6 -7h-99q-7 0 -7 7zM465 1389v248q0 5 2 6q2 2 5 2h33q3 0 5 -2t2 -6
v-248q0 -7 -7 -7h-33q-7 0 -7 7zM367 1519q10 0 16 6q6 7 6 17v35q0 10 -6 16q-7 7 -17 7h-23v-81h24zM625 1468l-15 96l-2 25l-2 -25l-16 -96h35z" />
    <glyph glyph-name="ccedilla" unicode="&#xe7;" horiz-adv-x="853" 
d="M68 895q0 73 29.5 137.5t80 112.5t118.5 75.5t146 27.5t144.5 -28t114.5 -76t75 -112.5t27 -137.5v-88q0 -23 -7.5 -30.5t-24.5 -7.5h-171q-22 0 -31.5 8t-9.5 32v85q0 24 -8.5 45.5t-23.5 38t-36.5 26t-46.5 9.5t-47 -9.5t-38 -25t-25.5 -37t-9.5 -45.5v-564
q0 -24 9.5 -45.5t25.5 -37.5t38 -25.5t47 -9.5t46.5 9.5t36.5 26t23.5 38t8.5 45.5v67q0 23 8.5 31t25.5 8h178q17 0 24.5 -8t7.5 -29v-70q0 -73 -27 -137.5t-75 -112.5t-114.5 -76t-144.5 -28t-146 26t-118.5 73t-80 112t-29.5 143v564v0zM306 -322v248q0 5 1 6q4 2 6 2h64
q15 0 27 -6q12 -4 22 -14q5 -5 9 -10.5t6 -11.5q5 -13 5 -27v-32q0 -19 -7 -32q-7 -15 -19 -23l29 -100v-1q0 -3 -1 -4q-2 -2 -4 -2h-37q-2 0 -4 2l-2 5l-20 85h-28v-85q0 -7 -7 -7h-33q-7 0 -7 7zM538 -325v3l56 249q2 7 8 7h32q6 0 8 -7l55 -249q1 -1 1 -3q0 -4 -4 -4h-37
q-3 0 -5 2q-3 1 -3 5l-6 37h-50l-6 -37q-1 -3 -3 -5t-5 -2h-37q-4 0 -4 4zM197 -327q-1 1 -1 5v211h-39q-3 0 -3 1q-2 2 -2 5v32q0 4 2 5q0 2 3 2h124q2 0 4 -2t2 -5v-32q0 -1 -2 -5q-1 -1 -4 -1h-38v-211q0 -7 -6 -7h-36q-2 0 -4 2zM713 -322v248q0 4 2 6t5 2h34q3 0 5 -2
t2 -6v-210h58q6 0 6 -6v-32q0 -7 -6 -7h-99q-7 0 -7 7zM475 -322v248q0 5 2 6q2 2 5 2h33q3 0 5 -2t2 -6v-248q0 -7 -7 -7h-33q-7 0 -7 7zM377 -192q10 0 16 6q6 7 6 17v35q0 10 -6 16q-7 7 -17 7h-23v-81h24zM635 -243l-15 96l-2 25l-2 -25l-16 -96h35z" />
    <glyph glyph-name="ae" unicode="&#xe6;" horiz-adv-x="1426" 
d="M888 324q0 -24 9.5 -45.5t26 -37t38 -25t46.5 -9.5t46.5 9.5t37 26t24 38t8.5 45.5v45q0 12 8 20.5t21 8.5h179q13 0 21 -6.5t8 -24.5v-38q0 -73 -26 -137.5t-73 -112.5t-112 -76t-144 -28q-52 0 -99.5 12.5t-89.5 35.5q-8 -25 -32 -25h-127q-27 0 -35 40l-14 79
q-34 -63 -86 -102.5t-124 -39.5q-81 0 -143 29.5t-104 79t-63 114.5t-21 137v540q0 80 22 148t64 117.5t102.5 77.5t138.5 28q73 0 124.5 -39t85.5 -99l18 77q5 23 15 30.5t29 7.5h117q12 0 21 -6.5t12 -18.5q42 23 89.5 35.5t99.5 12.5q79 0 144.5 -28t112.5 -76t73 -112.5
t26 -137.5v-298q0 -20 -11 -30.5t-29 -10.5h-434v-231zM564 868q0 26 -8.5 52t-25 46.5t-41 33t-55.5 12.5q-25 0 -45.5 -10t-34.5 -27t-22 -39.5t-8 -47.5v-552q0 -24 8 -46.5t22 -39t34.5 -27t45.5 -10.5q31 0 55.5 13t41 34t25 47.5t8.5 52.5v508zM888 737h236v163
q0 24 -9 45.5t-24.5 37.5t-36.5 25.5t-46 9.5t-46.5 -9.5t-38 -25t-26 -37t-9.5 -45.5v-164z" />
    <glyph glyph-name="Otilde" unicode="&#xd5;" horiz-adv-x="908" 
d="M69 1092q0 83 30.5 149.5t83 112.5t122 70.5t148.5 24.5t149.5 -24.5t123 -70.5t83 -112t30.5 -150v-759q0 -83 -30.5 -149t-83 -112t-122.5 -70.5t-149 -24.5t-149 25t-122.5 71.5t-83 112.5t-30.5 147v759zM325 347q0 -25 9 -47.5t26 -40t40.5 -28t53.5 -10.5
q29 0 53 10.5t41 28t26 40t9 47.5v731q0 25 -9.5 48t-27 40.5t-41 28t-51.5 10.5t-51.5 -10.5t-41 -28t-27 -40.5t-9.5 -48v-731zM271 1602v248q0 5 1 6q4 2 6 2h64q15 0 27 -6q12 -4 22 -14q5 -5 9 -10.5t6 -11.5q5 -13 5 -27v-32q0 -19 -7 -32q-7 -15 -19 -23l29 -100v-1
q0 -3 -1 -4q-2 -2 -4 -2h-37q-2 0 -4 2l-2 5l-20 85h-28v-85q0 -7 -7 -7h-33q-7 0 -7 7zM503 1599v3l56 249q2 7 8 7h32q6 0 8 -7l55 -249q1 -1 1 -3q0 -4 -4 -4h-37q-3 0 -5 2q-3 1 -3 5l-6 37h-50l-6 -37q-1 -3 -3 -5t-5 -2h-37q-4 0 -4 4zM162 1597q-1 1 -1 5v211h-39
q-3 0 -3 1q-2 2 -2 5v32q0 4 2 5q0 2 3 2h124q2 0 4 -2t2 -5v-32q0 -1 -2 -5q-1 -1 -4 -1h-38v-211q0 -7 -6 -7h-36q-2 0 -4 2zM678 1602v248q0 4 2 6t5 2h34q3 0 5 -2t2 -6v-210h58q6 0 6 -6v-32q0 -7 -6 -7h-99q-7 0 -7 7zM440 1602v248q0 5 2 6q2 2 5 2h33q3 0 5 -2t2 -6
v-248q0 -7 -7 -7h-33q-7 0 -7 7zM342 1732q10 0 16 6q6 7 6 17v35q0 10 -6 16q-7 7 -17 7h-23v-81h24zM600 1681l-15 96l-2 25l-2 -25l-16 -96h35z" />
    <glyph glyph-name="OE" unicode="&#x152;" horiz-adv-x="1244" 
d="M65 1092q0 74 27.5 139t76.5 113.5t116 76.5t146 28t134.5 -28t90.5 -76.5t51 -113.5t16 -139v-759q0 -74 -16 -139t-51 -113t-90.5 -76t-134.5 -28t-146 28t-116 76t-76.5 113t-27.5 139v759zM321 333q0 -25 9.5 -46.5t26.5 -37.5t39 -25.5t48 -9.5q25 0 47.5 9.5
t39.5 25.5t26.5 37.5t9.5 46.5v759q0 25 -9.5 47t-26.5 38t-39.5 25.5t-47.5 9.5q-26 0 -48 -9.5t-39 -25.5t-26.5 -38t-9.5 -47v-759zM566 1387q0 18 9.5 28.5t27.5 10.5h570q14 0 22 -9t8 -28v-171q0 -18 -8 -27t-22 -9h-350v-338h272q14 0 23.5 -8.5t9.5 -28.5v-170
q0 -19 -9 -28t-24 -9h-272v-356h354q13 0 22 -8.5t9 -26.5v-173q0 -19 -9 -27.5t-22 -8.5h-574q-37 0 -37 39v1348z" />
    <glyph glyph-name="AE" unicode="&#xc6;" horiz-adv-x="1296" 
d="M615 239h-270l-75 -204q-8 -20 -15.5 -27.5t-24.5 -7.5h-214q-16 0 -20 13.5t2 28.5l593 1352q9 20 15.5 26t20.5 6h602q14 0 22 -9.5t8 -27.5v-163q0 -18 -8 -27.5t-22 -9.5h-358v-345h280q14 0 23.5 -8.5t9.5 -28.5v-163q0 -18 -9 -27t-24 -9h-280v-371h362
q13 0 22 -9.5t9 -26.5v-164q0 -19 -9 -28t-22 -9h-582q-36 0 -36 39v200zM615 462v514l-189 -514h189z" />
    <glyph glyph-name="Oslash" unicode="&#xd8;" horiz-adv-x="908" 
d="M69 1092q0 83 30.5 149.5t83 112.5t122 70.5t148.5 24.5q17 0 32.5 -1.5t31.5 -3.5l17 57q7 17 19 28t32 11h214q20 0 24 -11.5t-3 -32.5l-62 -176q38 -44 59.5 -101.5t21.5 -126.5v-759q0 -83 -30.5 -149t-83 -112t-122.5 -70.5t-149 -24.5q-24 0 -46 3l-18 -76
q-9 -40 -50 -40h-216q-20 0 -23.5 12t3.5 35l58 182q-44 46 -68.5 106.5t-24.5 133.5v759zM325 347q0 -25 9 -47.5t26 -40t40.5 -28t53.5 -10.5q29 0 53 10.5t41 28t26 40t9 47.5v731q0 25 -9.5 48t-27 40.5t-41 28t-51.5 10.5t-51.5 -10.5t-41 -28t-27 -40.5t-9.5 -48v-731
z" />
    <glyph glyph-name="exclam" unicode="!" horiz-adv-x="444" 
d="M94 202q0 20 10 29t21 9h192q20 0 26.5 -13t6.5 -25v-166q0 -20 -12.5 -28t-19.5 -8h-192q-8 0 -20 7t-12 28v167zM103 1389q0 40 37 40h164q36 0 36 -40v-965q0 -39 -36 -39h-164q-37 0 -37 39v965z" />
    <glyph glyph-name="quotedbl" unicode="&#x22;" horiz-adv-x="597" 
d="M90 1388q0 19 9 28.5t22 9.5h105q17 0 21.5 -11.5t4.5 -26.5v-345q0 -19 -8 -26.5t-19 -7.5h-104q-14 0 -22.5 11t-8.5 26v342zM347 1388q0 19 8.5 28.5t21.5 9.5h105q17 0 22 -11.5t5 -26.5v-345q0 -19 -7 -26.5t-18 -7.5h-107q-30 0 -30 37v342z" />
    <glyph glyph-name="numbersign" unicode="#" horiz-adv-x="880" 
d="M525 387h-206l-16 -349q-2 -38 -31 -38h-133q-31 0 -29 40l16 347h-72q-6 0 -16 7.5t-10 25.5v128q0 18 8.5 28t19.5 10h79l13 301h-64q-5 0 -15.5 7.5t-10.5 26.5v127q0 19 8.5 28.5t20.5 9.5h70l16 341q2 38 32 38h134q14 0 21 -11t6 -30l-16 -338h207l16 341
q1 19 7.5 28.5t22.5 9.5h135q14 0 21.5 -11t6.5 -29l-16 -339h75q26 0 26 -34v-131q0 -17 -9 -25.5t-19 -8.5h-82l-14 -301h68q25 0 25 -34v-132q0 -16 -8.5 -24.5t-19.5 -8.5h-74l-16 -349q-2 -38 -31 -38h-133q-31 0 -29 40zM328 586h206l14 301h-207z" />
    <glyph glyph-name="dollar" unicode="$" horiz-adv-x="886" 
d="M67 401q0 26 6.5 37.5t28.5 11.5h182q23 0 29.5 -9.5t6.5 -32.5v-47q0 -39 12.5 -66t32 -43t42.5 -23t43 -7q25 0 48.5 9t41.5 25.5t28.5 39.5t10.5 52q0 38 -9.5 68t-31 58t-55.5 58.5t-83 69.5q-82 65 -144 115t-104 101t-63.5 112.5t-21.5 149.5q0 82 25.5 143.5
t66 105t91.5 70.5t101 39v133q0 32 20 32h145q21 0 21 -32v-133q62 -14 112.5 -46t86.5 -79t56 -107.5t20 -131.5v-60q0 -23 -7.5 -30.5t-33.5 -7.5h-177q-20 0 -26 8t-6 30v59q0 27 -8 51t-23 42t-37 28.5t-50 10.5q-20 0 -41.5 -7t-39 -23t-28.5 -41t-11 -61
q0 -38 10.5 -66.5t30 -53.5t47 -48t62.5 -49q74 -56 139.5 -108t115 -111.5t78 -132.5t28.5 -171q0 -63 -21.5 -121t-61.5 -104.5t-97 -79t-127 -44.5v-135q0 -32 -21 -32h-145q-22 0 -22 32v140q-68 16 -119 50.5t-85.5 82t-51.5 105.5t-17 120v54z" />
    <glyph glyph-name="ampersand" unicode="&#x26;" horiz-adv-x="978" 
d="M438 580q0 12 4 20.5t19 16.5q16 7 37.5 14.5t59.5 7.5t73.5 -10.5t72.5 -10.5q23 0 38.5 20t19.5 71q0 13 8 23.5t26 10.5h132q17 0 23.5 -12t5.5 -24q-2 -70 -15.5 -120.5t-36 -84.5t-53 -53t-64.5 -26v-93q0 -57 -20.5 -119t-64.5 -114t-112.5 -86t-165.5 -34
q-96 0 -166.5 29t-116.5 78t-68.5 113t-22.5 133v252q0 48 10.5 85.5t28.5 65.5t43 48t54 33q-48 33 -82 89.5t-34 135.5v72q0 79 27.5 141t73 104t105.5 64t125 22q66 0 126.5 -16.5t107 -58t74 -111t27.5 -174.5q0 -27 -6 -39.5t-23 -12.5l-170 -1q-17 0 -24 14t-7 31
q0 33 -7.5 56.5t-20.5 38.5t-30 22t-35 7q-17 0 -33.5 -6.5t-29.5 -19.5t-21 -33t-8 -48v-87q0 -20 4 -39t13 -33t22.5 -22.5t31.5 -8.5t29.5 -6.5t11.5 -23.5v-136q0 -21 -12.5 -25t-24.5 -4q-27 0 -45 -10t-28 -26t-14 -36t-4 -41v-251q0 -32 10 -55.5t27 -40t38.5 -24.5
t44.5 -8t44 9t36.5 25t24.5 36.5t9 44.5v112q-18 -1 -34 -4t-27 -7q-15 -5 -27.5 4.5t-13.5 23.5v122z" />
    <glyph glyph-name="quotesingle" unicode="'" horiz-adv-x="341" 
d="M89 1387q0 19 9 29t22 10h105q17 0 21.5 -12t4.5 -27v-344q0 -19 -6.5 -26.5t-17.5 -7.5h-115q-15 0 -19 11.5t-4 26.5v340z" />
    <glyph glyph-name="parenleft" unicode="(" horiz-adv-x="608" 
d="M109 630q0 126 12.5 250.5t39.5 244.5t69.5 233.5t103.5 218.5q8 15 18 17.5t23 -5.5l160 -91q13 -8 15.5 -20.5t-5.5 -25.5q-48 -86 -82.5 -191t-57 -215t-33.5 -217.5t-12 -197.5q1 -90 12 -203t33.5 -230t57 -228t82.5 -197q8 -13 5.5 -25.5t-15.5 -20.5l-160 -91
q-26 -16 -41 12q-61 105 -103.5 224.5t-69.5 245.5t-39.5 256t-12.5 256z" />
    <glyph glyph-name="parenright" unicode=")" horiz-adv-x="608" 
d="M524 630q0 -126 -12.5 -256t-39.5 -256t-69.5 -245.5t-102.5 -224.5q-15 -28 -42 -12l-160 91q-12 8 -15 20.5t5 25.5q48 86 83 197t57.5 228t33.5 230t11 203t-11 197.5t-33.5 217.5t-57.5 215t-83 191q-8 13 -5.5 25.5t15.5 20.5l160 91q27 16 42 -12
q60 -105 102.5 -218.5t69.5 -233.5t39.5 -244.5t12.5 -250.5z" />
    <glyph glyph-name="asterisk" unicode="*" horiz-adv-x="648" 
d="M52 1236q1 14 11 23.5t19 7.5l136 -25l-90 104q-6 7 -5 19t15 20l97 56q13 6 26 2t16 -13l49 -137l47 137q4 9 15 14t25 -3l97 -57q11 -7 14.5 -20t-3.5 -21l-85 -99l126 21q10 2 19.5 -6.5t9.5 -22.5v-114q0 -10 -3.5 -16t-8.5 -9t-10 -3.5t-8 -0.5l-134 27l88 -106
q7 -8 4.5 -20t-15.5 -19l-99 -57q-9 -5 -15.5 -5t-11.5 3t-8 7t-4 6l-41 123l-46 -123q-4 -10 -15.5 -13.5t-23.5 3.5l-98 56q-9 5 -12.5 11.5t-3.5 12.5t1.5 10.5t3.5 6.5l95 107l-145 -28q-9 -2 -19 6t-10 23v112z" />
    <glyph glyph-name="plus" unicode="+" horiz-adv-x="643" 
d="M390 904q14 0 22.5 -9t8.5 -19v-140h141q11 0 19.5 -7.5t8.5 -21.5v-141q0 -13 -10 -20.5t-19 -7.5h-140v-143q0 -11 -8 -19.5t-22 -8.5h-140q-13 0 -21 10t-8 20v141h-142q-6 0 -16.5 6.5t-10.5 22.5v138q0 14 9.5 22.5t18.5 8.5h141v142q0 5 7 15.5t22 10.5h139z" />
    <glyph glyph-name="comma" unicode="," horiz-adv-x="433" 
d="M84 190q0 26 11.5 38t30.5 12h170q44 0 44 -48v-131q0 -58 -10.5 -99t-26 -69t-33.5 -46t-32 -29q-10 -8 -20.5 -10t-24.5 9l-38 32q-9 7 -10.5 14t0 13t6 11t7.5 8q22 22 33 45t11 40q0 7 -2 13.5t-10 6.5h-68q-15 0 -26.5 10.5t-11.5 33.5v146z" />
    <glyph glyph-name="period" unicode="." horiz-adv-x="425" 
d="M84 202q0 20 10 29t21 9h192q20 0 26.5 -13t6.5 -25v-166q0 -20 -12.5 -28t-19.5 -8h-192q-8 0 -20 7t-12 28v167z" />
    <glyph glyph-name="slash" unicode="/" horiz-adv-x="713" 
d="M276 34q-5 -18 -17.5 -26t-26.5 -8h-191q-13 0 -17.5 11t0.5 28l411 1350q5 20 17 28.5t27 8.5h189q29 0 17 -42z" />
    <glyph glyph-name="colon" unicode=":" horiz-adv-x="431" 
d="M84 1159q0 20 10 29t21 9h192q20 0 26.5 -13t6.5 -25v-166q0 -20 -12.5 -28t-19.5 -8h-192q-8 0 -20 7t-12 28v167zM84 202q0 20 10 29t21 9h192q20 0 26.5 -13t6.5 -25v-166q0 -20 -12.5 -28t-19.5 -8h-192q-8 0 -20 7t-12 28v167z" />
    <glyph glyph-name="less" unicode="&#x3c;" horiz-adv-x="506" 
d="M31 568q0 8 2.5 11.5t6.5 9.5l266 370q4 5 11.5 8.5t17.5 -4.5l123 -97q8 -7 7 -17.5t-6 -17.5l-198 -264l198 -265q15 -18 -2 -32l-122 -95q-11 -9 -18 -5.5t-10 8.5l-267 370q-5 6 -7 10t-2 10z" />
    <glyph glyph-name="equal" unicode="=" horiz-adv-x="646" 
d="M55 524q0 14 9.5 22t19.5 8h479q11 0 20 -7.5t9 -21.5v-128q0 -13 -10.5 -20.5t-19.5 -7.5h-480q-5 0 -16 6.5t-11 21.5v127zM55 873q0 14 9.5 22.5t19.5 8.5h479q11 0 20 -8t9 -22v-127q0 -13 -10.5 -21t-19.5 -8h-480q-5 0 -16 6.5t-11 22.5v126z" />
    <glyph glyph-name="greater" unicode="&#x3e;" horiz-adv-x="595" 
d="M550 568q0 -6 -2 -10t-6 -10l-267 -370q-4 -5 -11 -8.5t-18 5.5l-122 95q-7 6 -8 14.5t6 17.5l198 265l-198 264q-5 7 -5.5 17.5t7.5 17.5l122 97q10 8 17.5 4.5t11.5 -8.5l266 -370q4 -6 6.5 -9.5t2.5 -11.5z" />
    <glyph glyph-name="question" unicode="?" horiz-adv-x="885" 
d="M545 404q0 -25 -6 -37t-30 -13l-160 -1q-23 0 -26.5 14.5t-3.5 34.5v140q0 83 32 146.5t91 120.5q20 21 40.5 47t37.5 57.5t27.5 69t10.5 81.5v35q0 23 -9 43.5t-24.5 36t-36.5 24.5t-45 9t-44.5 -9t-36 -24t-24.5 -35.5t-9 -43.5v-84q0 -29 -8.5 -37t-26.5 -8h-192
q-29 0 -29 34v95q0 72 29 135.5t79 110.5t117 74.5t144 27.5q78 0 145.5 -27t117.5 -74.5t79 -111t29 -135.5v-44q0 -71 -25.5 -131t-60 -110t-70 -91t-56.5 -74q-10 -15 -20 -31t-18 -36.5t-13 -46t-5 -59.5v-73zM305 202q0 20 10 29t21 9h192q20 0 26.5 -13t6.5 -25v-166
q0 -20 -12.5 -28t-19.5 -8h-192q-8 0 -20 7t-12 28v167z" />
    <glyph glyph-name="percent" unicode="%" 
d="M2323 1024v-550h-2254v550h854q0 28 5 55t19 50q11 27 24.5 49t34.5 39q35 38 86 58q25 11 51 16t53 5q31 0 58 -6t50 -15q26 -13 48 -27.5t42 -34.5q33 -35 57 -88q18 -50 18 -101h854zM966 1119q-19 -44 -19 -95q0 -55 19 -99q9 -20 22.5 -40.5t28.5 -39.5
q18 -17 38 -30.5t43 -23.5q45 -21 98 -21q29 0 53 4.5t45 14.5q23 10 42.5 23.5t35.5 30.5q20 18 33 38t24 41q20 49 20 102q0 20 -3.5 42t-11.5 44q-13 37 -40 68q-13 18 -27.5 31t-32.5 24q-17 7 -35 16.5t-37 16.5q-14 3 -30.5 6t-35.5 3q-27 0 -52 -5.5t-48 -17.5
q-46 -17 -79 -54q-17 -17 -29.5 -37t-21.5 -42zM1070 877l295 298q29 -37 43.5 -75t14.5 -76q0 -22 -3 -42t-11 -39q-7 -18 -16.5 -34.5t-21.5 -31.5h-301zM1026 870q-26 33 -41 71q-8 17 -11 38t-3 45q0 18 3 37.5t11 39.5q4 18 13.5 33.5t23.5 30.5h299zM2058 194
q3 -4 5.5 -10t4.5 -13q4 -8 4 -14v-29q0 -7 -4 -11q-2 -7 -4.5 -14t-5.5 -13q-6 -9 -15 -19q-6 -5 -11.5 -9.5t-12.5 -8.5q-5 -5 -11.5 -7t-12.5 -4t-13 -2h-16q-19 0 -40 6q-8 6 -15.5 12t-15.5 13q-8 6 -13.5 13.5t-7.5 19.5q-6 9 -7.5 18.5t-1.5 21.5q0 8 1 13.5t1 13.5
q3 7 6 13t7 10q2 8 5.5 12.5t9.5 10.5q3 4 9.5 8t11.5 9q4 2 10.5 4t12.5 6q10 0 15.5 1t11.5 1q9 0 16 -1t13 -1q6 -4 12.5 -6t11.5 -4q7 -5 12.5 -9t11.5 -8q2 -6 7.5 -10.5t7.5 -12.5zM1064 194q2 -4 4 -10t5 -13q2 -8 2 -14v-29q0 -7 -2 -11q-3 -7 -5 -14t-4 -13
q-5 -4 -9.5 -9.5t-8.5 -9.5q-5 -5 -10 -9.5t-10 -8.5q-7 -5 -13.5 -7t-12.5 -4q-7 -2 -14 -2h-15q-9 0 -18.5 2t-21.5 4q-11 6 -17.5 12t-15.5 13q-15 13 -21 33q-3 9 -5 18.5t-2 21.5v13q0 6 2 14q4 16 11 23q4 8 7.5 12.5t7.5 10.5q7 4 11.5 8t10.5 9q5 2 11 4t16 6
q4 0 10.5 1t13.5 1q8 0 15 -1t14 -1q6 -4 12.5 -6t13.5 -4q5 -5 10 -9l10 -8q4 -6 8.5 -10.5t9.5 -12.5zM2281 244l1 1q1 1 6 1h35v-206h-35v150q-1 0 -2 -2.5t-3 -6.5v-6q0 -3 -2 -4q-6 -15 -12.5 -32.5t-14.5 -30.5q-6 -18 -11.5 -33.5t-13.5 -34.5h-34l-52 131
q-5 3 -5 10q0 4 -1 4l-2 2v-147h-39v206h37q5 0 6.5 -1t3.5 -1q2 -2 3 -2t3 -2l7 -4q0 -2 2 -3.5t2 -3.5q4 -16 10.5 -30t14.5 -32q6 -15 11.5 -30.5t11.5 -28.5v-12q2 0 4 -4q0 4 1 4v12l9 13l42 108q0 2 2 3l2 4q0 2 2 3l3 1q2 2 4 2t4 2zM1246 246h36v-206h-34l-94 138
l-4 3v2q-3 4 -3 5q-4 2 -4 4t-1 3t-4 1v-156h-36v206h32q4 0 8.5 -1t4.5 -3q3 -2 5 -2t4 -2l21 -31q10 -15 19 -33q13 -13 23 -27.5t23 -27.5q0 -2 1 -4.5t1 -6.5l1 -2l1 -3v143zM630 246l88 -206h-23q-8 0 -15 4q-2 2 -4 6.5t-6 8.5l-12 25h-94l-9 -25q0 -4 -1 -5t-3 -1
q-2 -5 -4 -5l-3 -4q-2 0 -3.5 -1t-5.5 -1q0 -2 -2 -2h-26l90 206h33zM244 246h130v-37h-94v-46h77v-38h-77v-48h94v-37h-130v206zM69 246h149v-23q0 -2 -1 -5q0 -3 -2 -5l-4 -4l-99 -134h1l2 2h102v-37h-155v13q0 9 2 11q0 2 5 7v4l2 4q2 2 4 3.5t2 5.5l88 121h-96v37z
M786 618q1 6 2 10t1 9q0 12 -3 21q0 5 -3.5 8.5t-5.5 9.5q-4 6 -11 13l-7 6q-2 3 -8 8l-8 4q-4 2 -10 4q-4 0 -8.5 0.5t-10.5 0.5q-3 0 -8 -0.5t-11 -0.5q-6 -2 -9.5 -4t-7.5 -4q-4 -5 -7.5 -7.5t-7.5 -6.5q-5 -4 -8 -6.5t-4 -6.5q-4 -6 -5 -9.5t-3 -8.5q-2 -9 -2 -21
q0 -5 2 -13t4 -14q2 -7 6.5 -12.5t9.5 -11.5q5 -7 11 -10.5t13 -3.5q11 -6 27 -6h19q12 4 18 8q11 5 15 12q6 6 11 15q2 4 5.5 8.5t3.5 8.5zM1843 618v40q-4 9 -7 18q-4 6 -14 13q-1 4 -5.5 6.5t-8.5 7.5q-3 2 -9 4l-7 4q-6 0 -10.5 0.5t-9.5 0.5q-6 0 -10.5 -0.5t-8.5 -0.5
q-11 -4 -20 -8q-3 -5 -6 -7.5t-7 -6.5q-3 -4 -6 -6.5t-5 -6.5q-2 -6 -4.5 -9.5t-2.5 -8.5q-5 -9 -5 -21q0 -5 2.5 -13t5.5 -14q4 -15 15 -24q4 -7 9.5 -10.5t14.5 -3.5q11 -6 28 -6h20q3 2 8 4t8 4q4 3 8.5 5.5t5.5 6.5q10 6 14 15q3 7 7 17zM1724 190q-7 -7 -13 -23
q-2 -4 -4 -9.5t-2 -13.5t2 -13.5t4 -11.5q2 -7 5.5 -13.5t7.5 -9.5q4 -4 9.5 -8t12.5 -7q7 -2 12.5 -3t13.5 -1q5 0 9.5 1t10.5 1q3 2 8 4.5t8 6.5q4 0 8 2h12q4 0 8 -2q3 -2 7 -6l6 -7q-6 -8 -13 -15q-6 -3 -10.5 -6t-11.5 -6q-6 -4 -10.5 -5t-10.5 -3q-5 -2 -11 -2h-10
q-11 0 -22 2t-20 4q-19 9 -33 25q-15 13 -21 33q-4 9 -6.5 18.5t-2.5 21.5q0 8 1 13.5t3 13.5q1 7 3 13t6 10q6 8 8.5 12.5t8.5 10.5l12 8q6 4 11 9q4 2 9 4l17 6q5 0 11.5 1t14.5 1h12q4 0 9 -2q6 -2 10.5 -3t10.5 -3q7 -4 11.5 -6.5t10.5 -6.5q7 -8 13 -16l-6 -7
q-4 -2 -5 -4l-2 -4h-14q-4 0 -7 1t-7 3q-3 2 -8 4.5t-8 4.5q-6 2 -11 2h-9q-15 0 -26 -6q-7 -1 -12.5 -4t-9.5 -9zM1584 141q4 -5 7 -9t3 -7q2 -4 3.5 -8.5t1.5 -10.5q0 -14 -7 -27l-8 -12q-3 -5 -8 -8q-6 -6 -10.5 -9.5t-12.5 -5.5q-5 -2 -13 -3t-14 -1q-7 0 -13.5 1
t-17.5 3q-5 2 -10 6.5t-10 11.5q-4 2 -6 5l-4 8q-6 2 -6 9l6 4q2 2 4 2h4l2 2h9q4 0 4 -2q7 0 9 -2q5 -4 8.5 -5.5t5.5 -3.5q2 0 6 -1t9 -1h5q3 0 6 2q7 2 13 5q5 4 7 8t4 7t2 7q0 6 -6 9q-4 6 -7 6q-2 4 -6.5 5t-6.5 2q-5 0 -13 6q-5 0 -9 1t-9 6q-9 3 -12.5 6t-7.5 7
q-6 2 -8.5 5.5t-2.5 7.5q-6 11 -6 23q0 17 6 25q2 6 5 10l8 9q4 2 9 4t12 6q6 0 10.5 1t12.5 1q4 0 8 -1t10 -1q5 -2 7 -3t8 -3q3 -4 6 -6.5t7 -6.5q3 -2 6.5 -5t3.5 -7l-7 -4l-6 -4q-3 -2 -3 -3h-17l-5 1q-4 2 -6 4q-2 0 -3.5 1t-3.5 1h-16q-2 0 -3 -1t-5 -3q-2 -2 -6 -5
q-1 -4 -1 -10q0 -5 1 -5q2 -2 3 -4.5t3 -6.5h6q2 0 5 -2q4 -1 8.5 -3t9.5 -4l8 -2q5 -4 9 -5t9 -4q10 -4 16 -13zM1480 315q-11 7 -15 19q-6 14 -6 29v15q6 10 10 18q4 5 11 13q6 7 12 9q3 5 8.5 6t8.5 3q4 0 8 1.5t9 1.5q4 0 10 -1.5t10 -1.5q4 -2 7.5 -3t7.5 -6
q2 -2 5.5 -4.5t5.5 -4.5q4 -4 6.5 -7t5.5 -6q4 -8 8 -18q0 -4 1 -8.5t1 -6.5q0 -6 -1 -13.5t-5 -15.5q-2 -6 -6 -10.5t-10 -8.5q-4 -4 -8.5 -7.5t-11.5 -8.5q-8 -2 -26 -2h-14q-6 0 -10 2q-16 5 -22 16zM2030 119q5 11 5 25q0 8 -1.5 13.5t-3.5 9.5q-2 9 -6.5 14.5t-7.5 8.5
q-10 10 -23 13q-4 4 -11 5t-16 1q-11 0 -24 -6q-7 -1 -11.5 -4t-10.5 -9q-4 -3 -7.5 -8.5t-7.5 -14.5q0 -4 -1 -9.5t-1 -13.5t1 -13.5t1 -11.5q7 -15 15 -23q6 -4 10.5 -8t11.5 -7q7 -2 13.5 -3t10.5 -1q9 0 16 1t11 3q8 3 13.5 7t9.5 8q10 10 14 23zM2141 315
q-6 -4 -12 -7.5t-11 -8.5q-6 -2 -12 -2h-28q-6 0 -12 2q-12 5 -21 16q-4 4 -7 8.5t-6 10.5q-2 8 -4 15.5t-2 13.5q0 2 1 6.5t1 8.5q2 4 3 9t4 9q2 3 5 6t5 7q3 2 7 4.5t9 4.5q3 5 8 6t7 3q5 0 8 1.5t10 1.5q2 0 7.5 -1.5t10.5 -1.5q4 -2 7.5 -3t5.5 -6q4 -2 8.5 -4.5
t7.5 -4.5q2 -4 4 -7l4 -6q5 -8 7 -18q2 -4 3 -8.5t1 -6.5q0 -6 -1 -13.5t-5 -15.5q0 -6 -5 -11zM1035 119q2 6 3 11.5t1 13.5q0 12 -4 23q-2 9 -6.5 14.5t-11.5 8.5q-2 6 -7.5 9t-11.5 4q-11 6 -27 6q-13 0 -24 -6q-6 -1 -11 -4t-11 -9q-5 -3 -8 -8.5t-5 -14.5q-5 -4 -5 -10
v-27q0 -5 5 -11q2 -7 5 -13.5t8 -9.5q6 -4 11 -8t11 -7q5 -2 11 -3t13 -1q8 0 15 1t12 3q6 3 11.5 7t7.5 8q7 3 11.5 9.5t6.5 13.5zM726 246h130v-37h-94v-52h77v-36h-77v-81h-36v206zM535 209h-55v-169h-40v169h-59v37h154v-37zM1302 246h155v-37h-61v-169h-37v169h-57v37z
M1281 1233q16 -8 33.5 -19.5t33.5 -21.5h-304q33 27 70 41q36 17 82 17t85 -17zM1114 810q-18 7 -35 18t-33 24h302q-16 -13 -33.5 -24t-33.5 -18q-22 -6 -43 -10.5t-42 -4.5q-23 0 -42.5 4.5t-39.5 10.5zM524 566l-44 64q2 0 4.5 1t6.5 3q6 3 8 9q3 2 5.5 5t2.5 6v24
q0 2 -2 5q-3 8 -10 14q-4 8 -13 8q-2 4 -6.5 5t-8.5 1h-53v-145h22v60h22l37 -52q2 -4 7 -6q1 -2 3 -2h19zM1096 566l-63 145h-20l-62 -145h11q7 0 9 2q0 2 1 3t5 3l10 25h72l11 -25q2 -4 5 -6q2 -2 8 -2h13zM1810 676q2 -2 6.5 -7.5t5.5 -10.5q2 -4 3 -9.5t1 -11.5
q0 -11 -4 -21q-1 -4 -6 -9l-6 -6q-5 -4 -9 -6.5t-8 -6.5q-9 -4 -21 -4q-6 0 -11.5 1t-9.5 3q-5 4 -9.5 6.5t-8.5 6.5q-3 2 -6 6.5t-3 8.5q-4 6 -5 11t-1 10q0 10 6 21q0 5 3 10.5t6 7.5q4 4 8.5 6.5t9.5 4.5q10 4 21 4q5 0 10.5 -1t10.5 -3q4 -2 8 -4.5t9 -6.5zM751 676
q6 -2 8.5 -7.5t4.5 -10.5q2 -4 3 -9.5t1 -11.5q0 -5 -1 -10t-3 -11q-2 -4 -4.5 -8.5t-8.5 -6.5q-2 -4 -5.5 -6.5t-10.5 -6.5q-4 -2 -9.5 -3t-11.5 -1q-9 0 -21 4q-4 4 -8.5 6.5t-8.5 6.5q-2 2 -5.5 6.5t-5.5 8.5q-2 6 -3 11t-1 10q0 10 4 21q2 5 5.5 10.5t5.5 7.5
q4 4 8.5 6.5t8.5 4.5q5 2 11.5 3t9.5 1q12 0 21 -4q7 -2 10.5 -4.5t5.5 -6.5zM277 647q5 11 5 18q0 5 -1 9t-4 9q0 2 -4 6l-6 6q-2 3 -5 6.5t-9 3.5q-2 4 -7.5 5t-9.5 1h-49v-145h16v55h33q4 0 9.5 0.5t7.5 2.5q10 4 14 10q4 2 7 5.5t3 7.5zM2079 311h29l6 3q2 1 4 5
q2 0 5.5 1.5t7.5 3.5l3 6q1 2 4 4q0 3 2.5 7.5t2.5 8.5v32q-2 6 -6 10t-6 7q-6 2 -9.5 5t-7.5 7h-40q-6 -4 -9.5 -7t-8.5 -5q-4 -3 -6.5 -7t-4.5 -10t-2 -12v-20q0 -4 1 -8.5t4 -7.5l4 -4q2 -2 4 -6l6 -3q2 -2 4 -2q4 -4 7 -5t6 -3zM1993 711h-20v-112q-1 2 -2 5t-3 4
l-70 97l-3 6h-23v-145h21v114l2 -2l82 -112h16v145zM1480 382q-3 -6 -4 -11.5t-1 -7.5v-8q0 -3 2 -5q0 -8 5 -16q0 -2 2 -4t4 -6l5 -3q2 -2 9 -2q2 -4 5.5 -5t5.5 -3h26q5 2 8 3t6 5q2 0 6 2l4 3q2 4 4.5 6t2.5 4q2 3 3 7.5t3 8.5q0 2 1 5.5t1 7.5q0 2 -1 7.5t-5 11.5
q0 6 -3.5 10t-5.5 7q-4 2 -8 6l-9 6h-40q-4 -4 -9 -7t-9 -5q-2 -3 -5 -7t-3 -10zM935 711h-17v-112l-2 4q-2 4 -2 5l-69 97q-4 0 -6 6h-23v-145h19v117h2l2 -1v-4l81 -112h15v145zM1982 357q-7 -2 -12 -4l42 -56h-11q-2 0 -6 2q-2 0 -3 1.5t-1 5.5l-36 47h-26v-56h-15v130
h54q4 0 9 -2q2 -2 5.5 -4.5t4.5 -4.5q4 -2 5 -5.5t7 -7.5v-25q-4 -4 -5 -7.5t-3 -5.5zM1259 357q-2 -2 -11 -4l44 -56h-14q-3 0 -3 2q-2 0 -4 1.5t-2 5.5l-36 47h-26v-56h-13v130h53q3 0 6 -2q9 -2 16 -9q0 -2 3 -5.5t3 -7.5q2 -2 2 -6v-13q0 -3 -2 -6q0 -4 -1 -7.5t-3 -5.5
l-5 -4q-2 -2 -7 -4zM386 711h-91v-145h91v20h-69v44h55v17h-55v42h69v22zM1614 711h-88v-145h88v20h-66v44h55v17h-55v42h66v22zM2306 425q4 2 5 2h12v-130h-11v106l-2 -2v-2q-4 -7 -6.5 -16t-7.5 -13q-4 -7 -6 -12.5t-7 -13.5q-2 -8 -3 -14t-5 -9q-3 -8 -6 -12.5t-5 -11.5
h-14q-9 12 -14 24.5t-10 26.5q-4 11 -11 24.5t-11 26.5v2h-4v-104h-13v130h13q4 0 6 -2l2 -2v-5l46 -99q0 -4 2 -4l1 2v4q0 1 7 5l38 92q2 5 3 5t1 2zM1387 711h-20v-97q0 -4 -2 -7q-2 -8 -9 -12q0 -2 -4 -3.5t-6 -5.5l-8 -2h-8q-9 0 -13 2q-5 4 -8 5.5t-5 3.5t-4.5 5
t-5.5 7q0 3 -1 7t-1 10v87h-19v-87q0 -6 1 -10t1 -7q0 -8 6 -14q3 -7 9 -11q2 -3 4.5 -5.5t7.5 -4.5q2 -2 6 -3t7 -3q4 0 7 -1t8 -1q4 0 7.5 1t10.5 1q2 2 5 3t6 3q6 4 12 10q3 2 5 5t5 6q0 4 3 7t3 7v104zM622 592q2 5 3 8t1 8q0 10 -5 18t-11 13q-2 0 -3.5 2t-5.5 4l-4 2
h-4q-1 0 -1 4q-6 0 -8 1q-7 2 -8.5 3t-5.5 3q-6 3 -8 3q-3 4 -3 6v15q0 1 1.5 2t1.5 3q2 0 4 1t4 1q4 2 5 2h9q2 -2 4 -2q5 0 7 -4q2 -2 4 -2h2q9 0 13 4l4 2q0 2 -2 4l-4 4q-2 1 -4.5 3.5t-6.5 4.5q-2 0 -4 2t-5 4q-4 0 -6 0.5t-4 0.5q-6 0 -11 -0.5t-7 -0.5q-5 -2 -7 -4
t-6 -4q-2 -5 -5.5 -7.5t-6.5 -6.5q0 -4 -2 -6.5t-2 -8.5q0 -4 1 -7.5t3 -8.5q3 -4 5 -7l5 -4q2 -2 6 -5t7 -3l7 -4q3 -1 7 -1q1 -2 5.5 -2t6.5 -2l5 -2q2 0 4 -2t2 -3t2 -5q2 -2 2 -6v-9q0 -2 -2 -4t-2 -4t-2 -3q-2 -4 -6 -5l-3 -1q-4 0 -7.5 -1t-4.5 -1q-4 0 -7 1t-5 1
t-3.5 1t-1.5 5l-4 1q-4 4 -11 4h-5l-4 -2l-5 -2q0 -3 3 -3q0 -2 2 -4q0 -4 4 -4v-5h3q7 -7 15.5 -9t18.5 -2h8q6 0 11 2q4 2 8.5 4t6.5 5q4 2 7.5 5.5t4.5 9.5zM1497 592q7 7 7 16q0 10 -4.5 18t-11.5 13q-6 4 -6 6h-4q-1 0 -3 2h-3q-3 0 -5 4h-4q-1 0 -4 1q-2 2 -4 3l-6 3
l-7 3q-4 2 -5 4l-1 2q0 1 -1 3t-1 4q0 4 4 8q0 1 4 5q2 0 3 1t4 1q2 2 10 2l3 -1q3 -1 5 -1q2 -2 8 -4q5 -2 7 -2q6 0 8 4l5 2q0 2 -2.5 4t-4.5 4q0 1 -3 3.5t-5 4.5q-3 0 -5 2t-6 4h-6l-4 1q-6 0 -9.5 -0.5t-7.5 -0.5l-13 -8l-6 -8q-2 -2 -5 -6q-1 -4 -3 -6.5t-2 -8.5
q0 -4 2 -7.5t3 -8.5q5 -7 9 -11q4 -2 6.5 -5t6.5 -3q4 -2 7.5 -3.5t5.5 -1.5q4 -2 6.5 -2t5.5 -2q2 0 5 -1t5 -3t3.5 -3t1.5 -5q2 -2 2 -5v-9q0 -3 -2 -5q0 -6 -5 -7q-6 -4 -7 -5t-3 -1q-6 0 -7 -1t-5 -1q-2 0 -5.5 1t-5.5 1q-4 2 -8 6l-2 1q-5 4 -9 4h-6q-2 0 -4 -2l-6 -2
q2 -1 2 -2t2 -1q0 -2 1 -3l3 -3v-2q6 -5 8 -5q6 -7 13.5 -9t16.5 -2h11q5 0 11 2q2 2 5.5 4t7.5 5l5 7q2 2 4 8zM1632 297h-16v130h18q2 0 4 -4l69 -97q2 0 2 -4l2 -1v106h13v-130h-11l-77 106v4h-4v-110zM73 328q-4 4 -5 7.5t-2 8.5q-2 6 -3 9.5t-1 9.5q0 5 4 15q1 4 2 9
t5 9l4 6q2 3 5 7q2 2 6 4.5t6 4.5q5 5 9.5 6t8.5 3q3 0 8 1.5t10 1.5q6 0 13 -1.5t13 -5.5q7 -2 11.5 -5.5t8.5 -8.5q-2 -2 -4 -2v-4h-13q-3 2 -6 5t-7 3h-34q-6 -4 -11 -7t-9 -5q-4 -3 -7 -7t-4 -10q-2 -6 -3 -11.5t-1 -7.5q0 -8 4 -13q0 -4 0.5 -8.5t0.5 -7.5l4 -4
q4 -2 6 -6l7 -4q3 -1 7 -1q2 -4 4.5 -5t6.5 -3h31q2 2 6.5 3t8.5 5v27h-13v2q-2 0 -3 1l-3 3h-2q-1 1 -1 3v4h35v-48q-2 -5 -3.5 -6t-5.5 -6h-11q-6 -2 -12 -2h-32q-4 0 -8.5 2.5t-9.5 6.5q-2 0 -6 2.5t-6 6.5q-3 4 -5 6.5t-4 6.5zM225 411v-41h52v-15h-52v-44h63v-14h-79
v130h79v-16h-63zM1098 411v-41h56v-15h-56v-44h64v-14h-79v130h79v-16h-64zM2226 711h-18q-4 0 -8 -4q-5 -4 -5 -9l-35 -44h-2q0 -2 -2 -2v2l-36 44q-2 7 -4 9q-4 4 -11 4h-16l54 -72v-2q0 -1 2 -1l2 -2v-68h20v66q2 0 2 2l2 3v2zM2112 586h-64v125h-20v-145h84v20zM601 427
v-79q0 -6 2 -9t5 -5q0 -6 3 -9t5 -4q0 -2 4 -4t6 -4q4 -2 8 -2h15q2 0 5 2q4 2 7.5 4t6.5 4q2 1 4 4t4 9q4 3 4 14v79h13v-79q0 -6 -1 -11t-3 -11q-2 -5 -4.5 -9t-6.5 -6q-2 -5 -6.5 -8.5t-8.5 -3.5q-12 -2 -22 -2q-9 0 -23 2q-2 0 -6 3.5t-9 8.5l-10 15q-1 6 -3 11t-2 11
v79h13zM1191 586h-62v125h-19v-145h81v20zM1361 315q2 4 4 7q2 2 3 6t1 6q0 8 -2 10t-3 4t-3 4q-2 1 -7 3q-4 0 -6 2t-6 2t-7 2t-5 4q-9 0 -13 7q-2 0 -3.5 3t-3.5 6v21q0 3 2 7q0 7 7 9l6 5q3 2 7 4q4 0 6.5 1.5t7.5 1.5q2 0 6 -2l4 -1q3 0 4 -1t5 -3q2 0 4 -2.5t2 -4.5
q5 0 6 -3l1 -2l-2 -2q-4 -2 -9 -2h-6q-2 2 -2 4h-21q-8 0 -8 -2q-5 -6 -5 -8q-4 0 -4 -7q0 -4 4 -6q0 -4 3 -6q0 -1 3 -3l3 -1q4 -4 7 -4t7 -2q2 0 4 -1l2 -1q2 0 3.5 -1t3.5 -4h4q2 0 4 -2h2q5 -4 7.5 -7t4.5 -4q2 -10 2 -18v-10q0 -3 -4 -5q-3 -8 -10 -13q-2 -2 -6 -4.5
t-6 -2.5q-3 -2 -9 -2h-9q-9 0 -16.5 1t-12.5 8q-2 0 -3 2.5t-5 4.5v4l-2 2l4 2h6q1 0 3 -1t4 -1q4 -4 6.5 -5t4.5 -3h20q7 0 11 4zM1002 297l-55 130h5q6 0 8 -2t3 -2t3 -5l40 -97v-2q2 -4 2 -6v6l2 2q5 13 12 25.5t11 23.5q4 14 9.5 25.5t11.5 22.5q0 5 1.5 5t1.5 2
q5 2 6 2h10q-7 -16 -14 -32.5t-15 -31.5q-7 -17 -13 -35l-14 -31h-15zM499 411v-46h56v-12h-56v-56h-15v130h80v-16h-65zM1836 411v-46h51v-12h-51v-56h-15v130h77v-16h-62zM824 427v-116h59v-14h-75v130h16zM348 297v114h-44v16h99v-16h-44v-114h-11zM735 427v-116h60v-14
h-75v130h15zM253 683q2 -1 3 -4t3 -5q3 -4 3 -9v-4q0 -3 -3 -7q-2 -2 -3 -4.5t-3 -2.5q-2 -4 -7 -8h-43v50h33q6 0 10 -2q1 0 4 -2zM1242 365q4 0 6 3q2 2 3.5 3t5.5 1l2 4q0 2 3 5q0 1 1 4t1 7q0 2 -1 3t-1 4q-3 2 -4 3t-1 5q-4 0 -5.5 1t-3.5 3h-41v-46h35zM1970 368
q2 2 3.5 3t3.5 1q5 6 5 9q2 3 2 11q0 4 -2 7q0 2 -5 8q-2 0 -3.5 1t-3.5 3h-41v-46h33q4 0 8 3zM486 658l-4 -7q-2 0 -3 -2t-3 -2q-2 -2 -9 -2h-31v44h31q4 0 9 -2q2 0 3 -1l3 -3q2 -3 4 -7q3 -2 3 -9q0 -6 -3 -9zM1429 427v-130h-16v130h16zM641 121l-25 64q0 2 -1 3l-1 2
q0 4 -2 6v-6l-1 -2q-1 -1 -1 -3l-26 -64h57zM1024 682v-4l26 -60h-55l27 60v5zM1645 77q6 0 6 -6q2 -2 2 -5v-4q0 -7 -2 -9q0 -5 -6 -9q-2 0 -5 -4h-17q-2 2 -4.5 3t-4.5 1q0 2 -1.5 4t-3.5 5q-2 2 -2 9v4q0 3 2 5l3 4l2 2q7 4 9 4q2 3 4 3h10q3 0 3 -3q3 0 5 -4z" />
    <glyph glyph-name="section" unicode="&#xa7;" horiz-adv-x="732" 
d="M544 1182q-18 30 -35 48t-34.5 28t-35.5 13t-39 3q-26 0 -46 -9t-34 -24.5t-21.5 -36t-7.5 -42.5v-38q0 -46 33 -76t96 -57q116 -50 170 -114t57 -155v-55q0 -29 -7 -56.5t-19.5 -52t-28.5 -44t-33 -32.5q15 -12 34 -30t35.5 -42.5t28 -56.5t11.5 -73v-60q0 -69 -28 -120
t-71.5 -84.5t-97 -50.5t-104.5 -17q-42 0 -86 8t-85 27.5t-77.5 52t-63.5 82.5q-9 17 -7 27t9 15l99 73q3 1 7.5 3.5t9.5 2t11 -5t11 -15.5q23 -50 63 -75t88 -25q21 0 40.5 6.5t34.5 21t24 37t9 54.5v52q0 22 -10 40.5t-26.5 34t-38.5 27.5t-45 21q-56 21 -100 46
t-74.5 56.5t-46.5 70t-16 87.5v54q0 33 7.5 63t20 55.5t29 45t34.5 31.5q-20 17 -40 38.5t-35.5 47.5t-25 57.5t-9.5 68.5v43q0 59 25 108.5t67.5 85t98.5 55t117 19.5q103 0 177.5 -40t120.5 -118q12 -20 11 -30.5t-12 -18.5l-99 -66q-8 -5 -19.5 -4t-20.5 15zM392 566
q9 3 20 12t21 23.5t16 34t6 43.5v47q-2 43 -26.5 67t-56.5 41q-12 -2 -25.5 -9t-25.5 -20t-19.5 -31.5t-7.5 -42.5v-46q0 -15 5 -32.5t17 -34t30.5 -30.5t45.5 -22z" />
    <glyph glyph-name="paragraph" unicode="&#xb6;" horiz-adv-x="999" 
d="M894 1425q42 0 42 -34v-93q0 -43 -44 -43h-65v-1222q0 -33 -22 -33h-125q-8 0 -15.5 6.5t-7.5 23.5v1225h-113v-1225q0 -30 -21 -30h-126q-8 0 -14.5 7t-6.5 24v576q-54 0 -110.5 15t-102.5 59.5t-75 124.5t-29 209q0 125 29 204.5t75 125.5t102 63t110 17h519z" />
    <glyph glyph-name="Uhungarumlaut" unicode="&#x170;" horiz-adv-x="928" 
d="M316 1607v248q0 5 1 6q4 2 6 2h64q15 0 27 -6q12 -4 22 -14q5 -5 9 -10.5t6 -11.5q5 -13 5 -27v-32q0 -19 -7 -32q-7 -15 -19 -23l29 -100v-1q0 -3 -1 -4q-2 -2 -4 -2h-37q-2 0 -4 2l-2 5l-20 85h-28v-85q0 -7 -7 -7h-33q-7 0 -7 7zM548 1604v3l56 249q2 7 8 7h32
q6 0 8 -7l55 -249q1 -1 1 -3q0 -4 -4 -4h-37q-3 0 -5 2q-3 1 -3 5l-6 37h-50l-6 -37q-1 -3 -3 -5t-5 -2h-37q-4 0 -4 4zM207 1602q-1 1 -1 5v211h-39q-3 0 -3 1q-2 2 -2 5v32q0 4 2 5q0 2 3 2h124q2 0 4 -2t2 -5v-32q0 -1 -2 -5q-1 -1 -4 -1h-38v-211q0 -7 -6 -7h-36
q-2 0 -4 2zM723 1607v248q0 4 2 6t5 2h34q3 0 5 -2t2 -6v-210h58q6 0 6 -6v-32q0 -7 -6 -7h-99q-7 0 -7 7zM485 1607v248q0 5 2 6q2 2 5 2h33q3 0 5 -2t2 -6v-248q0 -7 -7 -7h-33q-7 0 -7 7zM387 1737q10 0 16 6q6 7 6 17v35q0 10 -6 16q-7 7 -17 7h-23v-81h24zM645 1686
l-15 96l-2 25l-2 -25l-16 -96h35zM335 348q0 -25 9 -48t26 -40.5t41 -28t53 -10.5q30 0 53.5 10.5t40.5 28t26 40.5t9 48v1038q0 16 8.5 28t24.5 12h189q17 0 25.5 -12.5t8.5 -27.5v-1053q0 -74 -30.5 -139t-83 -113t-122.5 -76t-149 -28t-149 28t-122.5 76t-83 113
t-30.5 139v1054q0 17 8.5 28t19.5 11h198q18 0 24 -11t6 -28v-1039z" />
    <glyph glyph-name="Umacron" unicode="&#x16a;" horiz-adv-x="928" 
d="M335 348q0 -25 9 -48t26 -40.5t41 -28t53 -10.5q30 0 53.5 10.5t40.5 28t26 40.5t9 48v1038q0 16 8.5 28t24.5 12h189q17 0 25.5 -12.5t8.5 -27.5v-1053q0 -74 -30.5 -139t-83 -113t-122.5 -76t-149 -28t-149 28t-122.5 76t-83 113t-30.5 139v1054q0 17 8.5 28t19.5 11
h198q18 0 24 -11t6 -28v-1039zM287 1536v248q0 5 1 6q4 2 6 2h64q15 0 27 -6q12 -4 22 -14q5 -5 9 -10.5t6 -11.5q5 -13 5 -27v-32q0 -19 -7 -32q-7 -15 -19 -23l29 -100v-1q0 -3 -1 -4q-2 -2 -4 -2h-37q-2 0 -4 2l-2 5l-20 85h-28v-85q0 -7 -7 -7h-33q-7 0 -7 7zM519 1533
v3l56 249q2 7 8 7h32q6 0 8 -7l55 -249q1 -1 1 -3q0 -4 -4 -4h-37q-3 0 -5 2q-3 1 -3 5l-6 37h-50l-6 -37q-1 -3 -3 -5t-5 -2h-37q-4 0 -4 4zM178 1531q-1 1 -1 5v211h-39q-3 0 -3 1q-2 2 -2 5v32q0 4 2 5q0 2 3 2h124q2 0 4 -2t2 -5v-32q0 -1 -2 -5q-1 -1 -4 -1h-38v-211
q0 -7 -6 -7h-36q-2 0 -4 2zM694 1536v248q0 4 2 6t5 2h34q3 0 5 -2t2 -6v-210h58q6 0 6 -6v-32q0 -7 -6 -7h-99q-7 0 -7 7zM456 1536v248q0 5 2 6q2 2 5 2h33q3 0 5 -2t2 -6v-248q0 -7 -7 -7h-33q-7 0 -7 7zM358 1666q10 0 16 6q6 7 6 17v35q0 10 -6 16q-7 7 -17 7h-23v-81
h24zM616 1615l-15 96l-2 25l-2 -25l-16 -96h35z" />
    <glyph glyph-name="thorn" unicode="&#xfe;" horiz-adv-x="902" 
d="M100 1543q0 39 36 39h184q36 0 36 -39v-404q36 38 81 61t99 23q78 0 135.5 -29t95 -79.5t55.5 -118.5t18 -145v-480q0 -81 -18 -152.5t-55.5 -125t-96 -85t-140.5 -31.5q-53 0 -97 24t-79 65l-1 -398q0 -25 -15 -36.5t-34 -11.5h-170q-36 0 -36 39zM356 369q0 -28 8 -56
t23.5 -50t39 -35.5t53.5 -13.5q24 0 43 9.5t33 25.5t21.5 37t7.5 44v540q0 24 -7 45t-20.5 36.5t-33.5 25t-45 9.5q-30 0 -53 -12t-38.5 -31.5t-23.5 -44.5t-8 -50v-479z" />
    <glyph glyph-name="uni03BC" unicode="&#x3bc;" horiz-adv-x="920" 
d="M832 40q0 -20 -9.5 -30t-25.5 -10h-139q-14 0 -30 13t-18 33l-4 28q-39 -43 -85.5 -68.5t-92.5 -25.5q-51 0 -92 22v-326q0 -25 -16 -36.5t-31 -11.5h-175q-33 0 -33 42v1515q0 22 10 31t24 9h187q14 0 24 -9.5t10 -31.5v-845q0 -24 7 -47t20.5 -40.5t34.5 -28t49 -10.5
t51.5 11t41 30.5t27.5 46t10 57.5v824q0 22 10.5 32.5t24.5 10.5h186q14 0 24 -9.5t10 -30.5v-1145z" />
    <glyph glyph-name="afii10030" unicode="&#x41c;" horiz-adv-x="1204" 
d="M323 919l7 -72l3 -808q0 -39 -30 -39h-182q-29 0 -29 39v1350q3 37 30 37h232q17 0 22 -9t10 -26l205 -741l10 -75l11 75l206 741q5 17 10 26t22 9h232q27 0 30 -37v-1350q0 -39 -29 -39h-182q-32 0 -30 39l3 808l6 72l-1 -8l-189 -669q-5 -20 -11 -28t-22 -8h-110
q-16 0 -22 8t-11 28l-189 669z" />
    <glyph glyph-name="ecircumflex" unicode="&#xea;" horiz-adv-x="862" 
d="M68 894q0 73 29.5 137.5t80 112.5t118.5 76t146 28t143.5 -28t113 -76t73.5 -112.5t26 -137.5v-298q0 -20 -11 -30.5t-29 -10.5h-434v-231q0 -24 9.5 -45.5t25.5 -37t38 -25t47 -9.5t46.5 9.5t36.5 26t23.5 38t8.5 45.5v45q0 12 8 20.5t22 8.5h179q13 0 20.5 -6.5
t7.5 -24.5v-38q0 -73 -26 -137.5t-72.5 -112.5t-112 -76t-143.5 -28t-146 28t-118.5 76t-80 112.5t-29.5 137.5v563zM324 737h235v163q0 24 -8.5 45.5t-24 37.5t-36.5 25.5t-46 9.5t-47 -9.5t-38 -25t-25.5 -37t-9.5 -45.5v-164zM273 1388v248q0 5 1 6q4 2 6 2h64
q15 0 27 -6q12 -4 22 -14q5 -5 9 -10.5t6 -11.5q5 -13 5 -27v-32q0 -19 -7 -32q-7 -15 -19 -23l29 -100v-1q0 -3 -1 -4q-2 -2 -4 -2h-37q-2 0 -4 2l-2 5l-20 85h-28v-85q0 -7 -7 -7h-33q-7 0 -7 7zM505 1385v3l56 249q2 7 8 7h32q6 0 8 -7l55 -249q1 -1 1 -3q0 -4 -4 -4h-37
q-3 0 -5 2q-3 1 -3 5l-6 37h-50l-6 -37q-1 -3 -3 -5t-5 -2h-37q-4 0 -4 4zM164 1383q-1 1 -1 5v211h-39q-3 0 -3 1q-2 2 -2 5v32q0 4 2 5q0 2 3 2h124q2 0 4 -2t2 -5v-32q0 -1 -2 -5q-1 -1 -4 -1h-38v-211q0 -7 -6 -7h-36q-2 0 -4 2zM680 1388v248q0 4 2 6t5 2h34q3 0 5 -2
t2 -6v-210h58q6 0 6 -6v-32q0 -7 -6 -7h-99q-7 0 -7 7zM442 1388v248q0 5 2 6q2 2 5 2h33q3 0 5 -2t2 -6v-248q0 -7 -7 -7h-33q-7 0 -7 7zM344 1518q10 0 16 6q6 7 6 17v35q0 10 -6 16q-7 7 -17 7h-23v-81h24zM602 1467l-15 96l-2 25l-2 -25l-16 -96h35z" />
    <glyph glyph-name="edieresis" unicode="&#xeb;" horiz-adv-x="862" 
d="M68 894q0 73 29.5 137.5t80 112.5t118.5 76t146 28t143.5 -28t113 -76t73.5 -112.5t26 -137.5v-298q0 -20 -11 -30.5t-29 -10.5h-434v-231q0 -24 9.5 -45.5t25.5 -37t38 -25t47 -9.5t46.5 9.5t36.5 26t23.5 38t8.5 45.5v45q0 12 8 20.5t22 8.5h179q13 0 20.5 -6.5
t7.5 -24.5v-38q0 -73 -26 -137.5t-72.5 -112.5t-112 -76t-143.5 -28t-146 28t-118.5 76t-80 112.5t-29.5 137.5v563zM324 737h235v163q0 24 -8.5 45.5t-24 37.5t-36.5 25.5t-46 9.5t-47 -9.5t-38 -25t-25.5 -37t-9.5 -45.5v-164zM273 1385v248q0 5 1 6q4 2 6 2h64
q15 0 27 -6q12 -4 22 -14q5 -5 9 -10.5t6 -11.5q5 -13 5 -27v-32q0 -19 -7 -32q-7 -15 -19 -23l29 -100v-1q0 -3 -1 -4q-2 -2 -4 -2h-37q-2 0 -4 2l-2 5l-20 85h-28v-85q0 -7 -7 -7h-33q-7 0 -7 7zM505 1382v3l56 249q2 7 8 7h32q6 0 8 -7l55 -249q1 -1 1 -3q0 -4 -4 -4h-37
q-3 0 -5 2q-3 1 -3 5l-6 37h-50l-6 -37q-1 -3 -3 -5t-5 -2h-37q-4 0 -4 4zM164 1380q-1 1 -1 5v211h-39q-3 0 -3 1q-2 2 -2 5v32q0 4 2 5q0 2 3 2h124q2 0 4 -2t2 -5v-32q0 -1 -2 -5q-1 -1 -4 -1h-38v-211q0 -7 -6 -7h-36q-2 0 -4 2zM680 1385v248q0 4 2 6t5 2h34q3 0 5 -2
t2 -6v-210h58q6 0 6 -6v-32q0 -7 -6 -7h-99q-7 0 -7 7zM442 1385v248q0 5 2 6q2 2 5 2h33q3 0 5 -2t2 -6v-248q0 -7 -7 -7h-33q-7 0 -7 7zM344 1515q10 0 16 6q6 7 6 17v35q0 10 -6 16q-7 7 -17 7h-23v-81h24zM602 1464l-15 96l-2 25l-2 -25l-16 -96h35z" />
    <glyph glyph-name="acircumflex" unicode="&#xe2;" horiz-adv-x="911" 
d="M819 40q0 -20 -10 -30t-24 -10h-127q-27 0 -35 40l-14 79q-34 -63 -85.5 -102.5t-123.5 -39.5q-81 0 -143 29.5t-104 79t-63.5 114.5t-21.5 137v540q0 80 22 148t64 117.5t103 77.5t139 28q73 0 124.5 -38.5t85.5 -98.5l17 76q5 23 15 30.5t29 7.5h117q15 0 25 -9.5
t10 -28.5v-1147zM564 868q0 26 -8.5 52t-24.5 46.5t-40.5 33t-55.5 12.5q-25 0 -45.5 -10t-35 -27t-22.5 -39.5t-8 -47.5v-552q0 -24 8 -46.5t22.5 -39t35 -27t45.5 -10.5q31 0 55.5 13t40.5 34t24.5 47.5t8.5 52.5v508zM249 1415v248q0 5 1 6q4 2 6 2h64q15 0 27 -6
q12 -4 22 -14q5 -5 9 -10.5t6 -11.5q5 -13 5 -27v-32q0 -19 -7 -32q-7 -15 -19 -23l29 -100v-1q0 -3 -1 -4q-2 -2 -4 -2h-37q-2 0 -4 2l-2 5l-20 85h-28v-85q0 -7 -7 -7h-33q-7 0 -7 7zM481 1412v3l56 249q2 7 8 7h32q6 0 8 -7l55 -249q1 -1 1 -3q0 -4 -4 -4h-37q-3 0 -5 2
q-3 1 -3 5l-6 37h-50l-6 -37q-1 -3 -3 -5t-5 -2h-37q-4 0 -4 4zM140 1410q-1 1 -1 5v211h-39q-3 0 -3 1q-2 2 -2 5v32q0 4 2 5q0 2 3 2h124q2 0 4 -2t2 -5v-32q0 -1 -2 -5q-1 -1 -4 -1h-38v-211q0 -7 -6 -7h-36q-2 0 -4 2zM656 1415v248q0 4 2 6t5 2h34q3 0 5 -2t2 -6v-210
h58q6 0 6 -6v-32q0 -7 -6 -7h-99q-7 0 -7 7zM418 1415v248q0 5 2 6q2 2 5 2h33q3 0 5 -2t2 -6v-248q0 -7 -7 -7h-33q-7 0 -7 7zM320 1545q10 0 16 6q6 7 6 17v35q0 10 -6 16q-7 7 -17 7h-23v-81h24zM578 1494l-15 96l-2 25l-2 -25l-16 -96h35z" />
    <glyph glyph-name="adieresis" unicode="&#xe4;" horiz-adv-x="911" 
d="M819 40q0 -20 -10 -30t-24 -10h-127q-27 0 -35 40l-14 79q-34 -63 -85.5 -102.5t-123.5 -39.5q-81 0 -143 29.5t-104 79t-63.5 114.5t-21.5 137v540q0 80 22 148t64 117.5t103 77.5t139 28q73 0 124.5 -38.5t85.5 -98.5l17 76q5 23 15 30.5t29 7.5h117q15 0 25 -9.5
t10 -28.5v-1147zM564 868q0 26 -8.5 52t-24.5 46.5t-40.5 33t-55.5 12.5q-25 0 -45.5 -10t-35 -27t-22.5 -39.5t-8 -47.5v-552q0 -24 8 -46.5t22.5 -39t35 -27t45.5 -10.5q31 0 55.5 13t40.5 34t24.5 47.5t8.5 52.5v508zM278 1412v248q0 5 1 6q4 2 6 2h64q15 0 27 -6
q12 -4 22 -14q5 -5 9 -10.5t6 -11.5q5 -13 5 -27v-32q0 -19 -7 -32q-7 -15 -19 -23l29 -100v-1q0 -3 -1 -4q-2 -2 -4 -2h-37q-2 0 -4 2l-2 5l-20 85h-28v-85q0 -7 -7 -7h-33q-7 0 -7 7zM510 1409v3l56 249q2 7 8 7h32q6 0 8 -7l55 -249q1 -1 1 -3q0 -4 -4 -4h-37q-3 0 -5 2
q-3 1 -3 5l-6 37h-50l-6 -37q-1 -3 -3 -5t-5 -2h-37q-4 0 -4 4zM169 1407q-1 1 -1 5v211h-39q-3 0 -3 1q-2 2 -2 5v32q0 4 2 5q0 2 3 2h124q2 0 4 -2t2 -5v-32q0 -1 -2 -5q-1 -1 -4 -1h-38v-211q0 -7 -6 -7h-36q-2 0 -4 2zM685 1412v248q0 4 2 6t5 2h34q3 0 5 -2t2 -6v-210
h58q6 0 6 -6v-32q0 -7 -6 -7h-99q-7 0 -7 7zM447 1412v248q0 5 2 6q2 2 5 2h33q3 0 5 -2t2 -6v-248q0 -7 -7 -7h-33q-7 0 -7 7zM349 1542q10 0 16 6q6 7 6 17v35q0 10 -6 16q-7 7 -17 7h-23v-81h24zM607 1491l-15 96l-2 25l-2 -25l-16 -96h35z" />
    <glyph glyph-name="Yacute" unicode="&#xdd;" horiz-adv-x="865" 
d="M305 561l-283 822q-7 20 -1 31.5t23 11.5h203q14 0 26 -7.5t17 -28.5l129 -538l14 -148l14 148l131 538q4 20 15.5 28t25.5 8h206q17 0 23 -11.5t-1 -30.5l-286 -826v-519q0 -39 -30 -39h-195q-31 0 -31 39v522zM380 1601v248q0 5 1 6q4 2 6 2h64q15 0 27 -6
q12 -4 22 -14q5 -5 9 -10.5t6 -11.5q5 -13 5 -27v-32q0 -19 -7 -32q-7 -15 -19 -23l29 -100v-1q0 -3 -1 -4q-2 -2 -4 -2h-37q-2 0 -4 2l-2 5l-20 85h-28v-85q0 -7 -7 -7h-33q-7 0 -7 7zM612 1598v3l56 249q2 7 8 7h32q6 0 8 -7l55 -249q1 -1 1 -3q0 -4 -4 -4h-37q-3 0 -5 2
q-3 1 -3 5l-6 37h-50l-6 -37q-1 -3 -3 -5t-5 -2h-37q-4 0 -4 4zM271 1596q-1 1 -1 5v211h-39q-3 0 -3 1q-2 2 -2 5v32q0 4 2 5q0 2 3 2h124q2 0 4 -2t2 -5v-32q0 -1 -2 -5q-1 -1 -4 -1h-38v-211q0 -7 -6 -7h-36q-2 0 -4 2zM787 1601v248q0 4 2 6t5 2h34q3 0 5 -2t2 -6v-210
h58q6 0 6 -6v-32q0 -7 -6 -7h-99q-7 0 -7 7zM549 1601v248q0 5 2 6q2 2 5 2h33q3 0 5 -2t2 -6v-248q0 -7 -7 -7h-33q-7 0 -7 7zM451 1731q10 0 16 6q6 7 6 17v35q0 10 -6 16q-7 7 -17 7h-23v-81h24zM709 1680l-15 96l-2 25l-2 -25l-16 -96h35z" />
    <glyph glyph-name="Uacute" unicode="&#xda;" horiz-adv-x="928" 
d="M335 348q0 -25 9 -48t26 -40.5t41 -28t53 -10.5q30 0 53.5 10.5t40.5 28t26 40.5t9 48v1038q0 16 8.5 28t24.5 12h189q17 0 25.5 -12.5t8.5 -27.5v-1053q0 -74 -30.5 -139t-83 -113t-122.5 -76t-149 -28t-149 28t-122.5 76t-83 113t-30.5 139v1054q0 17 8.5 28t19.5 11
h198q18 0 24 -11t6 -28v-1039zM398 1607v248q0 5 1 6q4 2 6 2h64q15 0 27 -6q12 -4 22 -14q5 -5 9 -10.5t6 -11.5q5 -13 5 -27v-32q0 -19 -7 -32q-7 -15 -19 -23l29 -100v-1q0 -3 -1 -4q-2 -2 -4 -2h-37q-2 0 -4 2l-2 5l-20 85h-28v-85q0 -7 -7 -7h-33q-7 0 -7 7zM630 1604
v3l56 249q2 7 8 7h32q6 0 8 -7l55 -249q1 -1 1 -3q0 -4 -4 -4h-37q-3 0 -5 2q-3 1 -3 5l-6 37h-50l-6 -37q-1 -3 -3 -5t-5 -2h-37q-4 0 -4 4zM289 1602q-1 1 -1 5v211h-39q-3 0 -3 1q-2 2 -2 5v32q0 4 2 5q0 2 3 2h124q2 0 4 -2t2 -5v-32q0 -1 -2 -5q-1 -1 -4 -1h-38v-211
q0 -7 -6 -7h-36q-2 0 -4 2zM805 1607v248q0 4 2 6t5 2h34q3 0 5 -2t2 -6v-210h58q6 0 6 -6v-32q0 -7 -6 -7h-99q-7 0 -7 7zM567 1607v248q0 5 2 6q2 2 5 2h33q3 0 5 -2t2 -6v-248q0 -7 -7 -7h-33q-7 0 -7 7zM469 1737q10 0 16 6q6 7 6 17v35q0 10 -6 16q-7 7 -17 7h-23v-81
h24zM727 1686l-15 96l-2 25l-2 -25l-16 -96h35z" />
    <glyph glyph-name="Ugrave" unicode="&#xd9;" horiz-adv-x="928" 
d="M335 348q0 -25 9 -48t26 -40.5t41 -28t53 -10.5q30 0 53.5 10.5t40.5 28t26 40.5t9 48v1038q0 16 8.5 28t24.5 12h189q17 0 25.5 -12.5t8.5 -27.5v-1053q0 -74 -30.5 -139t-83 -113t-122.5 -76t-149 -28t-149 28t-122.5 76t-83 113t-30.5 139v1054q0 17 8.5 28t19.5 11
h198q18 0 24 -11t6 -28v-1039zM279 1602v248q0 5 1 6q4 2 6 2h64q15 0 27 -6q12 -4 22 -14q5 -5 9 -10.5t6 -11.5q5 -13 5 -27v-32q0 -19 -7 -32q-7 -15 -19 -23l29 -100v-1q0 -3 -1 -4q-2 -2 -4 -2h-37q-2 0 -4 2l-2 5l-20 85h-28v-85q0 -7 -7 -7h-33q-7 0 -7 7zM511 1599
v3l56 249q2 7 8 7h32q6 0 8 -7l55 -249q1 -1 1 -3q0 -4 -4 -4h-37q-3 0 -5 2q-3 1 -3 5l-6 37h-50l-6 -37q-1 -3 -3 -5t-5 -2h-37q-4 0 -4 4zM170 1597q-1 1 -1 5v211h-39q-3 0 -3 1q-2 2 -2 5v32q0 4 2 5q0 2 3 2h124q2 0 4 -2t2 -5v-32q0 -1 -2 -5q-1 -1 -4 -1h-38v-211
q0 -7 -6 -7h-36q-2 0 -4 2zM686 1602v248q0 4 2 6t5 2h34q3 0 5 -2t2 -6v-210h58q6 0 6 -6v-32q0 -7 -6 -7h-99q-7 0 -7 7zM448 1602v248q0 5 2 6q2 2 5 2h33q3 0 5 -2t2 -6v-248q0 -7 -7 -7h-33q-7 0 -7 7zM350 1732q10 0 16 6q6 7 6 17v35q0 10 -6 16q-7 7 -17 7h-23v-81
h24zM608 1681l-15 96l-2 25l-2 -25l-16 -96h35z" />
    <glyph glyph-name="Eacute" unicode="&#xc9;" horiz-adv-x="777" 
d="M92 1387q0 18 9.5 28.5t27.5 10.5h570q14 0 22 -9t8 -28v-171q0 -18 -8 -27t-22 -9h-350v-338h272q14 0 23.5 -8.5t9.5 -28.5v-170q0 -19 -9 -28t-24 -9h-272v-356h354q13 0 22 -8.5t9 -26.5v-173q0 -19 -9 -27.5t-22 -8.5h-574q-37 0 -37 39v1348zM336 1610v248q0 5 1 6
q4 2 6 2h64q15 0 27 -6q12 -4 22 -14q5 -5 9 -10.5t6 -11.5q5 -13 5 -27v-32q0 -19 -7 -32q-7 -15 -19 -23l29 -100v-1q0 -3 -1 -4q-2 -2 -4 -2h-37q-2 0 -4 2l-2 5l-20 85h-28v-85q0 -7 -7 -7h-33q-7 0 -7 7zM568 1607v3l56 249q2 7 8 7h32q6 0 8 -7l55 -249q1 -1 1 -3
q0 -4 -4 -4h-37q-3 0 -5 2q-3 1 -3 5l-6 37h-50l-6 -37q-1 -3 -3 -5t-5 -2h-37q-4 0 -4 4zM227 1605q-1 1 -1 5v211h-39q-3 0 -3 1q-2 2 -2 5v32q0 4 2 5q0 2 3 2h124q2 0 4 -2t2 -5v-32q0 -1 -2 -5q-1 -1 -4 -1h-38v-211q0 -7 -6 -7h-36q-2 0 -4 2zM743 1610v248q0 4 2 6
t5 2h34q3 0 5 -2t2 -6v-210h58q6 0 6 -6v-32q0 -7 -6 -7h-99q-7 0 -7 7zM505 1610v248q0 5 2 6q2 2 5 2h33q3 0 5 -2t2 -6v-248q0 -7 -7 -7h-33q-7 0 -7 7zM407 1740q10 0 16 6q6 7 6 17v35q0 10 -6 16q-7 7 -17 7h-23v-81h24zM665 1689l-15 96l-2 25l-2 -25l-16 -96h35z
" />
    <glyph glyph-name="Oacute" unicode="&#xd3;" horiz-adv-x="908" 
d="M69 1092q0 83 30.5 149.5t83 112.5t122 70.5t148.5 24.5t149.5 -24.5t123 -70.5t83 -112t30.5 -150v-759q0 -83 -30.5 -149t-83 -112t-122.5 -70.5t-149 -24.5t-149 25t-122.5 71.5t-83 112.5t-30.5 147v759zM325 347q0 -25 9 -47.5t26 -40t40.5 -28t53.5 -10.5
q29 0 53 10.5t41 28t26 40t9 47.5v731q0 25 -9.5 48t-27 40.5t-41 28t-51.5 10.5t-51.5 -10.5t-41 -28t-27 -40.5t-9.5 -48v-731zM402 1578v248q0 5 1 6q4 2 6 2h64q15 0 27 -6q12 -4 22 -14q5 -5 9 -10.5t6 -11.5q5 -13 5 -27v-32q0 -19 -7 -32q-7 -15 -19 -23l29 -100v-1
q0 -3 -1 -4q-2 -2 -4 -2h-37q-2 0 -4 2l-2 5l-20 85h-28v-85q0 -7 -7 -7h-33q-7 0 -7 7zM634 1575v3l56 249q2 7 8 7h32q6 0 8 -7l55 -249q1 -1 1 -3q0 -4 -4 -4h-37q-3 0 -5 2q-3 1 -3 5l-6 37h-50l-6 -37q-1 -3 -3 -5t-5 -2h-37q-4 0 -4 4zM293 1573q-1 1 -1 5v211h-39
q-3 0 -3 1q-2 2 -2 5v32q0 4 2 5q0 2 3 2h124q2 0 4 -2t2 -5v-32q0 -1 -2 -5q-1 -1 -4 -1h-38v-211q0 -7 -6 -7h-36q-2 0 -4 2zM809 1578v248q0 4 2 6t5 2h34q3 0 5 -2t2 -6v-210h58q6 0 6 -6v-32q0 -7 -6 -7h-99q-7 0 -7 7zM571 1578v248q0 5 2 6q2 2 5 2h33q3 0 5 -2t2 -6
v-248q0 -7 -7 -7h-33q-7 0 -7 7zM473 1708q10 0 16 6q6 7 6 17v35q0 10 -6 16q-7 7 -17 7h-23v-81h24zM731 1657l-15 96l-2 25l-2 -25l-16 -96h35z" />
    <glyph glyph-name="agrave" unicode="&#xe0;" horiz-adv-x="911" 
d="M819 40q0 -20 -10 -30t-24 -10h-127q-27 0 -35 40l-14 79q-34 -63 -85.5 -102.5t-123.5 -39.5q-81 0 -143 29.5t-104 79t-63.5 114.5t-21.5 137v540q0 80 22 148t64 117.5t103 77.5t139 28q73 0 124.5 -38.5t85.5 -98.5l17 76q5 23 15 30.5t29 7.5h117q15 0 25 -9.5
t10 -28.5v-1147zM564 868q0 26 -8.5 52t-24.5 46.5t-40.5 33t-55.5 12.5q-25 0 -45.5 -10t-35 -27t-22.5 -39.5t-8 -47.5v-552q0 -24 8 -46.5t22.5 -39t35 -27t45.5 -10.5q31 0 55.5 13t40.5 34t24.5 47.5t8.5 52.5v508zM257 1382v248q0 5 1 6q4 2 6 2h64q15 0 27 -6
q12 -4 22 -14q5 -5 9 -10.5t6 -11.5q5 -13 5 -27v-32q0 -19 -7 -32q-7 -15 -19 -23l29 -100v-1q0 -3 -1 -4q-2 -2 -4 -2h-37q-2 0 -4 2l-2 5l-20 85h-28v-85q0 -7 -7 -7h-33q-7 0 -7 7zM489 1379v3l56 249q2 7 8 7h32q6 0 8 -7l55 -249q1 -1 1 -3q0 -4 -4 -4h-37q-3 0 -5 2
q-3 1 -3 5l-6 37h-50l-6 -37q-1 -3 -3 -5t-5 -2h-37q-4 0 -4 4zM148 1377q-1 1 -1 5v211h-39q-3 0 -3 1q-2 2 -2 5v32q0 4 2 5q0 2 3 2h124q2 0 4 -2t2 -5v-32q0 -1 -2 -5q-1 -1 -4 -1h-38v-211q0 -7 -6 -7h-36q-2 0 -4 2zM664 1382v248q0 4 2 6t5 2h34q3 0 5 -2t2 -6v-210
h58q6 0 6 -6v-32q0 -7 -6 -7h-99q-7 0 -7 7zM426 1382v248q0 5 2 6q2 2 5 2h33q3 0 5 -2t2 -6v-248q0 -7 -7 -7h-33q-7 0 -7 7zM328 1512q10 0 16 6q6 7 6 17v35q0 10 -6 16q-7 7 -17 7h-23v-81h24zM586 1461l-15 96l-2 25l-2 -25l-16 -96h35z" />
    <glyph glyph-name="aacute" unicode="&#xe1;" horiz-adv-x="911" 
d="M819 40q0 -20 -10 -30t-24 -10h-127q-27 0 -35 40l-14 79q-34 -63 -85.5 -102.5t-123.5 -39.5q-81 0 -143 29.5t-104 79t-63.5 114.5t-21.5 137v540q0 80 22 148t64 117.5t103 77.5t139 28q73 0 124.5 -38.5t85.5 -98.5l17 76q5 23 15 30.5t29 7.5h117q15 0 25 -9.5
t10 -28.5v-1147zM564 868q0 26 -8.5 52t-24.5 46.5t-40.5 33t-55.5 12.5q-25 0 -45.5 -10t-35 -27t-22.5 -39.5t-8 -47.5v-552q0 -24 8 -46.5t22.5 -39t35 -27t45.5 -10.5q31 0 55.5 13t40.5 34t24.5 47.5t8.5 52.5v508zM347 1396v248q0 5 1 6q4 2 6 2h64q15 0 27 -6
q12 -4 22 -14q5 -5 9 -10.5t6 -11.5q5 -13 5 -27v-32q0 -19 -7 -32q-7 -15 -19 -23l29 -100v-1q0 -3 -1 -4q-2 -2 -4 -2h-37q-2 0 -4 2l-2 5l-20 85h-28v-85q0 -7 -7 -7h-33q-7 0 -7 7zM579 1393v3l56 249q2 7 8 7h32q6 0 8 -7l55 -249q1 -1 1 -3q0 -4 -4 -4h-37q-3 0 -5 2
q-3 1 -3 5l-6 37h-50l-6 -37q-1 -3 -3 -5t-5 -2h-37q-4 0 -4 4zM238 1391q-1 1 -1 5v211h-39q-3 0 -3 1q-2 2 -2 5v32q0 4 2 5q0 2 3 2h124q2 0 4 -2t2 -5v-32q0 -1 -2 -5q-1 -1 -4 -1h-38v-211q0 -7 -6 -7h-36q-2 0 -4 2zM754 1396v248q0 4 2 6t5 2h34q3 0 5 -2t2 -6v-210
h58q6 0 6 -6v-32q0 -7 -6 -7h-99q-7 0 -7 7zM516 1396v248q0 5 2 6q2 2 5 2h33q3 0 5 -2t2 -6v-248q0 -7 -7 -7h-33q-7 0 -7 7zM418 1526q10 0 16 6q6 7 6 17v35q0 10 -6 16q-7 7 -17 7h-23v-81h24zM676 1475l-15 96l-2 25l-2 -25l-16 -96h35z" />
    <glyph glyph-name="iacute" unicode="&#xed;" horiz-adv-x="440" 
d="M92 1189q0 16 11 26t26 10h182q17 0 27 -11t10 -26v-1149q0 -39 -37 -39h-182q-37 0 -37 39v1150zM149 1397v248q0 5 1 6q4 2 6 2h64q15 0 27 -6q12 -4 22 -14q5 -5 9 -10.5t6 -11.5q5 -13 5 -27v-32q0 -19 -7 -32q-7 -15 -19 -23l29 -100v-1q0 -3 -1 -4q-2 -2 -4 -2h-37
q-2 0 -4 2l-2 5l-20 85h-28v-85q0 -7 -7 -7h-33q-7 0 -7 7zM381 1394v3l56 249q2 7 8 7h32q6 0 8 -7l55 -249q1 -1 1 -3q0 -4 -4 -4h-37q-3 0 -5 2q-3 1 -3 5l-6 37h-50l-6 -37q-1 -3 -3 -5t-5 -2h-37q-4 0 -4 4zM40 1392q-1 1 -1 5v211h-39q-3 0 -3 1q-2 2 -2 5v32q0 4 2 5
q0 2 3 2h124q2 0 4 -2t2 -5v-32q0 -1 -2 -5q-1 -1 -4 -1h-38v-211q0 -7 -6 -7h-36q-2 0 -4 2zM556 1397v248q0 4 2 6t5 2h34q3 0 5 -2t2 -6v-210h58q6 0 6 -6v-32q0 -7 -6 -7h-99q-7 0 -7 7zM318 1397v248q0 5 2 6q2 2 5 2h33q3 0 5 -2t2 -6v-248q0 -7 -7 -7h-33q-7 0 -7 7z
M220 1527q10 0 16 6q6 7 6 17v35q0 10 -6 16q-7 7 -17 7h-23v-81h24zM478 1476l-15 96l-2 25l-2 -25l-16 -96h35z" />
    <glyph glyph-name="igrave" unicode="&#xec;" horiz-adv-x="440" 
d="M92 1189q0 16 11 26t26 10h182q17 0 27 -11t10 -26v-1149q0 -39 -37 -39h-182q-37 0 -37 39v1150zM31 1411v248q0 5 1 6q4 2 6 2h64q15 0 27 -6q12 -4 22 -14q5 -5 9 -10.5t6 -11.5q5 -13 5 -27v-32q0 -19 -7 -32q-7 -15 -19 -23l29 -100v-1q0 -3 -1 -4q-2 -2 -4 -2h-37
q-2 0 -4 2l-2 5l-20 85h-28v-85q0 -7 -7 -7h-33q-7 0 -7 7zM263 1408v3l56 249q2 7 8 7h32q6 0 8 -7l55 -249q1 -1 1 -3q0 -4 -4 -4h-37q-3 0 -5 2q-3 1 -3 5l-6 37h-50l-6 -37q-1 -3 -3 -5t-5 -2h-37q-4 0 -4 4zM-78 1406q-1 1 -1 5v211h-39q-3 0 -3 1q-2 2 -2 5v32
q0 4 2 5q0 2 3 2h124q2 0 4 -2t2 -5v-32q0 -1 -2 -5q-1 -1 -4 -1h-38v-211q0 -7 -6 -7h-36q-2 0 -4 2zM438 1411v248q0 4 2 6t5 2h34q3 0 5 -2t2 -6v-210h58q6 0 6 -6v-32q0 -7 -6 -7h-99q-7 0 -7 7zM200 1411v248q0 5 2 6q2 2 5 2h33q3 0 5 -2t2 -6v-248q0 -7 -7 -7h-33
q-7 0 -7 7zM102 1541q10 0 16 6q6 7 6 17v35q0 10 -6 16q-7 7 -17 7h-23v-81h24zM360 1490l-15 96l-2 25l-2 -25l-16 -96h35z" />
    <glyph glyph-name="Ograve" unicode="&#xd2;" horiz-adv-x="908" 
d="M69 1092q0 83 30.5 149.5t83 112.5t122 70.5t148.5 24.5t149.5 -24.5t123 -70.5t83 -112t30.5 -150v-759q0 -83 -30.5 -149t-83 -112t-122.5 -70.5t-149 -24.5t-149 25t-122.5 71.5t-83 112.5t-30.5 147v759zM325 347q0 -25 9 -47.5t26 -40t40.5 -28t53.5 -10.5
q29 0 53 10.5t41 28t26 40t9 47.5v731q0 25 -9.5 48t-27 40.5t-41 28t-51.5 10.5t-51.5 -10.5t-41 -28t-27 -40.5t-9.5 -48v-731zM265 1603v248q0 5 1 6q4 2 6 2h64q15 0 27 -6q12 -4 22 -14q5 -5 9 -10.5t6 -11.5q5 -13 5 -27v-32q0 -19 -7 -32q-7 -15 -19 -23l29 -100v-1
q0 -3 -1 -4q-2 -2 -4 -2h-37q-2 0 -4 2l-2 5l-20 85h-28v-85q0 -7 -7 -7h-33q-7 0 -7 7zM497 1600v3l56 249q2 7 8 7h32q6 0 8 -7l55 -249q1 -1 1 -3q0 -4 -4 -4h-37q-3 0 -5 2q-3 1 -3 5l-6 37h-50l-6 -37q-1 -3 -3 -5t-5 -2h-37q-4 0 -4 4zM156 1598q-1 1 -1 5v211h-39
q-3 0 -3 1q-2 2 -2 5v32q0 4 2 5q0 2 3 2h124q2 0 4 -2t2 -5v-32q0 -1 -2 -5q-1 -1 -4 -1h-38v-211q0 -7 -6 -7h-36q-2 0 -4 2zM672 1603v248q0 4 2 6t5 2h34q3 0 5 -2t2 -6v-210h58q6 0 6 -6v-32q0 -7 -6 -7h-99q-7 0 -7 7zM434 1603v248q0 5 2 6q2 2 5 2h33q3 0 5 -2t2 -6
v-248q0 -7 -7 -7h-33q-7 0 -7 7zM336 1733q10 0 16 6q6 7 6 17v35q0 10 -6 16q-7 7 -17 7h-23v-81h24zM594 1682l-15 96l-2 25l-2 -25l-16 -96h35z" />
    <glyph glyph-name="ucircumflex" unicode="&#xfb;" horiz-adv-x="927" 
d="M580 1185q0 20 16 30t30 10h175q14 0 24 -10t10 -30v-1146q0 -20 -10.5 -29.5t-24.5 -9.5h-114q-20 0 -30.5 7t-15.5 28l-28 121q-19 -38 -43.5 -70.5t-54 -56.5t-64.5 -38t-75 -14q-72 0 -126.5 26t-91.5 73t-56 113.5t-19 147.5v849q0 20 9.5 29.5t23.5 9.5h190
q14 0 23.5 -9.5t9.5 -29.5v-847q0 -25 7.5 -47.5t22 -40t36 -28t50.5 -10.5q27 0 50 12t40 32t26.5 45t9.5 52v831zM294 1396v248q0 5 1 6q4 2 6 2h64q15 0 27 -6q12 -4 22 -14q5 -5 9 -10.5t6 -11.5q5 -13 5 -27v-32q0 -19 -7 -32q-7 -15 -19 -23l29 -100v-1q0 -3 -1 -4
q-2 -2 -4 -2h-37q-2 0 -4 2l-2 5l-20 85h-28v-85q0 -7 -7 -7h-33q-7 0 -7 7zM526 1393v3l56 249q2 7 8 7h32q6 0 8 -7l55 -249q1 -1 1 -3q0 -4 -4 -4h-37q-3 0 -5 2q-3 1 -3 5l-6 37h-50l-6 -37q-1 -3 -3 -5t-5 -2h-37q-4 0 -4 4zM185 1391q-1 1 -1 5v211h-39q-3 0 -3 1
q-2 2 -2 5v32q0 4 2 5q0 2 3 2h124q2 0 4 -2t2 -5v-32q0 -1 -2 -5q-1 -1 -4 -1h-38v-211q0 -7 -6 -7h-36q-2 0 -4 2zM701 1396v248q0 4 2 6t5 2h34q3 0 5 -2t2 -6v-210h58q6 0 6 -6v-32q0 -7 -6 -7h-99q-7 0 -7 7zM463 1396v248q0 5 2 6q2 2 5 2h33q3 0 5 -2t2 -6v-248
q0 -7 -7 -7h-33q-7 0 -7 7zM365 1526q10 0 16 6q6 7 6 17v35q0 10 -6 16q-7 7 -17 7h-23v-81h24zM623 1475l-15 96l-2 25l-2 -25l-16 -96h35z" />
    <glyph glyph-name="udieresis" unicode="&#xfc;" horiz-adv-x="927" 
d="M580 1185q0 20 16 30t30 10h175q14 0 24 -10t10 -30v-1146q0 -20 -10.5 -29.5t-24.5 -9.5h-114q-20 0 -30.5 7t-15.5 28l-28 121q-19 -38 -43.5 -70.5t-54 -56.5t-64.5 -38t-75 -14q-72 0 -126.5 26t-91.5 73t-56 113.5t-19 147.5v849q0 20 9.5 29.5t23.5 9.5h190
q14 0 23.5 -9.5t9.5 -29.5v-847q0 -25 7.5 -47.5t22 -40t36 -28t50.5 -10.5q27 0 50 12t40 32t26.5 45t9.5 52v831zM287 1382v248q0 5 1 6q4 2 6 2h64q15 0 27 -6q12 -4 22 -14q5 -5 9 -10.5t6 -11.5q5 -13 5 -27v-32q0 -19 -7 -32q-7 -15 -19 -23l29 -100v-1q0 -3 -1 -4
q-2 -2 -4 -2h-37q-2 0 -4 2l-2 5l-20 85h-28v-85q0 -7 -7 -7h-33q-7 0 -7 7zM519 1379v3l56 249q2 7 8 7h32q6 0 8 -7l55 -249q1 -1 1 -3q0 -4 -4 -4h-37q-3 0 -5 2q-3 1 -3 5l-6 37h-50l-6 -37q-1 -3 -3 -5t-5 -2h-37q-4 0 -4 4zM178 1377q-1 1 -1 5v211h-39q-3 0 -3 1
q-2 2 -2 5v32q0 4 2 5q0 2 3 2h124q2 0 4 -2t2 -5v-32q0 -1 -2 -5q-1 -1 -4 -1h-38v-211q0 -7 -6 -7h-36q-2 0 -4 2zM694 1382v248q0 4 2 6t5 2h34q3 0 5 -2t2 -6v-210h58q6 0 6 -6v-32q0 -7 -6 -7h-99q-7 0 -7 7zM456 1382v248q0 5 2 6q2 2 5 2h33q3 0 5 -2t2 -6v-248
q0 -7 -7 -7h-33q-7 0 -7 7zM358 1512q10 0 16 6q6 7 6 17v35q0 10 -6 16q-7 7 -17 7h-23v-81h24zM616 1461l-15 96l-2 25l-2 -25l-16 -96h35z" />
    <glyph glyph-name="ydieresis" unicode="&#xff;" horiz-adv-x="874" 
d="M461 -416q-9 -37 -43 -37h-161q-18 0 -28 6.5t-14 16.5t-4 22t3 23l101 382l-295 1169q-8 29 1 44t29 15h191q34 0 41 -37l144 -735l11 -153l10 153l147 738q3 19 15 26.5t27 7.5h187q20 0 30 -13.5t2 -40.5zM256 1386v248q0 5 1 6q4 2 6 2h64q15 0 27 -6q12 -4 22 -14
q5 -5 9 -10.5t6 -11.5q5 -13 5 -27v-32q0 -19 -7 -32q-7 -15 -19 -23l29 -100v-1q0 -3 -1 -4q-2 -2 -4 -2h-37q-2 0 -4 2l-2 5l-20 85h-28v-85q0 -7 -7 -7h-33q-7 0 -7 7zM488 1383v3l56 249q2 7 8 7h32q6 0 8 -7l55 -249q1 -1 1 -3q0 -4 -4 -4h-37q-3 0 -5 2q-3 1 -3 5
l-6 37h-50l-6 -37q-1 -3 -3 -5t-5 -2h-37q-4 0 -4 4zM147 1381q-1 1 -1 5v211h-39q-3 0 -3 1q-2 2 -2 5v32q0 4 2 5q0 2 3 2h124q2 0 4 -2t2 -5v-32q0 -1 -2 -5q-1 -1 -4 -1h-38v-211q0 -7 -6 -7h-36q-2 0 -4 2zM663 1386v248q0 4 2 6t5 2h34q3 0 5 -2t2 -6v-210h58
q6 0 6 -6v-32q0 -7 -6 -7h-99q-7 0 -7 7zM425 1386v248q0 5 2 6q2 2 5 2h33q3 0 5 -2t2 -6v-248q0 -7 -7 -7h-33q-7 0 -7 7zM327 1516q10 0 16 6q6 7 6 17v35q0 10 -6 16q-7 7 -17 7h-23v-81h24zM585 1465l-15 96l-2 25l-2 -25l-16 -96h35z" />
    <glyph glyph-name="zcaron" unicode="&#x17e;" horiz-adv-x="769" 
d="M233 1410v248q0 5 1 6q4 2 6 2h64q15 0 27 -6q12 -4 22 -14q5 -5 9 -10.5t6 -11.5q5 -13 5 -27v-32q0 -19 -7 -32q-7 -15 -19 -23l29 -100v-1q0 -3 -1 -4q-2 -2 -4 -2h-37q-2 0 -4 2l-2 5l-20 85h-28v-85q0 -7 -7 -7h-33q-7 0 -7 7zM465 1407v3l56 249q2 7 8 7h32
q6 0 8 -7l55 -249q1 -1 1 -3q0 -4 -4 -4h-37q-3 0 -5 2q-3 1 -3 5l-6 37h-50l-6 -37q-1 -3 -3 -5t-5 -2h-37q-4 0 -4 4zM124 1405q-1 1 -1 5v211h-39q-3 0 -3 1q-2 2 -2 5v32q0 4 2 5q0 2 3 2h124q2 0 4 -2t2 -5v-32q0 -1 -2 -5q-1 -1 -4 -1h-38v-211q0 -7 -6 -7h-36
q-2 0 -4 2zM640 1410v248q0 4 2 6t5 2h34q3 0 5 -2t2 -6v-210h58q6 0 6 -6v-32q0 -7 -6 -7h-99q-7 0 -7 7zM402 1410v248q0 5 2 6q2 2 5 2h33q3 0 5 -2t2 -6v-248q0 -7 -7 -7h-33q-7 0 -7 7zM304 1540q10 0 16 6q6 7 6 17v35q0 10 -6 16q-7 7 -17 7h-23v-81h24zM562 1489
l-15 96l-2 25l-2 -25l-16 -96h35zM694 1225q24 0 24 -32l1 -140q0 -6 -0.5 -14t-5.5 -18l-1 -1l-371 -748l-26 -38h388q11 0 21.5 -9.5t10.5 -22.5v-169q0 -16 -10 -25t-22 -9h-642q-13 0 -18 9.5t-5 23.5l-2 120q0 5 2 14.5t7 20.5l4 9l366 761l21 31h-360q-11 0 -18.5 10
t-7.5 23v171q0 33 26 33h618z" />
    <glyph glyph-name="odieresis" unicode="&#xf6;" horiz-adv-x="887" 
d="M68 894q0 74 29.5 138.5t80 112.5t118.5 75.5t146 27.5t147 -26t120 -72.5t80.5 -112t29.5 -143.5v-563q0 -78 -29.5 -143.5t-80.5 -112t-119.5 -72.5t-146.5 -26t-146.5 26t-119 72.5t-80 112t-29.5 143.5v563zM324 331q0 -24 9 -45.5t25.5 -37.5t38 -25.5t47.5 -9.5
q25 0 47 9.5t38 25.5t25.5 37.5t9.5 45.5v563q0 24 -9.5 45.5t-26 37.5t-38 25.5t-46.5 9.5t-47 -9.5t-38 -25.5t-25.5 -37.5t-9.5 -45.5v-563zM265 1406v248q0 5 1 6q4 2 6 2h64q15 0 27 -6q12 -4 22 -14q5 -5 9 -10.5t6 -11.5q5 -13 5 -27v-32q0 -19 -7 -32
q-7 -15 -19 -23l29 -100v-1q0 -3 -1 -4q-2 -2 -4 -2h-37q-2 0 -4 2l-2 5l-20 85h-28v-85q0 -7 -7 -7h-33q-7 0 -7 7zM497 1403v3l56 249q2 7 8 7h32q6 0 8 -7l55 -249q1 -1 1 -3q0 -4 -4 -4h-37q-3 0 -5 2q-3 1 -3 5l-6 37h-50l-6 -37q-1 -3 -3 -5t-5 -2h-37q-4 0 -4 4z
M156 1401q-1 1 -1 5v211h-39q-3 0 -3 1q-2 2 -2 5v32q0 4 2 5q0 2 3 2h124q2 0 4 -2t2 -5v-32q0 -1 -2 -5q-1 -1 -4 -1h-38v-211q0 -7 -6 -7h-36q-2 0 -4 2zM672 1406v248q0 4 2 6t5 2h34q3 0 5 -2t2 -6v-210h58q6 0 6 -6v-32q0 -7 -6 -7h-99q-7 0 -7 7zM434 1406v248
q0 5 2 6q2 2 5 2h33q3 0 5 -2t2 -6v-248q0 -7 -7 -7h-33q-7 0 -7 7zM336 1536q10 0 16 6q6 7 6 17v35q0 10 -6 16q-7 7 -17 7h-23v-81h24zM594 1485l-15 96l-2 25l-2 -25l-16 -96h35z" />
    <glyph glyph-name="eacute" unicode="&#xe9;" horiz-adv-x="862" 
d="M68 894q0 73 29.5 137.5t80 112.5t118.5 76t146 28t143.5 -28t113 -76t73.5 -112.5t26 -137.5v-298q0 -20 -11 -30.5t-29 -10.5h-434v-231q0 -24 9.5 -45.5t25.5 -37t38 -25t47 -9.5t46.5 9.5t36.5 26t23.5 38t8.5 45.5v45q0 12 8 20.5t22 8.5h179q13 0 20.5 -6.5
t7.5 -24.5v-38q0 -73 -26 -137.5t-72.5 -112.5t-112 -76t-143.5 -28t-146 28t-118.5 76t-80 112.5t-29.5 137.5v563zM324 737h235v163q0 24 -8.5 45.5t-24 37.5t-36.5 25.5t-46 9.5t-47 -9.5t-38 -25t-25.5 -37t-9.5 -45.5v-164zM401 1383v248q0 5 1 6q4 2 6 2h64
q15 0 27 -6q12 -4 22 -14q5 -5 9 -10.5t6 -11.5q5 -13 5 -27v-32q0 -19 -7 -32q-7 -15 -19 -23l29 -100v-1q0 -3 -1 -4q-2 -2 -4 -2h-37q-2 0 -4 2l-2 5l-20 85h-28v-85q0 -7 -7 -7h-33q-7 0 -7 7zM633 1380v3l56 249q2 7 8 7h32q6 0 8 -7l55 -249q1 -1 1 -3q0 -4 -4 -4h-37
q-3 0 -5 2q-3 1 -3 5l-6 37h-50l-6 -37q-1 -3 -3 -5t-5 -2h-37q-4 0 -4 4zM292 1378q-1 1 -1 5v211h-39q-3 0 -3 1q-2 2 -2 5v32q0 4 2 5q0 2 3 2h124q2 0 4 -2t2 -5v-32q0 -1 -2 -5q-1 -1 -4 -1h-38v-211q0 -7 -6 -7h-36q-2 0 -4 2zM808 1383v248q0 4 2 6t5 2h34q3 0 5 -2
t2 -6v-210h58q6 0 6 -6v-32q0 -7 -6 -7h-99q-7 0 -7 7zM570 1383v248q0 5 2 6q2 2 5 2h33q3 0 5 -2t2 -6v-248q0 -7 -7 -7h-33q-7 0 -7 7zM472 1513q10 0 16 6q6 7 6 17v35q0 10 -6 16q-7 7 -17 7h-23v-81h24zM730 1462l-15 96l-2 25l-2 -25l-16 -96h35z" />
    <glyph glyph-name="egrave" unicode="&#xe8;" horiz-adv-x="862" 
d="M68 894q0 73 29.5 137.5t80 112.5t118.5 76t146 28t143.5 -28t113 -76t73.5 -112.5t26 -137.5v-298q0 -20 -11 -30.5t-29 -10.5h-434v-231q0 -24 9.5 -45.5t25.5 -37t38 -25t47 -9.5t46.5 9.5t36.5 26t23.5 38t8.5 45.5v45q0 12 8 20.5t22 8.5h179q13 0 20.5 -6.5
t7.5 -24.5v-38q0 -73 -26 -137.5t-72.5 -112.5t-112 -76t-143.5 -28t-146 28t-118.5 76t-80 112.5t-29.5 137.5v563zM324 737h235v163q0 24 -8.5 45.5t-24 37.5t-36.5 25.5t-46 9.5t-47 -9.5t-38 -25t-25.5 -37t-9.5 -45.5v-164zM257 1391v248q0 5 1 6q4 2 6 2h64
q15 0 27 -6q12 -4 22 -14q5 -5 9 -10.5t6 -11.5q5 -13 5 -27v-32q0 -19 -7 -32q-7 -15 -19 -23l29 -100v-1q0 -3 -1 -4q-2 -2 -4 -2h-37q-2 0 -4 2l-2 5l-20 85h-28v-85q0 -7 -7 -7h-33q-7 0 -7 7zM489 1388v3l56 249q2 7 8 7h32q6 0 8 -7l55 -249q1 -1 1 -3q0 -4 -4 -4h-37
q-3 0 -5 2q-3 1 -3 5l-6 37h-50l-6 -37q-1 -3 -3 -5t-5 -2h-37q-4 0 -4 4zM148 1386q-1 1 -1 5v211h-39q-3 0 -3 1q-2 2 -2 5v32q0 4 2 5q0 2 3 2h124q2 0 4 -2t2 -5v-32q0 -1 -2 -5q-1 -1 -4 -1h-38v-211q0 -7 -6 -7h-36q-2 0 -4 2zM664 1391v248q0 4 2 6t5 2h34q3 0 5 -2
t2 -6v-210h58q6 0 6 -6v-32q0 -7 -6 -7h-99q-7 0 -7 7zM426 1391v248q0 5 2 6q2 2 5 2h33q3 0 5 -2t2 -6v-248q0 -7 -7 -7h-33q-7 0 -7 7zM328 1521q10 0 16 6q6 7 6 17v35q0 10 -6 16q-7 7 -17 7h-23v-81h24zM586 1470l-15 96l-2 25l-2 -25l-16 -96h35z" />
    <glyph glyph-name="Scaron" unicode="&#x160;" horiz-adv-x="886" 
d="M295 1634v248q0 5 1 6q4 2 6 2h64q15 0 27 -6q12 -4 22 -14q5 -5 9 -10.5t6 -11.5q5 -13 5 -27v-32q0 -19 -7 -32q-7 -15 -19 -23l29 -100v-1q0 -3 -1 -4q-2 -2 -4 -2h-37q-2 0 -4 2l-2 5l-20 85h-28v-85q0 -7 -7 -7h-33q-7 0 -7 7zM527 1631v3l56 249q2 7 8 7h32
q6 0 8 -7l55 -249q1 -1 1 -3q0 -4 -4 -4h-37q-3 0 -5 2q-3 1 -3 5l-6 37h-50l-6 -37q-1 -3 -3 -5t-5 -2h-37q-4 0 -4 4zM186 1629q-1 1 -1 5v211h-39q-3 0 -3 1q-2 2 -2 5v32q0 4 2 5q0 2 3 2h124q2 0 4 -2t2 -5v-32q0 -1 -2 -5q-1 -1 -4 -1h-38v-211q0 -7 -6 -7h-36
q-2 0 -4 2zM702 1634v248q0 4 2 6t5 2h34q3 0 5 -2t2 -6v-210h58q6 0 6 -6v-32q0 -7 -6 -7h-99q-7 0 -7 7zM464 1634v248q0 5 2 6q2 2 5 2h33q3 0 5 -2t2 -6v-248q0 -7 -7 -7h-33q-7 0 -7 7zM366 1764q10 0 16 6q6 7 6 17v35q0 10 -6 16q-7 7 -17 7h-23v-81h24zM624 1713
l-15 96l-2 25l-2 -25l-16 -96h35zM67 401q0 26 6.5 37.5t28.5 11.5h182q23 0 29.5 -9.5t6.5 -32.5v-47q0 -39 12.5 -66t32 -43t42.5 -23t43 -7q25 0 48.5 9t41.5 25.5t28.5 39.5t10.5 52q0 38 -9.5 68t-31 58t-55.5 58.5t-83 69.5q-82 65 -144 115t-104 101t-63.5 112.5
t-21.5 149.5q0 67 17.5 120.5t46.5 94.5t67.5 70t79.5 48t83 27.5t78 8.5q82 0 150.5 -27t118 -76t77 -118t27.5 -154v-60q0 -23 -7.5 -30.5t-33.5 -7.5h-177q-20 0 -26 8t-6 30v59q0 27 -8 51t-23 42t-37 28.5t-50 10.5q-20 0 -41.5 -7t-39 -23t-28.5 -41t-11 -61
q0 -38 10.5 -66.5t30 -53.5t47 -48t62.5 -49q74 -56 139.5 -108t115 -111.5t78 -132.5t28.5 -171q0 -72 -28 -136.5t-79 -113t-122.5 -77.5t-159.5 -29q-94 0 -165 30.5t-118.5 81.5t-71.5 118t-24 140v54z" />
    <glyph glyph-name="scaron" unicode="&#x161;" horiz-adv-x="833" 
d="M249 1410v248q0 5 1 6q4 2 6 2h64q15 0 27 -6q12 -4 22 -14q5 -5 9 -10.5t6 -11.5q5 -13 5 -27v-32q0 -19 -7 -32q-7 -15 -19 -23l29 -100v-1q0 -3 -1 -4q-2 -2 -4 -2h-37q-2 0 -4 2l-2 5l-20 85h-28v-85q0 -7 -7 -7h-33q-7 0 -7 7zM481 1407v3l56 249q2 7 8 7h32
q6 0 8 -7l55 -249q1 -1 1 -3q0 -4 -4 -4h-37q-3 0 -5 2q-3 1 -3 5l-6 37h-50l-6 -37q-1 -3 -3 -5t-5 -2h-37q-4 0 -4 4zM140 1405q-1 1 -1 5v211h-39q-3 0 -3 1q-2 2 -2 5v32q0 4 2 5q0 2 3 2h124q2 0 4 -2t2 -5v-32q0 -1 -2 -5q-1 -1 -4 -1h-38v-211q0 -7 -6 -7h-36
q-2 0 -4 2zM656 1410v248q0 4 2 6t5 2h34q3 0 5 -2t2 -6v-210h58q6 0 6 -6v-32q0 -7 -6 -7h-99q-7 0 -7 7zM418 1410v248q0 5 2 6q2 2 5 2h33q3 0 5 -2t2 -6v-248q0 -7 -7 -7h-33q-7 0 -7 7zM320 1540q10 0 16 6q6 7 6 17v35q0 10 -6 16q-7 7 -17 7h-23v-81h24zM578 1489
l-15 96l-2 25l-2 -25l-16 -96h35zM46 352q0 35 51 35h164q15 0 22.5 -9.5t7.5 -26.5v-28q0 -51 33 -83.5t86 -32.5q25 0 47 9t38.5 25t25.5 38.5t9 49.5q0 33 -23 61t-60.5 54.5t-85.5 54.5t-98 62q-45 29 -83 63t-65 75t-42.5 91t-15.5 111q0 73 26.5 136.5t74 110
t112.5 73.5t143 27q86 0 152.5 -26t112 -73t69 -112t23.5 -143v-23q0 -19 -9 -24t-32 -5h-159q-19 0 -26.5 9.5t-7.5 26.5v22q0 51 -30.5 85t-81.5 34q-27 0 -47.5 -10t-34.5 -27t-21 -40t-7 -48q0 -30 10.5 -51t34 -40t61.5 -41t93 -54q59 -34 109.5 -74t87 -87
t57.5 -101.5t21 -117.5q0 -76 -26.5 -140t-74.5 -111t-116 -73.5t-151 -26.5q-110 0 -182 29.5t-114.5 79t-60 113t-17.5 132.5v21z" />
    <glyph glyph-name="Aacute" unicode="&#xc1;" horiz-adv-x="856" 
d="M861 39q9 -39 -21 -39h-200q-14 0 -27 7.5t-16 26.5l-34 204h-271l-33 -204q-3 -19 -16 -26.5t-27 -7.5h-200q-30 0 -21 39l303 1352q9 35 41 35h178q32 0 41 -35zM330 467h195l-86 524l-11 136l-11 -136zM353 1565v248q0 5 1 6q4 2 6 2h64q15 0 27 -6q12 -4 22 -14
q5 -5 9 -10.5t6 -11.5q5 -13 5 -27v-32q0 -19 -7 -32q-7 -15 -19 -23l29 -100v-1q0 -3 -1 -4q-2 -2 -4 -2h-37q-2 0 -4 2l-2 5l-20 85h-28v-85q0 -7 -7 -7h-33q-7 0 -7 7zM585 1562v3l56 249q2 7 8 7h32q6 0 8 -7l55 -249q1 -1 1 -3q0 -4 -4 -4h-37q-3 0 -5 2q-3 1 -3 5
l-6 37h-50l-6 -37q-1 -3 -3 -5t-5 -2h-37q-4 0 -4 4zM244 1560q-1 1 -1 5v211h-39q-3 0 -3 1q-2 2 -2 5v32q0 4 2 5q0 2 3 2h124q2 0 4 -2t2 -5v-32q0 -1 -2 -5q-1 -1 -4 -1h-38v-211q0 -7 -6 -7h-36q-2 0 -4 2zM760 1565v248q0 4 2 6t5 2h34q3 0 5 -2t2 -6v-210h58
q6 0 6 -6v-32q0 -7 -6 -7h-99q-7 0 -7 7zM522 1565v248q0 5 2 6q2 2 5 2h33q3 0 5 -2t2 -6v-248q0 -7 -7 -7h-33q-7 0 -7 7zM424 1695q10 0 16 6q6 7 6 17v35q0 10 -6 16q-7 7 -17 7h-23v-81h24zM682 1644l-15 96l-2 25l-2 -25l-16 -96h35z" />
    <glyph glyph-name="Acircumflex" unicode="&#xc2;" horiz-adv-x="856" 
d="M861 39q9 -39 -21 -39h-200q-14 0 -27 7.5t-16 26.5l-34 204h-271l-33 -204q-3 -19 -16 -26.5t-27 -7.5h-200q-30 0 -21 39l303 1352q9 35 41 35h178q32 0 41 -35zM330 467h195l-86 524l-11 136l-11 -136zM257 1595v248q0 5 1 6q4 2 6 2h64q15 0 27 -6q12 -4 22 -14
q5 -5 9 -10.5t6 -11.5q5 -13 5 -27v-32q0 -19 -7 -32q-7 -15 -19 -23l29 -100v-1q0 -3 -1 -4q-2 -2 -4 -2h-37q-2 0 -4 2l-2 5l-20 85h-28v-85q0 -7 -7 -7h-33q-7 0 -7 7zM489 1592v3l56 249q2 7 8 7h32q6 0 8 -7l55 -249q1 -1 1 -3q0 -4 -4 -4h-37q-3 0 -5 2q-3 1 -3 5
l-6 37h-50l-6 -37q-1 -3 -3 -5t-5 -2h-37q-4 0 -4 4zM148 1590q-1 1 -1 5v211h-39q-3 0 -3 1q-2 2 -2 5v32q0 4 2 5q0 2 3 2h124q2 0 4 -2t2 -5v-32q0 -1 -2 -5q-1 -1 -4 -1h-38v-211q0 -7 -6 -7h-36q-2 0 -4 2zM664 1595v248q0 4 2 6t5 2h34q3 0 5 -2t2 -6v-210h58
q6 0 6 -6v-32q0 -7 -6 -7h-99q-7 0 -7 7zM426 1595v248q0 5 2 6q2 2 5 2h33q3 0 5 -2t2 -6v-248q0 -7 -7 -7h-33q-7 0 -7 7zM328 1725q10 0 16 6q6 7 6 17v35q0 10 -6 16q-7 7 -17 7h-23v-81h24zM586 1674l-15 96l-2 25l-2 -25l-16 -96h35z" />
    <glyph glyph-name="Agrave" unicode="&#xc0;" horiz-adv-x="856" 
d="M861 39q9 -39 -21 -39h-200q-14 0 -27 7.5t-16 26.5l-34 204h-271l-33 -204q-3 -19 -16 -26.5t-27 -7.5h-200q-30 0 -21 39l303 1352q9 35 41 35h178q32 0 41 -35zM330 467h195l-86 524l-11 136l-11 -136zM241 1588v248q0 5 1 6q4 2 6 2h64q15 0 27 -6q12 -4 22 -14
q5 -5 9 -10.5t6 -11.5q5 -13 5 -27v-32q0 -19 -7 -32q-7 -15 -19 -23l29 -100v-1q0 -3 -1 -4q-2 -2 -4 -2h-37q-2 0 -4 2l-2 5l-20 85h-28v-85q0 -7 -7 -7h-33q-7 0 -7 7zM473 1585v3l56 249q2 7 8 7h32q6 0 8 -7l55 -249q1 -1 1 -3q0 -4 -4 -4h-37q-3 0 -5 2q-3 1 -3 5
l-6 37h-50l-6 -37q-1 -3 -3 -5t-5 -2h-37q-4 0 -4 4zM132 1583q-1 1 -1 5v211h-39q-3 0 -3 1q-2 2 -2 5v32q0 4 2 5q0 2 3 2h124q2 0 4 -2t2 -5v-32q0 -1 -2 -5q-1 -1 -4 -1h-38v-211q0 -7 -6 -7h-36q-2 0 -4 2zM648 1588v248q0 4 2 6t5 2h34q3 0 5 -2t2 -6v-210h58
q6 0 6 -6v-32q0 -7 -6 -7h-99q-7 0 -7 7zM410 1588v248q0 5 2 6q2 2 5 2h33q3 0 5 -2t2 -6v-248q0 -7 -7 -7h-33q-7 0 -7 7zM312 1718q10 0 16 6q6 7 6 17v35q0 10 -6 16q-7 7 -17 7h-23v-81h24zM570 1667l-15 96l-2 25l-2 -25l-16 -96h35z" />
    <glyph glyph-name="Adieresis" unicode="&#xc4;" horiz-adv-x="856" 
d="M861 39q9 -39 -21 -39h-200q-14 0 -27 7.5t-16 26.5l-34 204h-271l-33 -204q-3 -19 -16 -26.5t-27 -7.5h-200q-30 0 -21 39l303 1352q9 35 41 35h178q32 0 41 -35zM330 467h195l-86 524l-11 136l-11 -136zM257 1594v248q0 5 1 6q4 2 6 2h64q15 0 27 -6q12 -4 22 -14
q5 -5 9 -10.5t6 -11.5q5 -13 5 -27v-32q0 -19 -7 -32q-7 -15 -19 -23l29 -100v-1q0 -3 -1 -4q-2 -2 -4 -2h-37q-2 0 -4 2l-2 5l-20 85h-28v-85q0 -7 -7 -7h-33q-7 0 -7 7zM489 1591v3l56 249q2 7 8 7h32q6 0 8 -7l55 -249q1 -1 1 -3q0 -4 -4 -4h-37q-3 0 -5 2q-3 1 -3 5
l-6 37h-50l-6 -37q-1 -3 -3 -5t-5 -2h-37q-4 0 -4 4zM148 1589q-1 1 -1 5v211h-39q-3 0 -3 1q-2 2 -2 5v32q0 4 2 5q0 2 3 2h124q2 0 4 -2t2 -5v-32q0 -1 -2 -5q-1 -1 -4 -1h-38v-211q0 -7 -6 -7h-36q-2 0 -4 2zM664 1594v248q0 4 2 6t5 2h34q3 0 5 -2t2 -6v-210h58
q6 0 6 -6v-32q0 -7 -6 -7h-99q-7 0 -7 7zM426 1594v248q0 5 2 6q2 2 5 2h33q3 0 5 -2t2 -6v-248q0 -7 -7 -7h-33q-7 0 -7 7zM328 1724q10 0 16 6q6 7 6 17v35q0 10 -6 16q-7 7 -17 7h-23v-81h24zM586 1673l-15 96l-2 25l-2 -25l-16 -96h35z" />
    <glyph glyph-name="Aring" unicode="&#xc5;" horiz-adv-x="856" 
d="M259 1562v248q0 5 1 6q4 2 6 2h64q15 0 27 -6q12 -4 22 -14q5 -5 9 -10.5t6 -11.5q5 -13 5 -27v-32q0 -19 -7 -32q-7 -15 -19 -23l29 -100v-1q0 -3 -1 -4q-2 -2 -4 -2h-37q-2 0 -4 2l-2 5l-20 85h-28v-85q0 -7 -7 -7h-33q-7 0 -7 7zM491 1559v3l56 249q2 7 8 7h32
q6 0 8 -7l55 -249q1 -1 1 -3q0 -4 -4 -4h-37q-3 0 -5 2q-3 1 -3 5l-6 37h-50l-6 -37q-1 -3 -3 -5t-5 -2h-37q-4 0 -4 4zM150 1557q-1 1 -1 5v211h-39q-3 0 -3 1q-2 2 -2 5v32q0 4 2 5q0 2 3 2h124q2 0 4 -2t2 -5v-32q0 -1 -2 -5q-1 -1 -4 -1h-38v-211q0 -7 -6 -7h-36
q-2 0 -4 2zM666 1562v248q0 4 2 6t5 2h34q3 0 5 -2t2 -6v-210h58q6 0 6 -6v-32q0 -7 -6 -7h-99q-7 0 -7 7zM428 1562v248q0 5 2 6q2 2 5 2h33q3 0 5 -2t2 -6v-248q0 -7 -7 -7h-33q-7 0 -7 7zM330 1692q10 0 16 6q6 7 6 17v35q0 10 -6 16q-7 7 -17 7h-23v-81h24zM588 1641
l-15 96l-2 25l-2 -25l-16 -96h35zM861 39q9 -39 -21 -39h-200q-14 0 -27 7.5t-16 26.5l-34 204h-271l-33 -204q-3 -19 -16 -26.5t-27 -7.5h-200q-30 0 -21 39l303 1352q9 35 41 35h178q32 0 41 -35zM330 467h195l-86 524l-11 136l-11 -136z" />
    <glyph glyph-name="Atilde" unicode="&#xc3;" horiz-adv-x="856" 
d="M861 39q9 -39 -21 -39h-200q-14 0 -27 7.5t-16 26.5l-34 204h-271l-33 -204q-3 -19 -16 -26.5t-27 -7.5h-200q-30 0 -21 39l303 1352q9 35 41 35h178q32 0 41 -35zM330 467h195l-86 524l-11 136l-11 -136zM251 1584v248q0 5 1 6q4 2 6 2h64q15 0 27 -6q12 -4 22 -14
q5 -5 9 -10.5t6 -11.5q5 -13 5 -27v-32q0 -19 -7 -32q-7 -15 -19 -23l29 -100v-1q0 -3 -1 -4q-2 -2 -4 -2h-37q-2 0 -4 2l-2 5l-20 85h-28v-85q0 -7 -7 -7h-33q-7 0 -7 7zM483 1581v3l56 249q2 7 8 7h32q6 0 8 -7l55 -249q1 -1 1 -3q0 -4 -4 -4h-37q-3 0 -5 2q-3 1 -3 5
l-6 37h-50l-6 -37q-1 -3 -3 -5t-5 -2h-37q-4 0 -4 4zM142 1579q-1 1 -1 5v211h-39q-3 0 -3 1q-2 2 -2 5v32q0 4 2 5q0 2 3 2h124q2 0 4 -2t2 -5v-32q0 -1 -2 -5q-1 -1 -4 -1h-38v-211q0 -7 -6 -7h-36q-2 0 -4 2zM658 1584v248q0 4 2 6t5 2h34q3 0 5 -2t2 -6v-210h58
q6 0 6 -6v-32q0 -7 -6 -7h-99q-7 0 -7 7zM420 1584v248q0 5 2 6q2 2 5 2h33q3 0 5 -2t2 -6v-248q0 -7 -7 -7h-33q-7 0 -7 7zM322 1714q10 0 16 6q6 7 6 17v35q0 10 -6 16q-7 7 -17 7h-23v-81h24zM580 1663l-15 96l-2 25l-2 -25l-16 -96h35z" />
    <glyph glyph-name="Egrave" unicode="&#xc8;" horiz-adv-x="777" 
d="M92 1387q0 18 9.5 28.5t27.5 10.5h570q14 0 22 -9t8 -28v-171q0 -18 -8 -27t-22 -9h-350v-338h272q14 0 23.5 -8.5t9.5 -28.5v-170q0 -19 -9 -28t-24 -9h-272v-356h354q13 0 22 -8.5t9 -26.5v-173q0 -19 -9 -27.5t-22 -8.5h-574q-37 0 -37 39v1348zM246 1606v248q0 5 1 6
q4 2 6 2h64q15 0 27 -6q12 -4 22 -14q5 -5 9 -10.5t6 -11.5q5 -13 5 -27v-32q0 -19 -7 -32q-7 -15 -19 -23l29 -100v-1q0 -3 -1 -4q-2 -2 -4 -2h-37q-2 0 -4 2l-2 5l-20 85h-28v-85q0 -7 -7 -7h-33q-7 0 -7 7zM478 1603v3l56 249q2 7 8 7h32q6 0 8 -7l55 -249q1 -1 1 -3
q0 -4 -4 -4h-37q-3 0 -5 2q-3 1 -3 5l-6 37h-50l-6 -37q-1 -3 -3 -5t-5 -2h-37q-4 0 -4 4zM137 1601q-1 1 -1 5v211h-39q-3 0 -3 1q-2 2 -2 5v32q0 4 2 5q0 2 3 2h124q2 0 4 -2t2 -5v-32q0 -1 -2 -5q-1 -1 -4 -1h-38v-211q0 -7 -6 -7h-36q-2 0 -4 2zM653 1606v248q0 4 2 6
t5 2h34q3 0 5 -2t2 -6v-210h58q6 0 6 -6v-32q0 -7 -6 -7h-99q-7 0 -7 7zM415 1606v248q0 5 2 6q2 2 5 2h33q3 0 5 -2t2 -6v-248q0 -7 -7 -7h-33q-7 0 -7 7zM317 1736q10 0 16 6q6 7 6 17v35q0 10 -6 16q-7 7 -17 7h-23v-81h24zM575 1685l-15 96l-2 25l-2 -25l-16 -96h35z
" />
    <glyph glyph-name="currency" unicode="&#xa4;" horiz-adv-x="785" 
d="M140 834v10t1 10l-98 96q-8 8 -9.5 20t8.5 22l95 103q10 9 23 6.5t19 -9.5l74 -73q29 17 64.5 26.5t73.5 9.5t73.5 -10t65.5 -27l75 74q6 7 18.5 9.5t23.5 -6.5l95 -103q10 -10 8.5 -22t-9.5 -20l-99 -97q0 -5 0.5 -9.5t0.5 -9.5v-442q0 -7 -0.5 -13t-1.5 -13l100 -97
q8 -8 9.5 -20t-8.5 -22l-95 -103q-11 -9 -23.5 -6.5t-18.5 9.5l-80 78q-29 -16 -63 -24.5t-71 -8.5t-70.5 8.5t-62.5 24.5l-79 -78q-6 -7 -19 -9.5t-23 6.5l-95 103q-10 10 -8.5 22t9.5 20l99 96q-1 7 -1.5 13.5t-0.5 13.5v442zM319 403q0 -29 21 -47.5t51 -18.5t51.5 18.5
t21.5 47.5v420q0 32 -21.5 49.5t-51.5 17.5t-51 -17.5t-21 -49.5v-420z" />
    <glyph glyph-name="eth" unicode="&#xf0;" horiz-adv-x="890" 
d="M329 1405q-4 8 -2.5 15.5t6 13.5t10 10t9.5 5l49 9l-46 98q-10 20 -3.5 36t26.5 16h182q13 0 22.5 -8t14.5 -21l29 -79l57 11q11 2 24 -4t19 -22l25 -66q7 -16 -3.5 -27t-23.5 -13l-50 -9l129 -352l-1 -1q11 -29 17.5 -60t6.5 -63v-563q0 -74 -29.5 -138.5t-80.5 -112.5
t-119.5 -75.5t-146.5 -27.5t-146.5 27.5t-119.5 75.5t-80.5 112.5t-29.5 138.5v563q0 73 28.5 137.5t74.5 112.5t104.5 76t117.5 28q35 0 64.5 -11t55.5 -28l-58 122l-65 -11q-8 -2 -21 2.5t-21 20.5zM330 331q0 -24 9.5 -45.5t25.5 -37.5t38 -25.5t47 -9.5t47 9.5
t38.5 25.5t25.5 37.5t9 45.5v563q0 24 -9.5 45.5t-25.5 37.5t-38 25.5t-47 9.5t-46.5 -9.5t-38 -25.5t-26 -37.5t-9.5 -45.5v-563z" />
    <glyph glyph-name="Thorn" unicode="&#xde;" horiz-adv-x="886" 
d="M84 1387q0 18 9.5 28.5t27.5 10.5h184q18 0 27 -10.5t9 -28.5v-184h114q81 0 150.5 -27t120.5 -74.5t79.5 -113t28.5 -142.5v-261q0 -78 -29 -143.5t-79.5 -113.5t-120 -75t-150.5 -27h-114v-187q0 -39 -36 -39h-184q-37 0 -37 39v1348zM341 966v-503h114q56 0 89.5 32.5
t33.5 87.5v264q0 57 -34 88t-90 31h-113z" />
    <glyph glyph-name="germandbls" unicode="&#xdf;" horiz-adv-x="892" 
d="M438 -17q-12 1 -20.5 9t-6.5 27v156q2 21 8.5 32.5t26.5 9.5q6 -2 14 -2.5t15 -0.5q21 0 38.5 9t30 25t19.5 37t7 45v275q0 22 -5 43t-15.5 37.5t-27.5 26t-40 9.5q-14 0 -23 10t-9 29v139q0 19 9 30t26 11q19 0 32 10.5t21 27t11.5 36t3.5 38.5v177q0 41 -9 68.5
t-24 43.5t-34.5 22.5t-40.5 6.5q-48 0 -77 -36.5t-29 -99.5v-1192q0 -42 -29 -42h-188q-26 0 -30.5 13t-4.5 32v1177q0 104 28 175t76.5 114.5t113.5 62.5t140 19q59 0 119 -18t108 -60.5t78.5 -114t30.5 -178.5v-173q0 -73 -22.5 -127t-59.5 -80q25 -8 48 -23.5t40.5 -43
t28 -68.5t10.5 -99v-284q0 -54 -19 -115t-57 -112.5t-96.5 -85t-137.5 -33.5q-12 0 -21 0.5t-17.5 1t-17.5 1.5t-22 2z" />
    <glyph glyph-name="questiondown" unicode="&#xbf;" horiz-adv-x="835" 
d="M328 822q0 24 6 36t30 13l160 1q23 0 26.5 -14.5t3.5 -34.5v-140q0 -83 -32 -146.5t-92 -120.5q-20 -21 -40 -47t-37 -57.5t-27.5 -69t-10.5 -81.5v-35q0 -23 9 -43.5t24.5 -36t36.5 -24.5t45 -9t44.5 9t36 24t24.5 35.5t9 43.5v85q0 28 8.5 36t26.5 8h192q29 0 29 -34
v-95q0 -72 -29 -135.5t-79 -110.5t-117.5 -74.5t-143.5 -27.5q-78 0 -145.5 27t-117.5 74.5t-79 111t-29 135.5v45q0 71 25.5 130.5t60 110t70 91.5t56.5 74q10 15 20 31t18 36t13 45.5t5 59.5v74zM568 1023q0 -20 -10 -29t-21 -9h-192q-20 0 -26.5 13.5t-6.5 24.5v166
q0 21 12.5 28.5t19.5 7.5h192q8 0 20 -7t12 -28v-167z" />
    <glyph glyph-name="perthousand" unicode="&#x2030;" 
d="M2323 1024v-550h-2254v550h854q0 28 5 55t19 50q11 27 24.5 49t34.5 39q35 38 86 58q25 11 51 16t53 5q31 0 58 -6t50 -15q26 -13 48 -27.5t42 -34.5q33 -35 57 -88q18 -50 18 -101h854zM966 1119q-19 -44 -19 -95q0 -55 19 -99q9 -20 22.5 -40.5t28.5 -39.5
q18 -17 38 -30.5t43 -23.5q45 -21 98 -21q29 0 53 4.5t45 14.5q23 10 42.5 23.5t35.5 30.5q20 18 33 38t24 41q20 49 20 102q0 20 -3.5 42t-11.5 44q-13 37 -40 68q-13 18 -27.5 31t-32.5 24q-17 7 -35 16.5t-37 16.5q-14 3 -30.5 6t-35.5 3q-27 0 -52 -5.5t-48 -17.5
q-46 -17 -79 -54q-17 -17 -29.5 -37t-21.5 -42zM1070 877l295 298q29 -37 43.5 -75t14.5 -76q0 -22 -3 -42t-11 -39q-7 -18 -16.5 -34.5t-21.5 -31.5h-301zM1026 870q-26 33 -41 71q-8 17 -11 38t-3 45q0 18 3 37.5t11 39.5q4 18 13.5 33.5t23.5 30.5h299zM2058 194
q3 -4 5.5 -10t4.5 -13q4 -8 4 -14v-29q0 -7 -4 -11q-2 -7 -4.5 -14t-5.5 -13q-6 -9 -15 -19q-6 -5 -11.5 -9.5t-12.5 -8.5q-5 -5 -11.5 -7t-12.5 -4t-13 -2h-16q-19 0 -40 6q-8 6 -15.5 12t-15.5 13q-8 6 -13.5 13.5t-7.5 19.5q-6 9 -7.5 18.5t-1.5 21.5q0 8 1 13.5t1 13.5
q3 7 6 13t7 10q2 8 5.5 12.5t9.5 10.5q3 4 9.5 8t11.5 9q4 2 10.5 4t12.5 6q10 0 15.5 1t11.5 1q9 0 16 -1t13 -1q6 -4 12.5 -6t11.5 -4q7 -5 12.5 -9t11.5 -8q2 -6 7.5 -10.5t7.5 -12.5zM1064 194q2 -4 4 -10t5 -13q2 -8 2 -14v-29q0 -7 -2 -11q-3 -7 -5 -14t-4 -13
q-5 -4 -9.5 -9.5t-8.5 -9.5q-5 -5 -10 -9.5t-10 -8.5q-7 -5 -13.5 -7t-12.5 -4q-7 -2 -14 -2h-15q-9 0 -18.5 2t-21.5 4q-11 6 -17.5 12t-15.5 13q-15 13 -21 33q-3 9 -5 18.5t-2 21.5v13q0 6 2 14q4 16 11 23q4 8 7.5 12.5t7.5 10.5q7 4 11.5 8t10.5 9q5 2 11 4t16 6
q4 0 10.5 1t13.5 1q8 0 15 -1t14 -1q6 -4 12.5 -6t13.5 -4q5 -5 10 -9l10 -8q4 -6 8.5 -10.5t9.5 -12.5zM2281 244l1 1q1 1 6 1h35v-206h-35v150q-1 0 -2 -2.5t-3 -6.5v-6q0 -3 -2 -4q-6 -15 -12.5 -32.5t-14.5 -30.5q-6 -18 -11.5 -33.5t-13.5 -34.5h-34l-52 131
q-5 3 -5 10q0 4 -1 4l-2 2v-147h-39v206h37q5 0 6.5 -1t3.5 -1q2 -2 3 -2t3 -2l7 -4q0 -2 2 -3.5t2 -3.5q4 -16 10.5 -30t14.5 -32q6 -15 11.5 -30.5t11.5 -28.5v-12q2 0 4 -4q0 4 1 4v12l9 13l42 108q0 2 2 3l2 4q0 2 2 3l3 1q2 2 4 2t4 2zM1246 246h36v-206h-34l-94 138
l-4 3v2q-3 4 -3 5q-4 2 -4 4t-1 3t-4 1v-156h-36v206h32q4 0 8.5 -1t4.5 -3q3 -2 5 -2t4 -2l21 -31q10 -15 19 -33q13 -13 23 -27.5t23 -27.5q0 -2 1 -4.5t1 -6.5l1 -2l1 -3v143zM630 246l88 -206h-23q-8 0 -15 4q-2 2 -4 6.5t-6 8.5l-12 25h-94l-9 -25q0 -4 -1 -5t-3 -1
q-2 -5 -4 -5l-3 -4q-2 0 -3.5 -1t-5.5 -1q0 -2 -2 -2h-26l90 206h33zM244 246h130v-37h-94v-46h77v-38h-77v-48h94v-37h-130v206zM69 246h149v-23q0 -2 -1 -5q0 -3 -2 -5l-4 -4l-99 -134h1l2 2h102v-37h-155v13q0 9 2 11q0 2 5 7v4l2 4q2 2 4 3.5t2 5.5l88 121h-96v37z
M786 618q1 6 2 10t1 9q0 12 -3 21q0 5 -3.5 8.5t-5.5 9.5q-4 6 -11 13l-7 6q-2 3 -8 8l-8 4q-4 2 -10 4q-4 0 -8.5 0.5t-10.5 0.5q-3 0 -8 -0.5t-11 -0.5q-6 -2 -9.5 -4t-7.5 -4q-4 -5 -7.5 -7.5t-7.5 -6.5q-5 -4 -8 -6.5t-4 -6.5q-4 -6 -5 -9.5t-3 -8.5q-2 -9 -2 -21
q0 -5 2 -13t4 -14q2 -7 6.5 -12.5t9.5 -11.5q5 -7 11 -10.5t13 -3.5q11 -6 27 -6h19q12 4 18 8q11 5 15 12q6 6 11 15q2 4 5.5 8.5t3.5 8.5zM1843 618v40q-4 9 -7 18q-4 6 -14 13q-1 4 -5.5 6.5t-8.5 7.5q-3 2 -9 4l-7 4q-6 0 -10.5 0.5t-9.5 0.5q-6 0 -10.5 -0.5t-8.5 -0.5
q-11 -4 -20 -8q-3 -5 -6 -7.5t-7 -6.5q-3 -4 -6 -6.5t-5 -6.5q-2 -6 -4.5 -9.5t-2.5 -8.5q-5 -9 -5 -21q0 -5 2.5 -13t5.5 -14q4 -15 15 -24q4 -7 9.5 -10.5t14.5 -3.5q11 -6 28 -6h20q3 2 8 4t8 4q4 3 8.5 5.5t5.5 6.5q10 6 14 15q3 7 7 17zM1724 190q-7 -7 -13 -23
q-2 -4 -4 -9.5t-2 -13.5t2 -13.5t4 -11.5q2 -7 5.5 -13.5t7.5 -9.5q4 -4 9.5 -8t12.5 -7q7 -2 12.5 -3t13.5 -1q5 0 9.5 1t10.5 1q3 2 8 4.5t8 6.5q4 0 8 2h12q4 0 8 -2q3 -2 7 -6l6 -7q-6 -8 -13 -15q-6 -3 -10.5 -6t-11.5 -6q-6 -4 -10.5 -5t-10.5 -3q-5 -2 -11 -2h-10
q-11 0 -22 2t-20 4q-19 9 -33 25q-15 13 -21 33q-4 9 -6.5 18.5t-2.5 21.5q0 8 1 13.5t3 13.5q1 7 3 13t6 10q6 8 8.5 12.5t8.5 10.5l12 8q6 4 11 9q4 2 9 4l17 6q5 0 11.5 1t14.5 1h12q4 0 9 -2q6 -2 10.5 -3t10.5 -3q7 -4 11.5 -6.5t10.5 -6.5q7 -8 13 -16l-6 -7
q-4 -2 -5 -4l-2 -4h-14q-4 0 -7 1t-7 3q-3 2 -8 4.5t-8 4.5q-6 2 -11 2h-9q-15 0 -26 -6q-7 -1 -12.5 -4t-9.5 -9zM1584 141q4 -5 7 -9t3 -7q2 -4 3.5 -8.5t1.5 -10.5q0 -14 -7 -27l-8 -12q-3 -5 -8 -8q-6 -6 -10.5 -9.5t-12.5 -5.5q-5 -2 -13 -3t-14 -1q-7 0 -13.5 1
t-17.5 3q-5 2 -10 6.5t-10 11.5q-4 2 -6 5l-4 8q-6 2 -6 9l6 4q2 2 4 2h4l2 2h9q4 0 4 -2q7 0 9 -2q5 -4 8.5 -5.5t5.5 -3.5q2 0 6 -1t9 -1h5q3 0 6 2q7 2 13 5q5 4 7 8t4 7t2 7q0 6 -6 9q-4 6 -7 6q-2 4 -6.5 5t-6.5 2q-5 0 -13 6q-5 0 -9 1t-9 6q-9 3 -12.5 6t-7.5 7
q-6 2 -8.5 5.5t-2.5 7.5q-6 11 -6 23q0 17 6 25q2 6 5 10l8 9q4 2 9 4t12 6q6 0 10.5 1t12.5 1q4 0 8 -1t10 -1q5 -2 7 -3t8 -3q3 -4 6 -6.5t7 -6.5q3 -2 6.5 -5t3.5 -7l-7 -4l-6 -4q-3 -2 -3 -3h-17l-5 1q-4 2 -6 4q-2 0 -3.5 1t-3.5 1h-16q-2 0 -3 -1t-5 -3q-2 -2 -6 -5
q-1 -4 -1 -10q0 -5 1 -5q2 -2 3 -4.5t3 -6.5h6q2 0 5 -2q4 -1 8.5 -3t9.5 -4l8 -2q5 -4 9 -5t9 -4q10 -4 16 -13zM1480 315q-11 7 -15 19q-6 14 -6 29v15q6 10 10 18q4 5 11 13q6 7 12 9q3 5 8.5 6t8.5 3q4 0 8 1.5t9 1.5q4 0 10 -1.5t10 -1.5q4 -2 7.5 -3t7.5 -6
q2 -2 5.5 -4.5t5.5 -4.5q4 -4 6.5 -7t5.5 -6q4 -8 8 -18q0 -4 1 -8.5t1 -6.5q0 -6 -1 -13.5t-5 -15.5q-2 -6 -6 -10.5t-10 -8.5q-4 -4 -8.5 -7.5t-11.5 -8.5q-8 -2 -26 -2h-14q-6 0 -10 2q-16 5 -22 16zM2030 119q5 11 5 25q0 8 -1.5 13.5t-3.5 9.5q-2 9 -6.5 14.5t-7.5 8.5
q-10 10 -23 13q-4 4 -11 5t-16 1q-11 0 -24 -6q-7 -1 -11.5 -4t-10.5 -9q-4 -3 -7.5 -8.5t-7.5 -14.5q0 -4 -1 -9.5t-1 -13.5t1 -13.5t1 -11.5q7 -15 15 -23q6 -4 10.5 -8t11.5 -7q7 -2 13.5 -3t10.5 -1q9 0 16 1t11 3q8 3 13.5 7t9.5 8q10 10 14 23zM2141 315
q-6 -4 -12 -7.5t-11 -8.5q-6 -2 -12 -2h-28q-6 0 -12 2q-12 5 -21 16q-4 4 -7 8.5t-6 10.5q-2 8 -4 15.5t-2 13.5q0 2 1 6.5t1 8.5q2 4 3 9t4 9q2 3 5 6t5 7q3 2 7 4.5t9 4.5q3 5 8 6t7 3q5 0 8 1.5t10 1.5q2 0 7.5 -1.5t10.5 -1.5q4 -2 7.5 -3t5.5 -6q4 -2 8.5 -4.5
t7.5 -4.5q2 -4 4 -7l4 -6q5 -8 7 -18q2 -4 3 -8.5t1 -6.5q0 -6 -1 -13.5t-5 -15.5q0 -6 -5 -11zM1035 119q2 6 3 11.5t1 13.5q0 12 -4 23q-2 9 -6.5 14.5t-11.5 8.5q-2 6 -7.5 9t-11.5 4q-11 6 -27 6q-13 0 -24 -6q-6 -1 -11 -4t-11 -9q-5 -3 -8 -8.5t-5 -14.5q-5 -4 -5 -10
v-27q0 -5 5 -11q2 -7 5 -13.5t8 -9.5q6 -4 11 -8t11 -7q5 -2 11 -3t13 -1q8 0 15 1t12 3q6 3 11.5 7t7.5 8q7 3 11.5 9.5t6.5 13.5zM726 246h130v-37h-94v-52h77v-36h-77v-81h-36v206zM535 209h-55v-169h-40v169h-59v37h154v-37zM1302 246h155v-37h-61v-169h-37v169h-57v37z
M1281 1233q16 -8 33.5 -19.5t33.5 -21.5h-304q33 27 70 41q36 17 82 17t85 -17zM1114 810q-18 7 -35 18t-33 24h302q-16 -13 -33.5 -24t-33.5 -18q-22 -6 -43 -10.5t-42 -4.5q-23 0 -42.5 4.5t-39.5 10.5zM524 566l-44 64q2 0 4.5 1t6.5 3q6 3 8 9q3 2 5.5 5t2.5 6v24
q0 2 -2 5q-3 8 -10 14q-4 8 -13 8q-2 4 -6.5 5t-8.5 1h-53v-145h22v60h22l37 -52q2 -4 7 -6q1 -2 3 -2h19zM1096 566l-63 145h-20l-62 -145h11q7 0 9 2q0 2 1 3t5 3l10 25h72l11 -25q2 -4 5 -6q2 -2 8 -2h13zM1810 676q2 -2 6.5 -7.5t5.5 -10.5q2 -4 3 -9.5t1 -11.5
q0 -11 -4 -21q-1 -4 -6 -9l-6 -6q-5 -4 -9 -6.5t-8 -6.5q-9 -4 -21 -4q-6 0 -11.5 1t-9.5 3q-5 4 -9.5 6.5t-8.5 6.5q-3 2 -6 6.5t-3 8.5q-4 6 -5 11t-1 10q0 10 6 21q0 5 3 10.5t6 7.5q4 4 8.5 6.5t9.5 4.5q10 4 21 4q5 0 10.5 -1t10.5 -3q4 -2 8 -4.5t9 -6.5zM751 676
q6 -2 8.5 -7.5t4.5 -10.5q2 -4 3 -9.5t1 -11.5q0 -5 -1 -10t-3 -11q-2 -4 -4.5 -8.5t-8.5 -6.5q-2 -4 -5.5 -6.5t-10.5 -6.5q-4 -2 -9.5 -3t-11.5 -1q-9 0 -21 4q-4 4 -8.5 6.5t-8.5 6.5q-2 2 -5.5 6.5t-5.5 8.5q-2 6 -3 11t-1 10q0 10 4 21q2 5 5.5 10.5t5.5 7.5
q4 4 8.5 6.5t8.5 4.5q5 2 11.5 3t9.5 1q12 0 21 -4q7 -2 10.5 -4.5t5.5 -6.5zM277 647q5 11 5 18q0 5 -1 9t-4 9q0 2 -4 6l-6 6q-2 3 -5 6.5t-9 3.5q-2 4 -7.5 5t-9.5 1h-49v-145h16v55h33q4 0 9.5 0.5t7.5 2.5q10 4 14 10q4 2 7 5.5t3 7.5zM2079 311h29l6 3q2 1 4 5
q2 0 5.5 1.5t7.5 3.5l3 6q1 2 4 4q0 3 2.5 7.5t2.5 8.5v32q-2 6 -6 10t-6 7q-6 2 -9.5 5t-7.5 7h-40q-6 -4 -9.5 -7t-8.5 -5q-4 -3 -6.5 -7t-4.5 -10t-2 -12v-20q0 -4 1 -8.5t4 -7.5l4 -4q2 -2 4 -6l6 -3q2 -2 4 -2q4 -4 7 -5t6 -3zM1993 711h-20v-112q-1 2 -2 5t-3 4
l-70 97l-3 6h-23v-145h21v114l2 -2l82 -112h16v145zM1480 382q-3 -6 -4 -11.5t-1 -7.5v-8q0 -3 2 -5q0 -8 5 -16q0 -2 2 -4t4 -6l5 -3q2 -2 9 -2q2 -4 5.5 -5t5.5 -3h26q5 2 8 3t6 5q2 0 6 2l4 3q2 4 4.5 6t2.5 4q2 3 3 7.5t3 8.5q0 2 1 5.5t1 7.5q0 2 -1 7.5t-5 11.5
q0 6 -3.5 10t-5.5 7q-4 2 -8 6l-9 6h-40q-4 -4 -9 -7t-9 -5q-2 -3 -5 -7t-3 -10zM935 711h-17v-112l-2 4q-2 4 -2 5l-69 97q-4 0 -6 6h-23v-145h19v117h2l2 -1v-4l81 -112h15v145zM1982 357q-7 -2 -12 -4l42 -56h-11q-2 0 -6 2q-2 0 -3 1.5t-1 5.5l-36 47h-26v-56h-15v130
h54q4 0 9 -2q2 -2 5.5 -4.5t4.5 -4.5q4 -2 5 -5.5t7 -7.5v-25q-4 -4 -5 -7.5t-3 -5.5zM1259 357q-2 -2 -11 -4l44 -56h-14q-3 0 -3 2q-2 0 -4 1.5t-2 5.5l-36 47h-26v-56h-13v130h53q3 0 6 -2q9 -2 16 -9q0 -2 3 -5.5t3 -7.5q2 -2 2 -6v-13q0 -3 -2 -6q0 -4 -1 -7.5t-3 -5.5
l-5 -4q-2 -2 -7 -4zM386 711h-91v-145h91v20h-69v44h55v17h-55v42h69v22zM1614 711h-88v-145h88v20h-66v44h55v17h-55v42h66v22zM2306 425q4 2 5 2h12v-130h-11v106l-2 -2v-2q-4 -7 -6.5 -16t-7.5 -13q-4 -7 -6 -12.5t-7 -13.5q-2 -8 -3 -14t-5 -9q-3 -8 -6 -12.5t-5 -11.5
h-14q-9 12 -14 24.5t-10 26.5q-4 11 -11 24.5t-11 26.5v2h-4v-104h-13v130h13q4 0 6 -2l2 -2v-5l46 -99q0 -4 2 -4l1 2v4q0 1 7 5l38 92q2 5 3 5t1 2zM1387 711h-20v-97q0 -4 -2 -7q-2 -8 -9 -12q0 -2 -4 -3.5t-6 -5.5l-8 -2h-8q-9 0 -13 2q-5 4 -8 5.5t-5 3.5t-4.5 5
t-5.5 7q0 3 -1 7t-1 10v87h-19v-87q0 -6 1 -10t1 -7q0 -8 6 -14q3 -7 9 -11q2 -3 4.5 -5.5t7.5 -4.5q2 -2 6 -3t7 -3q4 0 7 -1t8 -1q4 0 7.5 1t10.5 1q2 2 5 3t6 3q6 4 12 10q3 2 5 5t5 6q0 4 3 7t3 7v104zM622 592q2 5 3 8t1 8q0 10 -5 18t-11 13q-2 0 -3.5 2t-5.5 4l-4 2
h-4q-1 0 -1 4q-6 0 -8 1q-7 2 -8.5 3t-5.5 3q-6 3 -8 3q-3 4 -3 6v15q0 1 1.5 2t1.5 3q2 0 4 1t4 1q4 2 5 2h9q2 -2 4 -2q5 0 7 -4q2 -2 4 -2h2q9 0 13 4l4 2q0 2 -2 4l-4 4q-2 1 -4.5 3.5t-6.5 4.5q-2 0 -4 2t-5 4q-4 0 -6 0.5t-4 0.5q-6 0 -11 -0.5t-7 -0.5q-5 -2 -7 -4
t-6 -4q-2 -5 -5.5 -7.5t-6.5 -6.5q0 -4 -2 -6.5t-2 -8.5q0 -4 1 -7.5t3 -8.5q3 -4 5 -7l5 -4q2 -2 6 -5t7 -3l7 -4q3 -1 7 -1q1 -2 5.5 -2t6.5 -2l5 -2q2 0 4 -2t2 -3t2 -5q2 -2 2 -6v-9q0 -2 -2 -4t-2 -4t-2 -3q-2 -4 -6 -5l-3 -1q-4 0 -7.5 -1t-4.5 -1q-4 0 -7 1t-5 1
t-3.5 1t-1.5 5l-4 1q-4 4 -11 4h-5l-4 -2l-5 -2q0 -3 3 -3q0 -2 2 -4q0 -4 4 -4v-5h3q7 -7 15.5 -9t18.5 -2h8q6 0 11 2q4 2 8.5 4t6.5 5q4 2 7.5 5.5t4.5 9.5zM1497 592q7 7 7 16q0 10 -4.5 18t-11.5 13q-6 4 -6 6h-4q-1 0 -3 2h-3q-3 0 -5 4h-4q-1 0 -4 1q-2 2 -4 3l-6 3
l-7 3q-4 2 -5 4l-1 2q0 1 -1 3t-1 4q0 4 4 8q0 1 4 5q2 0 3 1t4 1q2 2 10 2l3 -1q3 -1 5 -1q2 -2 8 -4q5 -2 7 -2q6 0 8 4l5 2q0 2 -2.5 4t-4.5 4q0 1 -3 3.5t-5 4.5q-3 0 -5 2t-6 4h-6l-4 1q-6 0 -9.5 -0.5t-7.5 -0.5l-13 -8l-6 -8q-2 -2 -5 -6q-1 -4 -3 -6.5t-2 -8.5
q0 -4 2 -7.5t3 -8.5q5 -7 9 -11q4 -2 6.5 -5t6.5 -3q4 -2 7.5 -3.5t5.5 -1.5q4 -2 6.5 -2t5.5 -2q2 0 5 -1t5 -3t3.5 -3t1.5 -5q2 -2 2 -5v-9q0 -3 -2 -5q0 -6 -5 -7q-6 -4 -7 -5t-3 -1q-6 0 -7 -1t-5 -1q-2 0 -5.5 1t-5.5 1q-4 2 -8 6l-2 1q-5 4 -9 4h-6q-2 0 -4 -2l-6 -2
q2 -1 2 -2t2 -1q0 -2 1 -3l3 -3v-2q6 -5 8 -5q6 -7 13.5 -9t16.5 -2h11q5 0 11 2q2 2 5.5 4t7.5 5l5 7q2 2 4 8zM1632 297h-16v130h18q2 0 4 -4l69 -97q2 0 2 -4l2 -1v106h13v-130h-11l-77 106v4h-4v-110zM73 328q-4 4 -5 7.5t-2 8.5q-2 6 -3 9.5t-1 9.5q0 5 4 15q1 4 2 9
t5 9l4 6q2 3 5 7q2 2 6 4.5t6 4.5q5 5 9.5 6t8.5 3q3 0 8 1.5t10 1.5q6 0 13 -1.5t13 -5.5q7 -2 11.5 -5.5t8.5 -8.5q-2 -2 -4 -2v-4h-13q-3 2 -6 5t-7 3h-34q-6 -4 -11 -7t-9 -5q-4 -3 -7 -7t-4 -10q-2 -6 -3 -11.5t-1 -7.5q0 -8 4 -13q0 -4 0.5 -8.5t0.5 -7.5l4 -4
q4 -2 6 -6l7 -4q3 -1 7 -1q2 -4 4.5 -5t6.5 -3h31q2 2 6.5 3t8.5 5v27h-13v2q-2 0 -3 1l-3 3h-2q-1 1 -1 3v4h35v-48q-2 -5 -3.5 -6t-5.5 -6h-11q-6 -2 -12 -2h-32q-4 0 -8.5 2.5t-9.5 6.5q-2 0 -6 2.5t-6 6.5q-3 4 -5 6.5t-4 6.5zM225 411v-41h52v-15h-52v-44h63v-14h-79
v130h79v-16h-63zM1098 411v-41h56v-15h-56v-44h64v-14h-79v130h79v-16h-64zM2226 711h-18q-4 0 -8 -4q-5 -4 -5 -9l-35 -44h-2q0 -2 -2 -2v2l-36 44q-2 7 -4 9q-4 4 -11 4h-16l54 -72v-2q0 -1 2 -1l2 -2v-68h20v66q2 0 2 2l2 3v2zM2112 586h-64v125h-20v-145h84v20zM601 427
v-79q0 -6 2 -9t5 -5q0 -6 3 -9t5 -4q0 -2 4 -4t6 -4q4 -2 8 -2h15q2 0 5 2q4 2 7.5 4t6.5 4q2 1 4 4t4 9q4 3 4 14v79h13v-79q0 -6 -1 -11t-3 -11q-2 -5 -4.5 -9t-6.5 -6q-2 -5 -6.5 -8.5t-8.5 -3.5q-12 -2 -22 -2q-9 0 -23 2q-2 0 -6 3.5t-9 8.5l-10 15q-1 6 -3 11t-2 11
v79h13zM1191 586h-62v125h-19v-145h81v20zM1361 315q2 4 4 7q2 2 3 6t1 6q0 8 -2 10t-3 4t-3 4q-2 1 -7 3q-4 0 -6 2t-6 2t-7 2t-5 4q-9 0 -13 7q-2 0 -3.5 3t-3.5 6v21q0 3 2 7q0 7 7 9l6 5q3 2 7 4q4 0 6.5 1.5t7.5 1.5q2 0 6 -2l4 -1q3 0 4 -1t5 -3q2 0 4 -2.5t2 -4.5
q5 0 6 -3l1 -2l-2 -2q-4 -2 -9 -2h-6q-2 2 -2 4h-21q-8 0 -8 -2q-5 -6 -5 -8q-4 0 -4 -7q0 -4 4 -6q0 -4 3 -6q0 -1 3 -3l3 -1q4 -4 7 -4t7 -2q2 0 4 -1l2 -1q2 0 3.5 -1t3.5 -4h4q2 0 4 -2h2q5 -4 7.5 -7t4.5 -4q2 -10 2 -18v-10q0 -3 -4 -5q-3 -8 -10 -13q-2 -2 -6 -4.5
t-6 -2.5q-3 -2 -9 -2h-9q-9 0 -16.5 1t-12.5 8q-2 0 -3 2.5t-5 4.5v4l-2 2l4 2h6q1 0 3 -1t4 -1q4 -4 6.5 -5t4.5 -3h20q7 0 11 4zM1002 297l-55 130h5q6 0 8 -2t3 -2t3 -5l40 -97v-2q2 -4 2 -6v6l2 2q5 13 12 25.5t11 23.5q4 14 9.5 25.5t11.5 22.5q0 5 1.5 5t1.5 2
q5 2 6 2h10q-7 -16 -14 -32.5t-15 -31.5q-7 -17 -13 -35l-14 -31h-15zM499 411v-46h56v-12h-56v-56h-15v130h80v-16h-65zM1836 411v-46h51v-12h-51v-56h-15v130h77v-16h-62zM824 427v-116h59v-14h-75v130h16zM348 297v114h-44v16h99v-16h-44v-114h-11zM735 427v-116h60v-14
h-75v130h15zM253 683q2 -1 3 -4t3 -5q3 -4 3 -9v-4q0 -3 -3 -7q-2 -2 -3 -4.5t-3 -2.5q-2 -4 -7 -8h-43v50h33q6 0 10 -2q1 0 4 -2zM1242 365q4 0 6 3q2 2 3.5 3t5.5 1l2 4q0 2 3 5q0 1 1 4t1 7q0 2 -1 3t-1 4q-3 2 -4 3t-1 5q-4 0 -5.5 1t-3.5 3h-41v-46h35zM1970 368
q2 2 3.5 3t3.5 1q5 6 5 9q2 3 2 11q0 4 -2 7q0 2 -5 8q-2 0 -3.5 1t-3.5 3h-41v-46h33q4 0 8 3zM486 658l-4 -7q-2 0 -3 -2t-3 -2q-2 -2 -9 -2h-31v44h31q4 0 9 -2q2 0 3 -1l3 -3q2 -3 4 -7q3 -2 3 -9q0 -6 -3 -9zM1429 427v-130h-16v130h16zM641 121l-25 64q0 2 -1 3l-1 2
q0 4 -2 6v-6l-1 -2q-1 -1 -1 -3l-26 -64h57zM1024 682v-4l26 -60h-55l27 60v5zM1645 77q6 0 6 -6q2 -2 2 -5v-4q0 -7 -2 -9q0 -5 -6 -9q-2 0 -5 -4h-17q-2 2 -4.5 3t-4.5 1q0 2 -1.5 4t-3.5 5q-2 2 -2 9v4q0 3 2 5l3 4l2 2q7 4 9 4q2 3 4 3h10q3 0 3 -3q3 0 5 -4z" />
    <glyph glyph-name="acute" unicode="&#xb4;" horiz-adv-x="272" 
d="M38 1273v248q0 5 1 6q4 2 6 2h64q15 0 27 -6q12 -4 22 -14q5 -5 9 -10.5t6 -11.5q5 -13 5 -27v-32q0 -19 -7 -32q-7 -15 -19 -23l29 -100v-1q0 -3 -1 -4q-2 -2 -4 -2h-37q-2 0 -4 2l-2 5l-20 85h-28v-85q0 -7 -7 -7h-33q-7 0 -7 7zM270 1270v3l56 249q2 7 8 7h32
q6 0 8 -7l55 -249q1 -1 1 -3q0 -4 -4 -4h-37q-3 0 -5 2q-3 1 -3 5l-6 37h-50l-6 -37q-1 -3 -3 -5t-5 -2h-37q-4 0 -4 4zM-71 1268q-1 1 -1 5v211h-39q-3 0 -3 1q-2 2 -2 5v32q0 4 2 5q0 2 3 2h124q2 0 4 -2t2 -5v-32q0 -1 -2 -5q-1 -1 -4 -1h-38v-211q0 -7 -6 -7h-36
q-2 0 -4 2zM445 1273v248q0 4 2 6t5 2h34q3 0 5 -2t2 -6v-210h58q6 0 6 -6v-32q0 -7 -6 -7h-99q-7 0 -7 7zM207 1273v248q0 5 2 6q2 2 5 2h33q3 0 5 -2t2 -6v-248q0 -7 -7 -7h-33q-7 0 -7 7zM109 1403q10 0 16 6q6 7 6 17v35q0 10 -6 16q-7 7 -17 7h-23v-81h24zM367 1352
l-15 96l-2 25l-2 -25l-16 -96h35z" />
    <glyph glyph-name="cedilla" unicode="&#xb8;" horiz-adv-x="291" 
d="M32 -322v248q0 5 1 6q4 2 6 2h64q15 0 27 -6q12 -4 22 -14q5 -5 9 -10.5t6 -11.5q5 -13 5 -27v-32q0 -19 -7 -32q-7 -15 -19 -23l29 -100v-1q0 -3 -1 -4q-2 -2 -4 -2h-37q-2 0 -4 2l-2 5l-20 85h-28v-85q0 -7 -7 -7h-33q-7 0 -7 7zM264 -325v3l56 249q2 7 8 7h32
q6 0 8 -7l55 -249q1 -1 1 -3q0 -4 -4 -4h-37q-3 0 -5 2q-3 1 -3 5l-6 37h-50l-6 -37q-1 -3 -3 -5t-5 -2h-37q-4 0 -4 4zM-77 -327q-1 1 -1 5v211h-39q-3 0 -3 1q-2 2 -2 5v32q0 4 2 5q0 2 3 2h124q2 0 4 -2t2 -5v-32q0 -1 -2 -5q-1 -1 -4 -1h-38v-211q0 -7 -6 -7h-36
q-2 0 -4 2zM439 -322v248q0 4 2 6t5 2h34q3 0 5 -2t2 -6v-210h58q6 0 6 -6v-32q0 -7 -6 -7h-99q-7 0 -7 7zM201 -322v248q0 5 2 6q2 2 5 2h33q3 0 5 -2t2 -6v-248q0 -7 -7 -7h-33q-7 0 -7 7zM103 -192q10 0 16 6q6 7 6 17v35q0 10 -6 16q-7 7 -17 7h-23v-81h24zM361 -243
l-15 96l-2 25l-2 -25l-16 -96h35z" />
    <glyph glyph-name="circumflex" unicode="&#x2c6;" horiz-adv-x="399" 
d="M68 1273v248q0 5 1 6q4 2 6 2h64q15 0 27 -6q12 -4 22 -14q5 -5 9 -10.5t6 -11.5q5 -13 5 -27v-32q0 -19 -7 -32q-7 -15 -19 -23l29 -100v-1q0 -3 -1 -4q-2 -2 -4 -2h-37q-2 0 -4 2l-2 5l-20 85h-28v-85q0 -7 -7 -7h-33q-7 0 -7 7zM300 1270v3l56 249q2 7 8 7h32
q6 0 8 -7l55 -249q1 -1 1 -3q0 -4 -4 -4h-37q-3 0 -5 2q-3 1 -3 5l-6 37h-50l-6 -37q-1 -3 -3 -5t-5 -2h-37q-4 0 -4 4zM-41 1268q-1 1 -1 5v211h-39q-3 0 -3 1q-2 2 -2 5v32q0 4 2 5q0 2 3 2h124q2 0 4 -2t2 -5v-32q0 -1 -2 -5q-1 -1 -4 -1h-38v-211q0 -7 -6 -7h-36
q-2 0 -4 2zM475 1273v248q0 4 2 6t5 2h34q3 0 5 -2t2 -6v-210h58q6 0 6 -6v-32q0 -7 -6 -7h-99q-7 0 -7 7zM237 1273v248q0 5 2 6q2 2 5 2h33q3 0 5 -2t2 -6v-248q0 -7 -7 -7h-33q-7 0 -7 7zM139 1403q10 0 16 6q6 7 6 17v35q0 10 -6 16q-7 7 -17 7h-23v-81h24zM397 1352
l-15 96l-2 25l-2 -25l-16 -96h35z" />
    <glyph glyph-name="dieresis" unicode="&#xa8;" horiz-adv-x="520" 
d="M86 1266v248q0 5 1 6q4 2 6 2h64q15 0 27 -6q12 -4 22 -14q5 -5 9 -10.5t6 -11.5q5 -13 5 -27v-32q0 -19 -7 -32q-7 -15 -19 -23l29 -100v-1q0 -3 -1 -4q-2 -2 -4 -2h-37q-2 0 -4 2l-2 5l-20 85h-28v-85q0 -7 -7 -7h-33q-7 0 -7 7zM318 1263v3l56 249q2 7 8 7h32
q6 0 8 -7l55 -249q1 -1 1 -3q0 -4 -4 -4h-37q-3 0 -5 2q-3 1 -3 5l-6 37h-50l-6 -37q-1 -3 -3 -5t-5 -2h-37q-4 0 -4 4zM-23 1261q-1 1 -1 5v211h-39q-3 0 -3 1q-2 2 -2 5v32q0 4 2 5q0 2 3 2h124q2 0 4 -2t2 -5v-32q0 -1 -2 -5q-1 -1 -4 -1h-38v-211q0 -7 -6 -7h-36
q-2 0 -4 2zM493 1266v248q0 4 2 6t5 2h34q3 0 5 -2t2 -6v-210h58q6 0 6 -6v-32q0 -7 -6 -7h-99q-7 0 -7 7zM255 1266v248q0 5 2 6q2 2 5 2h33q3 0 5 -2t2 -6v-248q0 -7 -7 -7h-33q-7 0 -7 7zM157 1396q10 0 16 6q6 7 6 17v35q0 10 -6 16q-7 7 -17 7h-23v-81h24zM415 1345
l-15 96l-2 25l-2 -25l-16 -96h35z" />
    <glyph glyph-name="grave" unicode="`" horiz-adv-x="291" 
d="M-4 1270v248q0 5 1 6q4 2 6 2h64q15 0 27 -6q12 -4 22 -14q5 -5 9 -10.5t6 -11.5q5 -13 5 -27v-32q0 -19 -7 -32q-7 -15 -19 -23l29 -100v-1q0 -3 -1 -4q-2 -2 -4 -2h-37q-2 0 -4 2l-2 5l-20 85h-28v-85q0 -7 -7 -7h-33q-7 0 -7 7zM228 1267v3l56 249q2 7 8 7h32
q6 0 8 -7l55 -249q1 -1 1 -3q0 -4 -4 -4h-37q-3 0 -5 2q-3 1 -3 5l-6 37h-50l-6 -37q-1 -3 -3 -5t-5 -2h-37q-4 0 -4 4zM-113 1265q-1 1 -1 5v211h-39q-3 0 -3 1q-2 2 -2 5v32q0 4 2 5q0 2 3 2h124q2 0 4 -2t2 -5v-32q0 -1 -2 -5q-1 -1 -4 -1h-38v-211q0 -7 -6 -7h-36
q-2 0 -4 2zM403 1270v248q0 4 2 6t5 2h34q3 0 5 -2t2 -6v-210h58q6 0 6 -6v-32q0 -7 -6 -7h-99q-7 0 -7 7zM165 1270v248q0 5 2 6q2 2 5 2h33q3 0 5 -2t2 -6v-248q0 -7 -7 -7h-33q-7 0 -7 7zM67 1400q10 0 16 6q6 7 6 17v35q0 10 -6 16q-7 7 -17 7h-23v-81h24zM325 1349
l-15 96l-2 25l-2 -25l-16 -96h35z" />
    <glyph glyph-name="macron" unicode="&#xaf;" horiz-adv-x="554" 
d="M96 1262v248q0 5 1 6q4 2 6 2h64q15 0 27 -6q12 -4 22 -14q5 -5 9 -10.5t6 -11.5q5 -13 5 -27v-32q0 -19 -7 -32q-7 -15 -19 -23l29 -100v-1q0 -3 -1 -4q-2 -2 -4 -2h-37q-2 0 -4 2l-2 5l-20 85h-28v-85q0 -7 -7 -7h-33q-7 0 -7 7zM328 1259v3l56 249q2 7 8 7h32
q6 0 8 -7l55 -249q1 -1 1 -3q0 -4 -4 -4h-37q-3 0 -5 2q-3 1 -3 5l-6 37h-50l-6 -37q-1 -3 -3 -5t-5 -2h-37q-4 0 -4 4zM-13 1257q-1 1 -1 5v211h-39q-3 0 -3 1q-2 2 -2 5v32q0 4 2 5q0 2 3 2h124q2 0 4 -2t2 -5v-32q0 -1 -2 -5q-1 -1 -4 -1h-38v-211q0 -7 -6 -7h-36
q-2 0 -4 2zM503 1262v248q0 4 2 6t5 2h34q3 0 5 -2t2 -6v-210h58q6 0 6 -6v-32q0 -7 -6 -7h-99q-7 0 -7 7zM265 1262v248q0 5 2 6q2 2 5 2h33q3 0 5 -2t2 -6v-248q0 -7 -7 -7h-33q-7 0 -7 7zM167 1392q10 0 16 6q6 7 6 17v35q0 10 -6 16q-7 7 -17 7h-23v-81h24zM425 1341
l-15 96l-2 25l-2 -25l-16 -96h35z" />
    <glyph glyph-name="tilde" unicode="&#x2dc;" horiz-adv-x="553" 
d="M93 1273v248q0 5 1 6q4 2 6 2h64q15 0 27 -6q12 -4 22 -14q5 -5 9 -10.5t6 -11.5q5 -13 5 -27v-32q0 -19 -7 -32q-7 -15 -19 -23l29 -100v-1q0 -3 -1 -4q-2 -2 -4 -2h-37q-2 0 -4 2l-2 5l-20 85h-28v-85q0 -7 -7 -7h-33q-7 0 -7 7zM325 1270v3l56 249q2 7 8 7h32
q6 0 8 -7l55 -249q1 -1 1 -3q0 -4 -4 -4h-37q-3 0 -5 2q-3 1 -3 5l-6 37h-50l-6 -37q-1 -3 -3 -5t-5 -2h-37q-4 0 -4 4zM-16 1268q-1 1 -1 5v211h-39q-3 0 -3 1q-2 2 -2 5v32q0 4 2 5q0 2 3 2h124q2 0 4 -2t2 -5v-32q0 -1 -2 -5q-1 -1 -4 -1h-38v-211q0 -7 -6 -7h-36
q-2 0 -4 2zM500 1273v248q0 4 2 6t5 2h34q3 0 5 -2t2 -6v-210h58q6 0 6 -6v-32q0 -7 -6 -7h-99q-7 0 -7 7zM262 1273v248q0 5 2 6q2 2 5 2h33q3 0 5 -2t2 -6v-248q0 -7 -7 -7h-33q-7 0 -7 7zM164 1403q10 0 16 6q6 7 6 17v35q0 10 -6 16q-7 7 -17 7h-23v-81h24zM422 1352
l-15 96l-2 25l-2 -25l-16 -96h35z" />
    <glyph glyph-name="x" unicode="x" horiz-adv-x="850" 
d="M257 624l-221 551q-8 22 -2.5 36t24.5 14h202q19 0 27.5 -9.5t13.5 -24.5l113 -341l11 -87l10 88l114 340q4 15 13 24.5t28 9.5h202q19 0 24.5 -14t-3.5 -36l-221 -550l223 -551q6 -14 8.5 -27t0 -23.5t-10 -17t-22.5 -6.5h-184q-14 0 -25.5 9.5t-16.5 24.5l-126 346
l-14 86l-14 -86l-126 -346q-5 -15 -17 -24.5t-26 -9.5h-184q-15 0 -22.5 6.5t-9.5 17t0.5 23.5t7.5 27z" />
    <glyph glyph-name="Xsmall" unicode="&#xf778;" horiz-adv-x="805" 
d="M240 624l-221 551q-8 22 -2.5 36t24.5 14h202q19 0 27.5 -9.5t13.5 -24.5l113 -341l11 -87l10 88l114 340q4 15 13 24.5t28 9.5h202q19 0 24.5 -14t-3.5 -36l-221 -550l223 -551q6 -14 8.5 -27t0 -23.5t-10 -17t-22.5 -6.5h-184q-14 0 -25.5 9.5t-16.5 24.5l-126 346
l-14 86l-14 -86l-126 -346q-5 -15 -17 -24.5t-26 -9.5h-184q-15 0 -22.5 6.5t-9.5 17t0.5 23.5t7.5 27z" />
    <glyph glyph-name="Zacute.small" horiz-adv-x="738" 
d="M676 1225q24 0 24 -32l1 -140q0 -6 -0.5 -14t-5.5 -18l-1 -1l-371 -748l-26 -38h388q11 0 21.5 -9.5t10.5 -22.5v-169q0 -16 -10 -25t-22 -9h-642q-13 0 -18 9.5t-5 23.5l-2 120q0 5 2 14.5t7 20.5l4 9l366 761l21 31h-360q-11 0 -18.5 10t-7.5 23v171q0 33 26 33h618z
M300 1358v248q0 5 1 6q4 2 6 2h64q15 0 27 -6q12 -4 22 -14q5 -5 9 -10.5t6 -11.5q5 -13 5 -27v-32q0 -19 -7 -32q-7 -15 -19 -23l29 -100v-1q0 -3 -1 -4q-2 -2 -4 -2h-37q-2 0 -4 2l-2 5l-20 85h-28v-85q0 -7 -7 -7h-33q-7 0 -7 7zM532 1355v3l56 249q2 7 8 7h32q6 0 8 -7
l55 -249q1 -1 1 -3q0 -4 -4 -4h-37q-3 0 -5 2q-3 1 -3 5l-6 37h-50l-6 -37q-1 -3 -3 -5t-5 -2h-37q-4 0 -4 4zM191 1353q-1 1 -1 5v211h-39q-3 0 -3 1q-2 2 -2 5v32q0 4 2 5q0 2 3 2h124q2 0 4 -2t2 -5v-32q0 -1 -2 -5q-1 -1 -4 -1h-38v-211q0 -7 -6 -7h-36q-2 0 -4 2z
M707 1358v248q0 4 2 6t5 2h34q3 0 5 -2t2 -6v-210h58q6 0 6 -6v-32q0 -7 -6 -7h-99q-7 0 -7 7zM469 1358v248q0 5 2 6q2 2 5 2h33q3 0 5 -2t2 -6v-248q0 -7 -7 -7h-33q-7 0 -7 7zM371 1488q10 0 16 6q6 7 6 17v35q0 10 -6 16q-7 7 -17 7h-23v-81h24zM629 1437l-15 96l-2 25
l-2 -25l-16 -96h35z" />
    <glyph glyph-name="Kappa" unicode="&#x39a;" horiz-adv-x="932" 
d="M599 828l311 -786q8 -18 -1 -30t-23 -12h-205q-32 0 -43 33l-192 529l-97 -174v-349q0 -39 -37 -39h-183q-37 0 -37 39v1348q0 18 9.5 28.5t27.5 10.5h183q19 0 28 -10.5t9 -28.5v-520l273 533q8 19 19 22.5t28 3.5h216q8 0 12 -4t5 -10.5t-1 -14t-6 -14.5z" />
    <glyph glyph-name="Lambda" unicode="&#x39b;" horiz-adv-x="850" 
d="M858 39q5 -19 -4 -29t-24 -10h-187q-14 0 -26.5 7.5t-15.5 26.5l-168 932l-8 103l-7 -103l-169 -932q-3 -19 -15.5 -26.5t-26.5 -7.5h-187q-15 0 -24 10t-4 29l309 1352q9 35 41 35h166q32 0 41 -35z" />
    <glyph glyph-name="Mu" unicode="&#x39c;" horiz-adv-x="1204" 
d="M323 919l7 -72l3 -808q0 -39 -30 -39h-182q-29 0 -29 39v1350q3 37 30 37h232q17 0 22 -9t10 -26l205 -741l10 -75l11 75l206 741q5 17 10 26t22 9h232q27 0 30 -37v-1350q0 -39 -29 -39h-182q-32 0 -30 39l3 808l6 72l-1 -8l-189 -669q-5 -20 -11 -28t-22 -8h-110
q-16 0 -22 8t-11 28l-189 669z" />
    <glyph glyph-name="Nu" unicode="&#x39d;" horiz-adv-x="982" 
d="M93 1387q0 18 9.5 28.5t27.5 10.5h171q5 0 13 -2q1 0 2 -0.5t2 -0.5q9 -4 16.5 -11t12.5 -20l291 -793l25 -109l-5 100l-11 797q-1 16 8.5 27.5t27.5 11.5h173q13 0 24 -8t11 -30v-1350q0 -38 -39 -38h-174q-14 0 -27.5 7.5t-19.5 25.5l-283 760l-26 95l6 -100l9 -749
q2 -39 -36 -39h-171q-37 0 -37 39v1348z" />
    <glyph glyph-name="Xi" unicode="&#x39e;" horiz-adv-x="741" 
d="M195 784q0 17 8 27t22 10h268q14 0 24 -9.5t10 -28.5v-127q0 -19 -9.5 -28t-24.5 -9h-268q-14 0 -22 9t-8 28v128zM92 201q0 18 8.5 27.5t21.5 9.5h488q14 0 22 -9.5t8 -27.5v-164q0 -19 -8 -28t-22 -9h-488q-13 0 -21.5 9t-8.5 28v164zM91 1388q0 19 8.5 28.5t22.5 9.5
h485q14 0 22 -9.5t8 -27.5v-156q0 -18 -8 -27.5t-22 -9.5h-485q-14 0 -22.5 9.5t-8.5 27.5v155z" />
    <glyph glyph-name="Omicron" unicode="&#x39f;" horiz-adv-x="908" 
d="M69 1092q0 83 30.5 149.5t83 112.5t122 70.5t148.5 24.5t149.5 -24.5t123 -70.5t83 -112t30.5 -150v-759q0 -83 -30.5 -149t-83 -112t-122.5 -70.5t-149 -24.5t-149 25t-122.5 71.5t-83 112.5t-30.5 147v759zM325 347q0 -25 9 -47.5t26 -40t40.5 -28t53.5 -10.5
q29 0 53 10.5t41 28t26 40t9 47.5v731q0 25 -9.5 48t-27 40.5t-41 28t-51.5 10.5t-51.5 -10.5t-41 -28t-27 -40.5t-9.5 -48v-731z" />
    <glyph glyph-name="braceright" unicode="}" horiz-adv-x="536" 
d="M503 713v-178q0 -14 -7 -22.5t-15 -8.5q-20 0 -35 -2t-25 -12.5t-14.5 -31.5t-4.5 -59v-328q0 -104 -23 -175t-58.5 -117.5t-77.5 -71.5t-79 -37t-64 -14t-32 -2q-8 0 -17.5 7.5t-9.5 21.5v201q0 13 10.5 21t18.5 8q4 0 18 2t28 16.5t25.5 46t11.5 91.5v393
q0 62 25 100.5t63 61.5q-38 23 -63 61.5t-25 100.5v355q0 60 -11.5 92t-25.5 46.5t-28 16.5t-18 2q-8 0 -18.5 7.5t-10.5 20.5v201q0 14 9.5 21.5t17.5 7.5q5 0 32 -2t64 -14t79 -37t77.5 -71.5t58.5 -117.5t23 -175v-290q0 -38 4.5 -59t14.5 -31.5t25 -12.5t35 -2
q8 0 15 -8.5t7 -22.5z" />
    <glyph glyph-name="brokenbar" unicode="&#xa6;" horiz-adv-x="463" 
d="M102 1630q0 44 35 44h185q35 0 35 -44v-830q0 -43 -35 -43h-185q-16 0 -25.5 10.5t-9.5 32.5v830zM102 484q0 43 35 43h185q35 0 35 -43v-833q0 -43 -35 -43h-185q-35 0 -35 43v833z" />
    <glyph glyph-name="semicolon" unicode=";" horiz-adv-x="433" 
d="M84 1159q0 20 10 29t21 9h192q20 0 26.5 -13t6.5 -25v-166q0 -20 -12.5 -28t-19.5 -8h-192q-8 0 -20 7t-12 28v167zM85 190q0 26 11.5 38t30.5 12h170q44 0 44 -48v-131q0 -58 -10.5 -99t-26 -69t-33.5 -46t-32 -29q-10 -8 -20.5 -10t-24.5 9l-38 32q-9 7 -10.5 14t0 13
t6 11t7.5 8q22 22 33 45t11 40q0 7 -2 13.5t-10 6.5h-68q-15 0 -26.5 10.5t-11.5 33.5v146z" />
    <glyph glyph-name="Eth" unicode="&#xd0;" horiz-adv-x="990" 
d="M142 583h-82q-5 0 -16 6.5t-11 22.5v153q0 14 10 22t18 8h81v592q0 18 9.5 28.5t27.5 10.5h353q82 0 151.5 -24t120.5 -70t79.5 -114t28.5 -156v-696q0 -89 -28.5 -156.5t-79 -114t-119 -70.5t-148.5 -25h-358q-37 0 -37 39v544zM398 1182v-387h3q9 0 18 -7.5t9 -21.5
v-154q0 -13 -10 -21t-18 -8h-2v-339h135q56 0 89 37t33 92v678q0 66 -33.5 98.5t-89.5 32.5h-134z" />
    <glyph glyph-name="C" unicode="C" horiz-adv-x="886" 
d="M69 1092q0 76 28 141.5t78.5 113.5t121.5 75t157 27q96 0 166 -31t115.5 -82t68 -116t22.5 -133v-99q0 -24 -7 -34t-27 -10h-186q-19 0 -26 9t-6 31v94q0 24 -8.5 46.5t-24.5 40.5t-39 29t-51 11q-29 0 -52 -10t-39.5 -27t-25.5 -39.5t-9 -47.5v-732q0 -25 9 -48t26 -41
t41 -28.5t53 -10.5t52 10.5t39 28.5t24.5 41t8.5 48v122q0 23 7.5 31.5t24.5 8.5h187q19 0 26.5 -7.5t7.5 -30.5v-139q0 -84 -29.5 -150t-80.5 -112t-119.5 -70.5t-147.5 -24.5t-149 24.5t-122.5 70.5t-83 112.5t-30.5 149.5v758v0z" />
    <glyph glyph-name="D" unicode="D" horiz-adv-x="931" 
d="M92 1387q0 18 9.5 28.5t27.5 10.5h357q81 -1 150 -25t119 -70t78.5 -113.5t28.5 -155.5v-696q0 -89 -28.5 -156.5t-78.5 -114t-118.5 -70.5t-149.5 -25h-358q-37 0 -37 39v1348zM349 1182v-938h133q57 0 90.5 37t33.5 92v678q0 66 -34 98.5t-90 32.5h-133z" />
    <glyph glyph-name="hyphen" unicode="-" horiz-adv-x="643" 
d="M53 659q0 14 9.5 22.5t18.5 8.5h481q11 0 19.5 -8t8.5 -22v-140q0 -13 -10 -21t-19 -8h-481q-6 0 -16.5 7t-10.5 22v139z" />
    </font>
</defs>
</svg>
